<?xml version="1.0" encoding="UTF-8" standalone="no"?>
<!-- Created with Inkscape (http://www.inkscape.org/) -->

<svg
   xmlns:dc="http://purl.org/dc/elements/1.1/"
   xmlns:cc="http://creativecommons.org/ns#"
   xmlns:rdf="http://www.w3.org/1999/02/22-rdf-syntax-ns#"
   xmlns:svg="http://www.w3.org/2000/svg"
   xmlns="http://www.w3.org/2000/svg"
   xmlns:sodipodi="http://sodipodi.sourceforge.net/DTD/sodipodi-0.dtd"
   xmlns:inkscape="http://www.inkscape.org/namespaces/inkscape"
   width="14.111111mm"
   height="14.111111mm"
   viewBox="0 0 49.999998 49.999998"
   id="svg19977"
   version="1.1"
   inkscape:version="0.91 r"
   sodipodi:docname="wings.svg">
  <defs
     id="defs19979" />
  <sodipodi:namedview
     id="base"
     pagecolor="#ffffff"
     bordercolor="#666666"
     borderopacity="1.0"
     inkscape:pageopacity="0.0"
     inkscape:pageshadow="2"
     inkscape:zoom="5.6"
     inkscape:cx="100.23924"
     inkscape:cy="2.3681717"
     inkscape:document-units="px"
     inkscape:current-layer="layer1"
     showgrid="false"
     fit-margin-top="0"
     fit-margin-left="0"
     fit-margin-right="0"
     fit-margin-bottom="0"
     inkscape:window-width="3799"
     inkscape:window-height="2136"
     inkscape:window-x="41"
     inkscape:window-y="24"
     inkscape:window-maximized="1" />
  <metadata
     id="metadata19982">
    <rdf:RDF>
      <cc:Work
         rdf:about="">
        <dc:format>image/svg+xml</dc:format>
        <dc:type
           rdf:resource="http://purl.org/dc/dcmitype/StillImage" />
        <dc:title></dc:title>
      </cc:Work>
    </rdf:RDF>
  </metadata>
  <g
     inkscape:label="Layer 1"
     inkscape:groupmode="layer"
     id="layer1"
     transform="translate(1190.7142,-244.50507)">
    <path
       id="circle6518"
       style="color:#000000;clip-rule:nonzero;display:inline;overflow:visible;visibility:visible;opacity:1;isolation:auto;mix-blend-mode:normal;color-interpolation:sRGB;color-interpolation-filters:linearRGB;solid-color:#000000;solid-opacity:1;fill:#e43232;fill-opacity:1;fill-rule:evenodd;stroke:none;stroke-width:10.62992096;stroke-linecap:round;stroke-linejoin:round;stroke-miterlimit:4;stroke-dasharray:21.25984192, 10.62992096;stroke-dashoffset:0;stroke-opacity:1;color-rendering:auto;image-rendering:auto;shape-rendering:auto;text-rendering:auto;enable-background:accumulate"
       d="m -1158.4585,269.49883 c 0,1.0355 -0.8394,1.8749 -1.8749,1.8749 -1.0355,0 -1.875,-0.8394 -1.875,-1.8749 0,-1.0355 0.8395,-1.875 1.875,-1.875 1.0355,0 1.8749,0.8395 1.8749,1.875 z m -6.987,0.5133 c -10e-5,1.0354 -0.8395,1.8748 -1.8749,1.8748 -1.0355,0 -1.8749,-0.8394 -1.875,-1.8748 0,-1.0355 0.8394,-1.875 1.875,-1.875 1.0355,0 1.8749,0.8395 1.8749,1.875 z m -19.059,-9.7503 c -0.413,-0.012 -2.1184,0.5576 -2.2176,0.7409 -0.1482,0.2741 0.8805,3.4446 1.6874,5.2008 l 0.7264,1.5808 -0.1638,0.6885 c -0.1037,0.4365 -0.116,0.9599 -0.034,1.4285 l 0.1297,0.7395 -0.9593,0.834 c -0.9989,0.8687 -1.4938,1.2697 -1.9485,1.7068 0.013,0.5224 0.2778,1.4651 0.7245,1.8443 2.9205,-0.7348 5.3562,-2.124 5.9645,-1.9635 2.0081,0.4558 3.4621,0.7384 6.1114,1.063 1.06,0.1298 2.0894,0.2605 2.2874,0.2905 0.3496,0.053 0.3316,0.074 -0.6101,0.7588 -0.5336,0.3874 -1.5492,1.1869 -2.257,1.7768 -0.5258,0.4379 -1.2848,1.0595 -1.9168,1.5707 -0.4096,0.2565 -0.6012,0.9116 -0.6196,1.4298 l -0.085,3.3775 c 0.016,0.4291 0.1082,0.6105 0.6439,0.5106 1.3544,-0.3048 3.7502,-1.0533 4.8316,-1.5344 2.7904,-1.2411 7.3591,-3.8895 10.3243,-5.9849 l 1.9938,-1.4089 1.3646,-0.093 c 3.9265,-0.2672 6.9439,-0.6954 8.8641,-1.258 1.3357,-0.3914 3.0584,-1.2324 3.6721,-1.7928 2.7135,-2.105 2.4923,-3.7476 -1.0398,-5.4029 -0.7719,-0.3321 -0.9633,-0.2829 -1.6019,0.4121 -1.0436,1.1357 -2.4537,1.9844 -4.3593,2.5096 -1.0045,-0.4772 -1.2782,-0.7613 -1.4604,-1.1727 -0.1,-0.605 -0.1324,-1.1567 -0.072,-1.2261 0.06,-0.069 0.6174,-0.2762 1.2379,-0.4597 1.213,-0.3584 1.9589,-0.7737 2.8009,-1.5592 0.2766,-0.258 0.5171,-0.4921 0.5345,-0.5203 -2.9058,-2.7044 -14.0102,-0.1865 -18.8167,0.6239 -1.5201,0.2258 -10.4601,1.3935 -10.4931,1.3703 -0.023,-0.016 -1.1518,-1.3891 -2.5089,-3.0513 -1.8927,-2.3183 -2.5298,-3.0239 -2.735,-3.0301 z m 15.4458,-4.7417 -1.2167,2.9104 c -0.2,0.4051 -0.1741,0.7858 -0.112,1.0937 0.308,1.3359 1.1125,3.7295 1.575,4.626 2.9592,-0.7083 5.9482,-1.2107 8.9763,-1.6111 -1.1472,-1.1965 -4.399,-4.4324 -5.5024,-5.3635 -1.4764,-1.2459 -2.4538,-1.8825 -3.2054,-2.0273 -0.2147,-0.045 -0.4598,0.2168 -0.5148,0.3718 z"
       inkscape:connector-curvature="0"
       sodipodi:nodetypes="cscscsssssccccccccccccccccccccsccccccccccccccscccccccscc" />
  </g>
</svg>
