<?xml version="1.0" encoding="UTF-8" standalone="no"?>
<!-- Created with Inkscape (http://www.inkscape.org/) -->

<svg
   xmlns:dc="http://purl.org/dc/elements/1.1/"
   xmlns:cc="http://creativecommons.org/ns#"
   xmlns:rdf="http://www.w3.org/1999/02/22-rdf-syntax-ns#"
   xmlns:svg="http://www.w3.org/2000/svg"
   xmlns="http://www.w3.org/2000/svg"
   xmlns:sodipodi="http://sodipodi.sourceforge.net/DTD/sodipodi-0.dtd"
   xmlns:inkscape="http://www.inkscape.org/namespaces/inkscape"
   width="14.111112mm"
   height="14.111112mm"
   viewBox="0 0 14.111112 14.111112"
   version="1.1"
   id="svg8469"
   inkscape:version="0.92.0 unknown"
   sodipodi:docname="unknown.svg">
  <defs
     id="defs8463" />
  <sodipodi:namedview
     id="base"
     pagecolor="#ffffff"
     bordercolor="#666666"
     borderopacity="1.0"
     inkscape:pageopacity="0.0"
     inkscape:pageshadow="2"
     inkscape:zoom="7.9195959"
     inkscape:cx="21.936545"
     inkscape:cy="-63.079381"
     inkscape:document-units="mm"
     inkscape:current-layer="layer1"
     showgrid="false"
     fit-margin-top="0"
     fit-margin-left="0"
     fit-margin-right="0"
     fit-margin-bottom="0"
     inkscape:window-width="3799"
     inkscape:window-height="2136"
     inkscape:window-x="41"
     inkscape:window-y="24"
     inkscape:window-maximized="1" />
  <metadata
     id="metadata8466">
    <rdf:RDF>
      <cc:Work
         rdf:about="">
        <dc:format>image/svg+xml</dc:format>
        <dc:type
           rdf:resource="http://purl.org/dc/dcmitype/StillImage" />
        <dc:title />
      </cc:Work>
    </rdf:RDF>
  </metadata>
  <g
     inkscape:label="Layer 1"
     inkscape:groupmode="layer"
     id="layer1"
     transform="translate(-10.331349,165.89484)">
    <g
       id="g8449"
       transform="matrix(0.28222223,0,0,0.28222223,48.648659,1026.5783)">
      <path
         inkscape:connector-curvature="0"
         d="m -111.55321,-4193.1813 c -1.00128,0 -1.94159,0.4031 -2.63244,1.1225 -0.68986,0.6941 -1.06823,1.6264 -1.06823,2.6163 0,0.9757 0.38128,1.9005 1.06221,2.6124 0.69131,0.7228 1.6347,1.1264 2.63846,1.1264 0.50526,0 1.00236,-0.097 1.46179,-0.2931 a 0.87107191,0.87107191 0 0 0 0.0462,-0.022 c 0.42341,-0.2117 0.8016,-0.4782 1.12044,-0.7971 0.34719,-0.3472 0.62491,-0.7539 0.81724,-1.2028 0.19369,-0.452 0.29317,-0.9359 0.29317,-1.4236 0,-0.9958 -0.39966,-1.9317 -1.11442,-2.6225 -0.69083,-0.7147 -1.62714,-1.1163 -2.62441,-1.1163 z m 0.48593,-21.71 c -1.34158,0 -2.53455,0.1846 -3.57417,0.5763 -0.99057,0.3489 -1.84208,0.8009 -2.53405,1.3774 -0.67156,0.5596 -1.19816,1.1994 -1.55617,1.9136 -0.34217,0.6587 -0.54415,1.3255 -0.54415,1.9939 0,0.4701 0.0798,0.9196 0.26505,1.3273 a 0.87107191,0.87107191 0 0 0 0.0462,0.088 c 0.20057,0.3343 0.4607,0.6321 0.77105,0.8735 0.28287,0.2201 0.59008,0.4011 0.91764,0.5321 a 0.87107191,0.87107191 0 0 0 0.0944,0.03 c 0.34062,0.092 0.6796,0.1426 1.01201,0.1426 0.6694,0 1.36687,-0.2484 1.77705,-0.7951 0.22652,-0.3022 0.46372,-0.6273 0.71282,-0.976 0.20187,-0.2752 0.48142,-0.5377 0.84937,-0.785 0.25203,-0.1578 0.80256,-0.3113 1.65054,-0.3113 0.81262,0 1.42416,0.1758 1.90756,0.492 a 0.87107191,0.87107191 0 0 0 0.0201,0.012 c 0.40476,0.249 0.55219,0.5031 0.55219,1.1566 0,0.3525 -0.0794,0.646 -0.25099,0.9377 a 0.87107191,0.87107191 0 0 0 -0.008,0.014 c -0.18132,0.3222 -0.4176,0.6303 -0.71484,0.9277 -0.2914,0.2913 -0.61924,0.5763 -0.9859,0.8513 -0.38065,0.2793 -0.72867,0.5481 -1.04214,0.8092 -0.31071,0.255 -0.62058,0.554 -0.93771,0.8976 -0.35215,0.3814 -0.66294,0.8231 -0.93973,1.3212 a 0.87107191,0.87107191 0 0 0 -0.0181,0.034 c -0.25468,0.5094 -0.47114,1.0927 -0.6566,1.7551 a 0.87107191,0.87107191 0 0 0 -0.006,0.024 c -0.17122,0.6849 -0.24899,1.4487 -0.24899,2.2971 0,1.058 0.10116,1.8896 0.65861,2.5401 0.53917,0.6289 1.36115,0.8252 2.26096,0.8252 1.02051,0 1.86773,-0.1032 2.45172,-0.7931 a 0.87107191,0.87107191 0 0 0 0.0201,-0.024 c 0.3599,-0.4581 0.59637,-1.0045 0.59637,-1.5802 0,-0.4554 0.0126,-0.8719 0.0361,-1.249 0.0198,-0.3162 0.0777,-0.597 0.16867,-0.8573 0.11564,-0.2863 0.27789,-0.5702 0.50199,-0.8555 a 0.87107191,0.87107191 0 0 0 0.0181,-0.022 c 0.20353,-0.2775 0.54238,-0.6154 1.01803,-0.9778 a 0.87107191,0.87107191 0 0 0 0.0161,-0.012 c 0.26053,-0.2085 0.62046,-0.5087 1.09434,-0.9077 a 0.87107191,0.87107191 0 0 0 0.0201,-0.019 c 0.51343,-0.4595 1.00818,-0.9938 1.48187,-1.5984 0.51809,-0.6543 0.94984,-1.3879 1.29915,-2.1907 0.40007,-0.8602 0.60239,-1.7983 0.60239,-2.781 0,-0.9955 -0.2375,-1.9472 -0.69475,-2.8111 -0.42801,-0.879 -1.04445,-1.6427 -1.82925,-2.2611 -0.76905,-0.6251 -1.70337,-1.0918 -2.77701,-1.4155 -1.06695,-0.3543 -2.23614,-0.5281 -3.50188,-0.5281 z"
         style="font-style:normal;font-variant:normal;font-weight:800;font-stretch:normal;font-size:medium;line-height:125%;font-family:Dosis;-inkscape-font-specification:'Dosis Ultra-Bold';text-align:start;letter-spacing:0px;word-spacing:0px;writing-mode:lr-tb;text-anchor:start;fill:#000000;fill-opacity:1;stroke:none;stroke-width:1px;stroke-linecap:butt;stroke-linejoin:miter;stroke-opacity:1"
         id="path8440" />
      <rect
         transform="matrix(0.22066847,0,0,0.22066847,-75.359776,-3476.7133)"
         style="color:#000000;clip-rule:nonzero;display:inline;overflow:visible;visibility:visible;opacity:1;isolation:auto;mix-blend-mode:normal;color-interpolation:sRGB;color-interpolation-filters:linearRGB;solid-color:#000000;solid-opacity:1;fill:none;fill-opacity:1;fill-rule:evenodd;stroke:#020202;stroke-width:23.12749672;stroke-linecap:round;stroke-linejoin:round;stroke-miterlimit:4;stroke-dasharray:none;stroke-dashoffset:0;stroke-opacity:1;color-rendering:auto;image-rendering:auto;shape-rendering:auto;text-rendering:auto;enable-background:accumulate"
         id="rect8413"
         width="170.30847"
         height="170.30847"
         x="-245.62236"
         y="-3364.2131"
         rx="30.793785"
         ry="30.793785"
         clip-path="none" />
    </g>
  </g>
</svg>
