<?xml version="1.0" encoding="UTF-8" standalone="no"?>
<!-- Created with Inkscape (http://www.inkscape.org/) -->

<svg
   xmlns:dc="http://purl.org/dc/elements/1.1/"
   xmlns:cc="http://creativecommons.org/ns#"
   xmlns:rdf="http://www.w3.org/1999/02/22-rdf-syntax-ns#"
   xmlns:svg="http://www.w3.org/2000/svg"
   xmlns="http://www.w3.org/2000/svg"
   xmlns:sodipodi="http://sodipodi.sourceforge.net/DTD/sodipodi-0.dtd"
   xmlns:inkscape="http://www.inkscape.org/namespaces/inkscape"
   width="16.933338mm"
   height="16.933338mm"
   viewBox="0 0 16.933338 16.933338"
   version="1.1"
   id="svg13247"
   inkscape:version="0.92.2 (unknown)"
   sodipodi:docname="bug.svg">
  <defs
     id="defs13241" />
  <sodipodi:namedview
     id="base"
     pagecolor="#ffffff"
     bordercolor="#666666"
     borderopacity="1.0"
     inkscape:pageopacity="0.0"
     inkscape:pageshadow="2"
     inkscape:zoom="7.9195959"
     inkscape:cx="23.519263"
     inkscape:cy="-32.023247"
     inkscape:document-units="mm"
     inkscape:current-layer="layer1"
     showgrid="false"
     fit-margin-top="0"
     fit-margin-left="0"
     fit-margin-right="0"
     fit-margin-bottom="0"
     inkscape:window-width="3799"
     inkscape:window-height="2136"
     inkscape:window-x="41"
     inkscape:window-y="24"
     inkscape:window-maximized="1" />
  <metadata
     id="metadata13244">
    <rdf:RDF>
      <cc:Work
         rdf:about="">
        <dc:format>image/svg+xml</dc:format>
        <dc:type
           rdf:resource="http://purl.org/dc/dcmitype/StillImage" />
        <dc:title></dc:title>
      </cc:Work>
    </rdf:RDF>
  </metadata>
  <g
     inkscape:label="Layer 1"
     inkscape:groupmode="layer"
     id="layer1"
     transform="translate(53.06786,46.353573)">
    <path
       inkscape:connector-curvature="0"
       style="color:#000000;font-style:normal;font-variant:normal;font-weight:normal;font-stretch:normal;font-size:medium;line-height:normal;font-family:sans-serif;font-variant-ligatures:normal;font-variant-position:normal;font-variant-caps:normal;font-variant-numeric:normal;font-variant-alternates:normal;font-feature-settings:normal;text-indent:0;text-align:start;text-decoration:none;text-decoration-line:none;text-decoration-style:solid;text-decoration-color:#000000;letter-spacing:normal;word-spacing:normal;text-transform:none;writing-mode:lr-tb;direction:ltr;text-orientation:mixed;dominant-baseline:auto;baseline-shift:baseline;text-anchor:start;white-space:normal;shape-padding:0;clip-rule:nonzero;display:inline;overflow:visible;visibility:visible;opacity:1;isolation:auto;mix-blend-mode:normal;color-interpolation:sRGB;color-interpolation-filters:linearRGB;solid-color:#000000;solid-opacity:1;vector-effect:none;fill:#000000;fill-opacity:1;fill-rule:evenodd;stroke:none;stroke-width:1.13993597;stroke-linecap:round;stroke-linejoin:miter;stroke-miterlimit:4;stroke-dasharray:none;stroke-dashoffset:0;stroke-opacity:1;color-rendering:auto;image-rendering:auto;shape-rendering:auto;text-rendering:auto;enable-background:accumulate"
       d="m -44.677655,-44.889127 a 2.8715753,2.8715753 0 0 0 -2.871551,2.8716 2.8715753,2.8715753 0 0 0 10e-4,0.04 h 5.73975 a 2.8715753,2.8715753 0 0 0 0.002,-0.04 2.8715753,2.8715753 0 0 0 -2.871746,-2.8716 z m 5.641049,2.3306 a 0.57002487,0.57002487 0 0 0 -10e-4,0 0.57002487,0.57002487 0 0 0 -0.39204,0.1726 l -1.53661,1.537 h -7.26969 l -1.53698,-1.537 a 0.57002487,0.57002487 0 0 0 -0.40874,-0.1726 0.57002487,0.57002487 0 0 0 -0.39686,0.9789 l 1.23382,1.2338 v 3.0536 h -1.88598 a 0.57002487,0.57002487 0 1 0 0,1.139599 h 1.88672 a 4.6674535,4.6674535 0 0 0 0.66923,2.383001 l -1.90379,1.904299 a 0.57002487,0.57002487 0 1 0 0.8056,0.8064 l 1.80378,-1.8038 a 4.6674535,4.6674535 0 0 0 2.72201,1.321 v -7.850699 a 0.57002489,0.57002489 0 0 1 0.56106,-0.5778 0.57002489,0.57002489 0 0 1 0.578501,0.5778 v 7.852399 a 4.6674535,4.6674535 0 0 0 2.798449,-1.3989 l 1.87948,1.88 a 0.57025693,0.57025693 0 1 0 0.80653,-0.8064 l -2.00064,-2.0006 a 4.6674535,4.6674535 0 0 0 0.61338,-2.2867 h 2.03868 a 0.57002487,0.57002487 0 1 0 0,-1.139599 h -2.03812 v -2.901 l 1.3867,-1.3864 a 0.57002487,0.57002487 0 0 0 -0.41319,-0.979 z"
       id="path12945" />
  </g>
</svg>
