<?xml version="1.0" encoding="UTF-8" standalone="no"?>
<!-- Created with Inkscape (http://www.inkscape.org/) -->

<svg
   xmlns:dc="http://purl.org/dc/elements/1.1/"
   xmlns:cc="http://creativecommons.org/ns#"
   xmlns:rdf="http://www.w3.org/1999/02/22-rdf-syntax-ns#"
   xmlns:svg="http://www.w3.org/2000/svg"
   xmlns="http://www.w3.org/2000/svg"
   xmlns:sodipodi="http://sodipodi.sourceforge.net/DTD/sodipodi-0.dtd"
   xmlns:inkscape="http://www.inkscape.org/namespaces/inkscape"
   width="50"
   height="50"
   viewBox="0 0 50.000001 50.000001"
   id="svg6881"
   version="1.1"
   inkscape:version="0.91 r"
   sodipodi:docname="connection_off.svg">
  <defs
     id="defs6883" />
  <sodipodi:namedview
     id="base"
     pagecolor="#ffffff"
     bordercolor="#666666"
     borderopacity="1.0"
     inkscape:pageopacity="0.0"
     inkscape:pageshadow="2"
     inkscape:zoom="0.39890015"
     inkscape:cx="-387.35277"
     inkscape:cy="-852.21791"
     inkscape:document-units="px"
     inkscape:current-layer="layer1"
     showgrid="false"
     units="px"
     fit-margin-top="0"
     fit-margin-left="0"
     fit-margin-right="0"
     fit-margin-bottom="0"
     inkscape:window-width="1879"
     inkscape:window-height="1056"
     inkscape:window-x="41"
     inkscape:window-y="24"
     inkscape:window-maximized="1" />
  <metadata
     id="metadata6886">
    <rdf:RDF>
      <cc:Work
         rdf:about="">
        <dc:format>image/svg+xml</dc:format>
        <dc:type
           rdf:resource="http://purl.org/dc/dcmitype/StillImage" />
        <dc:title></dc:title>
      </cc:Work>
    </rdf:RDF>
  </metadata>
  <g
     inkscape:label="Layer 1"
     inkscape:groupmode="layer"
     id="layer1"
     transform="translate(-135,-587.36218)">
    <g
       id="g6856"
       transform="matrix(1.2649163,0,0,1.2591922,121.87463,5513.7036)">
      <path
         inkscape:connector-curvature="0"
         id="path6795"
         d="m 15.095703,-3888.9961 a 3.0002998,3.0002998 0 0 0 -2.955078,3.041 l 0,3.5606 a 3.0002998,3.0002998 0 1 0 6,0 l 0,-3.5606 a 3.0002998,3.0002998 0 0 0 -3.044922,-3.041 z"
         style="color:#000000;font-style:normal;font-variant:normal;font-weight:normal;font-stretch:normal;font-size:medium;line-height:normal;font-family:sans-serif;text-indent:0;text-align:start;text-decoration:none;text-decoration-line:none;text-decoration-style:solid;text-decoration-color:#000000;letter-spacing:normal;word-spacing:normal;text-transform:none;direction:ltr;block-progression:tb;writing-mode:lr-tb;baseline-shift:baseline;text-anchor:start;white-space:normal;clip-rule:nonzero;display:inline;overflow:visible;visibility:visible;opacity:1;isolation:auto;mix-blend-mode:normal;color-interpolation:sRGB;color-interpolation-filters:linearRGB;solid-color:#000000;solid-opacity:1;fill:none;fill-opacity:1;fill-rule:evenodd;stroke:#000000;stroke-width:1.58472204;stroke-linecap:round;stroke-linejoin:round;stroke-miterlimit:4;stroke-dasharray:none;stroke-dashoffset:0;stroke-opacity:1;color-rendering:auto;image-rendering:auto;shape-rendering:auto;text-rendering:auto;enable-background:accumulate" />
      <path
         inkscape:connector-curvature="0"
         id="path6799"
         d="m 25.095703,-3894.4941 a 3.0002998,3.0002998 0 0 0 -2.955078,3.041 l 0,9.0586 a 3.0002998,3.0002998 0 1 0 6,0 l 0,-9.0586 a 3.0002998,3.0002998 0 0 0 -3.044922,-3.041 z"
         style="color:#000000;font-style:normal;font-variant:normal;font-weight:normal;font-stretch:normal;font-size:medium;line-height:normal;font-family:sans-serif;text-indent:0;text-align:start;text-decoration:none;text-decoration-line:none;text-decoration-style:solid;text-decoration-color:#000000;letter-spacing:normal;word-spacing:normal;text-transform:none;direction:ltr;block-progression:tb;writing-mode:lr-tb;baseline-shift:baseline;text-anchor:start;white-space:normal;clip-rule:nonzero;display:inline;overflow:visible;visibility:visible;opacity:1;isolation:auto;mix-blend-mode:normal;color-interpolation:sRGB;color-interpolation-filters:linearRGB;solid-color:#000000;solid-opacity:1;fill:none;fill-opacity:1;fill-rule:evenodd;stroke:#000000;stroke-width:1.58472204;stroke-linecap:round;stroke-linejoin:round;stroke-miterlimit:4;stroke-dasharray:none;stroke-dashoffset:0;stroke-opacity:1;color-rendering:auto;image-rendering:auto;shape-rendering:auto;text-rendering:auto;enable-background:accumulate" />
      <path
         inkscape:connector-curvature="0"
         id="path6801"
         d="m 35.095703,-3899.9941 a 3.0002998,3.0002998 0 0 0 -2.955078,3.0429 l 0,14.5567 a 3.0002998,3.0002998 0 1 0 6,0 l 0,-14.5567 a 3.0002998,3.0002998 0 0 0 -3.044922,-3.0429 z"
         style="color:#000000;font-style:normal;font-variant:normal;font-weight:normal;font-stretch:normal;font-size:medium;line-height:normal;font-family:sans-serif;text-indent:0;text-align:start;text-decoration:none;text-decoration-line:none;text-decoration-style:solid;text-decoration-color:#000000;letter-spacing:normal;word-spacing:normal;text-transform:none;direction:ltr;block-progression:tb;writing-mode:lr-tb;baseline-shift:baseline;text-anchor:start;white-space:normal;clip-rule:nonzero;display:inline;overflow:visible;visibility:visible;opacity:1;isolation:auto;mix-blend-mode:normal;color-interpolation:sRGB;color-interpolation-filters:linearRGB;solid-color:#000000;solid-opacity:1;fill:none;fill-opacity:1;fill-rule:evenodd;stroke:#000000;stroke-width:1.58472204;stroke-linecap:round;stroke-linejoin:round;stroke-miterlimit:4;stroke-dasharray:none;stroke-dashoffset:0;stroke-opacity:1;color-rendering:auto;image-rendering:auto;shape-rendering:auto;text-rendering:auto;enable-background:accumulate" />
      <path
         inkscape:connector-curvature="0"
         id="path6805"
         d="m 45.095703,-3905.4922 a 3.0002998,3.0002998 0 0 0 -2.955078,3.043 l 0,20.0547 a 3.0002998,3.0002998 0 1 0 6,0 l 0,-20.0547 a 3.0002998,3.0002998 0 0 0 -3.044922,-3.043 z"
         style="color:#000000;font-style:normal;font-variant:normal;font-weight:normal;font-stretch:normal;font-size:medium;line-height:normal;font-family:sans-serif;text-indent:0;text-align:start;text-decoration:none;text-decoration-line:none;text-decoration-style:solid;text-decoration-color:#000000;letter-spacing:normal;word-spacing:normal;text-transform:none;direction:ltr;block-progression:tb;writing-mode:lr-tb;baseline-shift:baseline;text-anchor:start;white-space:normal;clip-rule:nonzero;display:inline;overflow:visible;visibility:visible;opacity:1;isolation:auto;mix-blend-mode:normal;color-interpolation:sRGB;color-interpolation-filters:linearRGB;solid-color:#000000;solid-opacity:1;fill:none;fill-opacity:1;fill-rule:evenodd;stroke:#000000;stroke-width:1.58472204;stroke-linecap:round;stroke-linejoin:round;stroke-miterlimit:4;stroke-dasharray:none;stroke-dashoffset:0;stroke-opacity:1;color-rendering:auto;image-rendering:auto;shape-rendering:auto;text-rendering:auto;enable-background:accumulate" />
      <path
         style="display:inline;fill:#000000;fill-opacity:1"
         d="m 16.18319,-3895.4428 1.406997,-1.3846 0.85984,0.925 c 1.199892,1.2909 1.954986,1.844 2.517252,1.844 0.380061,0 0.629024,-0.1626 1.466584,-0.9581 1.093108,-1.0383 1.39627,-1.5575 1.250033,-2.14 -0.05208,-0.2075 -0.677539,-0.9673 -1.409084,-1.7121 l -1.315436,-1.3387 1.2421,-1.2599 c 0.683151,-0.6929 1.314368,-1.4017 1.40271,-1.575 0.28006,-0.5496 0.03789,-1.1263 -0.86054,-2.0499 -1.64295,-1.6889 -1.878658,-1.6799 -3.729441,0.1413 l -1.416469,1.3938 -1.34076,-1.3356 c -1.168001,-1.1636 -1.413563,-1.3455 -1.905906,-1.4115 -0.55454,-0.074 -0.585668,-0.056 -1.6576,0.9871 -1.121639,1.0916 -1.375995,1.5838 -1.163849,2.2523 0.05244,0.1651 0.641515,0.8616 1.309088,1.5476 0.66756,0.6861 1.214113,1.2994 1.214539,1.363 0,0.063 -0.582812,0.7182 -1.296105,1.4542 -1.173788,1.2115 -1.296899,1.3875 -1.296899,1.855 0,0.4652 0.112679,0.6292 1.135031,1.6516 1.027294,1.0272 1.184655,1.1349 1.657967,1.1349 0.479402,0 0.640134,-0.1151 1.929948,-1.3844 z"
         id="path6745-2"
         inkscape:connector-curvature="0" />
    </g>
  </g>
</svg>
