<?xml version="1.0" encoding="UTF-8" standalone="no"?>
<!-- Created with Inkscape (http://www.inkscape.org/) -->

<svg
   xmlns:dc="http://purl.org/dc/elements/1.1/"
   xmlns:cc="http://creativecommons.org/ns#"
   xmlns:rdf="http://www.w3.org/1999/02/22-rdf-syntax-ns#"
   xmlns:svg="http://www.w3.org/2000/svg"
   xmlns="http://www.w3.org/2000/svg"
   xmlns:sodipodi="http://sodipodi.sourceforge.net/DTD/sodipodi-0.dtd"
   xmlns:inkscape="http://www.inkscape.org/namespaces/inkscape"
   width="14.111111mm"
   height="14.111111mm"
   viewBox="0 0 49.999998 49.999998"
   id="svg6922"
   version="1.1"
   inkscape:version="0.91 r"
   sodipodi:docname="focus.svg">
  <defs
     id="defs6924" />
  <sodipodi:namedview
     id="base"
     pagecolor="#ffffff"
     bordercolor="#666666"
     borderopacity="1.0"
     inkscape:pageopacity="0.0"
     inkscape:pageshadow="2"
     inkscape:zoom="5.6"
     inkscape:cx="99.914309"
     inkscape:cy="0.8741226"
     inkscape:document-units="px"
     inkscape:current-layer="layer1"
     showgrid="false"
     fit-margin-top="0"
     fit-margin-left="0"
     fit-margin-right="0"
     fit-margin-bottom="0"
     inkscape:window-width="1879"
     inkscape:window-height="1056"
     inkscape:window-x="41"
     inkscape:window-y="24"
     inkscape:window-maximized="1" />
  <metadata
     id="metadata6927">
    <rdf:RDF>
      <cc:Work
         rdf:about="">
        <dc:format>image/svg+xml</dc:format>
        <dc:type
           rdf:resource="http://purl.org/dc/dcmitype/StillImage" />
        <dc:title></dc:title>
      </cc:Work>
    </rdf:RDF>
  </metadata>
  <g
     inkscape:label="Layer 1"
     inkscape:groupmode="layer"
     id="layer1"
     transform="translate(585,-767.36218)">
    <path
       style="fill:#000000"
       d="m -578.60644,812.30728 c -1.43939,-0.4973 -2.67072,-1.3797 -3.49582,-2.5051 -1.10243,-1.5037 -1.34111,-2.4541 -1.46443,-5.8307 l -0.11117,-3.0443 1.78239,0 1.78239,0 0,2.7212 c 0,3.2801 0.31378,4.1853 1.7407,5.0215 0.82099,0.4811 1.05743,0.5131 3.79846,0.5131 l 2.92298,0 0,1.7543 0,1.7544 -2.94111,-0.01 c -2.28107,-0.01 -3.18198,-0.09 -4.01439,-0.3776 z m 30.48437,-1.3519 0,-1.7724 2.89976,0 c 3.07815,0 3.58614,-0.1213 4.46896,-1.0668 0.87816,-0.9405 1.09342,-1.8466 1.09342,-4.6024 l 0,-2.5866 1.6689,0 1.66891,0 -0.0721,3.3539 c -0.0687,3.1951 -0.0992,3.4056 -0.64399,4.4445 -0.76185,1.4531 -1.99468,2.6496 -3.41671,3.3163 -1.07812,0.5055 -1.40994,0.5518 -4.4164,0.6163 l -3.25071,0.07 0,-1.7725 z m -14.65395,-7.6395 c -4.72047,-1.3091 -8.10069,-5.3974 -8.40962,-10.1714 -0.22069,-3.4105 0.87507,-6.3733 3.21972,-8.7058 4.54746,-4.5239 11.50705,-4.5809 16.00882,-0.1312 4.38037,4.3298 4.53717,11.2413 0.3552,15.6567 -2.35768,2.4892 -5.04114,3.6591 -8.321,3.6277 -1.05839,-0.01 -2.34229,-0.1344 -2.85312,-0.276 z m 2.88951,-10.954 0,-9.8037 -0.67078,0 c -3.12304,0.023 -6.59275,2.3523 -8.0975,5.4349 -1.4173,2.9034 -1.41217,5.9291 0.0149,8.7816 1.48857,2.9755 4.93533,5.2338 8.18582,5.3633 l 0.56758,0.022 0,-9.8037 z m -23.68564,-11.6097 c 0.0851,-2.4504 0.19339,-3.2738 0.55513,-4.221 0.58982,-1.5445 1.99912,-3.0901 3.4813,-3.8179 1.11768,-0.5489 1.34596,-0.5815 4.53088,-0.6473 l 3.3539,-0.069 0,1.6495 0,1.6496 -2.95675,0.071 c -2.84025,0.068 -2.99132,0.094 -3.83448,0.6522 -1.37999,0.9138 -1.66095,1.764 -1.66638,5.0429 l -0.005,2.7348 -1.78239,0 -1.78239,0 0.10572,-3.0444 z m 43.87997,0.1033 c -0.0637,-2.64 -0.11956,-3.0194 -0.54574,-3.7048 -0.90086,-1.4487 -1.60687,-1.7036 -4.94304,-1.784 l -2.94111,-0.071 0,-1.6496 0,-1.6495 3.3539,0.074 c 3.05327,0.068 3.44639,0.1196 4.38586,0.5788 1.31874,0.6446 2.76252,2.0884 3.40711,3.4071 0.4592,0.9395 0.51107,1.3326 0.57874,4.3858 l 0.0743,3.354 -1.64955,0 -1.64955,0 -0.071,-2.9411 z"
       id="path6910"
       inkscape:connector-curvature="0" />
  </g>
</svg>
