<?xml version="1.0" encoding="UTF-8" standalone="no"?>
<!-- Created with Inkscape (http://www.inkscape.org/) -->

<svg
   xmlns:dc="http://purl.org/dc/elements/1.1/"
   xmlns:cc="http://creativecommons.org/ns#"
   xmlns:rdf="http://www.w3.org/1999/02/22-rdf-syntax-ns#"
   xmlns:svg="http://www.w3.org/2000/svg"
   xmlns="http://www.w3.org/2000/svg"
   xmlns:sodipodi="http://sodipodi.sourceforge.net/DTD/sodipodi-0.dtd"
   xmlns:inkscape="http://www.inkscape.org/namespaces/inkscape"
   width="14.111111mm"
   height="14.111111mm"
   viewBox="0 0 49.999998 49.999998"
   id="svg9768"
   version="1.1"
   inkscape:version="0.91 r"
   sodipodi:docname="google_pluss.svg">
  <defs
     id="defs9770" />
  <sodipodi:namedview
     id="base"
     pagecolor="#ffffff"
     bordercolor="#666666"
     borderopacity="1.0"
     inkscape:pageopacity="0.0"
     inkscape:pageshadow="2"
     inkscape:zoom="1.979899"
     inkscape:cx="10.242553"
     inkscape:cy="-9.5878507"
     inkscape:document-units="px"
     inkscape:current-layer="layer1"
     showgrid="false"
     fit-margin-top="0"
     fit-margin-left="0"
     fit-margin-right="0"
     fit-margin-bottom="0"
     inkscape:window-width="1879"
     inkscape:window-height="1056"
     inkscape:window-x="41"
     inkscape:window-y="24"
     inkscape:window-maximized="1" />
  <metadata
     id="metadata9773">
    <rdf:RDF>
      <cc:Work
         rdf:about="">
        <dc:format>image/svg+xml</dc:format>
        <dc:type
           rdf:resource="http://purl.org/dc/dcmitype/StillImage" />
        <dc:title></dc:title>
      </cc:Work>
    </rdf:RDF>
  </metadata>
  <g
     inkscape:label="Layer 1"
     inkscape:groupmode="layer"
     id="layer1"
     transform="translate(2.1428571,-355.93362)">
    <path
       inkscape:connector-curvature="0"
       id="path45"
       style="fill:#000000;fill-opacity:1;fill-rule:evenodd;stroke:none;stroke-width:1"
       d="m 46.357143,378.79721 -4.272727,0 0,-4.2727 -4.272727,0 0,4.2727 -4.272728,0 0,4.2728 4.272728,0 0,4.2727 4.272727,0 0,-4.2727 4.272727,0 m -32.045453,-4.2728 0,5.1273 8.481364,0 c -0.341818,2.2005 -2.563636,6.4518 -8.481364,6.4518 -5.1059091,0 -9.2718202,-4.23 -9.2718202,-9.4427 0,-5.2127 4.1659111,-9.4427 9.2718202,-9.4427 2.905455,0 4.849546,1.2391 5.960455,2.3072 l 4.059091,-3.9095 c -2.606364,-2.4355 -5.981818,-3.9095 -10.019546,-3.9095 -8.2677272,0 -14.95454764,6.6868 -14.95454764,14.9545 0,8.2677 6.68682044,14.9545 14.95454764,14.9545 8.63091,0 14.356364,-6.0672 14.356364,-14.6127 0,-0.9827 -0.106818,-1.7304 -0.235,-2.4782 l -14.121364,0 0,0 z" />
  </g>
</svg>
