<?xml version="1.0" encoding="UTF-8" standalone="no"?>
<!-- Created with Inkscape (http://www.inkscape.org/) -->

<svg
   xmlns:dc="http://purl.org/dc/elements/1.1/"
   xmlns:cc="http://creativecommons.org/ns#"
   xmlns:rdf="http://www.w3.org/1999/02/22-rdf-syntax-ns#"
   xmlns:svg="http://www.w3.org/2000/svg"
   xmlns="http://www.w3.org/2000/svg"
   xmlns:sodipodi="http://sodipodi.sourceforge.net/DTD/sodipodi-0.dtd"
   xmlns:inkscape="http://www.inkscape.org/namespaces/inkscape"
   width="14.111111mm"
   height="14.111111mm"
   viewBox="0 0 49.999998 49.999998"
   id="svg7471"
   version="1.1"
   inkscape:version="0.91 r"
   sodipodi:docname="ignore.svg">
  <defs
     id="defs7473" />
  <sodipodi:namedview
     id="base"
     pagecolor="#ffffff"
     bordercolor="#666666"
     borderopacity="1.0"
     inkscape:pageopacity="0.0"
     inkscape:pageshadow="2"
     inkscape:zoom="1.979899"
     inkscape:cx="131.47956"
     inkscape:cy="21.212043"
     inkscape:document-units="px"
     inkscape:current-layer="layer1"
     showgrid="false"
     fit-margin-top="0"
     fit-margin-left="0"
     fit-margin-right="0"
     fit-margin-bottom="0"
     inkscape:window-width="1879"
     inkscape:window-height="1056"
     inkscape:window-x="41"
     inkscape:window-y="24"
     inkscape:window-maximized="1" />
  <metadata
     id="metadata7476">
    <rdf:RDF>
      <cc:Work
         rdf:about="">
        <dc:format>image/svg+xml</dc:format>
        <dc:type
           rdf:resource="http://purl.org/dc/dcmitype/StillImage" />
        <dc:title></dc:title>
      </cc:Work>
    </rdf:RDF>
  </metadata>
  <g
     inkscape:label="Layer 1"
     inkscape:groupmode="layer"
     id="layer1"
     transform="translate(882.14288,-681.64795)">
    <g
       transform="translate(-889.21392,4199.1782)"
       style="font-style:normal;font-variant:normal;font-weight:800;font-stretch:normal;font-size:36.22080994px;line-height:125%;font-family:Dosis;-inkscape-font-specification:'Dosis Ultra-Bold';text-align:start;letter-spacing:0px;word-spacing:0px;writing-mode:lr-tb;text-anchor:start;fill:#000000;fill-opacity:1;stroke:none;stroke-width:1px;stroke-linecap:butt;stroke-linejoin:miter;stroke-opacity:1"
       id="text6723">
      <path
         inkscape:connector-curvature="0"
         id="path6756"
         d="m 31.773904,-3507.1234 c -1.341572,0 -2.534542,0.1846 -3.574169,0.5763 -0.990562,0.3489 -1.842079,0.8009 -2.534045,1.3774 -0.67156,0.5596 -1.198157,1.1994 -1.556168,1.9136 -0.342169,0.6587 -0.544157,1.3255 -0.544157,1.9939 0,0.4701 0.07981,0.9196 0.26505,1.3273 a 0.87107191,0.87107191 0 0 0 0.04618,0.088 c 0.200572,0.3343 0.460706,0.6321 0.771056,0.8735 0.282866,0.2201 0.590077,0.4011 0.917638,0.5321 a 0.87107191,0.87107191 0 0 0 0.09438,0.03 c 0.34062,0.092 0.679597,0.1426 1.012012,0.1426 0.669397,0 1.366871,-0.2484 1.777045,-0.7951 0.226525,-0.3022 0.463722,-0.6273 0.712825,-0.976 0.201868,-0.2752 0.48142,-0.5377 0.849367,-0.785 0.25203,-0.1578 0.802563,-0.3113 1.650543,-0.3113 0.812619,0 1.424157,0.1758 1.907561,0.492 a 0.87107191,0.87107191 0 0 0 0.02008,0.012 c 0.404756,0.249 0.552189,0.5031 0.552189,1.1566 0,0.3525 -0.07939,0.646 -0.250995,0.9377 a 0.87107191,0.87107191 0 0 0 -0.008,0.014 c -0.181314,0.3222 -0.417598,0.6303 -0.714835,0.9277 -0.291401,0.2913 -0.619238,0.5763 -0.985907,0.8513 -0.380648,0.2793 -0.728665,0.5481 -1.042132,0.8092 -0.31071,0.255 -0.62058,0.554 -0.937716,0.8976 -0.352147,0.3814 -0.662935,0.8231 -0.939726,1.3212 a 0.87107191,0.87107191 0 0 0 -0.01807,0.034 c -0.254678,0.5094 -0.471138,1.0927 -0.656603,1.7551 a 0.87107191,0.87107191 0 0 0 -0.0061,0.024 c -0.171223,0.6849 -0.248988,1.4487 -0.248988,2.2971 0,1.058 0.101163,1.8896 0.658611,2.5401 0.539171,0.6289 1.361144,0.8252 2.260963,0.8252 1.020501,0 1.867729,-0.1032 2.451719,-0.7931 a 0.87107191,0.87107191 0 0 0 0.02008,-0.024 c 0.359895,-0.4581 0.596364,-1.0045 0.596364,-1.5802 0,-0.4554 0.01257,-0.8719 0.03615,-1.249 0.01976,-0.3162 0.07765,-0.597 0.168669,-0.8573 0.11564,-0.2863 0.277895,-0.5702 0.50199,-0.8555 a 0.87107191,0.87107191 0 0 0 0.01807,-0.022 c 0.203534,-0.2775 0.542383,-0.6154 1.018036,-0.9778 a 0.87107191,0.87107191 0 0 0 0.01607,-0.012 c 0.260523,-0.2085 0.620461,-0.5087 1.094338,-0.9077 a 0.87107191,0.87107191 0 0 0 0.02008,-0.019 c 0.513425,-0.4595 1.008183,-0.9938 1.481874,-1.5984 0.518084,-0.6543 0.949839,-1.3879 1.29915,-2.1907 0.400062,-0.8602 0.602388,-1.7983 0.602388,-2.781 0,-0.9955 -0.237498,-1.9472 -0.694754,-2.8111 -0.42801,-0.879 -1.044444,-1.6427 -1.829251,-2.2611 -0.769047,-0.6251 -1.703371,-1.0918 -2.777008,-1.4155 -1.066949,-0.3543 -2.236138,-0.5281 -3.501882,-0.5281 z m -0.485927,21.71 c -1.001274,0 -1.941585,0.4031 -2.632436,1.1225 -0.689859,0.6941 -1.068234,1.6264 -1.068234,2.6163 0,0.9757 0.381281,1.9005 1.062211,2.6124 0.691314,0.7228 1.634699,1.1264 2.638459,1.1264 0.505262,0 1.002357,-0.097 1.461794,-0.2931 a 0.87107191,0.87107191 0 0 0 0.04618,-0.022 c 0.423408,-0.2117 0.801602,-0.4782 1.120441,-0.7971 0.347191,-0.3472 0.624902,-0.7539 0.81724,-1.2028 0.193689,-0.452 0.293162,-0.9359 0.293162,-1.4236 0,-0.9958 -0.399659,-1.9317 -1.114417,-2.6225 -0.690826,-0.7147 -1.627134,-1.1163 -2.624404,-1.1163 z m 0.783086,-27.8812 18.32015,7.3367 0,14.7503 c 0,6.417 -9.64501,17.2154 -18.32015,19.4073 -8.67505,-2.1919 -18.31159,-12.9903 -18.31159,-19.4073 l 0,-14.7503 18.31159,-7.3367 z m 0,-2.8421 -20.8199,8.3467 0,16.7878 c -2e-5,7.3063 10.94338,19.5841 20.8199,22.0783 9.87653,-2.4942 20.81991,-14.772 20.81991,-22.0783 l 0,-16.7878 -20.81991,-8.3467 z" />
    </g>
  </g>
</svg>
