<?xml version="1.0" encoding="UTF-8" standalone="no"?>
<!-- Created with Inkscape (http://www.inkscape.org/) -->

<svg
   xmlns:dc="http://purl.org/dc/elements/1.1/"
   xmlns:cc="http://creativecommons.org/ns#"
   xmlns:rdf="http://www.w3.org/1999/02/22-rdf-syntax-ns#"
   xmlns:svg="http://www.w3.org/2000/svg"
   xmlns="http://www.w3.org/2000/svg"
   xmlns:sodipodi="http://sodipodi.sourceforge.net/DTD/sodipodi-0.dtd"
   xmlns:inkscape="http://www.inkscape.org/namespaces/inkscape"
   width="16.933338mm"
   height="16.933338mm"
   viewBox="0 0 16.933338 16.933338"
   version="1.1"
   id="svg13427"
   inkscape:version="0.92.3 (unknown)"
   sodipodi:docname="map_point.svg">
  <defs
     id="defs13421" />
  <sodipodi:namedview
     id="base"
     pagecolor="#ffffff"
     bordercolor="#666666"
     borderopacity="1.0"
     inkscape:pageopacity="0.0"
     inkscape:pageshadow="2"
     inkscape:zoom="2.8"
     inkscape:cx="95.383505"
     inkscape:cy="-88.728865"
     inkscape:document-units="mm"
     inkscape:current-layer="layer1"
     showgrid="false"
     fit-margin-top="0"
     fit-margin-left="0"
     fit-margin-right="0"
     fit-margin-bottom="0"
     inkscape:window-width="1879"
     inkscape:window-height="1056"
     inkscape:window-x="41"
     inkscape:window-y="630"
     inkscape:window-maximized="1" />
  <metadata
     id="metadata13424">
    <rdf:RDF>
      <cc:Work
         rdf:about="">
        <dc:format>image/svg+xml</dc:format>
        <dc:type
           rdf:resource="http://purl.org/dc/dcmitype/StillImage" />
        <dc:title></dc:title>
      </cc:Work>
    </rdf:RDF>
  </metadata>
  <g
     inkscape:label="Layer 1"
     inkscape:groupmode="layer"
     id="layer1"
     transform="translate(34.925003,-138.85477)">
    <path
       inkscape:transform-center-y="-127.00029"
       inkscape:transform-center-x="-8.4666796"
       inkscape:connector-curvature="0"
       d="m -26.45836,139.6974 c -1.578601,0 -2.859001,1.2803 -2.859001,2.859 0,1.8364 2.05896,4.1279 2.382541,4.4781 0.13386,0.1454 0.245879,0.2869 0.47646,0.2869 0.23064,0 0.34266,-0.1415 0.476519,-0.2869 0.323521,-0.3502 2.382541,-2.6417 2.382541,-4.4781 0,-1.5787 -1.2804,-2.859 -2.85906,-2.859 z m 0,4.765 c -1.05258,0 -1.905961,-0.8535 -1.905961,-1.906 0,-1.0526 0.853381,-1.906 1.905961,-1.906 1.05264,0 1.90602,0.8534 1.90602,1.906 0,1.0525 -0.85338,1.906 -1.90602,1.906 z m 0,-2.859 c -0.52602,0 -0.95298,0.4269 -0.95298,0.953 0,0.526 0.42696,0.953 0.95298,0.953 0.52608,0 0.95304,-0.427 0.95304,-0.953 0,-0.5261 -0.42696,-0.953 -0.95304,-0.953 z"
       id="path9040"
       style="stroke-width:0.16933334" />
    <g
       id="g12754"
       transform="rotate(45,-2416.2203,-289.39399)">
      <path
         sodipodi:nodetypes="cc"
         inkscape:connector-curvature="0"
         id="path12747"
         d="m -422.73458,-1668.6646 h 13.7548"
         style="fill:none;fill-opacity:1;fill-rule:evenodd;stroke:#000000;stroke-width:1.05833328;stroke-linecap:butt;stroke-linejoin:miter;stroke-miterlimit:4;stroke-dasharray:1.05833333, 1.05833333;stroke-dashoffset:0;stroke-opacity:1" />
      <path
         style="fill:none;fill-opacity:1;fill-rule:evenodd;stroke:#000000;stroke-width:1.05833328;stroke-linecap:butt;stroke-linejoin:miter;stroke-miterlimit:4;stroke-dasharray:1.05833333, 1.05833333;stroke-dashoffset:0;stroke-opacity:1"
         d="m -415.85718,-1661.7872 v -13.7548"
         id="path12749"
         inkscape:connector-curvature="0"
         sodipodi:nodetypes="cc" />
      <circle
         r="1.7828369"
         cy="-1668.6646"
         cx="-415.85718"
         id="path12745"
         style="color:#000000;clip-rule:nonzero;display:inline;overflow:visible;visibility:visible;opacity:1;isolation:auto;mix-blend-mode:normal;color-interpolation:sRGB;color-interpolation-filters:linearRGB;solid-color:#000000;solid-opacity:1;vector-effect:none;fill:#000000;fill-opacity:1;fill-rule:evenodd;stroke:none;stroke-width:2.15625;stroke-linecap:round;stroke-linejoin:round;stroke-miterlimit:4;stroke-dasharray:none;stroke-dashoffset:0;stroke-opacity:1;color-rendering:auto;image-rendering:auto;shape-rendering:auto;text-rendering:auto;enable-background:accumulate" />
    </g>
  </g>
</svg>
