<?xml version="1.0" encoding="UTF-8" standalone="no"?>
<!-- Created with Inkscape (http://www.inkscape.org/) -->

<svg
   xmlns:dc="http://purl.org/dc/elements/1.1/"
   xmlns:cc="http://creativecommons.org/ns#"
   xmlns:rdf="http://www.w3.org/1999/02/22-rdf-syntax-ns#"
   xmlns:svg="http://www.w3.org/2000/svg"
   xmlns="http://www.w3.org/2000/svg"
   xmlns:sodipodi="http://sodipodi.sourceforge.net/DTD/sodipodi-0.dtd"
   xmlns:inkscape="http://www.inkscape.org/namespaces/inkscape"
   width="14.111111mm"
   height="14.111111mm"
   viewBox="0 0 49.999998 49.999998"
   id="svg6359"
   version="1.1"
   inkscape:version="0.91 r"
   sodipodi:docname="mask.svg">
  <defs
     id="defs6361" />
  <sodipodi:namedview
     id="base"
     pagecolor="#ffffff"
     bordercolor="#666666"
     borderopacity="1.0"
     inkscape:pageopacity="0.0"
     inkscape:pageshadow="2"
     inkscape:zoom="2.8"
     inkscape:cx="46.217403"
     inkscape:cy="-21.487374"
     inkscape:document-units="px"
     inkscape:current-layer="layer1"
     showgrid="false"
     fit-margin-top="0"
     fit-margin-left="0"
     fit-margin-right="0"
     fit-margin-bottom="0"
     inkscape:window-width="1879"
     inkscape:window-height="1056"
     inkscape:window-x="41"
     inkscape:window-y="24"
     inkscape:window-maximized="1" />
  <metadata
     id="metadata6364">
    <rdf:RDF>
      <cc:Work
         rdf:about="">
        <dc:format>image/svg+xml</dc:format>
        <dc:type
           rdf:resource="http://purl.org/dc/dcmitype/StillImage" />
        <dc:title></dc:title>
      </cc:Work>
    </rdf:RDF>
  </metadata>
  <g
     inkscape:label="Layer 1"
     inkscape:groupmode="layer"
     id="layer1"
     transform="translate(150.71428,-70.219345)">
    <path
       style="fill:#000000"
       d="m -126.42144,111.37822 c -0.6833,-0.1581 -1.31224,-0.4673 -2.4415,-1.2005 -1.1495,-0.7463 -1.2866,-0.8234 -1.93098,-1.0874 -0.70551,-0.289 -1.61657,-0.5289 -3.38606,-0.8917 -2.97954,-0.611 -5.24179,-1.2877 -6.78194,-2.0287 -3.54567,-1.7058 -6.04857,-4.8087 -7.21239,-8.940899 -0.50979,-1.8101 -0.63656,-2.9464 -0.81601,-7.3136 0.0173,-3.1679 -0.55958,-5.9247 -1.45337,-7.805 1.61187,1.1634 4.24804,2.3521 5.81952,2.284 0.74253,-0.043 1.36373,-0.1321 2.71278,-0.3879 1.82535,-0.3462 2.35188,-0.412 3.53498,-0.4421 1.62074,-0.041 2.66027,0.1023 4.05084,0.558 1.58296,0.5192 2.91634,1.3259 5.13078,3.1042 1.43037,1.1488 1.97325,1.5153 2.56007,1.7282 1.19563,0.434 2.10538,0.1034 4.03155,-1.4664 2.55515,-2.0821 3.79274,-2.8442 5.50768,-3.3913 1.34121,-0.4279 2.42305,-0.5725 3.98766,-0.5326 1.19049,0.031 1.5105,0.071 3.55987,0.446 0.71617,0.1311 1.48895,0.2636 1.71729,0.2942 2.63671,0.091 4.7561,-0.8546 6.84781,-2.3018 -0.95703,2.5903 -1.57735,4.7806 -1.5124,7.9938 -0.15156,3.6511 -0.23269,4.5974 -0.51421,5.9978 -0.16843,0.8378 -0.43019,1.7562 -0.74153,2.6018 -0.24998,0.6789 -0.96426,2.131499 -1.33825,2.721599 -1.27952,2.0186 -3.05228,3.6465 -5.11735,4.6991 -1.63138,0.8316 -3.86359,1.5155 -7.20842,2.2086 -2.89806,0.6006 -3.45647,0.8052 -5.04257,1.8476 -1.49364,0.9815 -2.27971,1.3209 -3.14734,1.3589 -0.303,0.013 -0.6156,-0.011 -0.81651,-0.054 z m -5.61545,-10.0163 c 0.87382,-0.092 0.86809,-0.09 0.86809,-0.3138 0,-0.1071 -0.0269,-0.4034 -0.0599,-0.6585 -0.30855,-2.391799 -1.19464,-4.384999 -2.4203,-5.444099 -0.60877,-0.5262 -1.05844,-0.7758 -1.78934,-0.9933 -0.4423,-0.1317 -0.59087,-0.1457 -1.99701,-0.1887 -2.59324,-0.079 -3.86785,-0.1959 -4.74736,-0.4344 -0.2238,-0.061 -0.46229,-0.1465 -0.52997,-0.1906 -0.11038,-0.072 -0.12665,-0.071 -0.158,0.012 -0.0537,0.14 0.0791,1.5606 0.19861,2.1248 0.33758,1.5928 1.06386,2.9079 2.17584,3.9398 0.2213,0.2053 0.50002,0.4345 0.61938,0.5093 0.11936,0.075 0.34127,0.2179 0.49312,0.317799 0.63549,0.4181 1.96066,0.8662 3.35902,1.1359 1.14747,0.2211 2.87341,0.3012 3.98778,0.1847 z m 15.25363,0 c 0.80773,-0.08 2.01275,-0.3005 2.65035,-0.484 1.79764,-0.5174 3.15814,-1.425499 4.10847,-2.742599 0.58141,-0.8058 1.05668,-1.9799 1.25996,-3.1128 0.12303,-0.6857 0.21252,-1.989 0.13396,-1.9511 -0.90409,0.4366 -2.15756,0.6024 -5.06799,0.6707 -0.76094,0.018 -1.55442,0.056 -1.76331,0.086 -1.47298,0.2063 -2.77163,1.1882 -3.65215,2.7613 -0.49857,0.8908 -1.03123,2.709 -1.15608,3.946499 -0.0369,0.3652 -0.0525,0.6785 -0.0348,0.6961 0.0177,0.018 0.29671,0.064 0.62005,0.1034 0.72845,0.087 2.15415,0.1013 2.90158,0.027 z"
       id="path6308"
       inkscape:connector-curvature="0"
       sodipodi:nodetypes="cccscsccccccsccccscccscccccccccscccccccccccccccccsccccscccc" />
  </g>
</svg>
