<?xml version="1.0" encoding="UTF-8" standalone="no"?>
<!-- Created with Inkscape (http://www.inkscape.org/) -->

<svg
   xmlns:dc="http://purl.org/dc/elements/1.1/"
   xmlns:cc="http://creativecommons.org/ns#"
   xmlns:rdf="http://www.w3.org/1999/02/22-rdf-syntax-ns#"
   xmlns:svg="http://www.w3.org/2000/svg"
   xmlns="http://www.w3.org/2000/svg"
   xmlns:sodipodi="http://sodipodi.sourceforge.net/DTD/sodipodi-0.dtd"
   xmlns:inkscape="http://www.inkscape.org/namespaces/inkscape"
   width="14.111111mm"
   height="14.111111mm"
   viewBox="0 0 49.999998 49.999998"
   id="svg11817"
   version="1.1"
   inkscape:version="0.91 r"
   sodipodi:docname="network.svg">
  <defs
     id="defs11819" />
  <sodipodi:namedview
     id="base"
     pagecolor="#ffffff"
     bordercolor="#666666"
     borderopacity="1.0"
     inkscape:pageopacity="0.0"
     inkscape:pageshadow="2"
     inkscape:zoom="11.2"
     inkscape:cx="-15.234746"
     inkscape:cy="19.186798"
     inkscape:document-units="px"
     inkscape:current-layer="layer1"
     showgrid="false"
     fit-margin-top="0"
     fit-margin-left="0"
     fit-margin-right="0"
     fit-margin-bottom="0"
     inkscape:window-width="1879"
     inkscape:window-height="1056"
     inkscape:window-x="41"
     inkscape:window-y="24"
     inkscape:window-maximized="1" />
  <metadata
     id="metadata11822">
    <rdf:RDF>
      <cc:Work
         rdf:about="">
        <dc:format>image/svg+xml</dc:format>
        <dc:type
           rdf:resource="http://purl.org/dc/dcmitype/StillImage" />
        <dc:title />
      </cc:Work>
    </rdf:RDF>
  </metadata>
  <g
     inkscape:label="Layer 1"
     inkscape:groupmode="layer"
     id="layer1"
     transform="translate(-532.14288,-284.50507)">
    <path
       id="path4260"
       d="m 575.72816,304.89698 c 0.0701,-0.54328 0.16474,-1.08039 0.16474,-1.64189 0,-6.90313 -5.59385,-12.50001 -12.49998,-12.50001 -4.08331,0 -7.67521,1.98672 -9.9549,5.0171 -0.8209,-0.19834 -1.66621,-0.32959 -2.54512,-0.32959 -6.04247,0 -10.93748,4.89501 -10.93748,10.93749 0,0.17089 0.0427,0.32352 0.0488,0.49443 -4.53183,1.33358 -7.86134,5.47782 -7.86134,10.44306 0,6.04246 4.89504,10.93749 10.93751,10.93749 l 26.56248,0 c 6.90616,0 12.5,-5.59384 12.5,-12.49999 0,-4.68135 -2.60313,-8.71582 -6.41474,-10.85809 z m -5.02887,13.41086 -14.99802,0 0,3.7495 -9.37377,-5.62426 9.37377,-5.62425 0,3.7495 14.99802,0 z m -9.37377,-7.49901 0,-3.74952 -14.99802,0 0,-3.74949 14.99802,0 0,-3.7495 9.37377,5.62425 z"
       inkscape:connector-curvature="0"
       style="fill:#000000;fill-opacity:1"
       sodipodi:nodetypes="csscsscsssscccccccccccccccccc" />
  </g>
</svg>
