<?xml version="1.0" encoding="UTF-8" standalone="no"?>
<!-- Created with Inkscape (http://www.inkscape.org/) -->

<svg
   xmlns:dc="http://purl.org/dc/elements/1.1/"
   xmlns:cc="http://creativecommons.org/ns#"
   xmlns:rdf="http://www.w3.org/1999/02/22-rdf-syntax-ns#"
   xmlns:svg="http://www.w3.org/2000/svg"
   xmlns="http://www.w3.org/2000/svg"
   xmlns:sodipodi="http://sodipodi.sourceforge.net/DTD/sodipodi-0.dtd"
   xmlns:inkscape="http://www.inkscape.org/namespaces/inkscape"
   width="14.111111mm"
   height="14.111111mm"
   viewBox="0 0 49.999998 49.999998"
   id="svg5570"
   version="1.1"
   inkscape:version="0.91 r"
   sodipodi:docname="pair.svg">
  <defs
     id="defs5572" />
  <sodipodi:namedview
     id="base"
     pagecolor="#ffffff"
     bordercolor="#666666"
     borderopacity="1.0"
     inkscape:pageopacity="0.0"
     inkscape:pageshadow="2"
     inkscape:zoom="15.839192"
     inkscape:cx="31.515252"
     inkscape:cy="-12.803766"
     inkscape:document-units="px"
     inkscape:current-layer="layer1"
     showgrid="false"
     fit-margin-top="0"
     fit-margin-left="0"
     fit-margin-right="0"
     fit-margin-bottom="0"
     inkscape:window-width="1879"
     inkscape:window-height="1056"
     inkscape:window-x="41"
     inkscape:window-y="24"
     inkscape:window-maximized="1" />
  <metadata
     id="metadata5575">
    <rdf:RDF>
      <cc:Work
         rdf:about="">
        <dc:format>image/svg+xml</dc:format>
        <dc:type
           rdf:resource="http://purl.org/dc/dcmitype/StillImage" />
        <dc:title></dc:title>
      </cc:Work>
    </rdf:RDF>
  </metadata>
  <g
     inkscape:label="Layer 1"
     inkscape:groupmode="layer"
     id="layer1"
     transform="translate(-75,1.2092239)">
    <path
       inkscape:connector-curvature="0"
       id="path5549"
       style="fill:#000000"
       d="m 96.824262,27.531549 c -1.998977,-0.273 -3.768909,-1.0977 -5.171299,-2.4094 -0.939406,-0.8788 -1.20305,-1.8589 -0.794078,-2.952 0.360196,-0.9626 1.290277,-1.5958 2.338801,-1.5919 0.775091,0 1.170993,0.163 1.931703,0.7812 0.775578,0.6303 1.038267,0.7703 1.84226,0.981 1.144992,0.3003 2.552357,0.065 3.797531,-0.6366 0.74782,-0.421 9.18307,-8.8041 9.83454,-9.7737 1.57512,-2.3443998 1.05535,-5.1725994 -1.20781,-6.5717994 -0.9743,-0.6024 -2.70949,-0.6994 -3.90349,-0.2181 -1.00689,0.4058 -1.52928,0.8404 -4.07191,3.388 l -2.466042,2.4708994 -0.731076,-0.3689 c -1.009876,-0.5096 -2.026171,-0.7509998 -3.40329,-0.8086998 -0.843774,-0.035 -1.283372,-0.011 -1.670006,0.094 -0.288624,0.078 -0.535223,0.1319998 -0.547998,0.1191998 -0.01278,-0.013 1.769438,-1.8030994 3.960475,-3.9784994 2.771072,-2.7515 4.209327,-4.1095 4.724907,-4.4613 1.00295,-0.68450005 2.35245,-1.30910005 3.47924,-1.61030005 0.80656,-0.21559996 1.13374,-0.25039996 2.41237,-0.25679996 1.12009,0 1.65306,0.035 2.19504,0.16539996 1.79217,0.4323 3.10889,1.17210005 4.44598,2.49780005 1.86092,1.845 2.67196,3.6632 2.77929,6.2304 0.1045,2.4998994 -0.50681,4.4867994 -2.03375,6.6102994 -0.76142,1.0588 -9.70297,9.9407 -10.5949,10.5241 -1.26049,0.8246 -2.56369,1.3754 -3.86851,1.635 -0.958606,0.1908 -2.443299,0.2544 -3.277978,0.1404 z m -13.207098,12.7889 c -1.27557,-0.2255 -2.919737,-0.9309 -3.923704,-1.6835 -0.764414,-0.573 -1.72228,-1.5838 -2.249355,-2.3737 -0.59947,-0.8984 -0.905186,-1.5561 -1.254529,-2.6987 -0.229765,-0.7516 -0.252211,-0.968 -0.253891,-2.447 -0.0017,-1.4591 0.02356,-1.7162 0.250715,-2.5555 0.305068,-1.1271 0.929985,-2.4765 1.611108,-3.4792 0.660038,-0.9715 9.310171,-9.6624 10.445398,-10.4946 1.859213,-1.363 3.926773,-2.0455 6.19545,-2.0455 2.466109,0 4.724623,0.8508 6.387554,2.4064 0.8039,0.752 1.04789,1.3032 0.98769,2.2309 -0.0495,0.7625 -0.21273,1.138 -0.7117,1.637 -0.48707,0.487 -1.0832,0.729 -1.796296,0.729 -0.721111,0 -1.250119,-0.2203 -1.932614,-0.8047 -1.832233,-1.5687 -4.301855,-1.462 -6.441373,0.2781 -0.354008,0.2879 -2.523446,2.4407 -4.820972,4.7838 -4.435745,4.524 -4.570204,4.6864 -4.940031,5.9675 -0.119081,0.4125 -0.152286,0.8085 -0.124915,1.4899 0.03373,0.84 0.07103,0.9965 0.392564,1.6471 0.42037,0.8505 1.266936,1.6962 2.04061,2.0383 0.538505,0.2382 1.783956,0.428 2.322506,0.3539 0.582748,-0.081 1.54512,-0.4293 2.142344,-0.7772 0.404055,-0.2355 1.345772,-1.0978 3.134412,-2.87 2.233838,-2.2134 2.577428,-2.5186 2.719932,-2.4169 0.329129,0.235 1.227591,0.6073 1.926658,0.7983 1.001242,0.2736 3.02113,0.3529 3.726245,0.1461 l 0.511627,-0.15 -3.764201,3.7731 c -2.07031,2.0752 -4.04335,3.9982 -4.384535,4.2732 -1.204654,0.9712 -2.528163,1.6445 -4.05604,2.0636 -0.868599,0.2382 -3.231157,0.3412 -4.140657,0.1803 z m 31.483136,0.4362 0,-1.861 1.86101,0 1.861,0 0,-1.9086 0,-1.9088 -1.861,0 -1.86101,0 0,-1.861 0,-1.861 -1.90872,0 -1.90873,0 0,1.861 0,1.861 -1.861,0 -1.86101,0 0,1.9088 0,1.9086 1.86101,0 1.861,0 0,1.861 0,1.8611 1.90873,0 1.90872,0 0,-1.8611 z m -3.24483,7.0465 c -1.42721,-0.2248 -2.50715,-0.5663 -3.66615,-1.1592 -2.76957,-1.4169 -4.76029,-3.9116 -5.56215,-6.9706 -0.29393,-1.1212 -0.39974,-3.1182 -0.2276,-4.2955 0.13731,-0.939 0.59949,-2.4441 0.98535,-3.2086 1.03096,-2.043 2.91522,-3.9388 4.92877,-4.9591 0.76267,-0.3865 2.34616,-0.8802 3.2436,-1.0115 1.2077,-0.1766 3.18726,-0.073 4.32961,0.2262 6.14399,1.6101 9.61358,8.004 7.60792,14.0204 -0.52989,1.5895 -1.42144,3.0279 -2.61926,4.2257 -1.60486,1.6048 -3.6363,2.6504 -5.91841,3.0462 -0.77532,0.1345 -2.49183,0.1821 -3.10168,0.086 z" />
  </g>
</svg>
