<?xml version="1.0" encoding="UTF-8" standalone="no"?>
<!-- Created with Inkscape (http://www.inkscape.org/) -->

<svg
   xmlns:dc="http://purl.org/dc/elements/1.1/"
   xmlns:cc="http://creativecommons.org/ns#"
   xmlns:rdf="http://www.w3.org/1999/02/22-rdf-syntax-ns#"
   xmlns:svg="http://www.w3.org/2000/svg"
   xmlns="http://www.w3.org/2000/svg"
   xmlns:sodipodi="http://sodipodi.sourceforge.net/DTD/sodipodi-0.dtd"
   xmlns:inkscape="http://www.inkscape.org/namespaces/inkscape"
   width="14.111111mm"
   height="14.111111mm"
   viewBox="0 0 49.999998 49.999998"
   id="svg10560"
   version="1.1"
   inkscape:version="0.91 r"
   sodipodi:docname="reload.svg">
  <defs
     id="defs10562" />
  <sodipodi:namedview
     id="base"
     pagecolor="#ffffff"
     bordercolor="#666666"
     borderopacity="1.0"
     inkscape:pageopacity="0.0"
     inkscape:pageshadow="2"
     inkscape:zoom="2.8"
     inkscape:cx="142.14705"
     inkscape:cy="-21.531668"
     inkscape:document-units="px"
     inkscape:current-layer="layer1"
     showgrid="false"
     fit-margin-top="0"
     fit-margin-left="0"
     fit-margin-right="0"
     fit-margin-bottom="0"
     inkscape:window-width="1879"
     inkscape:window-height="1056"
     inkscape:window-x="41"
     inkscape:window-y="24"
     inkscape:window-maximized="1" />
  <metadata
     id="metadata10565">
    <rdf:RDF>
      <cc:Work
         rdf:about="">
        <dc:format>image/svg+xml</dc:format>
        <dc:type
           rdf:resource="http://purl.org/dc/dcmitype/StillImage" />
        <dc:title></dc:title>
      </cc:Work>
    </rdf:RDF>
  </metadata>
  <g
     inkscape:label="Layer 1"
     inkscape:groupmode="layer"
     id="layer1"
     transform="translate(967.85712,-155.93364)">
    <path
       style="fill:#000000"
       d="m -944.61506,204.53531 c -2.9167,-0.3062 -5.46811,-1.031 -7.97623,-2.266 -1.64115,-0.8081 -2.58162,-1.3601 -3.61734,-2.1231 -3.28752,-2.4222 -5.62624,-5.2177 -7.42281,-8.8729 -1.02159,-2.0784 -1.55618,-3.6497 -2.01021,-5.9084 -0.50201,-2.4974 -0.50201,-6.3722 0,-8.8696 0.84339,-4.1958 2.61767,-7.8444 5.37556,-11.0541 0.91678,-1.067 2.69708,-2.7441 3.60732,-3.3984 0.10172,-0.073 0.30428,-0.2209 0.45014,-0.3285 0.40097,-0.2959 1.50359,-1.0133 1.85158,-1.2048 0.1694,-0.093 0.5467,-0.3027 0.83843,-0.4655 0.8464,-0.4725 2.49954,-1.205 3.48564,-1.5445 4.74981,-1.6349 9.96171,-1.703 14.73823,-0.1923 3.24709,1.0269 6.69043,3.0577 9.06691,5.3477 l 0.55888,0.5385 0.20719,-0.1636 c 0.11396,-0.091 1.12563,-0.8122 2.24816,-1.6051 2.22674,-1.5728 2.39618,-1.6537 2.89698,-1.3841 0.14092,0.075 0.32003,0.2431 0.39802,0.3714 0.13574,0.2233 0.14401,0.6277 0.193,9.44 0.0498,8.9626 0.0474,9.2137 -0.0932,9.4719 -0.16296,0.2993 -0.55024,0.5301 -0.88986,0.5303 -0.12534,0 -1.13125,-0.3104 -2.23536,-0.6898 -1.1041,-0.3794 -2.24615,-0.7686 -2.53788,-0.8647 -0.29173,-0.097 -1.68978,-0.5729 -3.10677,-1.0593 -1.41699,-0.4862 -2.81504,-0.9645 -3.10677,-1.0625 -0.29173,-0.098 -1.38289,-0.4718 -2.4248,-0.8306 -1.0419,-0.3587 -2.35471,-0.8069 -2.91733,-0.996 -1.50678,-0.5064 -1.68011,-0.6425 -1.69044,-1.3271 -0.004,-0.2845 0.0341,-0.408 0.17235,-0.5552 0.0978,-0.1045 0.98237,-0.7595 1.96566,-1.4563 2.43477,-1.7254 2.81075,-2.0075 2.81075,-2.1088 0,-0.2332 -2.1111,-1.4952 -3.2928,-1.9683 -1.79937,-0.7205 -3.15488,-0.9748 -5.19399,-0.9748 -2.44129,0 -4.07442,0.3739 -6.25144,1.4311 -0.58168,0.2826 -1.73545,0.9617 -1.85648,1.0929 -0.0208,0.023 -0.29363,0.2344 -0.6062,0.4706 -0.67248,0.508 -1.90025,1.7338 -2.37823,2.3742 -0.18663,0.2501 -0.40374,0.54 -0.48247,0.6442 -0.25818,0.3415 -0.90345,1.4659 -1.18292,2.061 -1.96573,4.1858 -1.72205,9.0133 0.65713,13.0181 0.40823,0.6872 0.48893,0.803 1.06964,1.5367 2.18622,2.7617 5.27524,4.5811 8.79561,5.1807 1.16467,0.1983 3.4407,0.1817 4.62227,-0.034 2.65909,-0.485 5.08126,-1.6603 6.97622,-3.3854 0.63922,-0.5818 1.46455,-1.532 2.07681,-2.3907 0.2323,-0.3258 0.43492,-0.5191 0.64408,-0.6141 0.55106,-0.2502 0.87254,-0.1819 1.62571,0.346 0.19058,0.1336 0.78659,0.5473 1.32446,0.9195 1.50722,1.0426 1.92811,1.3351 2.58347,1.7962 0.33341,0.2345 0.8913,0.6203 1.23976,0.8573 0.68753,0.4675 0.91494,0.7965 0.91817,1.3281 0.002,0.3139 -0.30497,0.8072 -1.30788,2.1026 -0.82366,1.064 -2.81177,3.0691 -3.69137,3.7231 -0.14013,0.1044 -0.42545,0.3231 -0.63403,0.4864 -0.4642,0.3636 -1.55071,1.0862 -2.27562,1.5137 -4.11421,2.4262 -9.51366,3.6098 -14.21571,3.1161 z"
       id="path5683"
       inkscape:connector-curvature="0" />
  </g>
</svg>
