<?xml version="1.0" encoding="UTF-8" standalone="no"?>
<!-- Created with Inkscape (http://www.inkscape.org/) -->

<svg
   xmlns:dc="http://purl.org/dc/elements/1.1/"
   xmlns:cc="http://creativecommons.org/ns#"
   xmlns:rdf="http://www.w3.org/1999/02/22-rdf-syntax-ns#"
   xmlns:svg="http://www.w3.org/2000/svg"
   xmlns="http://www.w3.org/2000/svg"
   xmlns:sodipodi="http://sodipodi.sourceforge.net/DTD/sodipodi-0.dtd"
   xmlns:inkscape="http://www.inkscape.org/namespaces/inkscape"
   width="14.111111mm"
   height="14.111111mm"
   viewBox="0 0 49.999998 49.999998"
   id="svg8729"
   version="1.1"
   inkscape:version="0.91 r"
   sodipodi:docname="sensor_gps.svg">
  <defs
     id="defs8731" />
  <sodipodi:namedview
     id="base"
     pagecolor="#ffffff"
     bordercolor="#666666"
     borderopacity="1.0"
     inkscape:pageopacity="0.0"
     inkscape:pageshadow="2"
     inkscape:zoom="1.979899"
     inkscape:cx="-15.75827"
     inkscape:cy="24.076395"
     inkscape:document-units="px"
     inkscape:current-layer="layer1"
     showgrid="false"
     fit-margin-top="0"
     fit-margin-left="0"
     fit-margin-right="0"
     fit-margin-bottom="0"
     inkscape:window-width="1879"
     inkscape:window-height="1056"
     inkscape:window-x="41"
     inkscape:window-y="24"
     inkscape:window-maximized="1" />
  <metadata
     id="metadata8734">
    <rdf:RDF>
      <cc:Work
         rdf:about="">
        <dc:format>image/svg+xml</dc:format>
        <dc:type
           rdf:resource="http://purl.org/dc/dcmitype/StillImage" />
        <dc:title />
      </cc:Work>
    </rdf:RDF>
  </metadata>
  <g
     inkscape:label="Layer 1"
     inkscape:groupmode="layer"
     id="layer1"
     transform="translate(-312.14285,-458.79077)">
    <path
       id="path4227"
       d="m 337.14285,458.79077 c -10.35312,0 -18.75,8.39686 -18.75,18.75 0,12.04374 13.50312,27.07186 15.625,29.36874 0.87813,0.95312 1.6125,1.88125 3.125,1.88125 1.5125,0 2.24687,-0.92813 3.12501,-1.88125 2.12187,-2.29688 15.62499,-17.325 15.62499,-29.36874 0,-10.35314 -8.39688,-18.75 -18.75,-18.75 z m 0,31.24999 c -6.90312,0 -12.5,-5.59687 -12.5,-12.49999 0,-6.90314 5.59688,-12.50001 12.5,-12.50001 6.90312,0 12.49999,5.59687 12.49999,12.50001 0,6.90312 -5.59687,12.49999 -12.49999,12.49999 z m 0,-18.75 c -3.45,0 -6.25001,2.79999 -6.25001,6.25001 0,3.45 2.80001,6.24999 6.25001,6.24999 3.45,0 6.25,-2.79999 6.25,-6.24999 0,-3.45002 -2.8,-6.25001 -6.25,-6.25001 z"
       inkscape:connector-curvature="0" />
  </g>
</svg>
