<?xml version="1.0" encoding="UTF-8" standalone="no"?>
<!-- Created with Inkscape (http://www.inkscape.org/) -->

<svg
   xmlns:dc="http://purl.org/dc/elements/1.1/"
   xmlns:cc="http://creativecommons.org/ns#"
   xmlns:rdf="http://www.w3.org/1999/02/22-rdf-syntax-ns#"
   xmlns:svg="http://www.w3.org/2000/svg"
   xmlns="http://www.w3.org/2000/svg"
   xmlns:sodipodi="http://sodipodi.sourceforge.net/DTD/sodipodi-0.dtd"
   xmlns:inkscape="http://www.inkscape.org/namespaces/inkscape"
   width="14.111111mm"
   height="14.111111mm"
   viewBox="0 0 49.999998 49.999998"
   id="svg6055"
   version="1.1"
   inkscape:version="0.91 r"
   sodipodi:docname="tidy.svg">
  <defs
     id="defs6057" />
  <sodipodi:namedview
     id="base"
     pagecolor="#ffffff"
     bordercolor="#666666"
     borderopacity="1.0"
     inkscape:pageopacity="0.0"
     inkscape:pageshadow="2"
     inkscape:zoom="3.959798"
     inkscape:cx="4.3036617"
     inkscape:cy="-50.182079"
     inkscape:document-units="px"
     inkscape:current-layer="layer1"
     showgrid="false"
     fit-margin-top="0"
     fit-margin-left="0"
     fit-margin-right="0"
     fit-margin-bottom="0"
     inkscape:window-width="1879"
     inkscape:window-height="1056"
     inkscape:window-x="41"
     inkscape:window-y="24"
     inkscape:window-maximized="1" />
  <metadata
     id="metadata6060">
    <rdf:RDF>
      <cc:Work
         rdf:about="">
        <dc:format>image/svg+xml</dc:format>
        <dc:type
           rdf:resource="http://purl.org/dc/dcmitype/StillImage" />
        <dc:title></dc:title>
      </cc:Work>
    </rdf:RDF>
  </metadata>
  <g
     inkscape:label="Layer 1"
     inkscape:groupmode="layer"
     id="layer1"
     transform="translate(90.714287,146.92351)">
    <path
       id="path8950"
       style="color:#000000;clip-rule:nonzero;display:inline;overflow:visible;visibility:visible;opacity:1;isolation:auto;mix-blend-mode:normal;color-interpolation:sRGB;color-interpolation-filters:linearRGB;solid-color:#000000;solid-opacity:1;fill:#000000;fill-opacity:1;fill-rule:evenodd;stroke:none;stroke-width:4;stroke-linecap:butt;stroke-linejoin:round;stroke-miterlimit:4;stroke-dasharray:none;stroke-dashoffset:0;stroke-opacity:1;color-rendering:auto;image-rendering:auto;shape-rendering:auto;text-rendering:auto;enable-background:accumulate"
       d="m -75.586831,-134.17766 a 1.8497729,1.8497729 0 0 1 -1.84977,1.84978 1.8497729,1.8497729 0 0 1 -1.849774,-1.84978 1.8497729,1.8497729 0 0 1 1.849774,-1.84977 1.8497729,1.8497729 0 0 1 1.84977,1.84977 z m -6.799167,-0.74983 a 3.0996193,3.0996193 0 0 1 -3.099618,3.09962 3.0996193,3.0996193 0 0 1 -3.09962,-3.09962 3.0996193,3.0996193 0 0 1 3.09962,-3.09962 3.0996193,3.0996193 0 0 1 3.099618,3.09962 z m 8.198999,10.39865 a 4.2494783,4.2494783 0 0 1 -4.249479,4.24948 4.2494783,4.2494783 0 0 1 -4.249478,-4.24948 4.2494783,4.2494783 0 0 1 4.249478,-4.24948 4.2494783,4.2494783 0 0 1 4.249479,4.24948 z m 23.839057,-5.30979 c -1.407219,-0.60775 -2.560547,-1.22795 -2.562945,-1.37823 -0.0099,-0.62196 6.850531,-13.05861 7.298349,-13.23046 0.711916,-0.27318 2.540591,0.57749 2.765636,1.28654 0.148983,0.4694 -4.416669,13.98155 -4.847685,14.34683 -0.05212,0.0442 -1.246134,-0.41693 -2.653355,-1.02468 z m -3.361872,7.0854 c -4.422834,-1.97712 -8.041891,-3.76385 -8.042352,-3.97051 -0.0014,-0.57049 1.81604,-2.18245 2.938635,-2.6066 1.765395,-0.66701 3.064064,-0.41058 7.26021,1.43361 4.484896,1.97108 5.546933,2.7238 6.284095,4.45384 0.687922,1.61449 0.576691,4.40769 -0.171761,4.31313 -0.125018,-0.0158 -3.845993,-1.64636 -8.268827,-3.62347 z m -6.982656,22.761055 c -4.103096,-0.871115 -8.961329,-2.756585 -12.444887,-4.829845 -3.177538,-1.89113 -9.473892,-7.68106 -9.473166,-8.71124 8.49e-4,-1.2648 1.186216,-1.90964 3.937774,-2.14223 6.152801,-0.5201 11.999808,-3.35359 14.674788,-7.11148 0.696706,-0.97875 0.795635,-1.01009 1.832503,-0.58061 1.893925,0.78449 2.045369,1.26138 0.917437,2.88898 -2.336418,3.37146 -6.870923,6.09799 -12.513921,7.52445 l -3.248527,0.82118 2.060954,1.63923 c 1.133523,0.90158 2.237385,1.64042 2.453023,1.64186 0.215638,10e-4 1.323403,-0.46714 2.461699,-1.04131 1.138294,-0.57417 2.121391,-0.99218 2.184658,-0.92891 0.06327,0.0633 -0.458828,0.86683 -1.160217,1.7857 -0.701386,0.91887 -1.224595,1.71543 -1.162689,1.77015 0.06191,0.0547 0.948188,0.51925 1.969515,1.03227 2.589989,1.301 4.400451,0.76946 8.357014,-2.45353 l 2.03271,-1.65584 -1.071732,2.07271 c -0.589451,1.14 -1.403188,2.57604 -1.808299,3.19121 -0.405114,0.61517 -0.610306,1.19639 -0.455983,1.29162 0.154326,0.0952 1.218362,0.34639 2.364527,0.55815 1.845556,0.34098 2.136823,0.31455 2.546278,-0.23109 1.296279,-1.72742 3.848946,-6.69091 5.134721,-9.98413 0.797072,-2.04152 1.484106,-3.75116 1.526731,-3.7992 1.212683,0.24353 2.095556,0.60027 3.348143,1.02707 l -0.72911,2.00471 c -1.732057,4.76234 -5.665667,12.30508 -7.359766,14.11242 -0.912469,0.973462 -2.194296,0.995119 -6.374178,0.107705 z"
       inkscape:connector-curvature="0" />
  </g>
</svg>
