<?xml version="1.0" encoding="UTF-8" standalone="no"?>
<!-- Created with Inkscape (http://www.inkscape.org/) -->

<svg
   xmlns:dc="http://purl.org/dc/elements/1.1/"
   xmlns:cc="http://creativecommons.org/ns#"
   xmlns:rdf="http://www.w3.org/1999/02/22-rdf-syntax-ns#"
   xmlns:svg="http://www.w3.org/2000/svg"
   xmlns="http://www.w3.org/2000/svg"
   xmlns:sodipodi="http://sodipodi.sourceforge.net/DTD/sodipodi-0.dtd"
   xmlns:inkscape="http://www.inkscape.org/namespaces/inkscape"
   width="14.111111mm"
   height="14.111111mm"
   viewBox="0 0 49.999998 49.999998"
   id="svg14714"
   version="1.1"
   inkscape:version="0.91 r"
   sodipodi:docname="wheels.svg">
  <defs
     id="defs14716" />
  <sodipodi:namedview
     id="base"
     pagecolor="#ffffff"
     bordercolor="#666666"
     borderopacity="1.0"
     inkscape:pageopacity="0.0"
     inkscape:pageshadow="2"
     inkscape:zoom="3.959798"
     inkscape:cx="-14.064935"
     inkscape:cy="40.378115"
     inkscape:document-units="px"
     inkscape:current-layer="layer1"
     showgrid="false"
     fit-margin-top="0"
     fit-margin-left="0"
     fit-margin-right="0"
     fit-margin-bottom="0"
     inkscape:window-width="3799"
     inkscape:window-height="2136"
     inkscape:window-x="41"
     inkscape:window-y="24"
     inkscape:window-maximized="1" />
  <metadata
     id="metadata14719">
    <rdf:RDF>
      <cc:Work
         rdf:about="">
        <dc:format>image/svg+xml</dc:format>
        <dc:type
           rdf:resource="http://purl.org/dc/dcmitype/StillImage" />
        <dc:title />
      </cc:Work>
    </rdf:RDF>
  </metadata>
  <g
     inkscape:label="Layer 1"
     inkscape:groupmode="layer"
     id="layer1"
     transform="translate(53.57143,-644.50507)">
    <path
       id="circle7053"
       style="color:#000000;clip-rule:nonzero;display:inline;overflow:visible;visibility:visible;opacity:1;isolation:auto;mix-blend-mode:normal;color-interpolation:sRGB;color-interpolation-filters:linearRGB;solid-color:#000000;solid-opacity:1;fill:#e43232;fill-opacity:1;fill-rule:evenodd;stroke:none;stroke-width:2;stroke-linecap:round;stroke-linejoin:round;stroke-miterlimit:4;stroke-dasharray:none;stroke-dashoffset:0;stroke-opacity:1;color-rendering:auto;image-rendering:auto;shape-rendering:auto;text-rendering:auto;enable-background:accumulate"
       d="m -8.5266156,678.20283 a 5.1119635,5.1119635 0 0 1 -5.1119634,5.1119 5.1119635,5.1119635 0 0 1 -5.111964,-5.1119 5.1119635,5.1119635 0 0 1 5.111964,-5.1121 5.1119635,5.1119635 0 0 1 5.1119634,5.1121 z m -3.9279364,-8.3795 c -0.212627,0 -0.388552,0.052 -0.456424,0.162 -0.121352,0.1965 -1.387436,0.1965 -1.508787,0 -0.217202,-0.3513 -1.735093,-0.021 -1.735093,0.3773 0,0.2657 -0.744645,0.5704 -1.476326,0.6038 -0.651416,0.03 -1.230622,0.4354 -1.30045,0.9112 -0.04937,0.337 -0.722053,0.9813 -1.260029,1.2067 -0.523631,0.2193 -0.858896,0.826 -0.711949,1.2888 0.104619,0.3297 -0.241987,1.0421 -0.758753,1.5588 -0.40271,0.4027 -0.516577,1.2463 -0.209578,1.5534 0.106106,0.1063 0.130741,0.434 0.06721,0.8976 -0.194562,1.4202 -0.160865,1.8868 0.155288,2.1458 0.390029,0.3196 0.841831,1.2876 0.733158,1.571 -0.124591,0.3247 0.309289,1.2621 0.674868,1.4578 0.17297,0.093 0.314672,0.1191 0.314672,0.059 0,-0.06 0.203667,0.086 0.452613,0.3247 0.248947,0.2386 0.45266,0.5452 0.45266,0.6811 0,0.4558 0.694837,0.9395 1.428614,0.9946 0.746934,0.056 1.151741,0.2257 1.596584,0.6705 0.410095,0.4103 0.987871,0.5134 1.650441,0.2948 0.316486,-0.1045 0.768859,-0.1537 1.005175,-0.1096 1.340676,0.2511 1.501444,0.2538 1.900722,0.03 0.228165,-0.1279 0.41491,-0.3 0.41491,-0.3825 0,-0.2076 0.715999,-0.4714 1.4047374,-0.5174 0.624725,-0.042 1.461884,-0.6919 1.461884,-1.1354 0,-0.3097 0.617194,-0.9035 0.939113,-0.9035 0.401421,0 1.022237,-0.8715 1.022237,-1.4351 0,-0.6759 0.200281,-1.1655 0.668622,-1.6339 0.456903,-0.457 0.486646,-0.9116 0.125594,-1.9282 -0.213675,-0.6015 -0.22764,-0.793 -0.07545,-1.0367 0.359954,-0.5763 0.110527,-1.8116 -0.365674,-1.8116 -0.199567,0 -0.562381,-1.0519 -0.528969,-1.5333 0.03194,-0.4609 -0.664953,-1.3905 -0.957987,-1.278 -0.23622,0.091 -1.129242,-0.8153 -1.129242,-1.1454 0,-0.3634 -0.754036,-0.894 -1.203454,-0.8469 -0.4994174,0.053 -1.3048334,-0.2831 -1.7512974,-0.7297 -0.228833,-0.2287 -0.685257,-0.3644 -1.039635,-0.3621 z m -26.208091,8.3763 a 5.1119635,5.1119635 0 0 1 -5.111963,5.112 5.1119635,5.1119635 0 0 1 -5.111964,-5.112 5.1119635,5.1119635 0 0 1 5.111964,-5.1119 5.1119635,5.1119635 0 0 1 5.111963,5.1119 z m -3.887267,-8.3605 c -0.259908,-0.012 -0.460856,0.043 -0.460856,0.1457 0,0.1969 -1.462506,0.1969 -1.584189,0 -0.201236,-0.3255 -1.735091,0.053 -1.735091,0.4285 0,0.1803 -1.055417,0.6457 -1.225864,0.5403 -0.416005,-0.257 -1.489906,0.4586 -1.489906,0.9928 0,0.3297 -0.734919,0.9948 -1.226757,1.1105 -0.422634,0.099 -0.98421,1.0213 -0.8018,1.3165 0.139563,0.2259 -0.369813,1.4955 -0.59999,1.4955 -0.446507,0 -0.615135,1.1732 -0.249279,1.7351 0.150665,0.2315 0.08042,1.1546 -0.126117,1.6591 -0.152945,0.3733 -0.144565,0.5372 0.04876,0.943 0.128787,0.2699 0.30495,0.4908 0.391322,0.4908 0.217396,0 0.486495,0.7133 0.533628,1.4154 0.04243,0.631 0.438749,1.281 0.934773,1.5326 0.519825,0.2639 0.788402,0.5413 1.042274,1.0763 0.294934,0.6214 0.571383,0.7814 1.659628,0.9584 0.58273,0.095 0.944359,0.2511 1.186964,0.5129 0.460049,0.4963 1.024863,0.6221 1.737143,0.3872 0.360813,-0.1192 0.798792,-0.1499 1.155742,-0.081 0.316057,0.061 0.744645,0.1413 0.952125,0.1783 0.219967,0.04 0.581541,-0.06 0.867522,-0.2383 0.26968,-0.1682 0.490313,-0.3596 0.490313,-0.4256 0,-0.1868 0.869191,-0.4691 1.187868,-0.3857 0.436168,0.114 1.15684,-0.3327 1.431524,-0.8876 0.325303,-0.6568 0.775294,-1.1748 1.025812,-1.1806 0.111197,0 0.320108,-0.095 0.464433,-0.2043 0.288746,-0.2192 0.75356,-1.2144 0.626488,-1.3414 -0.138033,-0.1381 0.281643,-1.3164 0.468818,-1.3164 0.404662,0 0.72353,-1.5475 0.390173,-1.8933 -0.229881,-0.2384 -0.241178,-1.0251 -0.02239,-1.5533 0.1795,-0.4333 0.174067,-0.5648 -0.04052,-1.0151 -0.135649,-0.2845 -0.31453,-0.5172 -0.39775,-0.5172 -0.221922,0 -0.607947,-1.0139 -0.607947,-1.5966 0,-0.3549 -0.122019,-0.6164 -0.413434,-0.8867 -0.227401,-0.2107 -0.478253,-0.3832 -0.557518,-0.3832 -0.213199,0 -0.990446,-0.7813 -0.990446,-0.9955 0,-0.1023 -0.215964,-0.3666 -0.480067,-0.5887 -0.359191,-0.3023 -0.585878,-0.3829 -0.899598,-0.32 -0.230644,0.046 -0.456474,0.024 -0.502183,-0.051 -0.04529,-0.074 -0.285933,-0.1789 -0.533925,-0.2333 -0.247994,-0.054 -0.450849,-0.1846 -0.450849,-0.2892 0,-0.1045 -0.172923,-0.269 -0.384309,-0.3653 -0.23565,-0.1075 -0.554565,-0.1648 -0.814474,-0.1698 z m 17.881508,-17.52339 c -4.771394,0.083 -9.546746,-0.012 -14.317378,0.112 -0.214343,-0.012 -0.482021,0.1396 -0.625917,0.3098 -2.545562,3.01189 -4.322453,5.56489 -5.930668,7.64869 -0.273825,0.4446 -0.406276,0.4796 -0.919712,0.4845 l -1.052319,0.012 c -2.752035,0.026 -2.635117,-0.093 -3.272947,3.3143 -0.286449,1.5295 -0.521059,6.3211 -0.521291,6.5079 0,0.3207 0.05984,0.3394 1.088819,0.3394 l 1.089104,0 0.759138,-0.735 c 0.417486,-0.4041 0.989741,-0.8115 1.271801,-0.9051 0.652705,-0.2169 6.967782,-0.2282 7.739213,-0.014 0.59241,0.1644 0.954127,0.6013 2.426403,2.9288 l 0.720766,1.1392 1.930021,0 -1.052176,-1.764 13.047302,-0.07 -0.714827,1.834 1.876681,0 0.136746,-0.3592 0,0 c 0.489169,-1.2866 1.323852,-2.7655 1.848246,-3.2744 l 0.608757,-0.5908 3.806448,0 c 2.093426,0 4.335228,0.044 4.9815444,0.099 1.714474,0.2602 1.911347,0.908 2.79322,2.0875 l 0,1.1316 0.980723,0 c 0.539359,0 0.982105,-0.051 0.983964,-0.1133 -0.03251,-3.0139 0.06414,-6.5747 -0.431691,-9.573 -0.17135,-0.4948 -0.283931,-0.5841 -0.997501,-0.7916 -1.134819,-0.3298 -5.2981714,-0.9119 -9.2862184,-1.2983 -3.165567,-0.3068 -4.138134,-1.2755 -4.431549,-1.7702 -0.180501,-0.3045 -3.125917,-5.54839 -3.662749,-6.13609 -0.29742,-0.2726 -0.871907,-0.553 -0.871907,-0.553 z m -14.806101,3.06639 c 0.145848,2.5607 0.08478,2.0827 0.08478,5.4827 l -3.991553,-0.049 z m 14.323224,-1.29559 3.701923,6.65389 -11.283268,-0.1062 0,-6.50189 c 0.0062,-0.2215 0.101569,-0.4288 0.358715,-0.435 l 6.623786,-0.05 c 0.307763,-0.016 0.416197,0.1108 0.598844,0.4388 z"
       inkscape:connector-curvature="0" />
  </g>
</svg>
