<?xml version="1.0" encoding="UTF-8" standalone="no"?>
<!-- Created with Inkscape (http://www.inkscape.org/) -->

<svg
   xmlns:dc="http://purl.org/dc/elements/1.1/"
   xmlns:cc="http://creativecommons.org/ns#"
   xmlns:rdf="http://www.w3.org/1999/02/22-rdf-syntax-ns#"
   xmlns:svg="http://www.w3.org/2000/svg"
   xmlns="http://www.w3.org/2000/svg"
   xmlns:sodipodi="http://sodipodi.sourceforge.net/DTD/sodipodi-0.dtd"
   xmlns:inkscape="http://www.inkscape.org/namespaces/inkscape"
   width="14.111112mm"
   height="14.111112mm"
   viewBox="0 0 14.111112 14.111112"
   version="1.1"
   id="svg10176"
   inkscape:version="0.92.0 unknown"
   sodipodi:docname="arcbotics_logo.svg">
  <defs
     id="defs10170" />
  <sodipodi:namedview
     id="base"
     pagecolor="#ffffff"
     bordercolor="#666666"
     borderopacity="1.0"
     inkscape:pageopacity="0.0"
     inkscape:pageshadow="2"
     inkscape:zoom="5.6"
     inkscape:cx="75.772911"
     inkscape:cy="-14.011351"
     inkscape:document-units="mm"
     inkscape:current-layer="layer1"
     showgrid="false"
     fit-margin-top="0"
     fit-margin-left="0"
     fit-margin-right="0"
     fit-margin-bottom="0"
     inkscape:window-width="3799"
     inkscape:window-height="2136"
     inkscape:window-x="41"
     inkscape:window-y="24"
     inkscape:window-maximized="1" />
  <metadata
     id="metadata10173">
    <rdf:RDF>
      <cc:Work
         rdf:about="">
        <dc:format>image/svg+xml</dc:format>
        <dc:type
           rdf:resource="http://purl.org/dc/dcmitype/StillImage" />
        <dc:title></dc:title>
      </cc:Work>
    </rdf:RDF>
  </metadata>
  <g
     inkscape:label="Layer 1"
     inkscape:groupmode="layer"
     id="layer1"
     transform="translate(309.43652,-26.873016)">
    <path
       style="fill:#000000;stroke-width:0.0401401"
       d="m -302.45988,29.854259 c -0.15205,0 -0.30843,0 -0.4695,0.0062 -0.59023,0.0206 -0.97828,0.05732 -1.29064,0.12271 -0.0908,0.01891 -0.0986,0.03048 -0.0565,0.08176 0.0269,0.03257 0.24082,0.202043 0.47547,0.37592 0.23464,0.173933 0.41826,0.324555 0.40806,0.334744 -0.0102,0.0099 -0.25294,0.07544 -0.53948,0.145005 -1.26601,0.307256 -2.2917,0.78932 -3.06115,1.438798 -0.25979,0.219315 -0.75262,0.683937 -0.75262,0.709563 0,0.0085 0.23707,0.01524 0.52683,0.01524 0.28977,0 0.52684,0.01355 0.52684,0.03045 0,0.01693 -0.053,0.08035 -0.11774,0.141111 -0.1832,0.171958 -0.6243,0.736543 -1.02464,1.311515 -0.66689,0.957834 -1.1865,2.154512 -1.37605,3.169158 l -0.0307,0.164478 h 0.52272 0.52279 l 0.0434,-0.103491 c 0.0238,-0.0569 0.17472,-0.378657 0.33538,-0.714981 l 0.29208,-0.611548 h 0.92623 0.9263 l 0.0529,0.122343 c 0.0291,0.06725 0.14093,0.389016 0.24843,0.714982 l 0.19543,0.592695 h 0.82231 c 0.89896,0 0.90717,0 0.72998,-0.208618 -0.15795,-0.183812 -0.64544,-1.033188 -0.83061,-1.447208 -0.40491,-0.905256 -0.55336,-1.499447 -0.55932,-2.239038 -0.004,-0.45435 0.008,-0.565687 0.0838,-0.809075 0.0999,-0.320407 0.28073,-0.660231 0.38638,-0.726214 0.0392,-0.02455 0.0712,-0.05605 0.0712,-0.07019 0,-0.01411 -0.25824,-0.01891 -0.57387,-0.0099 -0.52736,0.01468 -0.56778,0.01101 -0.49862,-0.0436 0.60522,-0.476476 3.21356,-1.102106 4.00994,-0.961842 0.1306,0.02314 0.24316,0.03627 0.25012,0.02944 0.007,-0.0068 -0.12174,-0.180255 -0.28599,-0.385092 -0.34109,-0.425365 -0.3386,-0.4318 0.13877,-0.357067 0.95013,0.148844 2.29954,0.885161 3.66325,1.99881 0.22981,0.187706 0.42558,0.333531 0.43504,0.324076 0.0184,-0.01834 -0.0554,-0.713881 -0.0874,-0.823553 -0.0294,-0.100555 0.0679,-0.08227 0.37249,0.07019 0.19273,0.116304 1.05633,0.732423 1.5283,1.229812 -0.24982,-1.127701 -1.095,-1.885073 -1.82626,-2.391916 -0.63069,-0.454857 -1.21145,-0.837776 -1.23339,-0.813223 -0.007,0.0079 0.06,0.234301 0.14884,0.503372 0.0888,0.26907 0.15421,0.496485 0.1453,0.505432 -0.009,0.009 -0.0625,-0.0206 -0.11906,-0.06505 -0.20827,-0.16479 -0.92109,-0.580899 -1.33386,-0.778708 -0.80207,-0.384274 -1.6568,-0.567408 -2.72122,-0.577399 z m -3.93335,4.171527 c 0.0113,0 0.10832,0.284113 0.21557,0.630371 0.10725,0.346231 0.20645,0.659187 0.22042,0.695424 0.0235,0.06096 -0.0172,0.06584 -0.54624,0.06584 -0.3144,0 -0.56593,-0.01468 -0.55903,-0.03206 0.06,-0.154601 0.65345,-1.359888 0.66928,-1.359295 z m 8.37826,0.04468 c -0.66031,0.0085 -1.09014,0.167047 -1.44013,0.520502 -0.35169,0.355121 -0.53943,0.880308 -0.53845,1.506333 0.002,1.077948 0.5223,1.734877 1.48585,1.874831 0.40744,0.05915 0.91417,0.03206 1.37685,-0.07363 l 0.17257,-0.03943 0.095,-0.552761 c 0.0522,-0.30401 0.0924,-0.556316 0.0892,-0.560634 -0.003,-0.0054 -0.1098,0.02484 -0.23695,0.06409 -0.30728,0.09562 -0.74063,0.13256 -0.93586,0.07976 -0.38461,-0.104026 -0.57962,-0.371742 -0.57962,-0.795781 0,-0.136793 0.0268,-0.32718 0.0595,-0.423051 0.0736,-0.215985 0.29231,-0.421443 0.51228,-0.481104 0.23776,-0.06452 0.64757,-0.04834 0.9868,0.03886 0.16382,0.04202 0.30043,0.07231 0.30355,0.06708 0.0117,-0.01947 -0.0645,-1.063809 -0.0787,-1.078936 -0.0456,-0.04832 -0.54865,-0.120876 -0.9743,-0.140462 -0.10418,-0.0054 -0.20319,-0.0068 -0.29752,-0.0054 z m -2.59553,0 c -0.0316,0 -0.065,0 -0.0986,0.0054 -0.29178,0.01778 -0.5171,0.120932 -0.74322,0.339259 l -0.15994,0.154407 v -0.196003 -0.195947 h -0.69022 -0.69023 l -0.0247,1.04425 c -0.0136,0.574351 -0.0499,1.374507 -0.0806,1.778114 -0.0308,0.403577 -0.0562,0.771877 -0.0565,0.818472 l -5.6e-4,0.08469 h 0.73381 0.73382 l 6.9e-4,-0.573871 c 7.9e-4,-0.663245 0.0508,-1.214369 0.13273,-1.462329 0.0787,-0.238083 0.28244,-0.4653 0.48759,-0.543617 0.12669,-0.04835 0.24021,-0.0598 0.4568,-0.04572 l 0.28819,0.01834 -0.0252,-0.585752 c -0.0171,-0.395365 -0.0403,-0.596053 -0.0715,-0.617587 -0.0191,-0.01326 -0.0974,-0.0206 -0.1922,-0.02004 z"
       id="path9373-4"
       inkscape:connector-curvature="0"
       sodipodi:nodetypes="ccccccccsssccccccccccccccscccccscccccccccccccccccccscsccccccccccccscccccccsccccccccccccccscccccs" />
  </g>
</svg>
