<?xml version="1.0" encoding="UTF-8" standalone="no"?>
<!-- Created with Inkscape (http://www.inkscape.org/) -->

<svg
   xmlns:dc="http://purl.org/dc/elements/1.1/"
   xmlns:cc="http://creativecommons.org/ns#"
   xmlns:rdf="http://www.w3.org/1999/02/22-rdf-syntax-ns#"
   xmlns:svg="http://www.w3.org/2000/svg"
   xmlns="http://www.w3.org/2000/svg"
   xmlns:sodipodi="http://sodipodi.sourceforge.net/DTD/sodipodi-0.dtd"
   xmlns:inkscape="http://www.inkscape.org/namespaces/inkscape"
   width="14.111111mm"
   height="14.111111mm"
   viewBox="0 0 49.999998 49.999998"
   id="svg19344"
   version="1.1"
   inkscape:version="0.91 r"
   sodipodi:docname="helicopter.svg">
  <defs
     id="defs19346" />
  <sodipodi:namedview
     id="base"
     pagecolor="#ffffff"
     bordercolor="#666666"
     borderopacity="1.0"
     inkscape:pageopacity="0.0"
     inkscape:pageshadow="2"
     inkscape:zoom="7.9195959"
     inkscape:cx="139.46969"
     inkscape:cy="6.7004597"
     inkscape:document-units="px"
     inkscape:current-layer="layer1"
     showgrid="false"
     fit-margin-top="0"
     fit-margin-left="0"
     fit-margin-right="0"
     fit-margin-bottom="0"
     inkscape:window-width="3799"
     inkscape:window-height="2136"
     inkscape:window-x="41"
     inkscape:window-y="24"
     inkscape:window-maximized="1" />
  <metadata
     id="metadata19349">
    <rdf:RDF>
      <cc:Work
         rdf:about="">
        <dc:format>image/svg+xml</dc:format>
        <dc:type
           rdf:resource="http://purl.org/dc/dcmitype/StillImage" />
        <dc:title></dc:title>
      </cc:Work>
    </rdf:RDF>
  </metadata>
  <g
     inkscape:label="Layer 1"
     inkscape:groupmode="layer"
     id="layer1"
     transform="translate(227.85715,58.352081)">
    <path
       style="color:#000000;font-style:normal;font-variant:normal;font-weight:normal;font-stretch:normal;font-size:medium;line-height:normal;font-family:sans-serif;text-indent:0;text-align:start;text-decoration:none;text-decoration-line:none;text-decoration-style:solid;text-decoration-color:#000000;letter-spacing:normal;word-spacing:normal;text-transform:none;direction:ltr;block-progression:tb;writing-mode:lr-tb;baseline-shift:baseline;text-anchor:start;white-space:normal;clip-rule:nonzero;display:inline;overflow:visible;visibility:visible;opacity:1;isolation:auto;mix-blend-mode:normal;color-interpolation:sRGB;color-interpolation-filters:linearRGB;solid-color:#000000;solid-opacity:1;fill:#e43232;fill-opacity:1;fill-rule:evenodd;stroke:none;stroke-width:25;stroke-linecap:round;stroke-linejoin:round;stroke-miterlimit:4;stroke-dasharray:none;stroke-dashoffset:0;stroke-opacity:1;color-rendering:auto;image-rendering:auto;shape-rendering:auto;text-rendering:auto;enable-background:accumulate"
       d="m -201.27924,-46.640508 c -0.30477,0 -0.6095,0.1752 -0.80887,0.5255 l -0.20355,0.3576 -7.45631,0 -7.45654,0 -0.40455,0.2721 c -0.8327,0.5603 -0.8327,1.7537 0,2.314 l 0.40455,0.2725 7.48632,0 7.48609,0 0,0.5359 0,0.536 -1.0629,0 c -1.28601,0 -1.49336,0.1324 -2.21395,1.4132 l -0.47503,0.8443 -6.14427,0 -4.37627,0 -2.19349,-2.3394 c -1.29257,-1.3787 -2.35076,-2.4059 -2.57662,-2.5013 -0.25712,-0.108 -0.8966,-0.1619 -1.94318,-0.1619 -1.49757,0 -2.02086,0.098 -2.02086,0.3761 0,0.071 0.64606,1.3526 1.4358,2.8474 1.40277,2.6554 1.43188,2.7261 1.26086,3.0568 -0.0522,0.1011 -0.0956,0.2026 -0.13306,0.3046 -0.36607,0.6159 -0.56002,1.3188 -0.56158,2.0353 -2e-5,2.2095 1.79111,4.0006 4.00057,4.0005 1.41428,0 2.72249,-0.7502 3.44085,-1.9685 4.57682,0.8682 4.71962,1.0243 5.40571,1.7543 0.20561,0.2187 0.87321,1.0675 1.48349,1.8864 1.7505,2.3318 4.01192,5.7374 6.98426,5.7374 l 0,1.7559 -7.08038,0 c -2.01714,-0.032 -2.01714,3.0099 0,2.9776 l 24.3998,0 c 1.35329,0.022 2.46711,-0.6709 3.18403,-1.489 0.71691,-0.818 1.15958,-1.7536 1.1613,-2.829 0.0133,-0.8393 -0.6695,-1.5237 -1.50885,-1.5124 l 0,0 c -0.82173,0.011 -1.47912,0.6858 -1.46883,1.5075 -9e-5,0.056 -0.14089,0.5494 -0.42316,0.8715 -0.28228,0.322 -0.58339,0.4794 -0.89541,0.4742 -0.008,-10e-5 -0.0164,-10e-5 -0.0247,0 l -5.43311,0 0,-1.7177 0.88074,0 c 1.02056,-0.1423 2.81184,-0.7469 3.73467,-1.1311 2.60528,-1.0846 3.89102,-2.741 3.55019,-4.5737 -0.17515,-0.9419 -0.60895,-1.7699 -1.53048,-2.9216 -1.3757,-1.7195 -3.579,-3.3922 -6.05215,-4.5948 -2.09769,-1.0199 -4.03456,-1.5725 -6.29059,-1.7945 -0.79246,-0.078 -0.81916,-0.092 -1.11453,-0.5713 -0.99768,-1.6207 -1.17393,-1.7419 -2.52894,-1.7419 l -0.96426,0 0,-0.536 0,-0.536 7.45607,0 c 6.65414,0 7.5,-0.021 7.86621,-0.1947 0.70203,-0.3332 0.96079,-1.21 0.57646,-1.9532 -0.37738,-0.7298 -0.15293,-0.7104 -8.35938,-0.7117 l -7.4798,0 -0.20356,-0.3575 c -0.19936,-0.3503 -0.5041,-0.5254 -0.80886,-0.5254 l 0,0 z m -17.95684,8.0015 c 1.48844,0 2.69505,1.2067 2.69504,2.6951 1.2e-4,1.4885 -1.20652,2.6953 -2.69504,2.6953 -1.48852,0 -2.69515,-1.2068 -2.69504,-2.6953 0,-1.4884 1.2066,-2.6951 2.69504,-2.6951 z m 23.43577,1.3289 0.74443,0.079 c 2.46011,0.2607 4.598,1.0515 6.81145,2.5196 1.93007,1.2802 3.53058,3.0597 3.80609,4.2321 l 0,0 0.077,0.3275 -4.20086,-0.012 -4.20086,-0.012 -1.51234,-1.155 -1.51257,-1.1549 -0.006,-2.4178 -0.006,-2.4178 z m -23.43577,0.089 c -0.705,0 -1.27656,0.5714 -1.27669,1.2764 -4e-5,0.7051 0.57157,1.2767 1.27669,1.2767 0.70511,0 1.27672,-0.5716 1.27668,-1.2767 -1.2e-4,-0.705 -0.57169,-1.2764 -1.27668,-1.2764 z m 26.24736,12.7252 0,1.7173 -5.95537,0 0,-1.7168 5.95537,0 z"
       id="path6581"
       inkscape:connector-curvature="0"
       sodipodi:nodetypes="ccccccccccccsccccccsscccccccccccccccccccccccccsccccscccsccccccccccccccccccccccccccccccccccccc" />
  </g>
</svg>
