<?xml version="1.0" encoding="UTF-8" standalone="no"?>
<!-- Created with Inkscape (http://www.inkscape.org/) -->

<svg
   xmlns:dc="http://purl.org/dc/elements/1.1/"
   xmlns:cc="http://creativecommons.org/ns#"
   xmlns:rdf="http://www.w3.org/1999/02/22-rdf-syntax-ns#"
   xmlns:svg="http://www.w3.org/2000/svg"
   xmlns="http://www.w3.org/2000/svg"
   xmlns:sodipodi="http://sodipodi.sourceforge.net/DTD/sodipodi-0.dtd"
   xmlns:inkscape="http://www.inkscape.org/namespaces/inkscape"
   width="14.111111mm"
   height="14.111111mm"
   viewBox="0 0 49.999998 49.999998"
   id="svg18711"
   version="1.1"
   inkscape:version="0.91 r"
   sodipodi:docname="quadcopter.svg">
  <defs
     id="defs18713" />
  <sodipodi:namedview
     id="base"
     pagecolor="#ffffff"
     bordercolor="#666666"
     borderopacity="1.0"
     inkscape:pageopacity="0.0"
     inkscape:pageshadow="2"
     inkscape:zoom="3.959798"
     inkscape:cx="-91.782836"
     inkscape:cy="-37.343193"
     inkscape:document-units="px"
     inkscape:current-layer="layer1"
     showgrid="false"
     fit-margin-top="0"
     fit-margin-left="0"
     fit-margin-right="0"
     fit-margin-bottom="0"
     inkscape:window-width="3799"
     inkscape:window-height="2136"
     inkscape:window-x="41"
     inkscape:window-y="24"
     inkscape:window-maximized="1" />
  <metadata
     id="metadata18716">
    <rdf:RDF>
      <cc:Work
         rdf:about="">
        <dc:format>image/svg+xml</dc:format>
        <dc:type
           rdf:resource="http://purl.org/dc/dcmitype/StillImage" />
        <dc:title></dc:title>
      </cc:Work>
    </rdf:RDF>
  </metadata>
  <g
     inkscape:label="Layer 1"
     inkscape:groupmode="layer"
     id="layer1"
     transform="translate(262.14285,-644.50507)">
    <path
       id="path7269"
       style="color:#000000;clip-rule:nonzero;display:inline;overflow:visible;visibility:visible;opacity:1;isolation:auto;mix-blend-mode:normal;color-interpolation:sRGB;color-interpolation-filters:linearRGB;solid-color:#000000;solid-opacity:1;fill:#e43232;fill-opacity:1;fill-rule:evenodd;stroke:none;stroke-width:2;stroke-linecap:round;stroke-linejoin:round;stroke-miterlimit:4;stroke-dasharray:none;stroke-dashoffset:0;stroke-opacity:1;color-rendering:auto;image-rendering:auto;shape-rendering:auto;text-rendering:auto;enable-background:accumulate"
       d="m -248.76241,665.70253 c -0.0392,0.5984 -0.2083,1.1809 -0.4961,1.707 l 4.6094,3.0235 c -1.0306,1.4692 -1.6406,3.2546 -1.6406,5.1855 8e-4,0.1467 0.0216,0.2914 0.0293,0.4375 l -5.9316,0 c 0.2883,0.5258 0.4582,1.1088 0.498,1.707 l 5.6797,0 c 0.015,0.061 0.0208,0.1233 0.0371,0.1836 0.2082,0.8789 0.7505,1.293 1.6328,1.2832 l 14.4844,0 c 0.5528,0 0.9484,-0.064 1.1894,-0.7207 0.0735,-0.2168 0.1367,-0.4367 0.1934,-0.6582 l 5.8984,-0.09 c 0.0398,-0.5983 0.2098,-1.1793 0.4981,-1.7051 l -6.1348,0.088 c 0.0104,-0.1749 0.0213,-0.3497 0.0215,-0.5254 0,-1.9325 -0.6104,-3.7195 -1.6426,-5.1894 l 4.8223,-3.0196 c -0.2878,-0.5261 -0.4569,-1.1086 -0.4961,-1.707 l -5.4473,3.4121 c -1.6278,-1.5729 -3.8407,-2.5429 -6.2832,-2.543 -2.4747,10e-5 -4.716,0.9937 -6.3496,2.6036 0.0123,-0.021 0.0228,-0.042 0.0352,-0.062 l -5.2071,-3.4102 z m 11.52094,3.4473 c 1.65467,0 2.99578,1.3419 2.99567,2.9966 1.1e-4,1.6546 -1.341,2.996 -2.99567,2.9964 -1.65491,2e-4 -2.9966,-1.3416 -2.9965,-2.9964 -1e-4,-1.6551 1.34149,-2.9968 2.9965,-2.9966 z m 0,1.1111 c -1.04136,-2e-4 -1.88558,0.844 -1.88539,1.8855 -1.9e-4,1.0413 0.84403,1.8855 1.88539,1.8854 1.04105,0 1.88477,-0.8445 1.88458,-1.8854 1.9e-4,-1.0412 -0.84353,-1.8852 -1.88458,-1.8855 z m -19.09314,2.0063 c -2.25739,0.048 -3.95903,0.3911 -3.9649,0.7988 -4.8e-4,0.3625 1.34745,0.6805 3.295,0.7774 0.2129,-0.1856 0.437,-0.9325 0.6699,-1.5762 z m 1.039,0 c 0.229,0.6633 0.4501,1.4445 0.6602,1.5781 1.96527,-0.095 3.33105,-0.4143 3.3301,-0.7793 -0.007,-0.4093 -1.72284,-0.7527 -3.9903,-0.7988 z m -0.5071,1.125 c 0.4206,0 0.8222,1.232 1.1902,1.3792 1.1808,0.4726 2.015,1.6273 2.015,2.9769 0,0.4404 -0.093,0.8759 -0.2707,1.2791 l -5.8714,0 c -0.1763,-0.4034 -0.2675,-0.8388 -0.2681,-1.2791 0,-1.3262 0.8055,-2.4643 1.9539,-2.9517 0.3844,-0.1632 0.8073,-1.4044 1.2511,-1.4044 z m 3.86897,-13.2152 c -2.21203,-0.4492 -3.94717,-0.4891 -4.04354,-0.093 -0.0804,0.3535 1.16466,0.9602 3.04338,1.483 0.24867,-0.1337 0.63138,-0.8136 1.00016,-1.3903 z m 1.01355,0.2284 c 0.0775,0.6975 0.12143,1.5082 0.29697,1.6847 1.93812,0.3398 3.3408,0.3283 3.42001,-0.028 0.0828,-0.4009 -1.51515,-1.1131 -3.71698,-1.6567 z m -0.77594,1.0761 c 0.41026,0.092 0.56497,1.2926 0.89163,1.5171 1.04803,0.7207 1.60787,2.0305 1.31107,3.3471 -0.0969,0.4297 -0.28336,0.8341 -0.54533,1.1883 l -5.72771,-1.2911 c -0.0837,-0.4321 -0.0765,-0.8771 0.0198,-1.3068 0.29161,-1.2937 1.32767,-2.2268 2.55512,-2.4497 0.41079,-0.075 1.06246,-1.1025 1.49545,-1.0049 z m 33.74499,10.7857 c 2.25739,0.048 3.95903,0.3911 3.9649,0.7988 4.8e-4,0.3625 -1.34745,0.6805 -3.295,0.7774 -0.2129,-0.1856 -0.437,-0.9325 -0.6699,-1.5762 z m -1.039,0 c -0.229,0.6633 -0.4501,1.4445 -0.6602,1.5781 -1.96527,-0.095 -3.33104,-0.4143 -3.3301,-0.7793 0.007,-0.4093 1.72285,-0.7527 3.9903,-0.7988 z m 0.5696,1.1875 c -0.4206,0 -0.8847,1.1695 -1.2527,1.3167 -1.1808,0.4726 -2.015,1.6273 -2.015,2.9769 0,0.4404 0.093,0.8759 0.2707,1.2791 l 5.8714,0 c 0.1763,-0.4034 0.2675,-0.8388 0.2681,-1.2791 0,-1.3262 -0.8055,-2.4643 -1.9539,-2.9517 -0.3844,-0.1632 -0.7448,-1.3419 -1.1886,-1.3419 z m -3.42655,-13.5139 c 2.24044,-0.2794 3.97378,-0.1867 4.03885,0.2158 0.0532,0.3586 -1.23447,0.8686 -3.14757,1.2467 -0.23775,-0.1523 -0.56753,-0.8593 -0.89128,-1.4625 z m -1.02801,0.1505 c -0.13043,0.6895 -0.23603,1.4945 -0.42451,1.6571 -1.95818,0.1911 -3.35585,0.073 -3.40793,-0.2885 -0.0521,-0.406 1.59549,-0.9944 3.83244,-1.3686 z m 0.68925,1.2083 c -0.41612,0.061 -0.65944,1.17 -1.00226,1.3689 -1.09993,0.6387 -1.75797,1.9021 -1.5624,3.2374 0.0638,0.4358 0.21897,0.8533 0.45317,1.2265 l 5.80946,-0.8508 c 0.11635,-0.4245 0.14317,-0.8687 0.0799,-1.3045 -0.19215,-1.3121 -1.15406,-2.3216 -2.36095,-2.6374 -0.40388,-0.106 -0.97775,-1.1044 -1.41691,-1.0401 z"
       inkscape:connector-curvature="0"
       sodipodi:nodetypes="ccccccccccscccccccccccccccccccccccccccccccccscsccccscccccccccccccccccccccccccscsccccscccccccccccccccc" />
  </g>
</svg>
