<?xml version="1.0" encoding="UTF-8" standalone="no"?>
<!-- Created with Inkscape (http://www.inkscape.org/) -->

<svg
   xmlns:dc="http://purl.org/dc/elements/1.1/"
   xmlns:cc="http://creativecommons.org/ns#"
   xmlns:rdf="http://www.w3.org/1999/02/22-rdf-syntax-ns#"
   xmlns:svg="http://www.w3.org/2000/svg"
   xmlns="http://www.w3.org/2000/svg"
   xmlns:sodipodi="http://sodipodi.sourceforge.net/DTD/sodipodi-0.dtd"
   xmlns:inkscape="http://www.inkscape.org/namespaces/inkscape"
   width="14.111111mm"
   height="14.111111mm"
   viewBox="0 0 49.999998 49.999998"
   id="svg6320"
   version="1.1"
   inkscape:version="0.91 r"
   sodipodi:docname="snap.svg">
  <defs
     id="defs6322" />
  <sodipodi:namedview
     id="base"
     pagecolor="#ffffff"
     bordercolor="#666666"
     borderopacity="1.0"
     inkscape:pageopacity="0.0"
     inkscape:pageshadow="2"
     inkscape:zoom="7.9195959"
     inkscape:cx="56.669321"
     inkscape:cy="18.678667"
     inkscape:document-units="px"
     inkscape:current-layer="layer1"
     showgrid="false"
     fit-margin-top="0"
     fit-margin-left="0"
     fit-margin-right="0"
     fit-margin-bottom="0"
     inkscape:window-width="1879"
     inkscape:window-height="1056"
     inkscape:window-x="41"
     inkscape:window-y="24"
     inkscape:window-maximized="1" />
  <metadata
     id="metadata6325">
    <rdf:RDF>
      <cc:Work
         rdf:about="">
        <dc:format>image/svg+xml</dc:format>
        <dc:type
           rdf:resource="http://purl.org/dc/dcmitype/StillImage" />
        <dc:title></dc:title>
      </cc:Work>
    </rdf:RDF>
  </metadata>
  <g
     inkscape:label="Layer 1"
     inkscape:groupmode="layer"
     id="layer1"
     transform="translate(845,-444.50507)">
    <path
       style="fill:#000000"
       d="m -838.9406,487.37523 c -1.22904,-0.2671 -2.45277,-1.2087 -3.01642,-2.321 -0.5306,-1.0471 -0.52338,-0.879 -0.52338,-12.1781 0,-11.2433 -0.004,-11.1366 0.50406,-12.1401 0.49903,-0.9847 1.47588,-1.8272 2.5973,-2.24 0.51908,-0.1911 0.78437,-0.2082 3.98639,-0.2576 l 3.43029,-0.053 0.40057,-0.2653 c 0.22031,-0.1459 0.48431,-0.4026 0.58665,-0.5705 0.10235,-0.1679 0.51251,-1.2893 0.91146,-2.4922 0.39896,-1.20279 0.80933,-2.32629 0.91195,-2.49679 0.10262,-0.1704 0.3861,-0.4272 0.62996,-0.5705 l 0.44337,-0.2606 7.92152,-0.026 c 5.63805,-0.019 8.03588,0.01 8.31826,0.081 0.24618,0.066 0.54533,0.2564 0.78829,0.5012 0.36327,0.366 0.44826,0.565 1.17739,2.75709 0.84104,2.5284 1.00714,2.8389 1.71088,3.1979 0.31469,0.1605 0.66014,0.1802 3.7173,0.2121 3.34281,0.035 3.37553,0.037 4.0022,0.2774 1.19184,0.457 2.00834,1.2241 2.57366,2.4179 l 0.31263,0.6602 0.0253,11.0995 c 0.0252,11.0457 0.0244,11.1025 -0.17369,11.6903 -0.52729,1.5653 -1.85658,2.7251 -3.45853,3.0177 -0.39352,0.072 -6.1033,0.1008 -18.87428,0.096 -15.02882,-0.01 -18.41635,-0.03 -18.90314,-0.1364 z m 21.17887,-4.5594 c 4.54956,-0.9567 8.11177,-4.5867 8.89205,-9.0611 0.18543,-1.0634 0.1813,-3.0222 -0.009,-4.0227 -0.44879,-2.3657 -1.46963,-4.2902 -3.17645,-5.988 -1.64291,-1.6343 -3.56847,-2.6382 -5.91627,-3.0846 -1.02055,-0.194 -3.01986,-0.1959 -4.02992,0 -4.55484,0.866 -8.05126,4.3138 -9.03746,8.9119 -0.23175,1.0806 -0.23346,3.2534 -0.003,4.3405 1.0186,4.8143 4.8145,8.3817 9.6192,9.0403 0.88796,0.1217 2.77731,0.053 3.66076,-0.1325 z m -3.30537,-4.4289 c -2.62577,-0.4714 -4.7014,-2.3689 -5.4043,-4.9403 -0.25981,-0.9505 -0.23913,-2.6025 0.044,-3.5182 0.38571,-1.247 0.8184,-1.9584 1.76614,-2.9036 1.38825,-1.3845 2.73873,-1.9415 4.71445,-1.9443 1.85555,0 3.37704,0.626 4.70985,1.946 0.61835,0.6123 0.85611,0.9347 1.20669,1.6362 0.59989,1.2003 0.77291,2.0348 0.71273,3.4374 -0.0796,1.8553 -0.61495,3.0522 -1.96402,4.3909 -0.89206,0.8853 -1.66132,1.3516 -2.81301,1.7053 -0.76499,0.2349 -2.20989,0.3277 -2.97258,0.1906 z m 18.19357,-12.6323 c 1.30487,-0.5926 1.24008,-2.4022 -0.10439,-2.9157 -1.35473,-0.5173 -2.68025,1.0161 -1.93501,2.2386 0.47919,0.7861 1.24193,1.0393 2.0394,0.6771 z"
       id="path6290"
       inkscape:connector-curvature="0" />
  </g>
</svg>
