<?xml version="1.0" encoding="UTF-8" standalone="no"?>
<!-- Created with Inkscape (http://www.inkscape.org/) -->

<svg
   xmlns:dc="http://purl.org/dc/elements/1.1/"
   xmlns:cc="http://creativecommons.org/ns#"
   xmlns:rdf="http://www.w3.org/1999/02/22-rdf-syntax-ns#"
   xmlns:svg="http://www.w3.org/2000/svg"
   xmlns="http://www.w3.org/2000/svg"
   xmlns:sodipodi="http://sodipodi.sourceforge.net/DTD/sodipodi-0.dtd"
   xmlns:inkscape="http://www.inkscape.org/namespaces/inkscape"
   width="14.111111mm"
   height="14.111111mm"
   viewBox="0 0 49.999998 49.999998"
   id="svg9943"
   version="1.1"
   inkscape:version="0.91 r"
   sodipodi:docname="warning.svg">
  <defs
     id="defs9945" />
  <sodipodi:namedview
     id="base"
     pagecolor="#ffffff"
     bordercolor="#666666"
     borderopacity="1.0"
     inkscape:pageopacity="0.0"
     inkscape:pageshadow="2"
     inkscape:zoom="18.260001"
     inkscape:cx="24.999999"
     inkscape:cy="24.999999"
     inkscape:document-units="px"
     inkscape:current-layer="layer1"
     showgrid="false"
     fit-margin-top="0"
     fit-margin-left="0"
     fit-margin-right="0"
     fit-margin-bottom="0"
     inkscape:window-width="1879"
     inkscape:window-height="1056"
     inkscape:window-x="41"
     inkscape:window-y="24"
     inkscape:window-maximized="1" />
  <metadata
     id="metadata9948">
    <rdf:RDF>
      <cc:Work
         rdf:about="">
        <dc:format>image/svg+xml</dc:format>
        <dc:type
           rdf:resource="http://purl.org/dc/dcmitype/StillImage" />
        <dc:title></dc:title>
      </cc:Work>
    </rdf:RDF>
  </metadata>
  <g
     inkscape:label="Layer 1"
     inkscape:groupmode="layer"
     id="layer1"
     transform="translate(-1035,358.35208)">
    <path
       id="circle2237"
       d="m 1062.4079,-321.16981 a 2.4076957,2.4076957 0 0 1 -2.4077,2.4076 2.4076957,2.4076957 0 0 1 -2.4077,-2.4076 2.4076957,2.4076957 0 0 1 2.4077,-2.4077 2.4076957,2.4076957 0 0 1 2.4077,2.4077 z m -4.1359,-6.8465 c 0.095,0.8998 0.2514,1.5693 0.4714,2.0095 0.22,0.4408 0.6123,0.6601 1.1777,0.6601 l 0.1575,0 c 0.5653,0 0.9584,-0.2193 1.1776,-0.6601 0.2201,-0.4402 0.3775,-1.1097 0.4714,-2.0095 l 0.5028,-6.9496 c 0.095,-1.3547 0.1417,-2.3265 0.1417,-2.9169 0,-0.8027 -0.2279,-1.4292 -0.6836,-1.8787 -0.433,-0.4275 -1.0477,-0.6725 -1.6883,-0.6725 -0.6405,0 -1.256,0.245 -1.6891,0.6725 -0.4549,0.4495 -0.6828,1.076 -0.6828,1.8787 0,0.5904 0.047,1.5622 0.141,2.9169 l 0.5027,6.9496 z m 1.7282,-18.9086 17.2244,29.834 -34.449,0 17.2246,-29.834 z m 0,-7.2946 c -0.686,0 -1.3194,0.3663 -1.6624,0.9601 l -21.8797,37.8957 c -0.3426,0.5937 -0.3426,1.3257 0,1.9201 0.343,0.5935 0.9767,0.9592 1.6625,0.9592 l 43.7584,0 c 0.6861,0 1.3203,-0.3657 1.6626,-0.9592 0.343,-0.5944 0.343,-1.3264 0,-1.9201 l 0,0 -21.879,-37.8957 c -0.3429,-0.5942 -0.9765,-0.9603 -1.6624,-0.9603 z"
       inkscape:connector-curvature="0" />
  </g>
</svg>
