<?xml version="1.0" encoding="UTF-8" standalone="no"?>
<!-- Created with Inkscape (http://www.inkscape.org/) -->

<svg
   width="1024"
   height="1024"
   viewBox="0 0 270.93333 270.93333"
   version="1.1"
   id="svg21781"
   inkscape:version="1.2.2 (b0a8486541, 2022-12-01)"
   sodipodi:docname="hub_watermark.svg"
   xmlns:inkscape="http://www.inkscape.org/namespaces/inkscape"
   xmlns:sodipodi="http://sodipodi.sourceforge.net/DTD/sodipodi-0.dtd"
   xmlns:xlink="http://www.w3.org/1999/xlink"
   xmlns="http://www.w3.org/2000/svg"
   xmlns:svg="http://www.w3.org/2000/svg">
  <sodipodi:namedview
     id="namedview21783"
     pagecolor="#ffffff"
     bordercolor="#111111"
     borderopacity="1"
     inkscape:showpageshadow="0"
     inkscape:pageopacity="0"
     inkscape:pagecheckerboard="1"
     inkscape:deskcolor="#d1d1d1"
     inkscape:document-units="px"
     showgrid="false"
     inkscape:zoom="1.2938725"
     inkscape:cx="853.25254"
     inkscape:cy="649.98676"
     inkscape:window-width="3792"
     inkscape:window-height="2111"
     inkscape:window-x="3888"
     inkscape:window-y="0"
     inkscape:window-maximized="1"
     inkscape:current-layer="layer1" />
  <defs
     id="defs21778">
    <linearGradient
       inkscape:collect="always"
       xlink:href="#linearGradient15962"
       id="linearGradient12152"
       gradientUnits="userSpaceOnUse"
       gradientTransform="matrix(1.6863201,0.97359733,-0.97359733,1.6863201,-14026.549,-11913.57)"
       x1="9309.876"
       y1="1757.0229"
       x2="9309.876"
       y2="1715.8787" />
    <linearGradient
       id="linearGradient15962"
       inkscape:collect="always">
      <stop
         id="stop15958"
         offset="0"
         style="stop-color:#676767;stop-opacity:1;" />
      <stop
         id="stop15960"
         offset="1"
         style="stop-color:#919191;stop-opacity:1;" />
    </linearGradient>
    <linearGradient
       inkscape:collect="always"
       xlink:href="#hub_background_gradient"
       id="linearGradient12150"
       gradientUnits="userSpaceOnUse"
       gradientTransform="matrix(4.1146008,2.3755658,-2.3755658,4.1146008,5079.2359,-307.57297)"
       x1="-881.30847"
       y1="615.57861"
       x2="-881.30847"
       y2="598.72168" />
    <linearGradient
       id="hub_background_gradient"
       inkscape:collect="always">
      <stop
         style="stop-color:#d8d8d8;stop-opacity:1"
         id="hub_background_color_stop2"
         offset="0" />
      <stop
         style="stop-color:#ffffff;stop-opacity:1"
         id="hub_background_color_stop1"
         offset="1" />
    </linearGradient>
  </defs>
  <g
     inkscape:label="Layer 1"
     inkscape:groupmode="layer"
     id="layer1">
    <path
       id="path345"
       style="opacity:0.460025;fill:url(#linearGradient12152);fill-opacity:1;fill-rule:evenodd;stroke:none;stroke-width:24.9455;stroke-linecap:round;stroke-linejoin:round;stroke-miterlimit:4;stroke-dasharray:none;stroke-dashoffset:0;stroke-opacity:1"
       d="M 82.973746 0.83922525 C 61.445306 0.80160624 40.492417 11.957772 28.955338 31.939652 C 21.998134 43.672554 15.72982 49.850155 4.3687255 53.314058 C -19.832522 60.557123 -40.647088 76.783079 -53.532132 99.03013 C -81.16641 146.893 -64.764786 208.09659 -16.901294 235.72979 C 30.961985 263.36447 92.16316 246.96507 119.7963 199.10154 C 132.76292 176.50474 136.35847 149.97736 130.19309 125.11122 C 127.11062 114.17666 130.5982 104.72367 136.65471 94.120352 C 153.82492 64.379155 143.63798 26.351148 113.89744 9.1798013 C 104.1388 3.5458572 93.487635 0.85759732 82.973746 0.83922525 z M 82.855923 23.297802 A 39.646216 39.646216 0 0 1 102.679 28.609623 A 39.646216 39.646216 0 0 1 117.19026 82.76704 A 39.646216 39.646216 0 0 1 63.032844 97.278299 A 39.646216 39.646216 0 0 1 48.521586 43.120882 A 39.646216 39.646216 0 0 1 82.855923 23.297802 z M 27.970902 90.129381 A 71.996324 71.996324 0 0 1 61.613293 99.73603 A 71.996324 71.996324 0 0 1 87.965689 198.08455 A 71.996324 71.996324 0 0 1 -10.382829 224.43643 A 71.996324 71.996324 0 0 1 -36.735225 126.08894 A 71.996324 71.996324 0 0 1 27.970902 90.129381 z " />
    <path
       id="path11646-3"
       style="opacity:0.460025;fill:url(#linearGradient12150);fill-opacity:1;fill-rule:evenodd;stroke:none;stroke-width:24.9455;stroke-linecap:round;stroke-linejoin:round;stroke-miterlimit:4;stroke-dasharray:none;stroke-dashoffset:0;stroke-opacity:1"
       d="M 81.373327 23.325708 A 39.646216 39.646216 0 0 0 48.521586 43.120882 A 39.646216 39.646216 0 0 0 63.032844 97.278299 A 39.646216 39.646216 0 0 0 117.19026 82.76704 A 39.646216 39.646216 0 0 0 102.679 28.609623 A 39.646216 39.646216 0 0 0 81.373327 23.325708 z M 86.159081 33.702335 A 4.0399699 4.0399699 0 0 1 88.179629 34.243904 A 4.0399699 4.0399699 0 0 1 89.658092 39.763464 L 78.115128 59.756042 A 4.0399699 4.0399699 0 0 1 72.597635 61.234504 A 4.0399699 4.0399699 0 0 1 71.119172 55.714945 L 82.66007 35.722884 A 4.0399699 4.0399699 0 0 1 85.11315 33.839795 A 4.0399699 4.0399699 0 0 1 86.159081 33.702335 z M 103.02627 43.440759 A 4.0399699 4.0399699 0 0 1 105.04682 43.982328 A 4.0399699 4.0399699 0 0 1 106.52528 49.49982 L 94.982315 69.493949 A 4.0399699 4.0399699 0 0 1 89.462755 70.972411 A 4.0399699 4.0399699 0 0 1 87.984293 65.453368 L 99.527257 45.46079 A 4.0399699 4.0399699 0 0 1 101.98034 43.578218 A 4.0399699 4.0399699 0 0 1 103.02627 43.440759 z M 58.914233 44.871162 A 4.0399699 4.0399699 0 0 1 61.199364 45.404463 A 4.0399699 4.0399699 0 0 1 62.677827 50.921956 C 56.169124 62.19555 60.000021 76.493582 71.273685 83.002168 C 82.547079 89.510756 96.844626 85.67969 103.35338 74.40631 A 4.0399699 4.0399699 0 0 1 108.87087 72.927847 A 4.0399699 4.0399699 0 0 1 110.34985 78.44534 C 101.65774 93.500271 82.289194 98.690018 67.234138 89.998123 L 67.234138 90.00019 C 52.178726 81.308303 46.987759 61.938246 55.679805 46.882926 A 4.0399699 4.0399699 0 0 1 58.132885 44.999837 A 4.0399699 4.0399699 0 0 1 58.914233 44.871162 z M 27.598832 90.118012 A 71.996324 71.996324 0 0 0 -36.735225 126.08894 A 71.996324 71.996324 0 0 0 -10.382829 224.43643 A 71.996324 71.996324 0 0 0 87.965689 198.08455 A 71.996324 71.996324 0 0 0 61.613293 99.73603 A 71.996324 71.996324 0 0 0 27.598832 90.118012 z M 36.386409 103.41126 C 36.615934 103.41486 36.844427 103.42228 37.072155 103.43348 C 40.715828 103.61224 44.117538 104.74183 46.859155 106.30462 C 49.60077 107.8674 51.818724 109.80942 53.388472 112.08773 C 53.755596 112.62057 54.115307 113.21219 54.427685 113.84731 C 60.241259 114.38952 65.080276 116.89359 68.398408 120.48257 C 71.961582 124.33657 73.791341 129.17729 74.454886 134.01559 C 79.116275 137.89661 81.933476 142.5982 82.381017 147.51347 C 82.79558 152.06654 81.313433 156.35971 78.898542 160.12511 C 82.865009 170.81568 78.817418 181.46215 70.843737 186.57052 C 70.401445 186.85388 69.945262 187.11541 69.481546 187.36427 A 4.71733 4.71733 0 0 1 69.320316 188.5058 C 66.001657 200.8007 61.326699 208.97369 54.788903 213.74044 C 48.677001 218.19662 41.382354 219.04809 33.988106 218.20683 C 30.117589 220.16147 25.640197 222.36945 19.900594 222.25413 C 13.5783 222.1271 6.6691345 219.04164 -1.2795084 211.76175 A 4.71733 4.71733 0 0 1 -1.9466512 210.98092 C -10.276074 210.81883 -17.27392 205.87186 -21.867399 200.22085 C -24.412608 197.08968 -26.310303 193.67842 -27.400394 190.26384 C -28.119346 188.0118 -28.505802 185.7005 -28.269592 183.39242 C -39.856176 171.71559 -33.741426 148.64686 -18.926493 138.62409 C -17.106593 128.24196 -13.524276 121.83874 -8.9823974 118.18142 C -5.7744523 115.59824 -2.3404242 114.69893 0.55655517 114.44314 C 2.7483443 109.65884 6.2954072 106.2302 10.388513 104.66803 C 12.899019 103.70987 15.501547 103.36812 18.039209 103.53115 C 20.57687 103.69418 23.050694 104.36096 25.302848 105.42199 C 25.660612 105.59053 26.013607 105.77085 26.362215 105.96097 C 29.678165 104.08912 33.117992 103.35966 36.386409 103.41126 z M 36.056713 112.76831 C 35.262025 112.7759 34.450446 112.88406 33.628955 113.09904 C 34.210643 114.18325 34.675129 115.34941 34.994246 116.59392 C 36.328547 121.79746 34.701541 127.91395 30.011604 133.24406 A 4.71733 4.71733 0 0 1 23.353613 133.66988 A 4.71733 4.71733 0 0 1 22.927799 127.01188 C 26.128409 123.37439 26.35827 120.89699 25.855269 118.93537 C 25.352269 116.97377 23.673423 115.0838 21.281388 113.95687 C 18.889353 112.82995 16.017698 112.61781 13.752132 113.48248 C 11.486566 114.34716 9.4933802 116.05945 8.3142211 120.34201 L 7.2636392 124.15831 L 3.3222778 123.78521 C 1.4345874 123.60698 -0.74790241 123.66601 -3.0644124 125.53135 C -4.711629 126.85777 -6.6537533 129.37736 -8.1870971 134.20008 C -2.4810542 133.18305 3.8911942 133.97298 10.65258 137.3358 A 4.71733 4.71733 0 0 1 12.775447 143.66203 A 4.71733 4.71733 0 0 1 6.4512857 145.78541 C -20.166147 132.54708 -31.291855 170.11065 -20.330025 177.98035 L -17.160193 180.25773 L -18.802986 183.79705 C -18.833429 183.8627 -19.071762 185.3291 -18.412313 187.39476 C -17.752862 189.46042 -16.393489 191.99557 -14.544848 194.26979 C -11.336047 198.21734 -6.9158886 201.0146 -2.3068359 201.3536 C -2.1311721 201.05319 -2.0356639 200.8937 -1.8283122 200.53711 C -0.62603735 198.46949 1.0932614 195.48636 3.1698323 191.86736 C 7.3229738 184.62931 12.909456 174.84552 18.705318 164.68349 C 30.042306 144.80609 41.804013 124.14623 45.644759 117.48068 C 45.620519 117.44118 45.65212 117.48961 45.61892 117.44141 C 45.08004 116.65928 43.808161 115.42375 42.187605 114.49999 C 40.364482 113.46076 38.275067 112.74711 36.056713 112.76831 z M 53.242228 123.19196 C 48.877054 130.79158 37.670533 150.47368 26.900166 169.35762 C 21.102787 179.5223 15.515291 189.30923 11.353312 196.56268 C 9.2723225 200.18938 7.5489056 203.18239 6.3282958 205.28152 C 6.2256579 205.45803 6.1808165 205.53129 6.0854166 205.69494 C 12.48934 211.32507 16.77261 212.75348 20.08973 212.82008 C 23.575826 212.89013 26.814957 211.31222 31.007926 209.20118 L 32.33601 208.53145 L 33.808789 208.74591 C 40.385817 209.70479 45.156048 209.08791 49.230586 206.11713 C 52.807333 203.5093 56.246918 198.60225 59.069262 189.90262 C 52.501642 189.87306 45.466501 187.04697 39.656494 180.78328 A 4.71733 4.71733 0 0 1 39.906091 174.11547 A 4.71733 4.71733 0 0 1 46.574418 174.36507 C 53.681409 182.02702 60.885568 181.74482 65.755675 178.62475 C 70.625784 175.5047 73.366444 169.53824 69.392663 161.65628 L 68.033056 158.95877 L 69.912011 156.59561 C 72.228992 153.68275 73.209706 150.84621 72.984175 148.36924 C 72.758642 145.89225 71.465042 143.23427 67.298734 140.26741 L 65.472489 138.96671 L 65.328311 136.7286 C 65.088173 133.00991 63.735676 129.3367 61.470666 126.88683 C 59.567811 124.82865 57.103862 123.39571 53.242228 123.19196 z M 54.085587 134.83673 A 4.71733 4.71733 0 0 1 57.003755 135.66614 A 4.71733 4.71733 0 0 1 58.206782 142.22646 C 56.811585 144.24866 55.937038 149.15937 56.560371 153.94719 C 57.183706 158.73502 59.350756 163.26084 60.869152 164.60959 A 4.71733 4.71733 0 0 1 61.263443 171.26758 A 4.71733 4.71733 0 0 1 54.603385 171.66187 C 50.078251 167.64231 48.030981 161.50953 47.20487 155.16417 C 46.378759 148.81882 46.818806 142.11968 50.441365 136.86916 A 4.71733 4.71733 0 0 1 53.472704 134.90804 A 4.71733 4.71733 0 0 1 54.085587 134.83673 z M -9.3281127 153.63765 A 4.71733 4.71733 0 0 1 -7.2812092 154.10532 C 2.4504629 158.79763 7.2830652 170.75313 3.6540405 181.47264 A 4.71733 4.71733 0 0 1 -2.3280232 184.4275 A 4.71733 4.71733 0 0 1 -5.2833984 178.4475 C -3.2458611 172.42898 -6.5489285 164.93249 -11.37915 162.60351 A 4.71733 4.71733 0 0 1 -13.580049 156.30674 A 4.71733 4.71733 0 0 1 -10.886674 153.90223 A 4.71733 4.71733 0 0 1 -9.3281127 153.63765 z M 34.285245 188.37506 C 34.491072 188.37606 34.696682 188.37995 34.902262 188.38695 C 38.849398 188.51456 42.740009 189.68822 46.088142 191.97278 A 4.71733 4.71733 0 0 1 47.324243 198.52948 A 4.71733 4.71733 0 0 1 40.769604 199.76558 C 36.344485 196.74616 28.19773 197.63573 24.003703 202.41038 A 4.71733 4.71733 0 0 1 17.347778 202.84188 A 4.71733 4.71733 0 0 1 16.915763 196.18337 C 21.437975 191.03511 27.904624 188.34486 34.285245 188.37506 z " />
    <path
       id="path445"
       style="color:#000000;opacity:0.460025;fill:#000000;fill-rule:evenodd;stroke-linecap:round;-inkscape-stroke:none"
       d="m 86.159081,33.702335 a 4.0399699,4.0399699 0 0 0 -1.045931,0.13746 4.0399699,4.0399699 0 0 0 -2.45308,1.883089 L 71.119172,55.714945 a 4.0399699,4.0399699 0 0 0 1.478463,5.519559 4.0399699,4.0399699 0 0 0 5.517493,-1.478462 L 89.658092,39.763464 a 4.0399699,4.0399699 0 0 0 -1.478463,-5.51956 4.0399699,4.0399699 0 0 0 -2.020548,-0.541569 z m 16.867189,9.738424 a 4.0399699,4.0399699 0 0 0 -1.04593,0.137459 4.0399699,4.0399699 0 0 0 -2.453083,1.882572 L 87.984293,65.453368 a 4.0399699,4.0399699 0 0 0 1.478462,5.519043 4.0399699,4.0399699 0 0 0 5.51956,-1.478462 L 106.52528,49.49982 a 4.0399699,4.0399699 0 0 0 -1.47846,-5.517492 4.0399699,4.0399699 0 0 0 -2.02055,-0.541569 z m -44.112037,1.430403 a 4.0399699,4.0399699 0 0 0 -0.781348,0.128675 4.0399699,4.0399699 0 0 0 -2.45308,1.883089 C 46.98775,61.938261 52.178711,81.308294 67.234138,90.00019 v -0.0021 c 15.055071,8.691904 34.423592,3.502163 43.115712,-11.552783 a 4.0399699,4.0399699 0 0 0 -1.47898,-5.517493 4.0399699,4.0399699 0 0 0 -5.51749,1.478463 C 96.844619,85.679668 82.54709,89.510763 71.273685,83.002168 60.00001,76.493576 56.169117,62.195562 62.677827,50.921956 A 4.0399699,4.0399699 0 0 0 61.199364,45.404463 4.0399699,4.0399699 0 0 0 58.914233,44.871162 Z M 36.386409,103.41126 c -3.26842,-0.0516 -6.708241,0.67786 -10.024194,2.54971 -0.348608,-0.19012 -0.701603,-0.37044 -1.059367,-0.53898 -2.252156,-1.06103 -4.725975,-1.72781 -7.263639,-1.89084 -2.537664,-0.16303 -5.140188,0.17872 -7.650696,1.13688 -4.0931099,1.56217 -7.6401665,4.9908 -9.8319578,9.77511 -2.8969823,0.25579 -6.3310046,1.1551 -9.5389529,3.73828 -4.5418833,3.65733 -8.1241933,10.06052 -9.9440953,20.44267 -14.814948,10.02278 -20.929695,33.09149 -9.343099,44.76833 -0.23621,2.30808 0.150246,4.61938 0.869198,6.87142 1.090092,3.41459 2.987783,6.82584 5.532995,9.95701 4.593483,5.65101 11.591317,10.59798 19.9207482,10.76007 a 4.71733,4.71733 0 0 0 0.667142,0.78083 c 7.9486509,7.2799 14.8578028,10.36535 21.1801028,10.49238 5.739609,0.11532 10.216991,-2.09266 14.087512,-4.0473 7.394256,0.84126 14.688889,-0.0102 20.800797,-4.46639 6.537802,-4.76675 11.212751,-12.93973 14.531413,-25.23464 a 4.71733,4.71733 0 0 0 0.16123,-1.14153 c 0.463716,-0.24886 0.919899,-0.51039 1.362191,-0.79375 7.973689,-5.10838 12.021276,-15.75483 8.054805,-26.44541 2.414893,-3.7654 3.897038,-8.05857 3.482475,-12.61164 -0.447542,-4.91528 -3.264737,-9.61686 -7.926131,-13.49788 -0.663546,-4.83831 -2.493301,-9.67901 -6.056478,-13.53302 -3.318135,-3.58898 -8.157143,-6.09305 -13.970723,-6.63526 -0.312378,-0.63512 -0.672088,-1.22674 -1.039213,-1.75958 -1.569749,-2.27831 -3.787699,-4.22033 -6.529317,-5.78311 -2.741619,-1.56279 -6.143324,-2.69238 -9.787,-2.87114 -0.227729,-0.0112 -0.456221,-0.0186 -0.685746,-0.0222 z m -0.329696,9.35705 c 2.218356,-0.0212 4.307767,0.69245 6.130892,1.73168 1.620557,0.92376 2.892434,2.15929 3.431315,2.94142 0.0332,0.0482 0.0016,-2e-4 0.02584,0.0393 -3.840749,6.66555 -15.602442,27.32539 -26.939441,47.20281 -5.795868,10.16204 -11.3823399,19.94582 -15.5354855,27.18387 -2.076573,3.61901 -3.7958683,6.60213 -4.9981443,8.66975 -0.207352,0.35659 -0.3028603,0.51608 -0.4785243,0.81649 -4.6090573,-0.339 -9.0292069,-3.13626 -12.2380119,-7.08381 -1.848642,-2.27423 -3.208014,-4.80937 -3.867465,-6.87503 -0.65945,-2.06566 -0.421116,-3.53206 -0.390673,-3.59771 l 1.642793,-3.53932 -3.169832,-2.27738 c -10.961841,-7.86971 0.163852,-45.43329 26.7813111,-32.19494 a 4.71733,4.71733 0 0 0 6.3241609,-2.12338 4.71733,4.71733 0 0 0 -2.122867,-6.32623 c -6.7613922,-3.36282 -13.1336281,-4.15275 -18.8396767,-3.13572 1.5333453,-4.82272 3.4754663,-7.34231 5.1226846,-8.66873 2.3165123,-1.86535 4.4989976,-1.92437 6.3866899,-1.74614 l 3.9413613,0.3731 1.050582,-3.8163 c 1.1791603,-4.28256 3.1723429,-5.99485 5.4379109,-6.85953 2.265568,-0.86467 5.137219,-0.65253 7.529256,0.47439 2.392037,1.12693 4.07088,3.01689 4.573881,4.9785 0.503001,1.96162 0.273143,4.43901 -2.92747,8.07651 a 4.71733,4.71733 0 0 0 0.425814,6.658 4.71733,4.71733 0 0 0 6.657991,-0.42582 c 4.689941,-5.33012 6.316944,-11.44659 4.982642,-16.65014 -0.319117,-1.24451 -0.783602,-2.41067 -1.365291,-3.49488 0.821492,-0.21498 1.633069,-0.32314 2.427758,-0.33073 z m 17.185515,10.42365 c 3.861638,0.20375 6.325581,1.63669 8.228438,3.69487 2.265013,2.44988 3.617506,6.12307 3.857645,9.84177 l 0.144178,2.23811 1.826245,1.3007 c 4.166312,2.96687 5.459908,5.62484 5.685441,8.10183 0.225532,2.47698 -0.755181,5.31351 -3.072164,8.22637 l -1.878955,2.36316 1.359607,2.69751 c 3.973785,7.88197 1.233125,13.84841 -3.636988,16.96847 -4.870112,3.12007 -12.074258,3.40228 -19.181257,-4.25968 a 4.71733,4.71733 0 0 0 -6.668327,-0.2496 4.71733,4.71733 0 0 0 -0.249597,6.66781 c 5.810013,6.2637 12.845141,9.08978 19.412768,9.11934 -2.822347,8.69964 -6.261926,13.60668 -9.838676,16.21451 -4.074542,2.97078 -8.844762,3.58766 -15.421797,2.62878 l -1.472779,-0.21446 -1.328084,0.66973 c -4.192973,2.11104 -7.432096,3.68895 -10.918196,3.6189 -3.317123,-0.0666 -7.600384,-1.495 -14.0043139,-7.12514 0.0954,-0.16365 0.140242,-0.23691 0.24288,-0.41342 1.220611,-2.09914 2.9440243,-5.09213 5.0250159,-8.71884 4.161983,-7.25345 9.749469,-17.04037 15.546854,-27.20506 10.770377,-18.88396 21.976884,-38.56603 26.342062,-46.16566 z m 0.843359,11.64477 a 4.71733,4.71733 0 0 0 -0.612883,0.0713 4.71733,4.71733 0 0 0 -3.031339,1.96112 c -3.622563,5.25052 -4.062607,11.94965 -3.236495,18.29501 0.826112,6.34537 2.873377,12.47813 7.398515,16.4977 a 4.71733,4.71733 0 0 0 6.660058,-0.39429 4.71733,4.71733 0 0 0 -0.394291,-6.65799 c -1.518398,-1.34875 -3.685446,-5.87457 -4.308781,-10.6624 -0.623334,-4.78783 0.251212,-9.69853 1.646411,-11.72073 a 4.71733,4.71733 0 0 0 -1.203027,-6.56032 4.71733,4.71733 0 0 0 -2.918168,-0.82941 z m -63.4136997,18.80092 a 4.71733,4.71733 0 0 0 -1.5585613,0.26458 4.71733,4.71733 0 0 0 -2.693375,2.40451 4.71733,4.71733 0 0 0 2.200899,6.29677 c 4.8302266,2.32898 8.1332909,9.82546 6.0957516,15.84399 a 4.71733,4.71733 0 0 0 2.9553753,5.98 4.71733,4.71733 0 0 0 5.9820639,-2.95486 C 7.2830691,170.75312 2.4504725,158.79763 -7.2812094,154.10532 a 4.71733,4.71733 0 0 0 -2.0469033,-0.46767 z m 43.6133577,34.73741 c -6.380628,-0.0302 -12.847266,2.66004 -17.369482,7.80831 a 4.71733,4.71733 0 0 0 0.432015,6.65851 4.71733,4.71733 0 0 0 6.655925,-0.4315 c 4.194032,-4.77466 12.340778,-5.66422 16.765901,-2.6448 a 4.71733,4.71733 0 0 0 6.554639,-1.2361 4.71733,4.71733 0 0 0 -1.236101,-6.5567 c -3.348137,-2.28456 -7.23874,-3.45822 -11.18588,-3.58583 -0.20558,-0.007 -0.41119,-0.0109 -0.617017,-0.0119 z" />
  </g>
</svg>
