<?xml version="1.0" encoding="UTF-8" standalone="no"?>
<!-- Created with Inkscape (http://www.inkscape.org/) -->

<svg
   width="64.000015"
   height="64.000015"
   viewBox="0 0 16.933337 16.933337"
   version="1.1"
   id="svg306967"
   inkscape:version="1.2.2 (b0a8486541, 2022-12-01)"
   sodipodi:docname="development.svg"
   xmlns:inkscape="http://www.inkscape.org/namespaces/inkscape"
   xmlns:sodipodi="http://sodipodi.sourceforge.net/DTD/sodipodi-0.dtd"
   xmlns="http://www.w3.org/2000/svg"
   xmlns:svg="http://www.w3.org/2000/svg">
  <sodipodi:namedview
     id="namedview306969"
     pagecolor="#ffffff"
     bordercolor="#111111"
     borderopacity="1"
     inkscape:showpageshadow="0"
     inkscape:pageopacity="0"
     inkscape:pagecheckerboard="1"
     inkscape:deskcolor="#d1d1d1"
     inkscape:document-units="px"
     showgrid="false"
     inkscape:zoom="2.587745"
     inkscape:cx="116.31749"
     inkscape:cy="110.90737"
     inkscape:window-width="3792"
     inkscape:window-height="2111"
     inkscape:window-x="3888"
     inkscape:window-y="0"
     inkscape:window-maximized="1"
     inkscape:current-layer="layer1" />
  <defs
     id="defs306964" />
  <g
     inkscape:label="Layer 1"
     inkscape:groupmode="layer"
     id="layer1"
     transform="translate(-51.396038,-46.190628)">
    <path
       inkscape:connector-curvature="0"
       style="display:inline;fill:#000000;fill-opacity:1;fill-rule:evenodd;stroke:none;stroke-width:1.016;stroke-linecap:round;stroke-linejoin:round;stroke-miterlimit:4;stroke-dasharray:none;stroke-dashoffset:0;stroke-opacity:1"
       d="m 55.93269,47.0164 -0.1188,1.7386 h 1.5657 l -0.1188,-1.7386 z"
       id="path46159-6" />
    <path
       inkscape:connector-curvature="0"
       style="display:inline;fill:#000000;fill-opacity:1;fill-rule:evenodd;stroke:none;stroke-width:1.016;stroke-linecap:round;stroke-linejoin:round;stroke-miterlimit:4;stroke-dasharray:none;stroke-dashoffset:0;stroke-opacity:1"
       d="m 59.19909,47.0164 -0.1188,1.7386 h 1.5657 l -0.1188,-1.7386 z"
       id="path46161-7" />
    <path
       inkscape:connector-curvature="0"
       style="display:inline;fill:#000000;fill-opacity:1;fill-rule:evenodd;stroke:none;stroke-width:1.016;stroke-linecap:round;stroke-linejoin:round;stroke-miterlimit:4;stroke-dasharray:none;stroke-dashoffset:0;stroke-opacity:1"
       d="m 62.46549,47.0164 -0.1188,1.7386 h 1.5659 l -0.1188,-1.7386 z"
       id="path46163-3" />
    <path
       id="path46165-6"
       style="display:inline;fill:#000000;fill-opacity:1;fill-rule:evenodd;stroke:none;stroke-width:1.016;stroke-linecap:round;stroke-linejoin:round;stroke-miterlimit:4;stroke-dasharray:none;stroke-dashoffset:0;stroke-opacity:1"
       d="m 55.16674,49.3278 c -0.3516,0 -0.63511,0.283 -0.63511,0.6346 v 9.5141 c 0,0.3516 0.28351,0.6346 0.63511,0.6346 h 9.42733 c 0.3517,0 0.6351,-0.283 0.6351,-0.6346 v -9.5141 c 0,-0.3516 -0.2834,-0.6346 -0.6351,-0.6346 z m 1.51411,0.8764 h 6.3991 c 0.7089,0 1.28002,0.571 1.28002,1.2801 v 6.4709 c 0,0.7091 -0.57112,1.28 -1.28002,1.28 h -6.3991 c -0.70909,0 -1.2795,-0.5709 -1.2795,-1.28 v -6.4709 c 0,-0.7091 0.57041,-1.2801 1.2795,-1.2801 z" />
    <path
       inkscape:connector-curvature="0"
       style="display:inline;fill:#000000;fill-opacity:1;fill-rule:evenodd;stroke:none;stroke-width:1.016;stroke-linecap:round;stroke-linejoin:round;stroke-miterlimit:4;stroke-dasharray:none;stroke-dashoffset:0;stroke-opacity:1"
       d="m 53.95879,50.6099 -1.7387,0.1188 v 1.3282 l 1.7387,0.1188 z"
       id="path46169-6" />
    <path
       inkscape:connector-curvature="0"
       style="display:inline;fill:#000000;fill-opacity:1;fill-rule:evenodd;stroke:none;stroke-width:1.016;stroke-linecap:round;stroke-linejoin:round;stroke-miterlimit:4;stroke-dasharray:none;stroke-dashoffset:0;stroke-opacity:1"
       d="m 65.76669,50.6099 v 1.5658 l 1.7387,-0.1188 v -1.3282 z"
       id="path46171-3" />
    <path
       inkscape:connector-curvature="0"
       style="display:inline;fill:#000000;fill-opacity:1;fill-rule:evenodd;stroke:none;stroke-width:1.016;stroke-linecap:round;stroke-linejoin:round;stroke-miterlimit:4;stroke-dasharray:none;stroke-dashoffset:0;stroke-opacity:1"
       d="m 53.95879,53.8763 -1.7387,0.1188 v 1.3282 l 1.7387,0.1188 z"
       id="path46173-9" />
    <path
       inkscape:connector-curvature="0"
       style="display:inline;fill:#000000;fill-opacity:1;fill-rule:evenodd;stroke:none;stroke-width:1.016;stroke-linecap:round;stroke-linejoin:round;stroke-miterlimit:4;stroke-dasharray:none;stroke-dashoffset:0;stroke-opacity:1"
       d="m 65.76669,53.8763 v 1.5658 l 1.7387,-0.1188 v -1.3282 z"
       id="path46175-4" />
    <path
       inkscape:connector-curvature="0"
       style="display:inline;fill:#000000;fill-opacity:1;fill-rule:evenodd;stroke:none;stroke-width:1.016;stroke-linecap:round;stroke-linejoin:round;stroke-miterlimit:4;stroke-dasharray:none;stroke-dashoffset:0;stroke-opacity:1"
       d="m 53.95879,57.1427 -1.7387,0.1188 v 1.3277 l 1.7387,0.1188 z"
       id="path46177-8" />
    <path
       inkscape:connector-curvature="0"
       style="display:inline;fill:#000000;fill-opacity:1;fill-rule:evenodd;stroke:none;stroke-width:1.016;stroke-linecap:round;stroke-linejoin:round;stroke-miterlimit:4;stroke-dasharray:none;stroke-dashoffset:0;stroke-opacity:1"
       d="m 65.76669,57.1427 v 1.5658 l 1.7387,-0.1188 V 57.262 Z"
       id="path46179-1" />
    <path
       inkscape:connector-curvature="0"
       style="display:inline;fill:#000000;fill-opacity:1;fill-rule:evenodd;stroke:none;stroke-width:1.016;stroke-linecap:round;stroke-linejoin:round;stroke-miterlimit:4;stroke-dasharray:none;stroke-dashoffset:0;stroke-opacity:1"
       d="m 55.81359,60.563 0.1188,1.7385 h 1.3277 l 0.1188,-1.7385 z"
       id="path46181-2" />
    <path
       inkscape:connector-curvature="0"
       style="display:inline;fill:#000000;fill-opacity:1;fill-rule:evenodd;stroke:none;stroke-width:1.016;stroke-linecap:round;stroke-linejoin:round;stroke-miterlimit:4;stroke-dasharray:none;stroke-dashoffset:0;stroke-opacity:1"
       d="m 59.07999,60.563 0.1188,1.7385 h 1.3282 l 0.1188,-1.7385 z"
       id="path46183-9" />
    <path
       inkscape:connector-curvature="0"
       style="display:inline;fill:#000000;fill-opacity:1;fill-rule:evenodd;stroke:none;stroke-width:1.016;stroke-linecap:round;stroke-linejoin:round;stroke-miterlimit:4;stroke-dasharray:none;stroke-dashoffset:0;stroke-opacity:1"
       d="m 62.34639,60.563 0.1188,1.7385 h 1.3283 l 0.1188,-1.7385 z"
       id="path46185-3" />
    <path
       id="path43267-9"
       style="display:inline;fill:#000000;fill-opacity:1;stroke:none;stroke-width:0.0320374px;stroke-linecap:butt;stroke-linejoin:miter;stroke-opacity:1"
       d="m 62.15719,51.5702 c -0.2868,-0.2823 -0.8959,-0.3675 -1.1409,-0.1212 l -0.539,0.539 c -0.342,0.3401 -0.2192,0.8507 -0.023,1.1057 l -2.1997,2.1997 c -0.2549,-0.1966 -0.7656,-0.3194 -1.1057,0.023 l -0.539,0.5391 c -0.2465,0.2447 -0.1611,0.8541 0.1212,1.1409 l 0.9674,-0.9642 0.8712,0.8712 -0.9658,0.9658 c 0.2867,0.2823 0.8961,0.3676 1.1408,0.1211 l 0.5391,-0.5391 c 0.3419,-0.34 0.2191,-0.8506 0.023,-1.1056 l 2.1997,-2.1997 c 0.255,0.1966 0.7656,0.3194 1.1057,-0.023 l 0.539,-0.539 c 0.2465,-0.2448 0.1612,-0.8541 -0.1211,-1.1408 l -0.9658,0.9658 -0.8712,-0.8712 z"
       sodipodi:nodetypes="ccccccccccccccccccccc" />
  </g>
</svg>
