<?xml version="1.0" encoding="UTF-8" standalone="no"?>
<!-- Created with Inkscape (http://www.inkscape.org/) -->

<svg
   xmlns:dc="http://purl.org/dc/elements/1.1/"
   xmlns:cc="http://creativecommons.org/ns#"
   xmlns:rdf="http://www.w3.org/1999/02/22-rdf-syntax-ns#"
   xmlns:svg="http://www.w3.org/2000/svg"
   xmlns="http://www.w3.org/2000/svg"
   xmlns:sodipodi="http://sodipodi.sourceforge.net/DTD/sodipodi-0.dtd"
   xmlns:inkscape="http://www.inkscape.org/namespaces/inkscape"
   width="14.111111mm"
   height="14.111111mm"
   viewBox="0 0 49.999998 49.999998"
   id="svg8188"
   version="1.1"
   inkscape:version="0.91 r"
   sodipodi:docname="lan.svg">
  <defs
     id="defs8190" />
  <sodipodi:namedview
     id="base"
     pagecolor="#ffffff"
     bordercolor="#666666"
     borderopacity="1.0"
     inkscape:pageopacity="0.0"
     inkscape:pageshadow="2"
     inkscape:zoom="1.4"
     inkscape:cx="-130.79031"
     inkscape:cy="-144.34323"
     inkscape:document-units="px"
     inkscape:current-layer="layer1"
     showgrid="false"
     fit-margin-top="0"
     fit-margin-left="0"
     fit-margin-right="0"
     fit-margin-bottom="0"
     inkscape:window-width="1879"
     inkscape:window-height="1056"
     inkscape:window-x="41"
     inkscape:window-y="24"
     inkscape:window-maximized="1" />
  <metadata
     id="metadata8193">
    <rdf:RDF>
      <cc:Work
         rdf:about="">
        <dc:format>image/svg+xml</dc:format>
        <dc:type
           rdf:resource="http://purl.org/dc/dcmitype/StillImage" />
        <dc:title></dc:title>
      </cc:Work>
    </rdf:RDF>
  </metadata>
  <g
     inkscape:label="Layer 1"
     inkscape:groupmode="layer"
     id="layer1"
     transform="translate(-1046.4286,-107.36221)">
    <path
       style="color:#000000;font-style:normal;font-variant:normal;font-weight:normal;font-stretch:normal;font-size:medium;line-height:normal;font-family:sans-serif;text-indent:0;text-align:start;text-decoration:none;text-decoration-line:none;text-decoration-style:solid;text-decoration-color:#000000;letter-spacing:normal;word-spacing:normal;text-transform:none;direction:ltr;block-progression:tb;writing-mode:lr-tb;baseline-shift:baseline;text-anchor:start;white-space:normal;clip-rule:nonzero;display:inline;overflow:visible;visibility:visible;opacity:1;isolation:auto;mix-blend-mode:normal;color-interpolation:sRGB;color-interpolation-filters:linearRGB;solid-color:#000000;solid-opacity:1;fill:#000000;fill-opacity:1;fill-rule:evenodd;stroke:none;stroke-width:1px;stroke-linecap:butt;stroke-linejoin:miter;stroke-miterlimit:4;stroke-dasharray:none;stroke-dashoffset:0;stroke-opacity:1;color-rendering:auto;image-rendering:auto;shape-rendering:auto;text-rendering:auto;enable-background:accumulate"
       d="m 1065.2876,111.65508 a 2.0150376,2.0150376 0 0 0 -2.0148,2.0148 l 0,11.1918 a 2.0150376,2.0150376 0 0 0 2.0148,2.0149 l 5.1591,0 0,4.1044 -21.3328,0 0,2.0148 7.229,0 0,4.8521 -5.1591,0 a 2.0150376,2.0150376 0 0 0 -2.0148,2.0149 l 0,11.1918 a 2.0150376,2.0150376 0 0 0 2.0148,2.0148 l 12.3369,0 a 2.0150376,2.0150376 0 0 0 2.0149,-2.0148 l 0,-11.1918 a 2.0150376,2.0150376 0 0 0 -2.0149,-2.0149 l -5.163,0 0,-4.8521 26.1929,0 0,4.8521 -5.1591,0 a 2.0150376,2.0150376 0 0 0 -2.0148,2.0149 l 0,11.1918 a 2.0150376,2.0150376 0 0 0 2.0148,2.0148 l 12.3369,0 a 2.0150376,2.0150376 0 0 0 2.0149,-2.0148 l 0,-11.1918 a 2.0150376,2.0150376 0 0 0 -2.0149,-2.0149 l -5.163,0 0,-4.8521 6.8276,0 0,-2.0148 -20.9314,0 0,-4.1044 5.163,0 a 2.0150376,2.0150376 0 0 0 2.0148,-2.0149 l 0,-11.1918 a 2.0150376,2.0150376 0 0 0 -2.0148,-2.0148 l -12.337,0 z m 2.0149,4.0296 8.3072,0 0,7.1622 -8.3072,0 0,-7.1622 z m -14.1039,26.1929 8.3073,0 0,7.1622 -8.3073,0 0,-7.1622 z m 28.2077,0 8.3073,0 0,7.1622 -8.3073,0 0,-7.1622 z"
       id="path4842-9"
       inkscape:connector-curvature="0" />
  </g>
</svg>
