<?xml version="1.0" encoding="UTF-8" standalone="no"?>
<!-- Created with Inkscape (http://www.inkscape.org/) -->

<svg
   width="64.000008"
   height="64.000008"
   viewBox="0 0 16.933335 16.933335"
   version="1.1"
   id="svg11501"
   inkscape:version="1.2.2 (b0a8486541, 2022-12-01)"
   sodipodi:docname="zoo.svg"
   xmlns:inkscape="http://www.inkscape.org/namespaces/inkscape"
   xmlns:sodipodi="http://sodipodi.sourceforge.net/DTD/sodipodi-0.dtd"
   xmlns="http://www.w3.org/2000/svg"
   xmlns:svg="http://www.w3.org/2000/svg">
  <sodipodi:namedview
     id="namedview11503"
     pagecolor="#ffffff"
     bordercolor="#111111"
     borderopacity="1"
     inkscape:showpageshadow="0"
     inkscape:pageopacity="0"
     inkscape:pagecheckerboard="1"
     inkscape:deskcolor="#d1d1d1"
     inkscape:document-units="px"
     showgrid="false"
     inkscape:zoom="5.1754899"
     inkscape:cx="85.78898"
     inkscape:cy="14.104945"
     inkscape:window-width="3792"
     inkscape:window-height="2111"
     inkscape:window-x="3888"
     inkscape:window-y="0"
     inkscape:window-maximized="1"
     inkscape:current-layer="layer1" />
  <defs
     id="defs11498" />
  <g
     inkscape:label="Layer 1"
     inkscape:groupmode="layer"
     id="layer1"
     transform="translate(17.720793,-132.94812)">
    <path
       inkscape:connector-curvature="0"
       d="m -6.7423,142.5558 c 1.6781,-0.1375 4.0229,-2.2518 5.1074,-3.319 v 2.0529 c -1.2607,-0.1056 -2.003,0.6881 -2.6755,1.3603 -0.7868,0.787 -1.9083,1.3364 -3.4819,1.3364 -1.5738,0 -2.7542,0.655 -3.3622,1.2631 -0.6067,0.6067 -1.1072,0.7052 -1.2632,0.8612 -0.1559,0.1576 0.691,0.4265 1.621,-0.2415 0.9298,-0.6669 2.695,-0.7384 4.5307,-0.6197 1.7756,0.1128 3.495,-0.9399 4.6311,-2.0328 v 1.7825 c -0.9402,0.077 -2.6281,0.5579 -2.6281,0.7982 0,0.2634 1.2046,-0.012 1.3348,0.1201 0.1315,0.1302 -1.2075,1.3134 -1.9744,1.4909 -0.7667,0.1774 -2.1031,0.3204 -2.1031,0.5349 0,0.2147 1.2247,0.1431 2.1031,0.1431 0.7768,0 2.3391,-1.3977 3.2677,-1.7196 v 2.6753 H -16.874 v -0.5808 c 0.6666,-0.4365 2.2904,-0.8484 3.1815,-0.5895 1.0631,0.3105 3.3966,0.2388 4.2018,-0.309 0.8056,-0.5495 2.8671,-0.764 3.4394,-0.764 0.5722,0 1.6452,-0.095 1.2634,-0.2617 -3.1518,-0.8112 -4.2676,-0.096 -5.4366,0.429 -1.1673,0.5252 -2.6224,0.382 -3.219,-0.2145 -0.595,-0.5966 -1.9784,-0.9055 -3.4305,-0.349 v -1.3391 c 1.9529,0.6509 5.0058,-0.5638 6.0056,-1.3636 1.0731,-0.8581 2.3849,-1.0013 4.1261,-1.1441 z m -7.6783,-7.1305 c 0.4051,-0.405 1.478,-1.6207 2.0987,-1.6207 h -4.5521 v 3.6722 c 1.166,0 2.0485,-1.645 2.4534,-2.0515 z m 4.0057,1.5023 c -0.691,0.3576 -1.907,1.0258 -1.5734,1.1215 0.3332,0.095 2.1114,-0.4163 2.7338,-1.037 0.6223,-0.6223 1.4389,-1.2047 2.273,-1.372 0.8344,-0.1661 1.7414,-0.3335 3.2436,-1.8355 h -3.6486 c -0.6919,0 -2.3373,2.7653 -3.0284,3.123 z m 7.6295,-3.123 c -0.5835,0.5849 -2.8367,2.8613 -3.8625,3.2075 -1.0244,0.3462 -3.1946,0.7022 -4.6725,1.8955 -1.4794,1.1916 -3.5766,1.3103 -4.2447,1.3103 -0.6681,0 -0.8341,-0.7381 -0.3577,-0.7381 1.1445,-0.2862 2.3133,-1.4794 3.9816,-2.7182 1.6693,-1.2403 1.7883,-2.1948 3.1716,-2.957 h -1.7412 c -1.4178,1.4189 -2.3118,2.7895 -3.6709,3.3376 -1.3592,0.5492 -2.6923,1.5735 -2.6923,1.5735 v 2.4322 c 1.3803,0.263 3.8124,-0.787 5.0759,-0.9301 1.2645,-0.1428 2.9569,-1.7882 3.243,-1.5021 0.2863,0.2863 -1.2874,1.6582 -2.7424,2.475 -1.4536,0.8155 -1.8113,0.9586 -2.7653,0.8155 -0.9545,-0.1431 -2.415,0.4878 -2.8112,0.8828 v 1.0974 c 1.6194,0.3805 3.4305,-0.048 5.2433,-1.0974 1.8127,-1.0487 3.1359,-2.5151 3.9814,-3.3621 0.8469,-0.8471 1.5508,-0.644 2.2176,-1.8356 0.668,-1.1931 3.133,-2.5036 3.7968,-2.5036 v -1.3831 z m -2.0741,4.482 c -1.1203,1.3121 -3.2422,2.9816 -3.4094,3.3622 -0.1673,0.3819 1.0488,0.5006 1.7883,0.1672 0.7397,-0.3333 2.2889,-1.0257 2.7427,-1.907 0.4246,-0.8296 1.4819,-1.5952 2.1029,-1.605 v -2.4966 c -1.2689,0.143 -2.1029,1.1688 -3.2245,2.4792 z"
       style="display:inline;fill:#000000;fill-opacity:1;stroke-width:0.338667"
       id="path3-1"
       inkscape:transform-center-x="-8.4666796"
       inkscape:transform-center-y="-1210.7336" />
  </g>
</svg>
