<?xml version="1.0" encoding="UTF-8" standalone="no"?>
<!-- Created with Inkscape (http://www.inkscape.org/) -->

<svg
   width="64.000008"
   height="64.000008"
   viewBox="0 0 16.933335 16.933335"
   version="1.1"
   id="svg162167"
   inkscape:version="1.2.2 (b0a8486541, 2022-12-01)"
   sodipodi:docname="hub.svg"
   xmlns:inkscape="http://www.inkscape.org/namespaces/inkscape"
   xmlns:sodipodi="http://sodipodi.sourceforge.net/DTD/sodipodi-0.dtd"
   xmlns="http://www.w3.org/2000/svg"
   xmlns:svg="http://www.w3.org/2000/svg">
  <sodipodi:namedview
     id="namedview162169"
     pagecolor="#ffffff"
     bordercolor="#111111"
     borderopacity="1"
     inkscape:showpageshadow="0"
     inkscape:pageopacity="0"
     inkscape:pagecheckerboard="1"
     inkscape:deskcolor="#d1d1d1"
     inkscape:document-units="px"
     showgrid="false"
     inkscape:zoom="3.659624"
     inkscape:cx="8.7440677"
     inkscape:cy="88.533685"
     inkscape:window-width="3792"
     inkscape:window-height="2111"
     inkscape:window-x="3888"
     inkscape:window-y="0"
     inkscape:window-maximized="1"
     inkscape:current-layer="layer1" />
  <defs
     id="defs162164" />
  <g
     inkscape:label="Layer 1"
     inkscape:groupmode="layer"
     id="layer1"
     transform="translate(-84.653091,-60.071823)">
    <path
       id="path161636"
       style="display:inline;fill:#000000;fill-opacity:1;fill-rule:evenodd;stroke:none;stroke-width:1.47585;stroke-linecap:round;stroke-linejoin:round;stroke-miterlimit:4;stroke-dasharray:none;stroke-dashoffset:0;stroke-opacity:1"
       d="m 93.1199,60.8 c -2.03172,2e-4 -3.67893,1.6472 -3.67893,3.679 -0.0141,0.8068 -0.14782,1.3088 -0.62741,1.8224 -1.02571,1.087 -1.61219,2.5341 -1.6143,4.0552 0,3.2696 2.65084,5.9203 5.92064,5.9203 3.2698,0 5.92036,-2.6507 5.92036,-5.9203 0,-1.5415 -0.60463,-3.007 -1.65607,-4.0987 -0.48142,-0.469 -0.5824,-1.0566 -0.58564,-1.7789 -1.4e-4,-2.0318 -1.64692,-3.6788 -3.67865,-3.679 z m 0,1.4764 c 1.21642,0 2.20247,0.9861 2.20247,2.2026 0,0.513 -0.17567,0.9854 -0.47031,1.3601 -0.81123,1.0381 -2.56322,1.2499 -3.50805,-0.059 -0.26976,-0.3673 -0.42657,-0.8192 -0.42686,-1.3012 -1.4e-4,-1.2164 0.98619,-2.2026 2.20275,-2.2026 z m -0.0281,4.8005 a 4.1695325,4.1695325 0 0 1 3.72563,2.2423 4.1695325,4.1695325 0 0 1 -1.77041,5.6246 4.1695325,4.1695325 0 0 1 -5.62445,-1.77 4.1695325,4.1695325 0 0 1 1.76999,-5.6247 v 0 a 4.1695325,4.1695325 0 0 1 1.89882,-0.472 z" />
  </g>
</svg>
