<?xml version="1.0" encoding="UTF-8" standalone="no"?>
<!-- Created with Inkscape (http://www.inkscape.org/) -->

<svg
   width="64.000008"
   height="64.000008"
   viewBox="0 0 16.933335 16.933335"
   version="1.1"
   id="svg150614"
   inkscape:version="1.2.2 (b0a8486541, 2022-12-01)"
   sodipodi:docname="nodes.svg"
   xmlns:inkscape="http://www.inkscape.org/namespaces/inkscape"
   xmlns:sodipodi="http://sodipodi.sourceforge.net/DTD/sodipodi-0.dtd"
   xmlns="http://www.w3.org/2000/svg"
   xmlns:svg="http://www.w3.org/2000/svg">
  <sodipodi:namedview
     id="namedview150616"
     pagecolor="#ffffff"
     bordercolor="#111111"
     borderopacity="1"
     inkscape:showpageshadow="0"
     inkscape:pageopacity="0"
     inkscape:pagecheckerboard="1"
     inkscape:deskcolor="#d1d1d1"
     inkscape:document-units="px"
     showgrid="false"
     inkscape:zoom="3.659624"
     inkscape:cx="18.03464"
     inkscape:cy="107.66133"
     inkscape:window-width="3792"
     inkscape:window-height="2111"
     inkscape:window-x="3888"
     inkscape:window-y="0"
     inkscape:window-maximized="1"
     inkscape:current-layer="layer1" />
  <defs
     id="defs150611" />
  <g
     inkscape:label="Layer 1"
     inkscape:groupmode="layer"
     id="layer1"
     transform="translate(-64.988007,-57.179871)">
    <g
       id="g150545"
       transform="matrix(0.73624456,0,0,0.73624456,914.44983,3664.6348)"
       style="display:inline">
      <path
         id="path150530"
         style="color:#000000;fill:#000000;stroke-linecap:round;stroke-linejoin:round;-inkscape-stroke:none"
         d="m -1135.2128,-4896.3085 c -1.8575,0 -3.3673,1.5077 -3.3673,3.3652 0,1.0617 0.4929,2.0095 1.262,2.6262 -0.3211,0.4335 -0.5121,0.9689 -0.5121,1.5466 0,1.435 1.1746,2.6092 2.6096,2.6092 1.4349,0 2.6097,-1.1742 2.6097,-2.6092 0,-0.5743 -0.1887,-1.1067 -0.5064,-1.5389 0.7734,-0.6167 1.2697,-1.5675 1.2697,-2.6329 0,-1.8575 -1.5077,-3.3652 -3.3652,-3.3652 z m -5e-4,0.1995 c 1.7495,0 3.1641,1.4167 3.1641,3.1662 0,1.0032 -0.4658,1.8963 -1.1932,2.4763 -0.2381,-0.277 -0.5329,-0.5041 -0.8661,-0.6625 0.6115,-0.3738 1.0206,-1.0475 1.0206,-1.8143 0,-1.1716 -0.9554,-2.125 -2.127,-2.125 -1.1715,0 -2.1249,0.9534 -2.1249,2.125 0,0.7646 0.4065,1.4362 1.0144,1.8107 -0.334,0.1574 -0.6297,0.3839 -0.8687,0.6604 -0.723,-0.5801 -1.1854,-1.4709 -1.1855,-2.4706 0,-1.7495 1.4168,-3.1662 3.1663,-3.1662 z m 0,1.4081 c 0.9727,0 1.758,0.7849 1.758,1.7576 0,0.7472 -0.4638,1.3822 -1.1198,1.6366 -0.2582,-0.1072 -0.3775,-0.2812 -0.3886,-0.4724 v -0.3963 a 0.80730498,0.80730498 0 0 0 0.5586,-0.7685 0.80730498,0.80730498 0 0 0 -0.8072,-0.8071 0.80730498,0.80730498 0 0 0 -0.8071,0.8071 0.80730498,0.80730498 0 0 0 0.5498,0.7638 v 0.417 c 0,0.1934 -0.1209,0.3534 -0.385,0.4553 -0.6537,-0.2552 -1.1147,-0.8895 -1.1147,-1.6355 0,-0.015 2e-4,-0.03 6e-4,-0.045 0.02,-0.8005 0.5712,-1.4661 1.3156,-1.6573 0.014,0 0.028,-0.01 0.042,-0.01 0.1277,-0.029 0.2606,-0.045 0.3974,-0.045 z m -0.01,4.3677 c 0.8692,0 1.5627,0.6935 1.5627,1.5627 0,0.8693 -0.6935,1.5622 -1.5627,1.5622 -0.8692,0 -1.5627,-0.6929 -1.5627,-1.5622 0,-0.8692 0.6935,-1.5627 1.5627,-1.5627 z" />
      <path
         id="path150532"
         style="color:#000000;fill:#000000;fill-rule:evenodd;stroke-linecap:round;stroke-linejoin:round;-inkscape-stroke:none"
         d="m -1152.0929,-4893.5905 c -0.3386,3e-4 -0.613,0.2747 -0.6133,0.6133 -7e-4,0.3393 0.274,0.6149 0.6133,0.6152 h 0.7656 0.7656 c 0.3401,8e-4 0.616,-0.2751 0.6153,-0.6152 -3e-4,-0.3394 -0.2759,-0.6141 -0.6153,-0.6133 h -0.7656 z m 8.3105,0 c -0.3386,3e-4 -0.613,0.2747 -0.6133,0.6133 -7e-4,0.3393 0.274,0.6149 0.6133,0.6152 h 0.7656 0.7657 c 0.3401,7e-4 0.6159,-0.2751 0.6152,-0.6152 -3e-4,-0.3393 -0.2759,-0.614 -0.6152,-0.6133 h -0.7657 z m -3.3973,-2.0014 c -1.4376,0 -2.6142,1.1767 -2.6142,2.6142 0,0.7183 0.2945,1.3705 0.7681,1.8439 0.1022,0.116 0.092,0.3954 0.01,0.4805 -0.4776,0.4742 -0.7748,1.1297 -0.7748,1.8517 0,1.4375 1.1767,2.6142 2.6143,2.6142 1.4375,0 2.6141,-1.1767 2.6141,-2.6142 0,-0.726 -0.3007,-1.3846 -0.783,-1.8593 -0.1119,-0.1086 -0.083,-0.3742 0,-0.46 0.4806,-0.4746 0.7799,-1.1323 0.7799,-1.8568 0,-1.4375 -1.1765,-2.6142 -2.6141,-2.6142 z m 0,1.0487 c 0.8708,0 1.5653,0.6947 1.5653,1.5655 0,0.8708 -0.6945,1.5654 -1.5653,1.5654 -0.8707,0 -1.5655,-0.6946 -1.5655,-1.5654 0,-0.8708 0.6948,-1.5655 1.5655,-1.5655 z m 0,4.1762 c 0.8708,0 1.5653,0.6946 1.5653,1.5654 0,0.8708 -0.6945,1.5654 -1.5653,1.5654 -0.8707,0 -1.5655,-0.6946 -1.5655,-1.5654 0,-0.8708 0.6948,-1.5654 1.5655,-1.5654 z m -3.9347,-5.6454 c -0.2939,-0.1704 -0.6703,-0.07 -0.8399,0.2246 -0.1704,0.2939 -0.07,0.6703 0.2247,0.8399 l 0.6152,0.3535 0.7109,0.4121 c 0.2939,0.1704 0.6703,0.07 0.8399,-0.2246 0.1703,-0.2939 0.07,-0.6702 -0.2246,-0.8398 l -0.7129,-0.4102 z m 7.9082,0.041 -0.6133,0.3536 -0.7129,0.4121 c -0.2932,0.1695 -0.3937,0.5445 -0.2246,0.8379 0.1695,0.2932 0.5445,0.3937 0.8379,0.2246 l 0.7129,-0.4102 0.6152,-0.3555 c 0.2931,-0.1695 0.3936,-0.5444 0.2246,-0.8378 -0.1696,-0.2943 -0.5459,-0.395 -0.8398,-0.2247 z m -8.8867,6.5567 c -0.3386,3e-4 -0.613,0.2747 -0.6133,0.6133 4e-4,0.3385 0.2748,0.6129 0.6133,0.6132 h 0.709 0.8222 c 0.3393,8e-4 0.6149,-0.2739 0.6153,-0.6132 -3e-4,-0.3394 -0.2759,-0.6141 -0.6153,-0.6133 h -0.8222 z m 2.1328,1.7189 c -0.1569,-0.042 -0.3241,-0.02 -0.4649,0.061 l -0.7129,0.4101 -0.6152,0.3555 c -0.2932,0.1695 -0.3937,0.5445 -0.2246,0.8379 0.1689,0.295 0.5454,0.3966 0.8398,0.2266 l 0.6153,-0.3555 0.7109,-0.4121 c 0.2932,-0.1695 0.3937,-0.5445 0.2246,-0.8379 -0.082,-0.1407 -0.2158,-0.2433 -0.373,-0.2852 z"
         sodipodi:nodetypes="ccccccccccccccccccssccsssccsssssssssssssccccccccccccccccsccccccccccccccccccccc" />
      <path
         id="path150534"
         style="fill:#000000;fill-opacity:1;fill-rule:evenodd;stroke:none;stroke-width:1.04936;stroke-linecap:round;stroke-linejoin:round;stroke-miterlimit:4;stroke-dasharray:none;stroke-dashoffset:0;stroke-opacity:1"
         d="m -1141.1392,-4891.3072 c -1.4446,1e-4 -2.6158,1.1712 -2.6158,2.6158 -0.01,0.5737 -0.1051,0.9306 -0.4461,1.2958 -0.7293,0.7729 -1.1463,1.8018 -1.1478,2.8833 0,2.3248 1.8848,4.2095 4.2097,4.2095 2.3249,0 4.2095,-1.8847 4.2095,-4.2095 0,-1.096 -0.4299,-2.138 -1.1775,-2.9142 -0.3423,-0.3335 -0.4141,-0.7513 -0.4164,-1.2649 -10e-5,-1.4446 -1.171,-2.6157 -2.6156,-2.6158 z m 0,1.0497 c 0.8649,0 1.566,0.7012 1.566,1.5661 0,0.3648 -0.1249,0.7007 -0.3344,0.9671 -0.5768,0.7381 -1.8225,0.8887 -2.4943,-0.042 -0.1918,-0.2612 -0.3033,-0.5825 -0.3035,-0.9252 -10e-5,-0.8649 0.7012,-1.5661 1.5662,-1.5661 z m -0.02,3.4133 a 2.9646275,2.9646275 0 0 1 2.649,1.5943 2.9646275,2.9646275 0 0 1 -1.2588,3.9992 2.9646275,2.9646275 0 0 1 -3.9991,-1.2585 2.9646275,2.9646275 0 0 1 1.2585,-3.9993 v 0 a 2.9646275,2.9646275 0 0 1 1.3501,-0.3356 z" />
    </g>
  </g>
</svg>
