<?xml version="1.0" encoding="UTF-8" standalone="no"?>
<!-- Created with Inkscape (http://www.inkscape.org/) -->

<svg
   width="64.000008"
   height="64.000008"
   viewBox="0 0 16.933335 16.933335"
   version="1.1"
   id="svg161983"
   inkscape:version="1.2.2 (b0a8486541, 2022-12-01)"
   sodipodi:docname="remote.svg"
   xmlns:inkscape="http://www.inkscape.org/namespaces/inkscape"
   xmlns:sodipodi="http://sodipodi.sourceforge.net/DTD/sodipodi-0.dtd"
   xmlns="http://www.w3.org/2000/svg"
   xmlns:svg="http://www.w3.org/2000/svg">
  <sodipodi:namedview
     id="namedview161985"
     pagecolor="#ffffff"
     bordercolor="#111111"
     borderopacity="1"
     inkscape:showpageshadow="0"
     inkscape:pageopacity="0"
     inkscape:pagecheckerboard="1"
     inkscape:deskcolor="#d1d1d1"
     inkscape:document-units="px"
     showgrid="false"
     inkscape:zoom="2.587745"
     inkscape:cx="-98.927833"
     inkscape:cy="-8.5016106"
     inkscape:window-width="3792"
     inkscape:window-height="2111"
     inkscape:window-x="3888"
     inkscape:window-y="0"
     inkscape:window-maximized="1"
     inkscape:current-layer="layer1" />
  <defs
     id="defs161980" />
  <g
     inkscape:label="Layer 1"
     inkscape:groupmode="layer"
     id="layer1"
     transform="translate(-125.42915,-80.604424)">
    <path
       id="path161634"
       style="color:#000000;display:inline;fill:#000000;stroke-width:1.40643;stroke-linecap:round;stroke-linejoin:round;-inkscape-stroke:none"
       d="m 133.89679,81.8705 c -2.61244,0 -4.73586,2.1205 -4.73586,4.7329 0,1.4932 0.69323,2.8262 1.77491,3.6936 -0.4516,0.6096 -0.72023,1.3626 -0.72023,2.1751 0,2.0183 1.65199,3.6697 3.67021,3.6697 2.01808,0 3.67035,-1.6514 3.67035,-3.6697 0,-0.8077 -0.26539,-1.5565 -0.71221,-2.1643 1.08773,-0.8674 1.78574,-2.2046 1.78574,-3.703 0,-2.6124 -2.12047,-4.7329 -4.73291,-4.7329 z m -7e-4,0.2806 c 2.46054,0 4.45007,1.9925 4.45007,4.453 0,1.4109 -0.65511,2.667 -1.67815,3.4827 -0.33487,-0.3895 -0.74948,-0.7089 -1.2181,-0.9317 0.86003,-0.5257 1.4354,-1.4733 1.4354,-2.5517 0,-1.6478 -1.3437,-2.9887 -2.99147,-2.9887 -1.64763,0 -2.98852,1.3409 -2.98852,2.9887 0,1.0754 0.57171,2.0199 1.42668,2.5466 -0.46975,0.2214 -0.88563,0.5399 -1.22176,0.9288 -1.01685,-0.8158 -1.66718,-2.0687 -1.66732,-3.4747 0,-2.4605 1.99262,-4.453 4.45317,-4.453 z m 0,1.9804 c 1.36803,0 2.4725,1.1039 2.4725,2.4719 0,1.0509 -0.6523,1.944 -1.57492,2.3018 -0.36314,-0.1508 -0.53093,-0.3955 -0.54654,-0.6644 v -0.5574 a 1.1354156,1.1354156 0 0 0 0.78563,-1.0808 1.1354156,1.1354156 0 0 0 -1.13527,-1.1352 1.1354156,1.1354156 0 0 0 -1.13512,1.1352 1.1354156,1.1354156 0 0 0 0.77325,1.0742 v 0.5865 c 0,0.272 -0.17004,0.497 -0.54147,0.6403 -0.91939,-0.3589 -1.56775,-1.251 -1.56775,-2.3002 0,-0.021 2.8e-4,-0.042 8.5e-4,-0.063 0.0281,-1.1258 0.80335,-2.062 1.85029,-2.3309 0.0197,0 0.0394,-0.014 0.0591,-0.014 0.1796,-0.041 0.36652,-0.063 0.55892,-0.063 z m -0.0141,6.1428 c 1.22247,0 2.19783,0.9754 2.19783,2.1978 0,1.2226 -0.97536,2.1972 -2.19783,2.1972 -1.22246,0 -2.19782,-0.9746 -2.19782,-2.1972 0,-1.2224 0.97536,-2.1978 2.19782,-2.1978 z" />
  </g>
</svg>
