<?xml version="1.0" encoding="UTF-8" standalone="no"?>
<!-- Created with Inkscape (http://www.inkscape.org/) -->

<svg
   xmlns:dc="http://purl.org/dc/elements/1.1/"
   xmlns:cc="http://creativecommons.org/ns#"
   xmlns:rdf="http://www.w3.org/1999/02/22-rdf-syntax-ns#"
   xmlns:svg="http://www.w3.org/2000/svg"
   xmlns="http://www.w3.org/2000/svg"
   xmlns:sodipodi="http://sodipodi.sourceforge.net/DTD/sodipodi-0.dtd"
   xmlns:inkscape="http://www.inkscape.org/namespaces/inkscape"
   width="183.72769mm"
   height="57.504086mm"
   viewBox="0 0 183.72769 57.504086"
   version="1.1"
   id="svg9963"
   inkscape:version="0.92.3 (2405546, 2018-03-11)"
   sodipodi:docname="octomy_watermark.svg">
  <defs
     id="defs9957" />
  <sodipodi:namedview
     id="base"
     pagecolor="#ffffff"
     bordercolor="#666666"
     borderopacity="1.0"
     inkscape:pageopacity="0.0"
     inkscape:pageshadow="2"
     inkscape:zoom="0.35"
     inkscape:cx="-2814.2266"
     inkscape:cy="-248.47344"
     inkscape:document-units="mm"
     inkscape:current-layer="layer1"
     showgrid="false"
     fit-margin-top="0"
     fit-margin-left="0"
     fit-margin-right="0"
     fit-margin-bottom="0"
     inkscape:window-width="3799"
     inkscape:window-height="2136"
     inkscape:window-x="41"
     inkscape:window-y="24"
     inkscape:window-maximized="1" />
  <metadata
     id="metadata9960">
    <rdf:RDF>
      <cc:Work
         rdf:about="">
        <dc:format>image/svg+xml</dc:format>
        <dc:type
           rdf:resource="http://purl.org/dc/dcmitype/StillImage" />
        <dc:title></dc:title>
      </cc:Work>
    </rdf:RDF>
  </metadata>
  <g
     inkscape:label="Layer 1"
     inkscape:groupmode="layer"
     id="layer1"
     transform="translate(-735.90401,-25.587318)">
    <path
       inkscape:connector-curvature="0"
       d="m 766.48416,28.384907 c -7.93726,0 -14.434,6.4969 -14.434,14.434199 0,3.966 1.62629,7.5667 4.24114,10.180801 0.56418,0.6404 0.50934,2.183098 0.0365,2.652699 -2.63711,2.618201 -4.27772,6.237701 -4.27772,10.2239 0,7.937201 6.49683,14.4341 14.43409,14.4341 7.93727,0 14.43325,-6.496899 14.43325,-14.4341 0,-4.008099 -1.65979,-7.644799 -4.32282,-10.265799 -0.61808,-0.599501 -0.45835,-2.0662 0.0168,-2.539899 2.65349,-2.620202 4.30608,-6.251702 4.30608,-10.251702 0,-7.937299 -6.49598,-14.434199 -14.43325,-14.434199 z m 0,5.7906 c 4.80784,0 8.64275,3.835799 8.64275,8.643599 0,4.8077 -3.83491,8.6427 -8.64275,8.6427 -4.80765,0 -8.6435,-3.835 -8.6435,-8.6427 0,-4.8078 3.83585,-8.643599 8.6435,-8.643599 z m 0,23.058199 c 4.80784,0 8.64275,3.8349 8.64275,8.6428 0,4.807701 -3.83491,8.643501 -8.64275,8.643501 -4.80765,0 -8.6435,-3.8358 -8.6435,-8.643501 0,-4.8079 3.83585,-8.6428 8.6435,-8.6428 z m -2.2846,-20.8825 a 0.94166163,0.94166163 0 0 0 -0.92671,0.9558 v 5.3789 a 0.94166163,0.94166163 0 1 0 1.88251,0 v -5.3789 a 0.94166163,0.94166163 0 0 0 -0.9558,-0.9558 z m 4.53992,0 a 0.94166163,0.94166163 0 0 0 -0.92661,0.9558 v 5.3789 a 0.94166163,0.94166163 0 1 0 1.88251,0 v -5.3789 a 0.94166163,0.94166163 0 0 0 -0.9559,-0.9558 z m -8.68514,5.3917 a 0.94166163,0.94166163 0 0 0 -0.9267,0.9559 c 9e-5,4.0515 3.30489,7.3545 7.35652,7.3545 4.05155,0 7.35643,-3.303 7.35643,-7.3545 a 0.94218792,0.94218792 0 1 0 -1.88437,0 c 0,3.0338 -2.43817,5.472 -5.47206,5.472 -3.03388,0 -5.47392,-2.4382 -5.47392,-5.472 a 0.94166163,0.94166163 0 0 0 -0.9559,-0.9559 z m -20.69864,-2.3083 a 3.3899621,3.3899621 0 1 0 0,6.7788 h 4.22934 4.22925 a 3.3899621,3.3899621 0 1 0 0,-6.7788 h -4.22925 z m 45.88606,0 a 3.3899621,3.3899621 0 1 0 0,6.7788 h 4.22747 4.22924 a 3.3899621,3.3899621 0 1 0 0,-6.7788 h -4.22924 z M 743.14635,25.589807 a 3.3899621,3.3899621 0 0 0 -1.782,6.3476 l 3.39584,1.9592 3.92952,2.268199 a 3.3899621,3.3899621 0 1 0 3.39042,-5.870499 l -3.93139,-2.2682 -3.39397,-1.9611 a 3.3899621,3.3899621 0 0 0 -1.60842,-0.4752 z m 47.12699,0.2193 a 3.3899621,3.3899621 0 0 0 -1.84592,0.4771 l -3.39406,1.9592 -3.9313,2.27 a 3.3899621,3.3899621 0 1 0 3.39032,5.870599 l 3.92952,-2.269999 3.39585,-1.9593 a 3.3899621,3.3899621 0 0 0 -1.54441,-6.3476 z m -50.91764,36.6781 a 3.3899621,3.3899621 0 1 0 0,6.7789 h 3.92044 4.53815 a 3.3899621,3.3899621 0 1 0 0,-6.7789 h -4.53815 z m 45.88606,0.254 a 3.3899621,3.3899621 0 1 0 0,6.779 h 4.53814 3.91857 a 3.3899621,3.3899621 0 1 0 0,-6.779 h -3.91857 z m -2.48571,9.317699 a 3.3899621,3.3899621 0 0 0 -1.78013,6.3476 l 3.92952,2.268101 3.39406,1.961099 a 3.3904076,3.3904076 0 1 0 3.39033,-5.8724 l -3.39398,-1.959301 -3.93139,-2.268198 a 3.3899621,3.3899621 0 0 0 -1.60841,-0.476901 z m -32.34825,-0.2212 a 3.3899621,3.3899621 0 0 0 -1.84601,0.477001 l -3.92952,2.269998 -3.39397,1.959301 a 3.3899621,3.3899621 0 1 0 3.38845,5.870601 l 3.39594,-1.959401 3.92952,-2.27 a 3.3899621,3.3899621 0 0 0 -1.54441,-6.3475 z M 896.62382,57.436607 q 0,-0.188201 -0.0374,-0.301 l -7.79071,-14.941601 q -0.11286,-0.1882 -0.15057,-0.3764 -0.0374,-0.1882 -0.0374,-0.301 0,-0.4893 0.45161,-0.7527 0.4517,-0.3012 0.9033,-0.3012 0.60218,0 0.97855,0.7528 l 6.92502,13.737201 6.96266,-13.737201 q 0.37637,-0.7528 0.97854,-0.7528 0.4517,0 0.90331,0.3012 0.4516,0.2634 0.4516,0.7527 0,0.1128 -0.0374,0.301 -0.0374,0.1882 -0.11285,0.3764 l -7.82835,14.941601 q -0.0749,0.2258 -0.0749,0.301 v 9.5596 q 0,0.489299 -0.37637,0.7528 -0.37637,0.225798 -0.86559,0.225798 -0.4517,0 -0.86569,-0.225798 -0.37637,-0.263501 -0.37637,-0.7528 z m -20.32237,0.225899 q -0.41398,0.7904 -1.01616,0.7904 -0.56455,0 -0.97854,-0.7904 l -6.20992,-11.9307 v 21.264401 q 0,0.489299 -0.41398,0.7528 -0.37637,0.225798 -0.82807,0.225798 -0.48923,0 -0.8656,-0.225798 -0.37637,-0.263501 -0.37637,-0.7528 V 41.667206 q 0,-0.6775 0.37637,-0.941 0.37637,-0.2635 0.8656,-0.2635 0.6775,0 1.12911,0.527 0.48931,0.4893 0.86559,1.2043 l 6.47343,12.4952 6.47343,-12.4952 q 0.37637,-0.715 0.82798,-1.2043 0.48932,-0.527 1.16672,-0.527 0.52694,0 0.86569,0.2635 0.37628,0.2635 0.37628,0.941 v 25.329001 q 0,0.489299 -0.37628,0.7528 -0.37637,0.225798 -0.86569,0.225798 -0.4516,0 -0.86559,-0.225798 -0.37637,-0.263501 -0.37637,-0.7528 V 45.844806 Z m -22.20114,-7.7155 q 1.43015,0 2.70983,0.5646 1.3172,0.5269 2.29574,1.5054 1.01616,0.940999 1.58072,2.220601 0.60217,1.279599 0.60217,2.747399 v 4.102401 q 0,1.3925 -0.60217,2.709799 -0.56456,1.279599 -1.58072,2.2581 -0.97854,0.978501 -2.29574,1.5807 -1.27968,0.6022 -2.70983,0.6022 -1.43015,0 -2.70982,-0.5646 -1.27959,-0.602099 -2.25813,-1.5807 -0.97854,-1.016101 -1.58072,-2.2957 -0.56455,-1.279699 -0.56455,-2.709799 v -4.102401 q 0,-1.3925 0.56455,-2.672099 0.56456,-1.279699 1.50539,-2.2582 0.97854,-0.978601 2.25822,-1.543101 1.3172,-0.5646 2.78506,-0.5646 z m 4.74215,7.038 q 0,-0.9032 -0.37637,-1.768899 -0.37637,-0.8656 -1.01616,-1.505399 -0.63979,-0.6775 -1.50548,-1.091502 -0.8656,-0.413999 -1.84414,-0.413999 -0.97854,0 -1.84423,0.413999 -0.86559,0.414002 -1.50539,1.091502 -0.60217,0.639799 -0.97854,1.505399 -0.33875,0.865699 -0.33875,1.768899 v 4.102401 q 0,0.940898 0.33875,1.844099 0.37637,0.8657 1.01616,1.5431 0.63979,0.677399 1.46777,1.091501 0.86569,0.413999 1.84423,0.413999 0.97854,0 1.84414,-0.413999 0.86569,-0.414102 1.50548,-1.091501 0.63979,-0.6774 1.01616,-1.5431 0.37637,-0.903201 0.37637,-1.844099 z m -19.57488,5.457301 q 0,1.844101 0.75274,2.596801 0.79036,0.715198 2.74735,0.715198 h 1.05387 q 0.52684,0 0.82798,0.3386 0.30113,0.338802 0.30113,0.7528 0,0.451599 -0.30113,0.7903 -0.30114,0.338799 -0.82798,0.338799 h -1.05387 q -2.93554,0 -4.44102,-1.279699 -1.50548,-1.317199 -1.50548,-4.252799 V 42.608006 q 0,-0.414 0.37637,-0.6398 0.41399,-0.2634 0.82798,-0.2634 0.4517,0 0.82807,0.2634 0.41399,0.2258 0.41399,0.6398 v 7.5649 h 4.855 q 0.37637,0 0.60217,0.301 0.26352,0.3012 0.26352,0.7152 0,0.414 -0.26352,0.715 -0.2258,0.301101 -0.60217,0.301101 h -4.855 z m -11.14624,5.795899 q -1.88175,0 -3.27429,-0.526899 -1.35491,-0.564499 -2.25821,-1.5054 -0.90322,-0.978601 -1.35482,-2.2582 -0.41399,-1.317199 -0.41399,-2.8603 v -4.027101 q 0,-1.5055 0.41399,-2.785099 0.4516,-1.317202 1.3172,-2.258201 0.9033,-0.9785 2.25822,-1.5054 1.39253,-0.5646 3.27428,-0.5646 1.20435,0 2.18289,0.2635 0.97854,0.2258 1.65605,0.6022 0.71503,0.3388 1.0914,0.7904 0.37637,0.4139 0.37637,0.790299 0,0.414002 -0.33876,0.828001 -0.30104,0.376401 -0.75264,0.376401 -0.26352,0 -0.56456,-0.2258 -0.26351,-0.225801 -0.71512,-0.451602 -0.4516,-0.263599 -1.12911,-0.4894 -0.67741,-0.225798 -1.69357,-0.225798 -2.48402,0 -3.72599,1.3173 -1.20434,1.279599 -1.20434,3.537799 v 4.027101 q 0,2.295801 1.24196,3.613 1.24197,1.279699 3.72599,1.279699 1.09149,0 1.7689,-0.2258 0.71512,-0.225899 1.16673,-0.4894 0.4516,-0.263398 0.71512,-0.489199 0.30104,-0.225901 0.60217,-0.225901 0.52685,0 0.82798,0.414102 0.30104,0.376298 0.30104,0.790398 0,0.3762 -0.41399,0.827899 -0.37637,0.414002 -1.0914,0.790401 -0.71512,0.376401 -1.73128,0.602199 -1.01616,0.263401 -2.25822,0.263401 z m -19.4478,-0.037 q -1.65605,0 -3.0862,-0.413999 -1.43015,-0.451602 -2.48393,-1.3926 -1.05387,-0.978501 -1.65604,-2.484001 -0.60217,-1.5431 -0.60217,-3.7636 v -11.6672 q 0,-2.1829 0.60217,-3.6883 0.60217,-1.543 1.65604,-2.484 1.05378,-0.9785 2.48393,-1.3925 1.43015,-0.4517 3.0862,-0.4517 1.65595,0 3.0861,0.4517 1.43024,0.414 2.48402,1.3925 1.05378,0.941 1.65595,2.484 0.60218,1.5054 0.60218,3.6883 v 11.667201 q 0,2.2205 -0.60218,3.7636 -0.60217,1.5055 -1.65595,2.484001 -1.05378,0.940998 -2.48402,1.3926 -1.43015,0.413999 -3.0861,0.413998 z m 5.34432,-19.721401 q 0,-2.9356 -1.43015,-4.3281 -1.39253,-1.3926 -3.91417,-1.3926 -2.52164,0 -3.95179,1.3926 -1.39253,1.3925 -1.39253,4.3281 v 11.667202 q 0,2.9733 1.39253,4.365799 1.43015,1.3925 3.95179,1.3925 2.52164,0 3.91417,-1.3925 1.43015,-1.392499 1.43015,-4.365799 z m 94.68265,-8.0165 v 0.8933 h 1.60065 v 4.1939 h 1.10431 v -4.1939 h 1.58811 v -0.8933 z m 9.3181,0 -1.38954,3.2632 -1.32759,-3.2632 h -1.61309 v 5.0872 h 1.06707 v -4.1939 l 1.61309,4.1939 h 0.53349 l 1.6626,-4.1939 v 4.1939 h 1.06706 v -5.0872 z"
       style="color:#000000;font-style:normal;font-variant:normal;font-weight:normal;font-stretch:normal;font-size:medium;line-height:normal;font-family:sans-serif;text-indent:0;text-align:start;text-decoration:none;text-decoration-line:none;text-decoration-style:solid;text-decoration-color:#000000;letter-spacing:normal;word-spacing:normal;text-transform:none;writing-mode:lr-tb;direction:ltr;baseline-shift:baseline;text-anchor:start;white-space:normal;clip-rule:nonzero;display:inline;overflow:visible;visibility:visible;opacity:1;isolation:auto;mix-blend-mode:normal;color-interpolation:sRGB;color-interpolation-filters:linearRGB;solid-color:#000000;solid-opacity:1;fill:#020202;fill-opacity:1;fill-rule:evenodd;stroke:none;stroke-width:14.18280792;stroke-linecap:round;stroke-linejoin:round;stroke-miterlimit:4;stroke-dasharray:none;stroke-dashoffset:0;stroke-opacity:1;color-rendering:auto;image-rendering:auto;shape-rendering:auto;text-rendering:auto;enable-background:accumulate"
       id="path9946" />
  </g>
</svg>
