<?xml version="1.0" encoding="UTF-8" standalone="no"?>
<!-- Created with Inkscape (http://www.inkscape.org/) -->

<svg
   xmlns:dc="http://purl.org/dc/elements/1.1/"
   xmlns:cc="http://creativecommons.org/ns#"
   xmlns:rdf="http://www.w3.org/1999/02/22-rdf-syntax-ns#"
   xmlns:svg="http://www.w3.org/2000/svg"
   xmlns="http://www.w3.org/2000/svg"
   xmlns:sodipodi="http://sodipodi.sourceforge.net/DTD/sodipodi-0.dtd"
   xmlns:inkscape="http://www.inkscape.org/namespaces/inkscape"
   width="184"
   height="58"
   viewBox="0 0 184 58"
   version="1.1"
   id="svg9963"
   inkscape:version="0.92.3 (2405546, 2018-03-11)"
   sodipodi:docname="octomy_watermark.svg">
  <defs
     id="defs9957" />
  <sodipodi:namedview
     id="base"
     pagecolor="#ffffff"
     bordercolor="#666666"
     borderopacity="1.0"
     inkscape:pageopacity="0.0"
     inkscape:pageshadow="2"
     inkscape:zoom="5.6"
     inkscape:cx="-31.635839"
     inkscape:cy="-22.408494"
     inkscape:document-units="mm"
     inkscape:current-layer="layer1"
     showgrid="false"
     fit-margin-top="0"
     fit-margin-left="0"
     fit-margin-right="0"
     fit-margin-bottom="0"
     inkscape:window-width="3799"
     inkscape:window-height="2136"
     inkscape:window-x="41"
     inkscape:window-y="24"
     inkscape:window-maximized="1" />
  <metadata
     id="metadata9960">
    <rdf:RDF>
      <cc:Work
         rdf:about="">
        <dc:format>image/svg+xml</dc:format>
        <dc:type
           rdf:resource="http://purl.org/dc/dcmitype/StillImage" />
        <dc:title></dc:title>
      </cc:Work>
    </rdf:RDF>
  </metadata>
  <g
     inkscape:label="Layer 1"
     inkscape:groupmode="layer"
     id="layer1"
     transform="translate(-735.90401,-25.587318)">
    <path
       inkscape:connector-curvature="0"
       d="m 771.94895,30.889663 c -7.24711,0 -13.17896,5.931992 -13.17896,13.17914 0,3.621155 1.48488,6.908773 3.87237,9.295577 0.51513,0.584717 0.46505,1.993277 0.0333,2.422046 -2.40782,2.390547 -3.90577,5.695331 -3.90577,9.334928 0,7.247059 5.93192,13.17905 13.17904,13.17905 7.24712,0 13.17827,-5.931991 13.17827,-13.17905 0,-3.659593 -1.51547,-6.980081 -3.94695,-9.373184 -0.56434,-0.547374 -0.41849,-1.886543 0.0153,-2.319054 2.42277,-2.392374 3.93167,-5.708114 3.93167,-9.360313 0,-7.247148 -5.93116,-13.17914 -13.17828,-13.17914 z m 0,5.287105 c 4.38979,0 7.89126,3.502275 7.89126,7.892035 0,4.389669 -3.50147,7.891214 -7.89126,7.891214 -4.38962,0 -7.89195,-3.501545 -7.89195,-7.891214 0,-4.38976 3.50233,-7.892035 7.89195,-7.892035 z m 0,21.053281 c 4.38979,0 7.89126,3.501454 7.89126,7.891305 0,4.38967 -3.50147,7.891946 -7.89126,7.891946 -4.38962,0 -7.89195,-3.502276 -7.89195,-7.891946 0,-4.389851 3.50233,-7.891305 7.89195,-7.891305 z M 769.863,38.163289 a 0.85978383,0.85978383 0 0 0 -0.84614,0.872693 v 4.911203 a 0.85978383,0.85978383 0 1 0 1.71883,0 V 39.035982 A 0.85978383,0.85978383 0 0 0 769.863,38.163289 Z m 4.14517,0 a 0.85978383,0.85978383 0 0 0 -0.84604,0.872693 v 4.911203 a 0.85978383,0.85978383 0 1 0 1.71882,0 v -4.911203 a 0.85978383,0.85978383 0 0 0 -0.87278,-0.872693 z m -7.92997,4.92289 a 0.85978383,0.85978383 0 0 0 -0.84612,0.872784 c 8e-5,3.699221 3.01753,6.715024 6.71687,6.715024 3.69926,0 6.71678,-3.015803 6.71678,-6.715024 a 0.86026436,0.86026436 0 1 0 -1.72052,0 c 0,2.77001 -2.22617,4.996208 -4.99626,4.996208 -2.77008,0 -4.99796,-2.226198 -4.99796,-4.996208 a 0.85978383,0.85978383 0 0 0 -0.87279,-0.872784 z m -18.89888,-2.107592 a 3.0952037,3.0952037 0 1 0 0,6.189381 h 3.86159 3.86152 a 3.0952037,3.0952037 0 1 0 0,-6.189381 h -3.86152 z m 41.89625,0 a 3.0952037,3.0952037 0 1 0 0,6.189381 h 3.85989 3.8615 a 3.0952037,3.0952037 0 1 0 0,-6.189381 h -3.8615 z m -38.4352,-12.640989 a 3.0952037,3.0952037 0 0 0 -1.62706,5.795674 l 3.10057,1.788846 3.58785,2.070979 a 3.0952037,3.0952037 0 1 0 3.09562,-5.360057 l -3.58955,-2.07098 -3.09886,-1.790581 a 3.0952037,3.0952037 0 0 0 -1.46857,-0.433881 z m 43.02928,0.200231 a 3.0952037,3.0952037 0 0 0 -1.68542,0.435616 l -3.09894,1.788847 -3.58947,2.072623 a 3.0952037,3.0952037 0 1 0 3.09553,5.360148 l 3.58784,-2.072621 3.10058,-1.788939 a 3.0952037,3.0952037 0 0 0 -1.41012,-5.795674 z m -46.49033,33.488927 a 3.0952037,3.0952037 0 1 0 0,6.189472 h 3.57955 4.14356 a 3.0952037,3.0952037 0 1 0 0,-6.189472 h -4.14356 z m 41.89625,0.231915 a 3.0952037,3.0952037 0 1 0 0,6.189563 h 4.14355 3.57784 a 3.0952037,3.0952037 0 1 0 0,-6.189563 h -3.57784 z m -2.26958,8.507521 a 3.0952037,3.0952037 0 0 0 -1.62535,5.795674 l 3.58785,2.070889 3.09895,1.790581 a 3.0956105,3.0956105 0 1 0 3.09554,-5.361793 l -3.09888,-1.788939 -3.58955,-2.070977 a 3.0952037,3.0952037 0 0 0 -1.46856,-0.435435 z m -29.53556,-0.201966 a 3.0952037,3.0952037 0 0 0 -1.6855,0.435525 l -3.58784,2.072621 -3.09887,1.788939 a 3.0952037,3.0952037 0 1 0 3.09383,5.360151 l 3.10066,-1.789031 3.58785,-2.072622 a 3.0952037,3.0952037 0 0 0 -1.41013,-5.795583 z M 890.77292,57.415307 q 0,-0.171836 -0.0341,-0.274828 l -7.1133,-13.642423 q -0.10305,-0.171836 -0.13748,-0.343672 -0.0342,-0.171836 -0.0342,-0.274828 0,-0.446755 0.41234,-0.687253 0.41243,-0.27501 0.82476,-0.27501 0.54982,0 0.89347,0.687344 l 6.32288,12.542746 6.35726,-12.542746 q 0.34364,-0.687344 0.89345,-0.687344 0.41243,0 0.82477,0.27501 0.41233,0.240498 0.41233,0.687253 0,0.102992 -0.0342,0.274828 -0.0341,0.171836 -0.10303,0.343672 l -7.14768,13.642423 q -0.0684,0.206167 -0.0684,0.274828 v 8.72839 q 0,0.446754 -0.34365,0.687344 -0.34364,0.206164 -0.79032,0.206164 -0.41243,0 -0.79042,-0.206164 -0.34365,-0.24059 -0.34365,-0.687344 z m -18.55533,0.206257 q -0.37799,0.721675 -0.92781,0.721675 -0.51546,0 -0.89345,-0.721675 l -5.66997,-10.893321 v 19.415454 q 0,0.446754 -0.37798,0.687344 -0.34365,0.206164 -0.75607,0.206164 -0.44669,0 -0.79034,-0.206164 -0.34364,-0.24059 -0.34364,-0.687344 V 43.017061 q 0,-0.618591 0.34364,-0.85918 0.34365,-0.240588 0.79034,-0.240588 0.61859,0 1.03093,0.481177 0.44677,0.446755 0.79033,1.099586 l 5.91056,11.408738 5.91056,-11.408738 q 0.34365,-0.652831 0.75599,-1.099586 0.44677,-0.481177 1.06527,-0.481177 0.48113,0 0.79042,0.240588 0.34356,0.240589 0.34356,0.85918 v 23.126636 q 0,0.446754 -0.34356,0.687344 -0.34364,0.206164 -0.79042,0.206164 -0.41233,0 -0.79032,-0.206164 -0.34365,-0.24059 -0.34365,-0.687344 V 46.831417 Z M 851.94684,50.57693 q 1.3058,0 2.47421,0.515508 1.20267,0.481085 2.09613,1.374505 0.9278,0.859178 1.44327,2.027519 0.54981,1.168337 0.54981,2.508511 v 3.745696 q 0,1.271422 -0.54981,2.474181 -0.51547,1.168338 -1.44327,2.061758 -0.89346,0.89342 -2.09613,1.443257 -1.16841,0.549839 -2.47421,0.549839 -1.30579,0 -2.4742,-0.515508 -1.16833,-0.549747 -2.06178,-1.443258 -0.89346,-0.92775 -1.44328,-2.096088 -0.51546,-1.168429 -0.51546,-2.474181 v -3.745696 q 0,-1.271421 0.51546,-2.439759 0.51547,-1.168429 1.3745,-2.061849 0.89345,-0.893511 2.06187,-1.408927 1.20266,-0.515508 2.54289,-0.515508 z m 4.32982,6.426043 q 0,-0.824666 -0.34364,-1.615092 -0.34365,-0.790336 -0.92781,-1.374504 -0.58416,-0.618592 -1.37457,-0.996596 -0.79034,-0.378002 -1.6838,-0.378002 -0.89345,0 -1.68387,0.378002 -0.79033,0.378004 -1.3745,0.996596 -0.54981,0.584168 -0.89345,1.374504 -0.3093,0.790426 -0.3093,1.615092 v 3.745696 q 0,0.859087 0.3093,1.683754 0.34364,0.790427 0.9278,1.408927 0.58416,0.618499 1.34015,0.996595 0.79042,0.378001 1.68387,0.378001 0.89346,0 1.6838,-0.378001 0.79041,-0.378096 1.37457,-0.996595 0.58416,-0.6185 0.92781,-1.408927 0.34364,-0.824667 0.34364,-1.683754 z m -17.87284,4.982787 q 0,1.683756 0.68729,2.371008 0.72164,0.653012 2.50847,0.653012 h 0.96224 q 0.48103,0 0.75598,0.309158 0.27495,0.309343 0.27495,0.687344 0,0.412332 -0.27495,0.721583 -0.27495,0.30934 -0.75598,0.30934 h -0.96224 q -2.68029,0 -4.05487,-1.168428 -1.37458,-1.202668 -1.37458,-3.883017 V 43.876058 q 0,-0.378002 0.34365,-0.584169 0.37799,-0.240497 0.75598,-0.240497 0.41243,0 0.75607,0.240497 0.37799,0.206167 0.37799,0.584169 v 6.90713 h 4.43286 q 0.34365,0 0.54981,0.274828 0.24061,0.27501 0.24061,0.653013 0,0.378002 -0.24061,0.65283 -0.20616,0.27492 -0.54981,0.27492 h -4.43286 z m -10.17707,5.291944 q -1.71813,0 -2.98959,-0.481085 -1.2371,-0.515416 -2.06185,-1.374505 -0.82469,-0.893512 -1.23702,-2.061849 -0.37799,-1.202668 -0.37799,-2.611596 v -3.676943 q 0,-1.374596 0.37799,-2.542934 0.41233,-1.202671 1.20267,-2.061849 0.82476,-0.89342 2.06187,-1.374505 1.27144,-0.515508 2.98958,-0.515508 1.09963,0 1.99308,0.240588 0.89346,0.206167 1.51206,0.549839 0.65286,0.309341 0.9965,0.721674 0.34365,0.377912 0.34365,0.721583 0,0.378004 -0.30931,0.756006 -0.27486,0.343672 -0.6872,0.343672 -0.2406,0 -0.51547,-0.206166 -0.2406,-0.206168 -0.65294,-0.412335 -0.41233,-0.240679 -1.03093,-0.446847 -0.61851,-0.206165 -1.54632,-0.206165 -2.26803,0 -3.40201,1.202761 -1.09962,1.168337 -1.09962,3.230186 v 3.676943 q 0,2.09618 1.13397,3.298848 1.13398,1.168429 3.40201,1.168429 0.99659,0 1.6151,-0.206166 0.65294,-0.206257 1.06528,-0.446847 0.41233,-0.240495 0.65294,-0.446663 0.27486,-0.206259 0.54981,-0.206259 0.48104,0 0.75599,0.378096 0.27486,0.343579 0.27486,0.721673 0,0.343489 -0.37799,0.755912 -0.34365,0.378005 -0.9965,0.721676 -0.65294,0.343673 -1.58075,0.549837 -0.9278,0.240499 -2.06187,0.240499 z m -17.7568,-0.03378 q -1.51206,0 -2.81786,-0.378002 -1.30579,-0.412335 -2.26795,-1.271513 -0.96223,-0.89342 -1.51204,-2.268016 -0.54982,-1.408927 -0.54982,-3.436354 V 49.237303 q 0,-1.993096 0.54982,-3.367601 0.54981,-1.408835 1.51204,-2.268015 0.96216,-0.893419 2.26795,-1.271422 1.3058,-0.412424 2.81786,-0.412424 1.51196,0 2.81776,0.412424 1.30588,0.378003 2.26803,1.271422 0.96216,0.85918 1.51197,2.268015 0.54982,1.374505 0.54982,3.367601 v 10.652734 q 0,2.027427 -0.54982,3.436354 -0.54981,1.374596 -1.51197,2.268016 -0.96215,0.859178 -2.26803,1.271513 -1.3058,0.378002 -2.81776,0.378001 z m 4.87963,-18.006619 q 0,-2.680348 -1.3058,-3.95177 -1.27145,-1.271513 -3.57383,-1.271513 -2.30239,0 -3.60818,1.271513 -1.27145,1.271422 -1.27145,3.95177 v 10.652732 q 0,2.714771 1.27145,3.986191 1.30579,1.271422 3.60818,1.271422 2.30238,0 3.57383,-1.271422 1.3058,-1.27142 1.3058,-3.986191 z m 86.44996,-7.319462 v 0.815627 h 1.46147 v 3.829239 h 1.00829 v -3.829242 h 1.45002 V 41.91784 Z m 8.50789,0 -1.26872,2.979463 -1.21216,-2.979463 h -1.47283 v 4.644866 h 0.97429 v -3.829242 l 1.47283,3.829239 h 0.4871 l 1.51804,-3.829239 v 3.829239 h 0.97428 V 41.91784 Z"
       style="color:#000000;font-style:normal;font-variant:normal;font-weight:normal;font-stretch:normal;font-size:medium;line-height:normal;font-family:sans-serif;text-indent:0;text-align:start;text-decoration:none;text-decoration-line:none;text-decoration-style:solid;text-decoration-color:#000000;letter-spacing:normal;word-spacing:normal;text-transform:none;writing-mode:lr-tb;direction:ltr;baseline-shift:baseline;text-anchor:start;white-space:normal;clip-rule:nonzero;display:inline;overflow:visible;visibility:visible;opacity:1;isolation:auto;mix-blend-mode:normal;color-interpolation:sRGB;color-interpolation-filters:linearRGB;solid-color:#000000;solid-opacity:1;fill:#020202;fill-opacity:1;fill-rule:evenodd;stroke:none;stroke-width:12.94960785;stroke-linecap:round;stroke-linejoin:round;stroke-miterlimit:4;stroke-dasharray:none;stroke-dashoffset:0;stroke-opacity:1;color-rendering:auto;image-rendering:auto;shape-rendering:auto;text-rendering:auto;enable-background:accumulate"
       id="path9946" />
  </g>
</svg>
