<?xml version="1.0" encoding="UTF-8" standalone="no"?>
<!-- Created with Inkscape (http://www.inkscape.org/) -->

<svg
   xmlns:dc="http://purl.org/dc/elements/1.1/"
   xmlns:cc="http://creativecommons.org/ns#"
   xmlns:rdf="http://www.w3.org/1999/02/22-rdf-syntax-ns#"
   xmlns:svg="http://www.w3.org/2000/svg"
   xmlns="http://www.w3.org/2000/svg"
   xmlns:sodipodi="http://sodipodi.sourceforge.net/DTD/sodipodi-0.dtd"
   xmlns:inkscape="http://www.inkscape.org/namespaces/inkscape"
   width="14.111111mm"
   height="14.111111mm"
   viewBox="0 0 49.999998 49.999998"
   id="svg6825"
   version="1.1"
   inkscape:version="0.91 r"
   sodipodi:docname="serial.svg">
  <defs
     id="defs6827" />
  <sodipodi:namedview
     id="base"
     pagecolor="#ffffff"
     bordercolor="#666666"
     borderopacity="1.0"
     inkscape:pageopacity="0.0"
     inkscape:pageshadow="2"
     inkscape:zoom="1.979899"
     inkscape:cx="-87.299186"
     inkscape:cy="60.777257"
     inkscape:document-units="px"
     inkscape:current-layer="layer1"
     showgrid="false"
     fit-margin-top="0"
     fit-margin-left="0"
     fit-margin-right="0"
     fit-margin-bottom="0"
     inkscape:window-width="1879"
     inkscape:window-height="1056"
     inkscape:window-x="41"
     inkscape:window-y="24"
     inkscape:window-maximized="1" />
  <metadata
     id="metadata6830">
    <rdf:RDF>
      <cc:Work
         rdf:about="">
        <dc:format>image/svg+xml</dc:format>
        <dc:type
           rdf:resource="http://purl.org/dc/dcmitype/StillImage" />
        <dc:title></dc:title>
      </cc:Work>
    </rdf:RDF>
  </metadata>
  <g
     inkscape:label="Layer 1"
     inkscape:groupmode="layer"
     id="layer1"
     transform="translate(-677.85712,-544.50507)">
    <path
       id="path6685"
       style="fill:#000000"
       d="m 715.84547,567.24143 c -1.35809,-0.4142 -2.04436,-1.8903 -1.48423,-3.1923 0.38428,-0.8934 1.40049,-1.4842 2.35771,-1.3709 0.84678,0.1006 1.64857,0.7419 1.9504,1.5606 0.38547,1.0454 -0.20767,2.3934 -1.25749,2.8578 -0.45347,0.2006 -1.16728,0.2666 -1.56639,0.1448 z m -7.30569,-0.033 c -1.0766,-0.3458 -1.78419,-1.5646 -1.54794,-2.6662 0.39376,-1.8361 2.58003,-2.4989 3.89728,-1.1817 1.40987,1.4098 0.50313,3.7798 -1.50692,3.9387 -0.25582,0.02 -0.61846,-0.019 -0.84242,-0.09 z m -7.50592,-0.023 c -0.64905,-0.2322 -1.04454,-0.578 -1.34205,-1.1734 -0.56437,-1.1294 -0.15963,-2.4492 0.93258,-3.0411 1.56595,-0.8487 3.42198,0.2478 3.42198,2.0217 0,1.5753 -1.56138,2.7118 -3.01251,2.1928 z m -6.57356,0.061 c -1.02188,-0.256 -1.71573,-1.1761 -1.71402,-2.2731 0.003,-1.7685 1.838,-2.8541 3.39373,-2.0073 1.61153,0.877 1.59574,3.2631 -0.0269,4.0569 -0.52836,0.2585 -1.16776,0.345 -1.65285,0.2235 z m -7.61517,-0.08 c -0.85754,-0.2959 -1.56421,-1.278 -1.56421,-2.1737 0,-1.1874 1.15603,-2.3435 2.34351,-2.3435 1.18747,0 2.34351,1.1561 2.34351,2.3435 0,1.2027 -1.1707,2.3536 -2.38097,2.3407 -0.14648,0 -0.48031,-0.076 -0.74184,-0.167 z m 26.02872,8.3196 c -0.50933,-0.076 -0.86289,-0.2603 -1.2598,-0.6573 -0.73324,-0.7333 -0.8797,-1.9543 -0.33619,-2.8031 1.27603,-1.9929 4.2913,-1.1712 4.2913,1.1694 0,1.4354 -1.25851,2.5052 -2.69531,2.291 z m -7.20413,0 c -1.82137,-0.2727 -2.5689,-2.5601 -1.27229,-3.8931 0.90858,-0.9342 2.50861,-0.9213 3.34115,0.027 0.41598,0.4738 0.56145,0.812 0.61016,1.4189 0.11922,1.4852 -1.17963,2.6718 -2.67902,2.4472 z m -7.51305,0 c -1.05244,-0.1838 -1.82046,-1.0148 -1.91644,-2.0733 -0.11922,-1.3147 0.81271,-2.3994 2.14348,-2.4946 0.50099,-0.036 0.66204,-0.013 1.05676,0.1721 1.83938,0.8465 1.89184,3.2828 0.091,4.2277 -0.3008,0.1579 -0.96726,0.2394 -1.37484,0.1681 z m -6.81163,-0.028 c -0.53869,-0.107 -0.76873,-0.2354 -1.17778,-0.6543 -0.39511,-0.4046 -0.57475,-0.8287 -0.61715,-1.4572 -0.0453,-0.6708 0.13647,-1.1998 0.58199,-1.694 1.40147,-1.5548 3.99506,-0.5523 3.99933,1.5458 0.003,1.4954 -1.30431,2.5555 -2.78639,2.2597 z m 28.00706,4.6804 c 1.00692,-0.2606 2.11834,-1.1655 2.54427,-2.0716 0.22788,-0.4849 0.44675,-1.2913 0.44675,-1.6462 0,-0.1412 0.45538,-3.3065 1.01197,-7.034 0.94874,-6.354 1.00604,-6.8121 0.91695,-7.3328 -0.21447,-1.2535 -1.0605,-2.3513 -2.2663,-2.9406 l -0.66078,-0.3231 -18.48771,0 -18.4877,0 -0.6753,0.3224 c -1.37598,0.6571 -2.30969,2.0468 -2.31998,3.4532 -0.004,0.4896 1.35471,13.5743 1.4808,14.2649 0.28954,1.586 1.6482,2.917 3.25042,3.1842 0.49624,0.083 14.82625,0.2104 27.30103,0.2433 4.64243,0.013 5.50315,0 5.94558,-0.1197 z m -18.40437,1.9092 c -14.68472,-0.1044 -14.94012,-0.1095 -15.6061,-0.2876 -1.07368,-0.2869 -1.82131,-0.727 -2.67147,-1.5721 -0.59639,-0.5928 -0.81681,-0.8871 -1.1072,-1.478 -0.19942,-0.4057 -0.41911,-0.9917 -0.4882,-1.3019 -0.0691,-0.3103 -0.46038,-3.7691 -0.86953,-7.6861 -0.81761,-7.8273 -0.81189,-7.6863 -0.36158,-8.9269 0.3158,-0.8699 0.72839,-1.5054 1.44462,-2.2248 0.52101,-0.5233 0.8156,-0.7347 1.47554,-1.0592 1.49122,-0.7333 -0.11441,-0.6818 20.39723,-0.6545 l 18.18392,0.024 0.69437,0.2366 c 2.44011,0.8309 4.06888,2.9598 4.13542,5.4052 0.0123,0.4537 -1.78698,13.0266 -2.1365,14.9292 -0.29625,1.6124 -1.49986,3.2292 -2.96286,3.98 -1.16445,0.5977 -1.9888,0.7512 -3.94007,0.7337 -0.6922,0 -7.97662,-0.058 -16.18759,-0.1171 z"
       inkscape:connector-curvature="0" />
  </g>
</svg>
