<?xml version="1.0" encoding="UTF-8" standalone="no"?>
<!-- Created with Inkscape (http://www.inkscape.org/) -->

<svg
   width="64.000008"
   height="64.000008"
   viewBox="0 0 16.933335 16.933335"
   version="1.1"
   id="svg207906"
   inkscape:version="1.2.2 (b0a8486541, 2022-12-01)"
   sodipodi:docname="map.svg"
   xmlns:inkscape="http://www.inkscape.org/namespaces/inkscape"
   xmlns:sodipodi="http://sodipodi.sourceforge.net/DTD/sodipodi-0.dtd"
   xmlns="http://www.w3.org/2000/svg"
   xmlns:svg="http://www.w3.org/2000/svg">
  <sodipodi:namedview
     id="namedview207908"
     pagecolor="#ffffff"
     bordercolor="#111111"
     borderopacity="1"
     inkscape:showpageshadow="0"
     inkscape:pageopacity="0"
     inkscape:pagecheckerboard="1"
     inkscape:deskcolor="#d1d1d1"
     inkscape:document-units="px"
     showgrid="false"
     inkscape:zoom="0.914906"
     inkscape:cx="-749.8038"
     inkscape:cy="271.0661"
     inkscape:window-width="3792"
     inkscape:window-height="2111"
     inkscape:window-x="3888"
     inkscape:window-y="0"
     inkscape:window-maximized="1"
     inkscape:current-layer="layer1" />
  <defs
     id="defs207903" />
  <g
     inkscape:label="Layer 1"
     inkscape:groupmode="layer"
     id="layer1"
     transform="translate(-269.44669,-76.555733)">
    <path
       style="display:inline;stroke-width:0.338667"
       id="path197063"
       d="m 277.99624,81.9793 c -0.6669,0 -1.2077,-0.5408 -1.2077,-1.2078 0,-0.6669 0.5408,-1.2078 1.2077,-1.2078 0.6671,0 1.2078,0.5409 1.2078,1.2078 0,0.667 -0.5407,1.2078 -1.2078,1.2078 z m 0,-3.9135 c -1.494,0 -2.7058,1.2116 -2.7058,2.7057 0,1.7381 1.9487,3.9068 2.2549,4.2383 0.1266,0.1375 0.2327,0.2715 0.4509,0.2715 0.2183,0 0.3243,-0.134 0.4511,-0.2715 0.3061,-0.3315 2.2548,-2.5002 2.2548,-4.2383 0,-1.4941 -1.2118,-2.7057 -2.7059,-2.7057 z m 4.9371,4.8775 h -2.355 l -0.5127,1.0039 h 2.1441 l 1.0834,3.2512 -0.3461,0.3823 c 0.3687,0.3334 0.5598,0.6402 0.5608,0.6413 l 0.1056,-0.064 0.9383,2.8166 h -13.2779 l 1.0059,-3.0147 c 0.035,0.024 0.062,0.048 0.102,0.073 l 0.5334,-0.8492 c -0.12,-0.076 -0.2176,-0.15 -0.3039,-0.2196 l 1.0059,-3.0168 h 2.1452 c -0.2128,-0.4156 -0.3804,-0.7441 -0.5128,-1.0039 h -2.356 l -3.0118,9.0357 h 16.0632 z m -5.2844,3.7462 c -0.1128,0.071 -0.2236,0.1353 -0.3324,0.196 l 0.4882,0.8766 c 0.1226,-0.068 0.2481,-0.1412 0.3736,-0.2196 0.1725,-0.1068 0.3411,-0.202 0.5069,-0.2863 l -0.456,-0.8941 c -0.1881,0.096 -0.3823,0.2048 -0.5803,0.3274 z m 1.6117,-0.755 0.3,0.957 c 0.307,-0.096 0.61,-0.1569 0.9021,-0.1804 l -0.08,-1 c -0.3668,0.03 -0.7442,0.1044 -1.1217,0.2234 z m 2.0943,0.8236 c 0.2892,0.056 0.5715,0.1559 0.8392,0.2941 l 0.4608,-0.8922 c -0.353,-0.1813 -0.7245,-0.3117 -1.1059,-0.3863 z m -7.9052,1.7521 c 0.3676,0.1056 0.755,0.1627 1.151,0.1686 l 0.016,-1.0039 c -0.3078,0 -0.607,-0.048 -0.8892,-0.1295 z m 2.9873,-1.203 0.3726,0.9313 c -0.3608,0.1443 -0.7206,0.254 -1.0716,0.3276 l -0.2048,-0.9824 c 0.294,-0.062 0.5979,-0.1549 0.9038,-0.2765 z"
       inkscape:connector-curvature="0"
       sodipodi:nodetypes="ssssssscscsscccccccccccccccccccccccccccccccccccccccccccccccc"
       inkscape:transform-center-x="-8.4663796"
       inkscape:transform-center-y="-263.19514" />
  </g>
</svg>
