<?xml version="1.0" encoding="UTF-8" standalone="no"?>
<!-- Created with Inkscape (http://www.inkscape.org/) -->

<svg
   width="64.000008"
   height="64.000008"
   viewBox="0 0 16.933335 16.933335"
   version="1.1"
   id="svg133372"
   inkscape:version="1.2.2 (b0a8486541, 2022-12-01)"
   sodipodi:docname="flock.svg"
   xmlns:inkscape="http://www.inkscape.org/namespaces/inkscape"
   xmlns:sodipodi="http://sodipodi.sourceforge.net/DTD/sodipodi-0.dtd"
   xmlns="http://www.w3.org/2000/svg"
   xmlns:svg="http://www.w3.org/2000/svg">
  <sodipodi:namedview
     id="namedview133374"
     pagecolor="#ffffff"
     bordercolor="#111111"
     borderopacity="1"
     inkscape:showpageshadow="0"
     inkscape:pageopacity="0"
     inkscape:pagecheckerboard="1"
     inkscape:deskcolor="#d1d1d1"
     inkscape:document-units="px"
     showgrid="false"
     inkscape:zoom="0.914906"
     inkscape:cx="-16.395127"
     inkscape:cy="202.20656"
     inkscape:window-width="3792"
     inkscape:window-height="2111"
     inkscape:window-x="3888"
     inkscape:window-y="0"
     inkscape:window-maximized="1"
     inkscape:current-layer="layer1" />
  <defs
     id="defs133369" />
  <g
     inkscape:label="Layer 1"
     inkscape:groupmode="layer"
     id="layer1"
     transform="translate(-75.398956,-94.774765)">
    <path
       id="path122324"
       style="display:inline;fill:#000000;stroke-width:0.0274534"
       d="m 79.633999,99.0525 c -0.100986,-0.062 -0.164957,-0.1497 -0.271125,-0.3733 -0.09864,-0.2076 -0.367855,-0.4781 -0.652769,-0.6557 -0.243704,-0.1518 -0.688949,-0.3398 -1.023738,-0.4322 -0.127513,-0.035 -0.231892,-0.072 -0.231892,-0.081 0,-0.063 0.743576,-0.069 1.037558,-0.01 0.446015,0.092 0.904955,0.3294 1.149863,0.5951 l 0.109653,0.1189 0.195124,-0.1828 c 0.36585,-0.3427 0.86896,-0.5414 1.436689,-0.5674 0.318997,-0.014 0.683428,0.01 0.683181,0.043 -9.2e-5,0.01 -0.108172,0.048 -0.240219,0.084 -0.319058,0.088 -0.690584,0.2386 -0.956281,0.3884 -0.298053,0.1681 -0.633614,0.5012 -0.745118,0.7399 -0.08819,0.1887 -0.199165,0.32 -0.304345,0.3601 -0.08498,0.032 -0.08828,0.032 -0.186581,-0.028 z m 7.227553,3.027 c -0.18146,-0.1106 -0.296449,-0.269 -0.487286,-0.6708 -0.177265,-0.3733 -0.661158,-0.8594 -1.173212,-1.1786 -0.437997,-0.273 -1.238265,-0.6109 -1.839985,-0.7769 -0.229208,-0.063 -0.416775,-0.1291 -0.416775,-0.1462 0,-0.1134 1.336443,-0.1246 1.864784,-0.016 0.801656,0.1652 1.626539,0.5921 2.066694,1.0697 l 0.197067,0.2137 0.350736,-0.3285 c 0.65755,-0.616 1.561796,-0.9731 2.582142,-1.0199 0.573373,-0.026 1.228363,0.015 1.2279,0.077 -1.54e-4,0.018 -0.194415,0.086 -0.431735,0.1517 -0.573466,0.1575 -1.241194,0.4288 -1.718734,0.6981 -0.535712,0.302 -1.13882,0.9009 -1.339219,1.3297 -0.15848,0.3392 -0.357954,0.5752 -0.547032,0.6473 -0.152682,0.058 -0.158666,0.057 -0.335345,-0.051 z m -3.884995,6.7969 c -0.300119,-0.183 -0.490308,-0.4448 -0.805912,-1.1095 -0.29318,-0.6174 -1.093541,-1.4214 -1.940447,-1.9493 -0.72442,-0.4514 -2.048001,-1.0103 -3.04324,-1.285 -0.379113,-0.1045 -0.689319,-0.2134 -0.689319,-0.2418 0,-0.1874 2.21043,-0.2059 3.084233,-0.026 1.325894,0.2732 2.690252,0.9793 3.418251,1.7691 l 0.325937,0.3536 0.580067,-0.5435 c 1.087588,-1.0188 2.583129,-1.6095 4.27074,-1.6868 0.948323,-0.043 2.031654,0.024 2.030883,0.1272 -2.47e-4,0.03 -0.321557,0.143 -0.714088,0.2509 -0.948477,0.2606 -2.052844,0.7091 -2.842688,1.1545 -0.886047,0.4997 -1.883537,1.4901 -2.214964,2.1994 -0.262119,0.5609 -0.592066,0.9513 -0.904801,1.0706 -0.252527,0.096 -0.262428,0.095 -0.554652,-0.083 z" />
  </g>
</svg>
