<?xml version="1.0" encoding="UTF-8" standalone="no"?>
<!-- Created with Inkscape (http://www.inkscape.org/) -->

<svg
   width="53.333332"
   height="53.333332"
   viewBox="0 0 49.999998 49.999998"
   id="svg5481"
   version="1.1"
   inkscape:version="1.2.2 (b0a8486541, 2022-12-01)"
   sodipodi:docname="mandate.svg"
   xmlns:inkscape="http://www.inkscape.org/namespaces/inkscape"
   xmlns:sodipodi="http://sodipodi.sourceforge.net/DTD/sodipodi-0.dtd"
   xmlns="http://www.w3.org/2000/svg"
   xmlns:svg="http://www.w3.org/2000/svg"
   xmlns:rdf="http://www.w3.org/1999/02/22-rdf-syntax-ns#"
   xmlns:cc="http://creativecommons.org/ns#"
   xmlns:dc="http://purl.org/dc/elements/1.1/">
  <defs
     id="defs5483" />
  <sodipodi:namedview
     id="base"
     pagecolor="#ffffff"
     bordercolor="#666666"
     borderopacity="1.0"
     inkscape:pageopacity="0.0"
     inkscape:pageshadow="2"
     inkscape:zoom="11.2"
     inkscape:cx="-9.4642857"
     inkscape:cy="25.446429"
     inkscape:document-units="px"
     inkscape:current-layer="layer1"
     showgrid="false"
     fit-margin-top="0"
     fit-margin-left="0"
     fit-margin-right="0"
     fit-margin-bottom="0"
     inkscape:window-width="3792"
     inkscape:window-height="2111"
     inkscape:window-x="3888"
     inkscape:window-y="0"
     inkscape:window-maximized="1"
     inkscape:showpageshadow="0"
     inkscape:pagecheckerboard="1"
     inkscape:deskcolor="#d1d1d1" />
  <metadata
     id="metadata5486">
    <rdf:RDF>
      <cc:Work
         rdf:about="">
        <dc:format>image/svg+xml</dc:format>
        <dc:type
           rdf:resource="http://purl.org/dc/dcmitype/StillImage" />
      </cc:Work>
    </rdf:RDF>
  </metadata>
  <g
     inkscape:label="Layer 1"
     inkscape:groupmode="layer"
     id="layer1"
     transform="translate(482.14285,-287.36221)">
    <path
       id="path222076"
       style="display:inline;stroke-width:32.7118;stroke-linecap:round;stroke-linejoin:round;paint-order:fill markers stroke"
       d="m -465.39347,318.29441 h 16.44562 v 4.02697 h -16.44562 z m 8.22279,-13.19634 -4.45113,4.08118 c 0.75013,0.36106 1.22732,1.11898 1.22759,1.95095 -1.2e-4,1.19586 -0.96951,2.16567 -2.16532,2.16567 -1.19605,0 -2.16579,-0.96981 -2.1659,-2.16567 10e-4,-0.49004 0.16912,-0.9652 0.4757,-1.34788 l -4.73643,-1.10799 3.50373,9.00531 h 16.62353 l 3.50372,-9.00531 -4.73642,1.10799 c 0.30657,0.38126 0.4743,0.85784 0.47569,1.34788 -1.1e-4,1.19586 -0.96985,2.16567 -2.16589,2.16567 -1.19581,0 -2.16521,-0.96981 -2.16533,-2.16567 2.7e-4,-0.83197 0.47746,-1.59024 1.22759,-1.95095 z m -10.01053,-15.22063 c -4.03065,0 -7.31325,3.28181 -7.31325,7.31339 v 30.34063 c 0,4.03122 3.28595,7.31551 7.31739,7.31551 h 20.07051 c 4.03145,0 7.31531,-3.28429 7.31531,-7.31551 V 300.8461 c 0,-2.03102 -0.21617,-2.19508 -1.46292,-3.68362 -1.66081,-1.98319 -4.09111,-4.37599 -6.06938,-5.96445 -1.30382,-1.04669 -1.63259,-1.31811 -3.43238,-1.31811 h -16.42735 z m 0,2.49697 h 14.30528 l -0.0642,8.37673 c 0,1.29437 1.05514,2.08843 2.02881,2.10118 l 8.62504,0.11693 v 24.56362 c 0,2.69115 -2.1286,4.81996 -4.82024,4.81996 h -20.0705 c -2.69164,0 -4.82024,-2.12881 -4.82024,-4.81996 v -30.33708 c 0,-2.69115 2.12485,-4.81996 4.81609,-4.81996 z" />
  </g>
</svg>
