<?xml version="1.0" encoding="UTF-8" standalone="no"?>
<!-- Created with Inkscape (http://www.inkscape.org/) -->

<svg
   width="64.000008"
   height="64.000008"
   viewBox="0 0 16.933335 16.933335"
   version="1.1"
   id="svg233180"
   inkscape:version="1.2.2 (b0a8486541, 2022-12-01)"
   sodipodi:docname="skeptron.svg"
   xmlns:inkscape="http://www.inkscape.org/namespaces/inkscape"
   xmlns:sodipodi="http://sodipodi.sourceforge.net/DTD/sodipodi-0.dtd"
   xmlns="http://www.w3.org/2000/svg"
   xmlns:svg="http://www.w3.org/2000/svg">
  <sodipodi:namedview
     id="namedview233182"
     pagecolor="#ffffff"
     bordercolor="#111111"
     borderopacity="1"
     inkscape:showpageshadow="0"
     inkscape:pageopacity="0"
     inkscape:pagecheckerboard="1"
     inkscape:deskcolor="#d1d1d1"
     inkscape:document-units="px"
     showgrid="false"
     inkscape:zoom="0.914906"
     inkscape:cx="-156.30021"
     inkscape:cy="435.01737"
     inkscape:window-width="3792"
     inkscape:window-height="2111"
     inkscape:window-x="3888"
     inkscape:window-y="0"
     inkscape:window-maximized="1"
     inkscape:current-layer="layer1" />
  <defs
     id="defs233177" />
  <g
     inkscape:label="Layer 1"
     inkscape:groupmode="layer"
     id="layer1"
     transform="translate(-112.41551,-33.176907)">
    <g
       id="g221902"
       transform="matrix(2.0077723,0,0,2.0077723,-71.89921,10237.548)"
       style="display:inline;fill:#000000;fill-opacity:1">
      <path
         id="path221898"
         style="fill:#000000;fill-opacity:1;stroke:none;stroke-width:0.0861794px;stroke-linecap:butt;stroke-linejoin:miter;stroke-opacity:1"
         d="m 96.017554,-5080.7678 -1.318278,1.2087 c 0.222162,0.1067 0.363491,0.3314 0.36357,0.5778 -3.3e-5,0.3542 -0.287137,0.6413 -0.641297,0.6413 -0.354228,1e-4 -0.641433,-0.2871 -0.641466,-0.6413 3.26e-4,-0.1452 0.05008,-0.2859 0.140886,-0.3992 l -1.402776,-0.3281 1.037689,2.667 h 4.923346 l 1.037689,-2.667 -1.402773,0.3281 c 0.0908,0.1133 0.140472,0.254 0.140883,0.3992 -3.3e-5,0.3542 -0.287238,0.6414 -0.641466,0.6413 -0.35416,0 -0.641265,-0.2871 -0.641298,-0.6413 7.8e-5,-0.2464 0.141407,-0.4711 0.363571,-0.5778 z"
         sodipodi:nodetypes="cccsccccccccsccc" />
      <rect
         style="opacity:1;fill:#000000;fill-opacity:1;stroke:none;stroke-width:9.68817;stroke-linecap:round;stroke-linejoin:round;stroke-dasharray:none;stroke-opacity:1;paint-order:fill markers stroke"
         id="rect221900"
         width="4.8706541"
         height="1.1927466"
         x="93.58223"
         y="-5076.8594" />
    </g>
  </g>
</svg>
