<?xml version="1.0" encoding="UTF-8" standalone="no"?>
<!-- Created with Inkscape (http://www.inkscape.org/) -->

<svg
   xmlns:dc="http://purl.org/dc/elements/1.1/"
   xmlns:cc="http://creativecommons.org/ns#"
   xmlns:rdf="http://www.w3.org/1999/02/22-rdf-syntax-ns#"
   xmlns:svg="http://www.w3.org/2000/svg"
   xmlns="http://www.w3.org/2000/svg"
   xmlns:sodipodi="http://sodipodi.sourceforge.net/DTD/sodipodi-0.dtd"
   xmlns:inkscape="http://www.inkscape.org/namespaces/inkscape"
   width="299.45325mm"
   height="156.6861mm"
   viewBox="0 0 1061.0548 555.18695"
   id="svg2"
   version="1.1"
   inkscape:version="0.91 r"
   sodipodi:docname="stork.svg">
  <defs
     id="defs4" />
  <sodipodi:namedview
     id="base"
     pagecolor="#ffffff"
     bordercolor="#666666"
     borderopacity="1.0"
     inkscape:pageopacity="0.0"
     inkscape:pageshadow="2"
     inkscape:zoom="0.49497475"
     inkscape:cx="239.80603"
     inkscape:cy="-47.178866"
     inkscape:document-units="px"
     inkscape:current-layer="layer1"
     showgrid="false"
     fit-margin-top="0"
     fit-margin-left="0"
     fit-margin-right="0"
     fit-margin-bottom="0"
     inkscape:window-width="1879"
     inkscape:window-height="1056"
     inkscape:window-x="41"
     inkscape:window-y="24"
     inkscape:window-maximized="1" />
  <metadata
     id="metadata7">
    <rdf:RDF>
      <cc:Work
         rdf:about="">
        <dc:format>image/svg+xml</dc:format>
        <dc:type
           rdf:resource="http://purl.org/dc/dcmitype/StillImage" />
        <dc:title></dc:title>
      </cc:Work>
    </rdf:RDF>
  </metadata>
  <g
     inkscape:label="Layer 1"
     inkscape:groupmode="layer"
     id="layer1"
     transform="translate(86.822277,-87.572568)">
    <path
       inkscape:connector-curvature="0"
       id="path4156"
       d="M 474.80838,239.92379 144.81629,196.02888 468.5851,285.10309 Z"
       style="fill:#fdbc3a;fill-opacity:1;fill-rule:evenodd;stroke:#000000;stroke-width:10;stroke-linecap:round;stroke-linejoin:round;stroke-miterlimit:4;stroke-dasharray:none;stroke-opacity:1"
       inkscape:transform-center-x="187.67497"
       inkscape:transform-center-y="-49.312117"
       sodipodi:nodetypes="cccc" />
    <path
       style="fill:#fdbc3a;fill-opacity:1;fill-rule:evenodd;stroke:#000000;stroke-width:10;stroke-linecap:round;stroke-linejoin:round;stroke-miterlimit:4;stroke-dasharray:none;stroke-opacity:1"
       d="M 430.32498,175.5498 -14.142136,183.63102 420.22346,235.1488 Z"
       id="path4154"
       inkscape:connector-curvature="0" />
    <path
       sodipodi:nodetypes="scccsscsscsscccss"
       inkscape:connector-curvature="0"
       id="path4176"
       d="m 574.80555,494.62877 110.58058,14.282 c 10.21057,25.69011 21.93202,31.85264 36.76405,6.38896 l 112.80638,-7.69126 -35.91978,33.40555 c -12.30201,11.44093 3.24341,28.691 14.20649,17.89675 l 33.27928,-32.76677 -20.00744,42.76677 c -6.34003,13.55209 15.70385,21.15868 21.81482,6.79995 l 20.54097,-48.26442 7.61204,48.02303 c 2.52865,15.95282 26.5134,12.22535 24.44788,-3.70513 l -12.68755,-97.85343 c -3.73009,-28.69434 -31.97378,-14.05157 -39.57414,-0.37881 l -143.78436,15.20922 -125,-18.82026 c -16.84583,-2.53634 -20.03954,22.77566 -5.07922,24.70785 z"
       style="fill:#fdbc3a;fill-opacity:1;fill-rule:evenodd;stroke:#000000;stroke-width:10;stroke-linecap:round;stroke-linejoin:round;stroke-miterlimit:4;stroke-dasharray:none;stroke-opacity:1" />
    <path
       style="fill:#f4f0d9;fill-opacity:1;fill-rule:evenodd;stroke:#000000;stroke-width:10;stroke-linecap:round;stroke-linejoin:round;stroke-miterlimit:4;stroke-dasharray:none;stroke-opacity:1"
       d="m 456.42857,398.79078 c 68.30657,-41.31403 136.95026,-63.0754 207.14286,5 15.73656,14.05207 22.91711,26.39294 29.28571,38.57142 l 144.46213,-5.95206 c -18.63023,55.44949 -60.1176,85.71344 -133.03355,83.09492 C 518.147,709.66443 254.9064,465.90078 443.21429,317.71935 c 9.58441,-7.92997 -3.36787,-21.57423 -19.60387,-38.06087 -13.97633,-14.88219 -21.46756,-33.42868 -21.46756,-53.72484 0,-44.57727 36.13702,-80.71429 80.71429,-80.71429 44.57727,0 80.71428,36.13702 80.71428,80.71429 0,20.00438 -7.27739,38.30904 -20.33363,53.73356 -20.10082,20.73822 -77.12264,47.16816 -86.80923,119.12358 z"
       id="path4151"
       inkscape:connector-curvature="0"
       sodipodi:nodetypes="cccccccssscc" />
    <path
       style="fill:#f1ebcd;fill-opacity:1;fill-rule:evenodd;stroke:#000000;stroke-width:10;stroke-linecap:round;stroke-linejoin:round;stroke-miterlimit:4;stroke-dasharray:none;stroke-opacity:1"
       d="M -81.822356,484.65647 75.761441,177.5701 213.14219,486.67678 c -79.94916,124.96559 -235.370727,86.9709 -294.964546,-2.02031 z"
       id="path4158"
       inkscape:connector-curvature="0"
       sodipodi:nodetypes="cccc" />
    <path
       style="fill:#f1ebcd;fill-opacity:1;fill-rule:evenodd;stroke:#000000;stroke-width:10;stroke-linecap:round;stroke-linejoin:round;stroke-miterlimit:4;stroke-dasharray:none;stroke-opacity:1"
       d="M 67.142857,176.64792 C -15.839733,171.4642 -34.73179,120.94053 -43.928572,94.147918 17.303579,86.059019 58.968302,108.47768 67.142857,176.64792 Z"
       id="path4166"
       inkscape:connector-curvature="0"
       sodipodi:nodetypes="ccc" />
    <path
       sodipodi:nodetypes="ccc"
       inkscape:connector-curvature="0"
       id="path4168"
       d="M 86.682308,173.07649 C 156.09347,183.24991 186.77124,130.58339 195.96802,103.79078 134.73587,81.773305 94.856863,104.90625 86.682308,173.07649 Z"
       style="fill:#f1ebcd;fill-opacity:1;fill-rule:evenodd;stroke:#000000;stroke-width:10;stroke-linecap:round;stroke-linejoin:round;stroke-miterlimit:4;stroke-dasharray:none;stroke-opacity:1" />
    <path
       style="fill:#f4f0d9;fill-opacity:1;fill-rule:evenodd;stroke:#000000;stroke-width:10;stroke-linecap:round;stroke-linejoin:round;stroke-miterlimit:4;stroke-dasharray:none;stroke-opacity:1"
       d="m 448.36221,406.41769 340.0359,-215.08666 c 23.66506,-14.96912 65.05113,7.14666 35.71429,25.71428 l -56.42857,35.71429 60.71428,13.57143 c 26.64271,5.95543 13.83565,54.28335 -12.14285,51.42857 l -65,-7.14286 44.28571,32.85714 c 22.09726,16.39474 -0.0311,45.38674 -46.42857,25 L 701.96954,347.7596 c -52.84365,146.63973 -155.63129,67.14374 -230.35451,69.87216"
       id="path4170"
       inkscape:connector-curvature="0"
       sodipodi:nodetypes="csscsscsscc" />
    <path
       style="fill:#f1ebcd;fill-opacity:1;fill-rule:evenodd;stroke:#000000;stroke-width:10;stroke-linecap:round;stroke-linejoin:round;stroke-miterlimit:4;stroke-dasharray:none;stroke-opacity:1"
       d="m 447.49758,201.05615 c 10.53591,-8.70251 21.27988,-4.15116 24.4962,4.54568"
       id="path4172"
       inkscape:connector-curvature="0"
       sodipodi:nodetypes="cc" />
    <path
       style="fill:#fdbc3a;fill-opacity:1;fill-rule:evenodd;stroke:#000000;stroke-width:10;stroke-linecap:round;stroke-linejoin:round;stroke-miterlimit:4;stroke-dasharray:none;stroke-opacity:1"
       d="m 642.99085,546.65163 110.58058,14.282 c 10.21057,25.69011 21.93202,31.85264 36.76405,6.38896 l 112.80638,-7.69126 -35.91978,33.40555 c -12.30201,11.44093 3.24341,28.691 14.20649,17.89675 l 33.27928,-32.76677 -20.00744,42.76677 c -6.34003,13.55209 15.70385,21.15868 21.81482,6.79995 l 20.54097,-48.26442 7.61204,48.02303 c 2.52865,15.95282 26.5134,12.22535 24.44788,-3.70513 l -12.68755,-97.85343 c -3.73009,-28.69434 -31.97378,-14.05157 -39.57414,-0.37881 l -143.78436,15.20922 -125,-18.82026 c -16.84583,-2.53634 -20.03954,22.77566 -5.07922,24.70785 z"
       id="path4174"
       inkscape:connector-curvature="0"
       sodipodi:nodetypes="scccsscsscsscccss" />
    <path
       style="fill:#f4f0d9;fill-opacity:1;fill-rule:evenodd;stroke:#000000;stroke-width:10;stroke-linecap:round;stroke-linejoin:round;stroke-miterlimit:4;stroke-dasharray:none;stroke-opacity:1"
       d="m 602.55599,497.78846 80.81221,7.07107 c -13.07279,6.04843 -44.75839,11.50301 -37.37565,52.02286 -20.44175,-6.99251 -33.20911,3.52962 -39.90102,19.19289 L 574.7768,539.20472"
       id="path4178"
       inkscape:connector-curvature="0"
       sodipodi:nodetypes="ccccc" />
    <circle
       style="color:#000000;clip-rule:nonzero;display:inline;overflow:visible;visibility:visible;opacity:1;isolation:auto;mix-blend-mode:normal;color-interpolation:sRGB;color-interpolation-filters:linearRGB;solid-color:#000000;solid-opacity:1;fill:#f1ebcd;fill-opacity:1;fill-rule:evenodd;stroke:#020202;stroke-width:10;stroke-linecap:round;stroke-linejoin:round;stroke-miterlimit:4;stroke-dasharray:none;stroke-dashoffset:0;stroke-opacity:1;color-rendering:auto;image-rendering:auto;shape-rendering:auto;text-rendering:auto;enable-background:accumulate"
       id="path4160"
       cx="75.535713"
       cy="182.18364"
       r="25.892859" />
  </g>
</svg>
