<?xml version="1.0" encoding="UTF-8" standalone="no"?>
<!-- Created with Inkscape (http://www.inkscape.org/) -->

<svg
   xmlns:dc="http://purl.org/dc/elements/1.1/"
   xmlns:cc="http://creativecommons.org/ns#"
   xmlns:rdf="http://www.w3.org/1999/02/22-rdf-syntax-ns#"
   xmlns:svg="http://www.w3.org/2000/svg"
   xmlns="http://www.w3.org/2000/svg"
   xmlns:sodipodi="http://sodipodi.sourceforge.net/DTD/sodipodi-0.dtd"
   xmlns:inkscape="http://www.inkscape.org/namespaces/inkscape"
   width="16.933338mm"
   height="16.933338mm"
   viewBox="0 0 16.933338 16.933338"
   version="1.1"
   id="svg12814"
   inkscape:version="0.92.3 (unknown)"
   sodipodi:docname="map_area.svg">
  <defs
     id="defs12808" />
  <sodipodi:namedview
     id="base"
     pagecolor="#ffffff"
     bordercolor="#666666"
     borderopacity="1.0"
     inkscape:pageopacity="0.0"
     inkscape:pageshadow="2"
     inkscape:zoom="1.4"
     inkscape:cx="342.24698"
     inkscape:cy="-96.449702"
     inkscape:document-units="mm"
     inkscape:current-layer="layer1"
     showgrid="false"
     fit-margin-top="0"
     fit-margin-left="0"
     fit-margin-right="0"
     fit-margin-bottom="0"
     inkscape:window-width="1879"
     inkscape:window-height="1056"
     inkscape:window-x="41"
     inkscape:window-y="630"
     inkscape:window-maximized="1" />
  <metadata
     id="metadata12811">
    <rdf:RDF>
      <cc:Work
         rdf:about="">
        <dc:format>image/svg+xml</dc:format>
        <dc:type
           rdf:resource="http://purl.org/dc/dcmitype/StillImage" />
        <dc:title></dc:title>
      </cc:Work>
    </rdf:RDF>
  </metadata>
  <g
     inkscape:label="Layer 1"
     inkscape:groupmode="layer"
     id="layer1"
     transform="translate(321.43097,-88.961899)">
    <path
       style="stroke-width:0.16933334"
       id="path12756"
       d="m -312.96431,89.804594 c -1.5786,0 -2.859,1.2803 -2.859,2.859 0,1.8364 2.05896,4.1279 2.38254,4.4781 0.13386,0.1454 0.24588,0.2869 0.47646,0.2869 0.23064,0 0.34266,-0.1415 0.47652,-0.2869 0.32352,-0.3502 2.38254,-2.6417 2.38254,-4.4781 0,-1.5787 -1.2804,-2.859 -2.85906,-2.859 z m 0,4.765 c -1.05258,0 -1.90596,-0.8535 -1.90596,-1.906 0,-1.0526 0.85338,-1.906 1.90596,-1.906 1.05264,0 1.90602,0.8534 1.90602,1.906 0,1.0525 -0.85338,1.906 -1.90602,1.906 z m 0,-2.859 c -0.52602,0 -0.95298,0.4269 -0.95298,0.953 0,0.526 0.42696,0.953 0.95298,0.953 0.52608,0 0.95304,-0.427 0.95304,-0.953 0,-0.5261 -0.42696,-0.953 -0.95304,-0.953 z"
       inkscape:connector-curvature="0"
       inkscape:transform-center-x="-8.4666796"
       inkscape:transform-center-y="-127.00029" />
    <path
       sodipodi:nodetypes="ccccccc"
       inkscape:connector-curvature="0"
       id="path12758"
       d="m -306.82026,96.062494 -8.264,3.4661 -4.78479,-4.0092 1.51785,8.739496 7.5201,-3.3449 3.84091,1.8516 z"
       style="fill:none;fill-opacity:1;fill-rule:evenodd;stroke:#000000;stroke-width:1.05833328;stroke-linecap:butt;stroke-linejoin:miter;stroke-miterlimit:4;stroke-dasharray:1.05833334, 1.05833334;stroke-dashoffset:0;stroke-opacity:1" />
  </g>
</svg>
