<?xml version="1.0" encoding="UTF-8" standalone="no"?>
<!-- Created with Inkscape (http://www.inkscape.org/) -->

<svg
   xmlns:dc="http://purl.org/dc/elements/1.1/"
   xmlns:cc="http://creativecommons.org/ns#"
   xmlns:rdf="http://www.w3.org/1999/02/22-rdf-syntax-ns#"
   xmlns:svg="http://www.w3.org/2000/svg"
   xmlns="http://www.w3.org/2000/svg"
   xmlns:sodipodi="http://sodipodi.sourceforge.net/DTD/sodipodi-0.dtd"
   xmlns:inkscape="http://www.inkscape.org/namespaces/inkscape"
   width="14.111111mm"
   height="14.111111mm"
   viewBox="0 0 49.999998 49.999998"
   id="svg5502"
   version="1.1"
   inkscape:version="0.91 r"
   sodipodi:docname="qrcode.svg">
  <defs
     id="defs5504" />
  <sodipodi:namedview
     id="base"
     pagecolor="#ffffff"
     bordercolor="#666666"
     borderopacity="1.0"
     inkscape:pageopacity="0.0"
     inkscape:pageshadow="2"
     inkscape:zoom="5.6"
     inkscape:cx="61.177682"
     inkscape:cy="-20.307385"
     inkscape:document-units="px"
     inkscape:current-layer="layer1"
     showgrid="false"
     fit-margin-top="0"
     fit-margin-left="0"
     fit-margin-right="0"
     fit-margin-bottom="0"
     inkscape:window-width="1879"
     inkscape:window-height="1056"
     inkscape:window-x="41"
     inkscape:window-y="24"
     inkscape:window-maximized="1" />
  <metadata
     id="metadata5507">
    <rdf:RDF>
      <cc:Work
         rdf:about="">
        <dc:format>image/svg+xml</dc:format>
        <dc:type
           rdf:resource="http://purl.org/dc/dcmitype/StillImage" />
        <dc:title></dc:title>
      </cc:Work>
    </rdf:RDF>
  </metadata>
  <g
     inkscape:label="Layer 1"
     inkscape:groupmode="layer"
     id="layer1"
     transform="translate(725,-295.93362)">
    <path
       inkscape:connector-curvature="0"
       id="path5469"
       style="color:#000000;clip-rule:nonzero;display:inline;overflow:visible;visibility:visible;opacity:1;isolation:auto;mix-blend-mode:normal;color-interpolation:sRGB;color-interpolation-filters:linearRGB;solid-color:#000000;solid-opacity:1;fill:#000000;fill-opacity:1;fill-rule:evenodd;stroke:none;stroke-width:2;stroke-linecap:butt;stroke-linejoin:miter;stroke-miterlimit:4;stroke-dasharray:none;stroke-dashoffset:0;stroke-opacity:1;color-rendering:auto;image-rendering:auto;shape-rendering:auto;text-rendering:auto;enable-background:accumulate"
       d="m -698,298.93364 0,20 20,0 0,-20 -20,0 z m 4,4 12,0 0,12 -12,0 0,-12 z m 4,4 0,4 4,0 0,-4 -4,0 z m -32,-8 0,20 20,0 0,-20 -20,0 z m 4,4 12,0 0,12 -12,0 0,-12 z m 4,4 0,4 4,0 0,-4 -4,0 z m 16,16 0,4 4,0 0,-4 -4,0 z m 4,4 0,4 4,0 0,-4 -4,0 z m 4,0 4,0 0,-4 -4,0 0,4 z m 4,0 0,4 4,0 0,-4 -4,0 z m 4,0 4,0 0,-4 -4,0 0,4 z m 0,4 0,4 4,0 0,-4 -4,0 z m 0,4 -4,0 0,4 4,0 0,-4 z m 0,4 0,4 4,0 0,-4 -4,0 z m -4,0 -4,0 0,4 4,0 0,-4 z m -4,0 0,-4 -4,0 0,4 4,0 z m -4,0 -4,0 0,4 4,0 0,-4 z m 0,-4 0,-4 -4,0 0,4 4,0 z m 4,0 4,0 0,-4 -4,0 0,4 z m -32,-12 0,20 20,0 0,-20 -20,0 z m 4,4 12,0 0,12 -12,0 0,-12 z m 4,4 0,4 4,0 0,-4 -4,0 z" />
  </g>
</svg>
