<?xml version="1.0" encoding="UTF-8" standalone="no"?>
<!-- Created with Inkscape (http://www.inkscape.org/) -->

<svg
   xmlns:dc="http://purl.org/dc/elements/1.1/"
   xmlns:cc="http://creativecommons.org/ns#"
   xmlns:rdf="http://www.w3.org/1999/02/22-rdf-syntax-ns#"
   xmlns:svg="http://www.w3.org/2000/svg"
   xmlns="http://www.w3.org/2000/svg"
   xmlns:sodipodi="http://sodipodi.sourceforge.net/DTD/sodipodi-0.dtd"
   xmlns:inkscape="http://www.inkscape.org/namespaces/inkscape"
   width="14.111111mm"
   height="14.111111mm"
   viewBox="0 0 49.999998 49.999998"
   id="svg6718"
   version="1.1"
   inkscape:version="0.91 r"
   sodipodi:docname="sleep.svg">
  <defs
     id="defs6720" />
  <sodipodi:namedview
     id="base"
     pagecolor="#ffffff"
     bordercolor="#666666"
     borderopacity="1.0"
     inkscape:pageopacity="0.0"
     inkscape:pageshadow="2"
     inkscape:zoom="2.8"
     inkscape:cx="-0.52370835"
     inkscape:cy="3.897701"
     inkscape:document-units="px"
     inkscape:current-layer="layer1"
     showgrid="false"
     fit-margin-top="0"
     fit-margin-left="0"
     fit-margin-right="0"
     fit-margin-bottom="0"
     inkscape:window-width="1879"
     inkscape:window-height="1056"
     inkscape:window-x="41"
     inkscape:window-y="24"
     inkscape:window-maximized="1" />
  <metadata
     id="metadata6723">
    <rdf:RDF>
      <cc:Work
         rdf:about="">
        <dc:format>image/svg+xml</dc:format>
        <dc:type
           rdf:resource="http://purl.org/dc/dcmitype/StillImage" />
        <dc:title></dc:title>
      </cc:Work>
    </rdf:RDF>
  </metadata>
  <g
     inkscape:label="Layer 1"
     inkscape:groupmode="layer"
     id="layer1"
     transform="translate(-283.57144,-150.21935)">
    <path
       inkscape:connector-curvature="0"
       id="path6699"
       style="font-style:normal;font-variant:normal;font-weight:800;font-stretch:normal;font-size:medium;line-height:125%;font-family:Dosis;-inkscape-font-specification:'Dosis Ultra-Bold';text-align:start;letter-spacing:0px;word-spacing:0px;writing-mode:lr-tb;text-anchor:start;fill:#000000;fill-opacity:1;stroke:none;stroke-width:1px;stroke-linecap:butt;stroke-linejoin:miter;stroke-opacity:1"
       d="m 319.23387,177.92522 5.66901,0 q 0.47936,0 0.72946,0.4585 0.25011,0.4586 0.25011,0.9588 0,0.5002 -0.25011,0.9587 -0.2501,0.4585 -0.72946,0.4585 l -8.87867,0 q -0.5002,0 -0.72946,-0.2293 -0.20842,-0.2501 -0.20842,-0.6252 0,-0.5419 0.35431,-1.1463 l 5.87742,-10.4001 -4.83532,0 q -0.47937,0 -0.72947,-0.4169 -0.2501,-0.4377 -0.2501,-1.0004 0,-0.521 0.22926,-0.9587 0.22926,-0.4585 0.75031,-0.4585 l 8.04498,0 q 0.47937,0 0.70863,0.2501 0.22926,0.2292 0.22926,0.6044 0,0.5002 -0.35431,1.1463 l -5.87743,10.4001 z m -12.15369,0 5.66901,0 q 0.47936,0 0.72946,0.4585 0.25011,0.4586 0.25011,0.9588 0,0.5002 -0.25011,0.9587 -0.2501,0.4585 -0.72946,0.4585 l -8.87867,0 q -0.5002,0 -0.72946,-0.2293 -0.20842,-0.2501 -0.20842,-0.6252 0,-0.5419 0.35431,-1.1463 l 5.87743,-10.4001 -4.83533,0 q -0.47937,0 -0.72947,-0.4169 -0.2501,-0.4377 -0.2501,-1.0004 0,-0.521 0.22926,-0.9587 0.22926,-0.4585 0.75031,-0.4585 l 8.04498,0 q 0.47937,0 0.70863,0.2501 0.22926,0.2292 0.22926,0.6044 0,0.5002 -0.35431,1.1463 l -5.87743,10.4001 z m -12.15369,0 5.66901,0 q 0.47936,0 0.72947,0.4585 0.2501,0.4586 0.2501,0.9588 0,0.5002 -0.2501,0.9587 -0.25011,0.4585 -0.72947,0.4585 l -8.87866,0 q -0.50021,0 -0.72947,-0.2293 -0.20842,-0.2501 -0.20842,-0.6252 0,-0.5419 0.35431,-1.1463 l 5.87743,-10.4001 -4.83533,0 q -0.47937,0 -0.72947,-0.4169 -0.2501,-0.4377 -0.2501,-1.0004 0,-0.521 0.22926,-0.9587 0.22926,-0.4585 0.75031,-0.4585 l 8.04498,0 q 0.47937,0 0.70863,0.2501 0.22926,0.2292 0.22926,0.6044 0,0.5002 -0.35431,1.1463 l -5.87743,10.4001 z m 13.64403,-25.803 c -13.13184,0 -23.77686,9.3979 -23.77686,20.9931 0,5.8793 2.74477,11.1869 7.15421,14.9988 -0.46812,3.4912 -3.46543,7.0521 -6.77748,9.3886 4.92141,2.2804 16.42687,-0.6253 18.40609,-3.8657 1.61272,0.3044 3.28111,0.4733 4.99404,0.4733 13.13183,0 23.77871,-9.3979 23.77871,-20.995 0,-11.5971 -10.64688,-20.9931 -23.77871,-20.9931 z" />
  </g>
</svg>
