<?xml version="1.0" encoding="UTF-8" standalone="no"?>
<!-- Created with Inkscape (http://www.inkscape.org/) -->

<svg
   xmlns:dc="http://purl.org/dc/elements/1.1/"
   xmlns:cc="http://creativecommons.org/ns#"
   xmlns:rdf="http://www.w3.org/1999/02/22-rdf-syntax-ns#"
   xmlns:svg="http://www.w3.org/2000/svg"
   xmlns="http://www.w3.org/2000/svg"
   xmlns:sodipodi="http://sodipodi.sourceforge.net/DTD/sodipodi-0.dtd"
   xmlns:inkscape="http://www.inkscape.org/namespaces/inkscape"
   width="14.111111mm"
   height="14.111111mm"
   viewBox="0 0 49.999998 49.999998"
   id="svg6078"
   version="1.1"
   inkscape:version="0.91 r"
   sodipodi:docname="trash.svg">
  <defs
     id="defs6080" />
  <sodipodi:namedview
     id="base"
     pagecolor="#ffffff"
     bordercolor="#666666"
     borderopacity="1.0"
     inkscape:pageopacity="0.0"
     inkscape:pageshadow="2"
     inkscape:zoom="3.959798"
     inkscape:cx="21.96741"
     inkscape:cy="15.98907"
     inkscape:document-units="px"
     inkscape:current-layer="layer1"
     showgrid="false"
     fit-margin-top="0"
     fit-margin-left="0"
     fit-margin-right="0"
     fit-margin-bottom="0"
     inkscape:window-width="1879"
     inkscape:window-height="1056"
     inkscape:window-x="41"
     inkscape:window-y="24"
     inkscape:window-maximized="1" />
  <metadata
     id="metadata6083">
    <rdf:RDF>
      <cc:Work
         rdf:about="">
        <dc:format>image/svg+xml</dc:format>
        <dc:type
           rdf:resource="http://purl.org/dc/dcmitype/StillImage" />
        <dc:title></dc:title>
      </cc:Work>
    </rdf:RDF>
  </metadata>
  <g
     inkscape:label="Layer 1"
     inkscape:groupmode="layer"
     id="layer1"
     transform="translate(-335,-533.07648)">
    <path
       d="m 354.23425,553.27166 0,17.2973 q 0,0.4204 -0.27027,0.6906 -0.27027,0.2704 -0.69069,0.2704 l -1.92192,0 q -0.42042,0 -0.69069,-0.2704 -0.27026,-0.2702 -0.27026,-0.6906 l 0,-17.2973 q 0,-0.4204 0.27026,-0.6907 0.27027,-0.2702 0.69069,-0.2702 l 1.92192,0 q 0.42042,0 0.69069,0.2702 0.27027,0.2703 0.27027,0.6907 z m 7.68767,0 0,17.2973 q 0,0.4204 -0.27027,0.6906 -0.27027,0.2704 -0.69069,0.2704 l -1.92192,0 q -0.42042,0 -0.69069,-0.2704 -0.27027,-0.2702 -0.27027,-0.6906 l 0,-17.2973 q 0,-0.4204 0.27027,-0.6907 0.27027,-0.2702 0.69069,-0.2702 l 1.92192,0 q 0.42042,0 0.69069,0.2702 0.27027,0.2703 0.27027,0.6907 z m 7.68766,0 0,17.2973 q 0,0.4204 -0.27026,0.6906 -0.27028,0.2704 -0.69069,0.2704 l -1.92192,0 q -0.42042,0 -0.69069,-0.2704 -0.27027,-0.2702 -0.27027,-0.6906 l 0,-17.2973 q 0,-0.4204 0.27027,-0.6907 0.27027,-0.2702 0.69069,-0.2702 l 1.92192,0 q 0.42041,0 0.69069,0.2702 0.27026,0.2703 0.27026,0.6907 z m 3.84384,21.7417 0,-28.4684 -26.90684,0 0,28.4684 q 0,0.6606 0.21021,1.2162 0.21021,0.5556 0.43543,0.8108 0.22523,0.2553 0.31532,0.2553 l 24.98493,0 q 0.0901,0 0.31531,-0.2553 0.22523,-0.2552 0.43543,-0.8108 0.21021,-0.5556 0.21021,-1.2162 z m -20.18013,-32.3123 13.45342,0 -1.44143,-3.5134 q -0.21022,-0.2703 -0.51052,-0.3304 l -9.51949,0 q -0.3003,0.06 -0.51051,0.3304 z m 27.8678,0.961 0,1.9219 q 0,0.4205 -0.27026,0.6907 -0.27028,0.2703 -0.69069,0.2703 l -2.88288,0 0,28.4684 q 0,2.4925 -1.41141,4.3093 -1.41141,1.8168 -3.39338,1.8168 l -24.98493,0 q -1.98198,0 -3.39339,-1.7567 -1.41141,-1.7568 -1.41141,-4.2493 l 0,-28.5885 -2.88287,0 q -0.42042,0 -0.69069,-0.2703 -0.27027,-0.2702 -0.27027,-0.6907 l 0,-1.9219 q 0,-0.4204 0.27027,-0.6907 0.27027,-0.2703 0.69069,-0.2703 l 9.27926,0 2.10209,-5.0149 q 0.45045,-1.1111 1.62162,-1.892 1.17117,-0.7807 2.37237,-0.7807 l 9.60958,0 q 1.2012,0 2.37237,0.7807 1.17117,0.7809 1.62162,1.892 l 2.1021,5.0149 9.27926,0 q 0.42041,0 0.69069,0.2703 0.27026,0.2703 0.27026,0.6907 z"
       id="path3745"
       inkscape:connector-curvature="0"
       style="fill:currentColor" />
  </g>
</svg>
