<?xml version="1.0" encoding="UTF-8" standalone="no"?>
<!-- Created with Inkscape (http://www.inkscape.org/) -->

<svg
   xmlns:dc="http://purl.org/dc/elements/1.1/"
   xmlns:cc="http://creativecommons.org/ns#"
   xmlns:rdf="http://www.w3.org/1999/02/22-rdf-syntax-ns#"
   xmlns:svg="http://www.w3.org/2000/svg"
   xmlns="http://www.w3.org/2000/svg"
   xmlns:sodipodi="http://sodipodi.sourceforge.net/DTD/sodipodi-0.dtd"
   xmlns:inkscape="http://www.inkscape.org/namespaces/inkscape"
   width="14.111111mm"
   height="14.111111mm"
   viewBox="0 0 49.999998 49.999998"
   id="svg9179"
   version="1.1"
   inkscape:version="0.91 r"
   sodipodi:docname="youtube.svg">
  <defs
     id="defs9181" />
  <sodipodi:namedview
     id="base"
     pagecolor="#ffffff"
     bordercolor="#666666"
     borderopacity="1.0"
     inkscape:pageopacity="0.0"
     inkscape:pageshadow="2"
     inkscape:zoom="1.979899"
     inkscape:cx="9.290269"
     inkscape:cy="-46.836894"
     inkscape:document-units="px"
     inkscape:current-layer="layer1"
     showgrid="false"
     fit-margin-top="0"
     fit-margin-left="0"
     fit-margin-right="0"
     fit-margin-bottom="0"
     inkscape:window-width="1879"
     inkscape:window-height="1056"
     inkscape:window-x="41"
     inkscape:window-y="24"
     inkscape:window-maximized="1" />
  <metadata
     id="metadata9184">
    <rdf:RDF>
      <cc:Work
         rdf:about="">
        <dc:format>image/svg+xml</dc:format>
        <dc:type
           rdf:resource="http://purl.org/dc/dcmitype/StillImage" />
        <dc:title></dc:title>
      </cc:Work>
    </rdf:RDF>
  </metadata>
  <g
     inkscape:label="Layer 1"
     inkscape:groupmode="layer"
     id="layer1"
     transform="translate(-350,-507.36221)">
    <g
       id="g9137"
       transform="matrix(0.06899505,0,0,0.06899505,418.81061,741.51817)">
      <path
         d="m -543.70311,-3026.7055 -161.8059,-108.0469 184.50694,96.2645 -22.70104,11.7824"
         style="fill:#e3e2e0;fill-opacity:1;fill-rule:nonzero;stroke:none"
         id="path14-5"
         inkscape:connector-curvature="0" />
      <path
         d="m -705.47759,-2942.8919 -0.0314,-191.8605 184.50694,96.2645 -184.47552,95.596 z m 405.09835,-225.0978 c 0,0 -6.67166,-47.0553 -27.14658,-67.7769 -25.96601,-27.1967 -55.07131,-27.3318 -68.41865,-28.9241 -95.55387,-6.907 -238.88969,-6.907 -238.88969,-6.907 l -0.29682,0 c 0,0 -143.33247,0 -238.88969,6.907 -13.348,1.5923 -42.44294,1.7274 -68.41825,28.9241 -20.47311,20.7216 -27.13548,67.7769 -27.13548,67.7769 0,0 -6.8289,55.2585 -6.8289,110.5163 l 0,51.8043 c 0,55.2572 6.8289,110.515 6.8289,110.515 0,0 6.66237,47.0559 27.13548,67.7776 25.97531,27.1974 60.09605,26.337 75.29314,29.1876 54.62809,5.2383 232.16388,6.8594 232.16388,6.8594 0,0 143.48356,-0.216 239.03743,-7.123 13.34734,-1.5923 42.45264,-1.7266 68.41865,-28.924 20.47492,-20.7217 27.14658,-67.7776 27.14658,-67.7776 0,0 6.81874,-55.2578 6.81874,-110.515 l 0,-51.8043 c 0,-55.2578 -6.81874,-110.5163 -6.81874,-110.5163"
         style="fill:#000000;fill-opacity:1;fill-rule:nonzero;stroke:none"
         id="path16-1"
         inkscape:connector-curvature="0" />
    </g>
  </g>
</svg>
