<?xml version="1.0" encoding="UTF-8" standalone="no"?>
<!-- Created with Inkscape (http://www.inkscape.org/) -->

<svg
   xmlns:dc="http://purl.org/dc/elements/1.1/"
   xmlns:cc="http://creativecommons.org/ns#"
   xmlns:rdf="http://www.w3.org/1999/02/22-rdf-syntax-ns#"
   xmlns:svg="http://www.w3.org/2000/svg"
   xmlns="http://www.w3.org/2000/svg"
   xmlns:sodipodi="http://sodipodi.sourceforge.net/DTD/sodipodi-0.dtd"
   xmlns:inkscape="http://www.inkscape.org/namespaces/inkscape"
   width="14.111111mm"
   height="14.111111mm"
   viewBox="0 0 49.999998 49.999998"
   id="svg8773"
   version="1.1"
   inkscape:version="0.91 r"
   sodipodi:docname="zoo.svg">
  <defs
     id="defs8775" />
  <sodipodi:namedview
     id="base"
     pagecolor="#ffffff"
     bordercolor="#666666"
     borderopacity="1.0"
     inkscape:pageopacity="0.0"
     inkscape:pageshadow="2"
     inkscape:zoom="5.6"
     inkscape:cx="42.743138"
     inkscape:cy="7.9579208"
     inkscape:document-units="px"
     inkscape:current-layer="layer1"
     showgrid="false"
     fit-margin-top="0"
     fit-margin-left="0"
     fit-margin-right="0"
     fit-margin-bottom="0"
     inkscape:window-width="1879"
     inkscape:window-height="1056"
     inkscape:window-x="41"
     inkscape:window-y="24"
     inkscape:window-maximized="1" />
  <metadata
     id="metadata8778">
    <rdf:RDF>
      <cc:Work
         rdf:about="">
        <dc:format>image/svg+xml</dc:format>
        <dc:type
           rdf:resource="http://purl.org/dc/dcmitype/StillImage" />
        <dc:title></dc:title>
      </cc:Work>
    </rdf:RDF>
  </metadata>
  <g
     inkscape:label="Layer 1"
     inkscape:groupmode="layer"
     id="layer1"
     transform="translate(-92.14286,-330.21936)">
    <path
       inkscape:connector-curvature="0"
       d="m 124.56052,358.56332 c 4.95521,-0.4059 11.87887,-6.649 15.08098,-9.8004 l 0,6.0621 c -3.72229,-0.3131 -5.91435,2.0315 -7.89989,4.0166 -2.32326,2.3235 -5.63507,3.9459 -10.28141,3.9459 -4.64707,0 -8.13233,1.9343 -9.92769,3.7297 -1.79133,1.7913 -3.26936,2.0823 -3.73001,2.5428 -0.46028,0.4653 2.04048,1.2592 4.78635,-0.7131 2.74569,-1.9692 7.95814,-2.1803 13.37823,-1.8297 5.24277,0.3342 10.31981,-2.7751 13.67442,-6.0026 l 0,5.2634 c -2.776,0.228 -7.76006,1.6474 -7.76006,2.357 0,0.7778 3.55673,-0.033 3.94112,0.3547 0.38862,0.3844 -3.56518,3.8781 -5.82946,4.4021 -2.2641,0.5239 -6.21,0.9461 -6.21,1.5795 0,0.6341 3.61608,0.4224 6.21,0.4224 2.29331,0 6.90657,-4.1269 9.6484,-5.0774 l 0,7.8993 -44.997288,0 0,-1.715 c 1.968083,-1.2886 6.763068,-2.505 9.394288,-1.7403 3.1389,0.9167 10.02912,0.7052 12.40677,-0.9126 2.37875,-1.6223 8.46583,-2.2558 10.15554,-2.2558 1.68971,0 4.85783,-0.2786 3.73074,-0.7729 -9.30645,-2.3953 -12.60154,-0.2833 -16.05299,1.2669 -3.44667,1.5507 -7.74334,1.1282 -9.50472,-0.6333 -1.75733,-1.7619 -5.842142,-2.6739 -10.129628,-1.0306 l 0,-3.9542 c 5.766258,1.9221 14.780748,-1.6647 17.733148,-4.0262 3.1683,-2.5337 7.04181,-2.9565 12.18316,-3.3783 z m -22.67219,-21.0544 c 1.19617,-1.196 4.36447,-4.7858 6.19713,-4.7858 l -13.441248,0 0,10.8433 c 3.442814,0 6.048678,-4.8576 7.244118,-6.0575 z m 11.82816,4.4358 c -2.0403,1.0558 -5.63121,3.0287 -4.64616,3.3116 0.98377,0.2789 6.23463,-1.2292 8.07244,-3.0624 1.83762,-1.8375 4.24871,-3.5571 6.7118,-4.0509 2.46364,-0.4906 5.14153,-0.9848 9.5773,-5.4199 l -10.7731,0 c -2.04342,0 -6.9018,8.1651 -8.94228,9.2216 z m 22.52795,-9.2216 c -1.72297,1.727 -8.37598,8.4486 -11.405,9.4708 -3.02498,1.0225 -9.43287,2.0737 -13.7968,5.597 -4.36833,3.5187 -10.56069,3.8691 -12.533554,3.8691 -1.972677,0 -2.462723,-2.1796 -1.056161,-2.1796 3.379235,-0.845 6.830325,-4.3679 11.756505,-8.0259 4.92912,-3.6622 5.28044,-6.4805 9.36507,-8.7315 l -5.14116,0 c -4.18661,4.1899 -6.82628,8.2368 -10.83944,9.8551 -4.013337,1.6217 -7.949872,4.6463 -7.949872,4.6463 l 0,7.1816 c 4.075996,0.7767 11.257272,-2.3238 14.987832,-2.7462 3.73404,-0.4217 8.73133,-5.2802 9.57601,-4.4354 0.84522,0.8454 -3.8013,4.8962 -8.09761,7.3081 -4.2919,2.4081 -5.34824,2.8304 -8.16522,2.4081 -2.81827,-0.4226 -7.13093,1.4402 -8.300828,2.6064 l 0,3.2402 c 4.781757,1.1238 10.129628,-0.1433 15.481918,-3.2402 5.35265,-3.0966 9.25997,-7.4264 11.7565,-9.9271 2.50039,-2.5015 4.5789,-1.9018 6.54791,-5.4203 1.97231,-3.5229 9.25096,-7.3926 11.21115,-7.3926 l 0,-4.0839 -3.39725,0 z m -6.12438,13.2342 c -3.30794,3.8744 -9.57307,8.8041 -10.06715,9.9277 -0.49391,1.1278 3.09682,1.4782 5.28062,0.4939 2.18398,-0.9841 6.75848,-3.0286 8.09834,-5.631 1.25369,-2.4495 4.37587,-4.7101 6.20927,-4.7393 l 0,-7.3718 c -3.74655,0.4224 -6.20909,3.4512 -9.52108,7.3205 z"
       style="fill:#000000;fill-opacity:1"
       id="path3-1" />
  </g>
</svg>
