<?xml version="1.0" encoding="UTF-8" standalone="no"?>
<!-- Created with Inkscape (http://www.inkscape.org/) -->

<svg
   xmlns:dc="http://purl.org/dc/elements/1.1/"
   xmlns:cc="http://creativecommons.org/ns#"
   xmlns:rdf="http://www.w3.org/1999/02/22-rdf-syntax-ns#"
   xmlns:svg="http://www.w3.org/2000/svg"
   xmlns="http://www.w3.org/2000/svg"
   xmlns:sodipodi="http://sodipodi.sourceforge.net/DTD/sodipodi-0.dtd"
   xmlns:inkscape="http://www.inkscape.org/namespaces/inkscape"
   width="14.111111mm"
   height="14.111111mm"
   viewBox="0 0 49.999998 49.999998"
   id="svg5891"
   version="1.1"
   inkscape:version="0.91 r"
   sodipodi:docname="identity.svg">
  <defs
     id="defs5893" />
  <sodipodi:namedview
     id="base"
     pagecolor="#ffffff"
     bordercolor="#666666"
     borderopacity="1.0"
     inkscape:pageopacity="0.0"
     inkscape:pageshadow="2"
     inkscape:zoom="5.6"
     inkscape:cx="90.273167"
     inkscape:cy="46.745802"
     inkscape:document-units="px"
     inkscape:current-layer="layer1"
     showgrid="false"
     fit-margin-top="0"
     fit-margin-left="0"
     fit-margin-right="0"
     fit-margin-bottom="0"
     inkscape:window-width="1879"
     inkscape:window-height="1056"
     inkscape:window-x="41"
     inkscape:window-y="24"
     inkscape:window-maximized="1" />
  <metadata
     id="metadata5896">
    <rdf:RDF>
      <cc:Work
         rdf:about="">
        <dc:format>image/svg+xml</dc:format>
        <dc:type
           rdf:resource="http://purl.org/dc/dcmitype/StillImage" />
        <dc:title></dc:title>
      </cc:Work>
    </rdf:RDF>
  </metadata>
  <g
     inkscape:label="Layer 1"
     inkscape:groupmode="layer"
     id="layer1"
     transform="translate(-1052.1428,-961.64795)">
    <g
       id="g5860"
       transform="matrix(1.0338115,0,0,1.0338115,1045.5381,3049.1336)">
      <path
         inkscape:connector-curvature="0"
         d="m 37.129615,-1993.0318 3.161147,0 0,-3.1611 -3.161147,0 0,3.1611 z m -3.161148,0 0,-3.1611 -3.161147,0 0,3.1611 3.161147,0 z m 0,3.1612 -3.161147,0 0,3.1611 3.161147,0 0,-3.1611 z m 3.161148,0 0,-3.1612 -3.161148,0 0,3.1612 3.161148,0 z m 3.161147,0 -3.161147,0 0,3.1611 3.161147,0 0,-3.1611 z m 3.161149,0 0,3.1611 3.161146,0 0,-3.1611 -3.161146,0 z m 0,-3.1612 -3.161149,0 0,3.1612 3.161149,0 0,-3.1612 z m 0,-3.1611 0,3.1611 3.161146,0 0,-3.1611 -3.161146,0 z m 0,-3.1612 3.161146,0 0,-3.1611 -3.161146,0 0,3.1611 z m -3.161149,0 0,3.1612 3.161149,0 0,-3.1612 -3.161149,0 z m -3.161147,0 3.161147,0 0,-3.1611 -3.161147,0 0,3.1611 z m -3.161148,0 0,3.1612 3.161148,0 0,-3.1612 -3.161148,0 z m -3.161147,-3.1611 0,3.1611 3.161147,0 0,-3.1611 -3.161147,0 z"
         style="color:#000000;clip-rule:nonzero;display:inline;overflow:visible;visibility:visible;opacity:1;isolation:auto;mix-blend-mode:normal;color-interpolation:sRGB;color-interpolation-filters:linearRGB;solid-color:#000000;solid-opacity:1;fill:#000000;fill-opacity:1;fill-rule:evenodd;stroke:none;stroke-width:2;stroke-linecap:butt;stroke-linejoin:miter;stroke-miterlimit:4;stroke-dasharray:none;stroke-dashoffset:0;stroke-opacity:1;color-rendering:auto;image-rendering:auto;shape-rendering:auto;text-rendering:auto;enable-background:accumulate"
         id="path5619" />
      <path
         sodipodi:nodetypes="ccccc"
         inkscape:connector-curvature="0"
         id="path5681"
         d="m 51.573113,-2007.907 0,25.7528 -42.0040959,0 0,-25.7528 z"
         style="fill:none;fill-rule:evenodd;stroke:#000000;stroke-width:5.05059242;stroke-linecap:round;stroke-linejoin:round;stroke-miterlimit:4;stroke-dasharray:none;stroke-opacity:1" />
      <path
         inkscape:connector-curvature="0"
         id="path8282-4"
         d="m 16.769067,-2002.5423 -0.961062,0.9611 2.399857,2.3996 c -0.235098,0.3543 -0.406124,0.7545 -0.494515,1.184 l -3.389715,0 0,1.359 3.389715,0 c 0.169141,0.8218 0.638704,1.5375 1.287355,2.0263 -0.648602,0.489 -1.118223,1.2046 -1.287355,2.0264 l -3.389715,0 0,1.359 3.389715,0 c 0.08838,0.4294 0.259467,0.8295 0.494515,1.1838 l -2.399857,2.3999 0.961062,0.9608 2.39965,-2.3997 c 0.535546,0.3553 1.17644,0.5631 1.863495,0.5631 0.687093,0 1.327757,-0.208 1.863286,-0.5633 l 2.399858,2.3999 0.960856,-0.9608 -2.399859,-2.3999 c 0.235018,-0.3543 0.405942,-0.7544 0.494308,-1.1838 l 3.39013,0 0,-1.359 -3.39013,0 c -0.169111,-0.8218 -0.638597,-1.5374 -1.287147,-2.0264 0.6486,-0.4888 1.118028,-1.2045 1.287147,-2.0263 l 3.39013,0 0,-1.359 -3.39013,0 c -0.08837,-0.4294 -0.25929,-0.8295 -0.494308,-1.1838 l 2.399859,-2.3998 -0.960856,-0.9611 -2.399858,2.3999 c -0.535529,-0.3554 -1.176193,-0.5633 -1.863286,-0.5633 -0.687094,0 -1.32793,0.2079 -1.863495,0.5633 l -2.39965,-2.3999 z m 4.263145,3.1956 c 1.12837,0 2.028401,0.9002 2.028401,2.0286 0,1.1087 -0.869522,1.9949 -1.970187,2.0255 -0.01945,0 -0.03869,0 -0.05821,0 -0.01952,0 -0.03877,0 -0.05822,0 -1.1007,-0.031 -1.970395,-0.9168 -1.970394,-2.0255 0,-1.1284 0.900236,-2.0286 2.028609,-2.0286 z m -0.05822,5.4146 c 0.01945,0 0.03869,0 0.05822,0 0.01952,0 0.03877,0 0.05821,0 1.100665,0.031 1.970187,0.917 1.970187,2.0257 0,1.1284 -0.900031,2.0284 -2.028401,2.0284 -1.128373,0 -2.028609,-0.9 -2.028609,-2.0284 -1e-6,-1.1087 0.869694,-1.9951 1.970394,-2.0257 z"
         style="color:#000000;font-style:normal;font-variant:normal;font-weight:normal;font-stretch:normal;font-size:medium;line-height:normal;font-family:sans-serif;text-indent:0;text-align:start;text-decoration:none;text-decoration-line:none;text-decoration-style:solid;text-decoration-color:#000000;letter-spacing:normal;word-spacing:normal;text-transform:none;direction:ltr;block-progression:tb;writing-mode:lr-tb;baseline-shift:baseline;text-anchor:start;white-space:normal;clip-rule:nonzero;display:inline;overflow:visible;visibility:visible;opacity:1;isolation:auto;mix-blend-mode:normal;color-interpolation:sRGB;color-interpolation-filters:linearRGB;solid-color:#000000;solid-opacity:1;fill:#000000;fill-opacity:1;fill-rule:evenodd;stroke:none;stroke-width:12.81254005;stroke-linecap:butt;stroke-linejoin:miter;stroke-miterlimit:4;stroke-dasharray:none;stroke-dashoffset:0;stroke-opacity:1;color-rendering:auto;image-rendering:auto;shape-rendering:auto;text-rendering:auto;enable-background:accumulate" />
    </g>
  </g>
</svg>
