<?xml version="1.0" encoding="UTF-8" standalone="no"?>
<!-- Created with Inkscape (http://www.inkscape.org/) -->

<svg
   xmlns:dc="http://purl.org/dc/elements/1.1/"
   xmlns:cc="http://creativecommons.org/ns#"
   xmlns:rdf="http://www.w3.org/1999/02/22-rdf-syntax-ns#"
   xmlns:svg="http://www.w3.org/2000/svg"
   xmlns="http://www.w3.org/2000/svg"
   xmlns:sodipodi="http://sodipodi.sourceforge.net/DTD/sodipodi-0.dtd"
   xmlns:inkscape="http://www.inkscape.org/namespaces/inkscape"
   width="14.111111mm"
   height="14.111111mm"
   viewBox="0 0 49.999998 49.999998"
   id="svg6323"
   version="1.1"
   inkscape:version="0.91 r"
   sodipodi:docname="kill.svg">
  <defs
     id="defs6325" />
  <sodipodi:namedview
     id="base"
     pagecolor="#ffffff"
     bordercolor="#666666"
     borderopacity="1.0"
     inkscape:pageopacity="0.0"
     inkscape:pageshadow="2"
     inkscape:zoom="5.6"
     inkscape:cx="37.427232"
     inkscape:cy="-26.136725"
     inkscape:document-units="px"
     inkscape:current-layer="layer1"
     showgrid="false"
     fit-margin-top="0"
     fit-margin-left="0"
     fit-margin-right="0"
     fit-margin-bottom="0"
     inkscape:window-width="1879"
     inkscape:window-height="1056"
     inkscape:window-x="41"
     inkscape:window-y="24"
     inkscape:window-maximized="1" />
  <metadata
     id="metadata6328">
    <rdf:RDF>
      <cc:Work
         rdf:about="">
        <dc:format>image/svg+xml</dc:format>
        <dc:type
           rdf:resource="http://purl.org/dc/dcmitype/StillImage" />
        <dc:title></dc:title>
      </cc:Work>
    </rdf:RDF>
  </metadata>
  <g
     inkscape:label="Layer 1"
     inkscape:groupmode="layer"
     id="layer1"
     transform="translate(347.85715,192.6378)">
    <path
       style="fill:#000000"
       d="m -325.61874,-143.34582 c -3.55515,-0.4877 -6.49564,-1.8321 -8.41251,-3.8465 -1.24865,-1.312 -1.81916,-2.5442 -1.99268,-4.3036 -0.0715,-0.7244 -0.13034,-0.9437 -0.30285,-1.1273 -0.11778,-0.1253 -0.7919,-0.5064 -1.49805,-0.8467 -0.70614,-0.3404 -1.58018,-0.8158 -1.94229,-1.0565 -0.81297,-0.5405 -1.57981,-1.4497 -2.07719,-2.4629 -0.57355,-1.1684 -0.69036,-1.7089 -0.7139,-3.3037 l -0.0206,-1.3956 -0.67493,-1.3715 c -2.79466,-5.6792 -2.93326,-12.9073 -0.35014,-18.2599 2.56429,-5.3137 8.01577,-9.0501 14.97957,-10.2669 3.61836,-0.6323 7.92684,-0.6323 11.5452,0 6.9638,1.2168 12.41528,4.9532 14.97956,10.2669 1.62989,3.3773 2.18472,7.3773 1.62134,11.6887 -0.31186,2.3865 -0.93135,4.4573 -1.9573,6.5428 l -0.66075,1.3431 0.004,1.2808 c 0.004,1.5171 -0.18962,2.3934 -0.78173,3.5315 -0.83314,1.6014 -1.70393,2.3544 -4.00426,3.4632 -0.70615,0.3403 -1.38027,0.7214 -1.49805,0.8467 -0.1725,0.1836 -0.23138,0.4029 -0.30284,1.1273 -0.17275,1.7515 -0.7452,2.9928 -1.97735,4.2875 -1.95067,2.0499 -4.90263,3.393 -8.49042,3.8634 -1.33037,0.1744 -4.1972,0.1739 -5.47148,-8e-4 z m 4.89487,-3.8136 c 2.59659,-0.3455 4.83635,-1.2856 6.11899,-2.5683 0.75739,-0.7574 1.00389,-1.289 1.10803,-2.3898 0.14149,-1.4954 0.57167,-2.5153 1.39811,-3.3143 0.34626,-0.3348 1.69958,-1.2236 1.86311,-1.2236 0.21287,0 2.0707,-1.0065 2.34578,-1.2709 0.51791,-0.4978 0.89851,-1.3847 0.95203,-2.2186 0.0546,-0.85 -0.0627,-1.6299 -0.57288,-3.8097 -0.41465,-1.7717 -0.42478,-2.2004 -0.0657,-2.7814 0.11,-0.178 0.3528,-0.4402 0.53954,-0.5827 0.29501,-0.225 0.42832,-0.2591 1.01666,-0.2602 0.37243,-8e-4 0.7908,0.034 0.92973,0.078 0.25151,0.079 0.25343,0.076 0.44957,-0.7633 0.48709,-2.0839 0.63634,-5.1523 0.34615,-7.1169 -0.69581,-4.7105 -3.34173,-8.3244 -7.68451,-10.4959 -3.14417,-1.5721 -6.7641,-2.3568 -10.87242,-2.3568 -5.80011,0 -10.77254,1.6082 -14.25024,4.609 -1.74269,1.5036 -3.23786,3.9352 -3.91077,6.3599 -0.70371,2.5357 -0.72747,6.1237 -0.0593,8.9553 0.10347,0.4384 0.21005,0.8326 0.23685,0.876 0.0268,0.043 0.16606,0.018 0.30949,-0.057 0.37521,-0.1958 1.20001,-0.1732 1.62423,0.044 0.46629,0.2391 0.73128,0.5368 0.93566,1.051 0.1479,0.3722 0.15445,0.5121 0.0559,1.1928 -0.0614,0.424 -0.23846,1.3329 -0.39341,2.0196 -0.38367,1.7005 -0.50136,2.9149 -0.35247,3.6373 0.12918,0.6269 0.47677,1.2801 0.88703,1.667 0.24445,0.2304 2.11189,1.2234 2.30099,1.2234 0.16353,0 1.51686,0.8888 1.86311,1.2236 0.82645,0.799 1.25662,1.8188 1.39811,3.3143 0.10414,1.1008 0.35064,1.6324 1.10803,2.3897 2.0341,2.0342 6.3539,3.1036 10.37468,2.5684 z m -5.22883,-3.6243 c -0.48526,-0.1764 -0.86689,-0.5996 -1.00584,-1.1157 -0.37168,-1.3803 1.041,-4.6702 2.81104,-6.5467 0.78253,-0.8295 1.17569,-1.0433 1.55613,-0.8464 0.46964,0.2431 1.44502,1.2987 2.07676,2.2477 1.51446,2.2748 2.18563,4.5744 1.61745,5.5416 -0.25518,0.4344 -0.71633,0.7385 -1.23856,0.8168 -0.52898,0.079 -1.15628,-0.2018 -1.57532,-0.7058 -0.34987,-0.4209 -1.04188,-1.7697 -1.05379,-2.0539 -0.005,-0.1123 -0.0653,0 -0.13467,0.2552 -0.28045,1.0201 -0.93056,1.9726 -1.57552,2.308 -0.39873,0.2075 -1.05782,0.2517 -1.47768,0.099 z m -6.29737,-7.5519 c -0.99463,-0.1778 -1.65685,-0.5089 -2.17817,-1.0887 -0.85939,-0.9558 -1.21142,-2.2982 -1.02415,-3.9051 0.44971,-3.8591 2.24105,-6.0214 5.12201,-6.1829 1.58816,-0.089 3.0742,0.411 3.98018,1.3392 0.94426,0.9674 1.49478,2.4044 1.49478,3.9019 0,1.0831 -0.12854,1.6658 -0.58362,2.6459 -1.22395,2.6362 -3.72117,3.8422 -6.81103,3.2897 z m 16.05607,0.015 c -1.83099,-0.3825 -3.24797,-1.5327 -4.07039,-3.304 -0.45883,-0.9882 -0.58361,-1.5624 -0.58361,-2.6857 0,-1.5374 0.53713,-3.0045 1.42501,-3.8925 0.55509,-0.555 1.03502,-0.8095 1.9852,-1.0525 1.41468,-0.3618 2.98834,-0.2045 4.17527,0.4173 1.35446,0.7095 2.25026,2.037 2.78071,4.1208 0.22621,0.8886 0.26682,1.2397 0.26481,2.2899 -0.002,1.0611 -0.0337,1.3197 -0.21892,1.7892 -0.46767,1.1853 -1.34728,1.9277 -2.63537,2.2244 -0.93175,0.2146 -2.34025,0.2566 -3.12271,0.093 z"
       id="path6307"
       inkscape:connector-curvature="0" />
  </g>
</svg>
