<?xml version="1.0" encoding="UTF-8" standalone="no"?>
<!-- Created with Inkscape (http://www.inkscape.org/) -->

<svg
   xmlns:dc="http://purl.org/dc/elements/1.1/"
   xmlns:cc="http://creativecommons.org/ns#"
   xmlns:rdf="http://www.w3.org/1999/02/22-rdf-syntax-ns#"
   xmlns:svg="http://www.w3.org/2000/svg"
   xmlns="http://www.w3.org/2000/svg"
   xmlns:sodipodi="http://sodipodi.sourceforge.net/DTD/sodipodi-0.dtd"
   xmlns:inkscape="http://www.inkscape.org/namespaces/inkscape"
   width="14.111111mm"
   height="14.111111mm"
   viewBox="0 0 49.999998 49.999998"
   id="svg8652"
   version="1.1"
   inkscape:version="0.91 r"
   sodipodi:docname="roll_dice.svg">
  <defs
     id="defs8654" />
  <sodipodi:namedview
     id="base"
     pagecolor="#ffffff"
     bordercolor="#666666"
     borderopacity="1.0"
     inkscape:pageopacity="0.0"
     inkscape:pageshadow="2"
     inkscape:zoom="11.2"
     inkscape:cx="15.715818"
     inkscape:cy="36.598787"
     inkscape:document-units="px"
     inkscape:current-layer="layer1"
     showgrid="false"
     fit-margin-top="0"
     fit-margin-left="0"
     fit-margin-right="0"
     fit-margin-bottom="0"
     inkscape:window-width="1879"
     inkscape:window-height="1056"
     inkscape:window-x="41"
     inkscape:window-y="24"
     inkscape:window-maximized="1" />
  <metadata
     id="metadata8657">
    <rdf:RDF>
      <cc:Work
         rdf:about="">
        <dc:format>image/svg+xml</dc:format>
        <dc:type
           rdf:resource="http://purl.org/dc/dcmitype/StillImage" />
        <dc:title />
      </cc:Work>
    </rdf:RDF>
  </metadata>
  <g
     inkscape:label="Layer 1"
     inkscape:groupmode="layer"
     id="layer1"
     transform="translate(213.57143,-493.07648)">
    <path
       inkscape:connector-curvature="0"
       id="path12539"
       d="m -209.90918,542.56105 c -0.7608,-0.2641 -1.34864,-0.6963 -1.72987,-1.2719 -0.6672,-1.0073 -0.63842,-0.3438 -0.60745,-14.0031 l 0.0282,-12.4396 0.2775,-0.5917 c 0.35273,-0.7522 0.92076,-1.3202 1.67293,-1.6729 l 0.59174,-0.2775 12.65788,0 12.65787,0 0.59174,0.2775 c 0.75216,0.3527 1.32019,0.9207 1.67293,1.6729 l 0.27749,0.5917 0,12.6579 0,12.6579 -0.27749,0.5918 c -0.35274,0.7521 -0.92077,1.3201 -1.67293,1.6729 l -0.59174,0.2775 -12.49899,0.024 c -11.81097,0.023 -12.52931,0.013 -13.04981,-0.1673 z m 24.75437,-15.0567 0,-11.8634 -11.86345,0 -11.86345,0 0,11.8634 0,11.8635 11.86345,0 11.86345,0 0,-11.8635 z m -19.67004,9.9779 c -1.15065,-0.4111 -1.88388,-1.1844 -2.22023,-2.3414 -0.31436,-1.0813 0.0423,-2.4114 0.86796,-3.2371 1.2879,-1.2879 3.4716,-1.2879 4.7595,0 1.2879,1.2879 1.2879,3.4716 0,4.7595 -0.86153,0.8615 -2.31233,1.2103 -3.40723,0.819 z m 6.77912,-6.7791 c -1.15066,-0.4111 -1.88389,-1.1844 -2.22024,-2.3414 -0.31436,-1.0813 0.0423,-2.4115 0.86796,-3.2371 1.2879,-1.2879 3.4716,-1.2879 4.75951,0 1.28789,1.2879 1.28789,3.4716 0,4.7595 -0.86153,0.8615 -2.31234,1.2103 -3.40723,0.819 z m 6.77911,-6.7791 c -1.15065,-0.4111 -1.88388,-1.1844 -2.22023,-2.3414 -0.44244,-1.5219 0.36215,-3.2144 1.86154,-3.9158 0.47299,-0.2213 0.75117,-0.2768 1.38617,-0.2768 1.37102,0 2.47611,0.7042 3.0584,1.9491 0.57156,1.2218 0.28716,2.8001 -0.67865,3.7659 -0.86153,0.8615 -2.31233,1.2103 -3.40723,0.819 z m 13.81775,4.5625 -2.62161,-0.7098 0,-1.7251 c 0,-0.9487 0.0357,-1.7245 0.0795,-1.724 0.0437,0 1.31683,0.3336 2.82921,0.7404 1.51238,0.4067 2.77982,0.7042 2.81655,0.661 0.0801,-0.094 6.16221,-22.8132 6.11686,-22.849 -0.0564,-0.045 -22.70773,-6.0935 -22.81812,-6.0935 -0.0589,0 -0.93558,3.0983 -1.94825,6.885 l -1.84124,6.885 -1.72666,0 c -0.94966,0 -1.72666,-0.026 -1.72666,-0.059 0,-0.2059 3.95589,-14.7991 4.10443,-15.1411 0.46326,-1.0667 1.59082,-1.8489 2.79008,-1.9353 0.65563,-0.047 1.41086,0.1404 12.44602,3.0928 6.46143,1.7288 11.99707,3.2628 12.30143,3.409 0.61994,0.2979 1.17138,0.8821 1.5251,1.6156 0.17972,0.3727 0.23719,0.6826 0.23839,1.2855 0.001,0.711 -0.3285,2.0212 -3.13981,12.4691 -1.72777,6.4211 -3.23881,11.8656 -3.35786,12.099 -0.50666,0.9931 -1.61975,1.6962 -2.79541,1.7657 -0.54507,0.032 -1.07449,-0.076 -3.2719,-0.6714 z m -1.56237,-5.7068 c -0.26216,-0.095 -0.60774,-0.2656 -0.76795,-0.3793 l -0.29129,-0.2067 0,-2.6322 0,-2.6323 0.35034,-0.2165 c 0.54704,-0.3381 1.52979,-0.5598 2.13887,-0.4826 1.16125,0.1473 2.24751,0.9446 2.7197,1.9962 0.34566,0.7698 0.33528,2.0211 -0.0229,2.7637 -0.32752,0.679 -1.03599,1.3865 -1.6697,1.6675 -0.6648,0.2947 -1.82176,0.3523 -2.45704,0.1222 z m 3.46398,-13.1174 c -1.36692,-0.4876 -2.23071,-1.7202 -2.23685,-3.192 -0.006,-1.4309 0.92183,-2.7223 2.27985,-3.1734 0.76655,-0.2546 1.87606,-0.1728 2.59035,0.1909 1.49321,0.7604 2.2123,2.5911 1.63242,4.1559 -0.30504,0.8231 -1.20196,1.7389 -1.95402,1.9951 -0.61896,0.2109 -1.75401,0.2224 -2.31175,0.024 z m -13.20895,-3.5221 c -0.70251,-0.2549 -1.71404,-1.3042 -1.95368,-2.0265 -0.25409,-0.766 -0.1943,-1.9056 0.13541,-2.5813 0.30953,-0.6343 0.95061,-1.2757 1.58578,-1.5864 0.7258,-0.3551 1.88706,-0.3929 2.6993,-0.088 2.66734,1.0017 2.81414,4.8826 0.23256,6.1477 -0.67588,0.3312 -1.97833,0.396 -2.69937,0.1344 z"
       style="fill:#000000" />
  </g>
</svg>
