<?xml version="1.0" encoding="UTF-8" standalone="no"?>
<!-- Created with Inkscape (http://www.inkscape.org/) -->

<svg
   xmlns:dc="http://purl.org/dc/elements/1.1/"
   xmlns:cc="http://creativecommons.org/ns#"
   xmlns:rdf="http://www.w3.org/1999/02/22-rdf-syntax-ns#"
   xmlns:svg="http://www.w3.org/2000/svg"
   xmlns="http://www.w3.org/2000/svg"
   xmlns:sodipodi="http://sodipodi.sourceforge.net/DTD/sodipodi-0.dtd"
   xmlns:inkscape="http://www.inkscape.org/namespaces/inkscape"
   width="14.111111mm"
   height="14.111111mm"
   viewBox="0 0 49.999998 49.999998"
   id="svg4365"
   version="1.1"
   inkscape:version="0.91 r"
   sodipodi:docname="sensor_light.svg">
  <defs
     id="defs4367" />
  <sodipodi:namedview
     id="base"
     pagecolor="#ffffff"
     bordercolor="#666666"
     borderopacity="1.0"
     inkscape:pageopacity="0.0"
     inkscape:pageshadow="2"
     inkscape:zoom="7.919596"
     inkscape:cx="4.3530082"
     inkscape:cy="5.5290129"
     inkscape:document-units="px"
     inkscape:current-layer="layer1"
     showgrid="false"
     fit-margin-top="0"
     fit-margin-left="0"
     fit-margin-right="0"
     fit-margin-bottom="0"
     inkscape:window-width="1879"
     inkscape:window-height="1056"
     inkscape:window-x="41"
     inkscape:window-y="24"
     inkscape:window-maximized="1" />
  <metadata
     id="metadata4370">
    <rdf:RDF>
      <cc:Work
         rdf:about="">
        <dc:format>image/svg+xml</dc:format>
        <dc:type
           rdf:resource="http://purl.org/dc/dcmitype/StillImage" />
        <dc:title />
      </cc:Work>
    </rdf:RDF>
  </metadata>
  <g
     inkscape:label="Layer 1"
     inkscape:groupmode="layer"
     id="layer1"
     transform="translate(-683.57141,-713.07648)">
    <path
       style="opacity:1;fill:#000000;fill-opacity:1;fill-rule:evenodd;stroke:none;stroke-width:20;stroke-linecap:round;stroke-linejoin:round;stroke-miterlimit:4;stroke-dasharray:none;stroke-dashoffset:0;stroke-opacity:0.40880504"
       d="m 708.57181,713.07648 a 25.000626,25.000626 0 0 0 -17.46613,7.15536 c 1.5818,0.51279 2.87864,2.11997 2.87864,4.27246 l 5.4e-4,20.27737 c 0,1.47888 0.70883,1.78156 1.36503,1.78656 0.65622,0 1.34417,-0.25586 1.34417,-1.78656 l 0,-13.40396 c 0,-2.63634 1.97627,-4.43237 4.00519,-4.44756 2.02892,-0.0179 4.02608,1.78174 4.02608,4.44756 l 5.4e-4,13.40396 c 0,1.47888 0.70805,1.78156 1.36425,1.78656 0.65621,0 1.34497,-0.25586 1.34497,-1.78656 l -5.4e-4,-13.40396 c 0,-2.63634 1.97708,-4.43237 4.006,-4.44756 2.02892,-0.0179 4.02528,1.78174 4.02528,4.44756 l 5.4e-4,13.40396 c 0,1.47888 0.70883,1.78156 1.36503,1.78656 0.65623,0 1.34418,-0.25586 1.34418,-1.78656 l 0,-13.40396 c 0,-2.63634 1.97628,-4.43237 4.0052,-4.44756 2.02892,-0.0179 4.02606,1.78174 4.02606,4.44756 l 5.6e-4,20.27737 c 0,0.77313 0.2218,1.14441 0.48819,1.39563 0.26638,0.25103 0.64812,0.38611 1.04224,0.38611 l 0.54201,0 a 25.000626,25.000626 0 0 0 1.0037,-1.36989 l 0,-27.94964 a 25.000626,25.000626 0 0 0 -20.71251,-11.03921 z m -18.55173,9.64125 -1.15788,0 a 25.000626,25.000626 0 0 0 -1.00292,1.3699 l 0,27.95053 a 25.000626,25.000626 0 0 0 20.71253,11.03831 25.000626,25.000626 0 0 0 17.59621,-7.27579 c -0.46543,-0.18207 -0.90829,-0.44954 -1.2968,-0.81583 -0.81531,-0.76847 -1.32408,-1.95505 -1.32408,-3.33138 l -5.4e-4,-20.27737 c 0,-1.53088 -0.68877,-1.79138 -1.34497,-1.78656 -0.6562,0 -1.36425,0.30768 -1.36425,1.78656 l 0,13.40396 c 0,2.66582 -1.99636,4.46292 -4.02526,4.44756 -2.02892,-0.0179 -4.006,-1.81122 -4.006,-4.44756 l -5.5e-4,-13.40396 c 0,-1.53088 -0.68795,-1.79138 -1.34415,-1.78656 -0.65622,0 -1.36505,0.30768 -1.36505,1.78656 l 5.5e-4,13.40396 c 0,2.66582 -1.99718,4.46292 -4.02608,4.44756 -2.0289,-0.0179 -4.0052,-1.81122 -4.0052,-4.44756 l -5.3e-4,-13.40396 c 0,-1.53088 -0.68876,-1.79138 -1.34497,-1.78656 -0.6562,0 -1.36423,0.30768 -1.36423,1.78656 l 0,13.40396 c 0,2.66582 -1.99717,4.46292 -4.02609,4.44756 -2.02889,-0.0179 -4.00519,-1.81122 -4.00519,-4.44756 l -5.4e-4,-20.27737 c 0,-1.51248 -0.67914,-1.78657 -1.30241,-1.78657 l -5.5e-4,0 z"
       id="path4207"
       inkscape:connector-curvature="0" />
  </g>
</svg>
