<?xml version="1.0" encoding="UTF-8" standalone="no"?>
<!-- Created with Inkscape (http://www.inkscape.org/) -->

<svg
   xmlns:dc="http://purl.org/dc/elements/1.1/"
   xmlns:cc="http://creativecommons.org/ns#"
   xmlns:rdf="http://www.w3.org/1999/02/22-rdf-syntax-ns#"
   xmlns:svg="http://www.w3.org/2000/svg"
   xmlns="http://www.w3.org/2000/svg"
   xmlns:sodipodi="http://sodipodi.sourceforge.net/DTD/sodipodi-0.dtd"
   xmlns:inkscape="http://www.inkscape.org/namespaces/inkscape"
   width="210.80557mm"
   height="235.20702mm"
   viewBox="0 0 746.94888 833.41068"
   id="svg2"
   version="1.1"
   inkscape:version="0.91 r"
   sodipodi:docname="settings.svg">
  <defs
     id="defs4" />
  <sodipodi:namedview
     id="base"
     pagecolor="#ffffff"
     bordercolor="#666666"
     borderopacity="1.0"
     inkscape:pageopacity="0.0"
     inkscape:pageshadow="2"
     inkscape:zoom="0.35"
     inkscape:cx="767.70352"
     inkscape:cy="-9.0208436"
     inkscape:document-units="px"
     inkscape:current-layer="layer1"
     showgrid="false"
     fit-margin-top="0"
     fit-margin-left="0"
     fit-margin-right="0"
     fit-margin-bottom="0"
     inkscape:window-width="1879"
     inkscape:window-height="1056"
     inkscape:window-x="41"
     inkscape:window-y="24"
     inkscape:window-maximized="1" />
  <metadata
     id="metadata7">
    <rdf:RDF>
      <cc:Work
         rdf:about="">
        <dc:format>image/svg+xml</dc:format>
        <dc:type
           rdf:resource="http://purl.org/dc/dcmitype/StillImage" />
        <dc:title></dc:title>
      </cc:Work>
    </rdf:RDF>
  </metadata>
  <g
     inkscape:label="Layer 1"
     inkscape:groupmode="layer"
     id="layer1"
     transform="translate(818.4178,767.21216)">
    <path
       style="fill:#095000;fill-opacity:1"
       d="m -757.28824,64.729755 c -11.52499,-3.707762 -19.87998,-11.337288 -25.5123,-23.297075 l -3.2377,-6.875 -0.3329,-219.6875 c -0.19414,-128.12065 0.13179,-219.6875 0.78196,-219.6875 0.61318,0 4.35531,1.43309 8.31588,3.18463 11.38211,5.03371 26.19256,8.13666 42.48506,8.90107 21.14492,0.99209 36.68112,-1.98974 59.70116,-11.45829 2.0974,-0.86268 2.18579,9.51735 1.875,220.17112 l -0.32616,221.07647 -2.94206,5.920275 c -4.08853,8.227288 -11.64293,15.60285 -19.98872,19.515525 -6.81087,3.193075 -7.96005,3.3239 -31.44422,3.579525 -17.10704,0.186213 -25.86586,-0.2143 -29.375,-1.34325 z m 284.78022,-0.0495 c -11.44646,-3.681988 -19.63083,-11.080637 -25.02504,-22.622575 l -3.50518,-7.5 -0.36044,-72.1875 c -0.19823,-39.703125 -0.1276,-72.1875 0.15696,-72.1875 0.28458,0 3.64832,1.38464 7.47499,3.07698 13.18554,5.83127 25.38459,8.339758 43.97849,9.04332 22.83051,0.863863 37.72461,-1.779412 57.2258,-10.15594 l 4.72579,-2.02991 -0.35079,73.470275 -0.3508,73.470275 -3.33226,6.25 c -4.3156,8.094337 -12.55363,16.0136 -20.41774,19.6277 -5.75749,2.64595 -8.17081,2.894038 -30.625,3.148087 -17.6379,0.199563 -25.81771,-0.188287 -29.59478,-1.40325 z m 282.87531,-0.69755 c -12.7042,-5.060375 -20.94726,-13.436138 -25.00364,-25.406213 -1.82861,-5.396074 -2.02689,-22.070037 -2.02689,-170.446232 0,-156.14295 0.11075,-164.4195 2.1875,-163.56492 22.98706,9.45895 38.54816,12.44486 59.6875,11.45304 16.2925,-0.76441 31.10295,-3.86736 42.48506,-8.90107 3.96057,-1.75154 7.70554,-3.18463 8.32219,-3.18463 0.65764,0 0.98094,68.34825 0.78196,165.3125 l -0.33921,165.3125 -3.29396,7.025013 c -4.45105,9.492749 -10.73566,16.132924 -19.44631,20.54655 -7.2375,3.667174 -7.33628,3.679362 -32.25973,3.979712 -22.26415,0.2683 -25.66694,0.03563 -31.09447,-2.126287 z M -465.84968,-137.32766 c -40.14612,-10.19692 -67.51427,-45.1634 -67.49951,-86.23966 0.006,-15.72266 2.26747,-25.46659 9.13998,-39.375 9.36506,-18.95281 21.88703,-31.46455 40.67097,-40.63776 13.05744,-6.37665 23.39605,-8.6961 38.86255,-8.71877 25.16379,-0.0369 45.13929,8.25955 63.04792,26.18565 11.75083,11.76228 17.6771,21.5807 22.66221,37.54588 2.46793,7.90376 2.91367,11.92515 2.84037,25.625 -0.0754,14.09774 -0.52649,17.57446 -3.40552,26.25 -4.69507,14.14793 -11.30327,24.77752 -22.14164,35.61589 -17.2054,17.20541 -35.2123,24.93833 -59.99089,25.76262 -11.41999,0.3799 -16.3919,-0.0341 -24.18644,-2.01385 z M -174.459,-322.35833 c -35.29028,-5.9423 -63.6131,-32.32962 -72.38028,-67.43397 -5.01325,-20.07341 -1.48905,-46.2816 8.57579,-63.77502 18.3912,-31.96526 54.39896,-50.14941 89.22191,-45.05763 21.06628,3.0803 37.79245,11.44065 52.40206,26.19244 16.58432,16.7457 25.19699,37.8855 25.17054,61.78101 -0.0201,18.20582 -3.39399,30.78022 -12.44564,46.38524 -5.36451,9.2484 -20.98196,24.84864 -30.50855,30.47493 -17.37803,10.26325 -40.6561,14.69623 -60.03583,11.433 z m -327.20424,-211.87619 c 0,-193.37449 0.0409,-196.7017 2.5129,-204.70529 3.0525,-9.88282 11.05644,-19.4137 20.4776,-24.38415 6.21089,-3.27676 7.05535,-3.3794 31.05506,-3.77448 19.56939,-0.32215 26.031,-0.005 31.25,1.53602 9.65518,2.85005 18.04901,9.85635 23.35595,19.4951 l 4.47349,8.125 0.32745,200.14145 0.32745,200.14145 -10.32745,-4.1162 c -15.64411,-6.23526 -27.81508,-8.42471 -46.57745,-8.37889 -18.4266,0.045 -28.7062,1.90883 -45.66946,8.28049 l -11.20554,4.20896 0,-196.56946 z m -242.34904,103.09344 c -46.79756,-8.3668 -79.10869,-51.21228 -73.84412,-97.91945 5.48622,-48.67374 50.60801,-84.55778 98.58847,-78.40453 35.66434,4.57377 62.79233,26.66007 74.64548,60.77274 3.11734,8.9715 3.48033,11.73559 3.52946,26.875 0.0462,14.26261 -0.39644,18.32633 -2.85971,26.25 -9.10128,29.27625 -30.76785,50.61693 -60.83554,59.92044 -10.09865,3.12472 -29.00621,4.33261 -39.22404,2.5058 z m 527.64087,-200.09707 0.33317,-106.70417 3.0595,-6.2174 c 3.90231,-7.93011 11.54299,-15.57079 19.4731,-19.4731 5.8693,-2.8882 7.62158,-3.08089 31.29741,-3.44144 22.99834,-0.35023 25.66493,-0.1631 32.12704,2.25469 9.76065,3.65193 18.41577,11.77626 22.90643,21.50165 l 3.63652,7.8756 0.34676,105.46725 c 0.33074,100.59784 0.24418,105.43266 -1.875,104.71811 -1.22197,-0.41201 -7.84676,-2.69392 -14.72176,-5.07091 -30.47653,-10.53706 -62.24941,-8.90748 -94.70817,4.85746 -2.10245,0.8916 -2.19223,-4.17219 -1.875,-105.76774 z m -570.04469,-53.10378 0.37786,-51.10039 3.63652,-7.8756 c 4.49065,-9.72539 13.14578,-17.84972 22.90643,-21.50165 6.46211,-2.41779 9.1287,-2.60492 32.12704,-2.25469 23.67583,0.36055 25.42811,0.55324 31.29741,3.44144 7.93011,3.90231 15.57079,11.54299 19.4731,19.4731 l 3.0595,6.2174 0.35223,52.33647 c 0.33512,49.79447 0.24405,52.29066 -1.875,51.39276 -32.51003,-13.77547 -64.24143,-15.40506 -94.72723,-4.86478 -6.875,2.37699 -13.51379,4.66256 -14.75286,5.07905 -2.15014,0.72274 -2.23564,-1.57284 -1.875,-50.34311 z"
       id="path4179"
       inkscape:connector-curvature="0" />
  </g>
</svg>
