<?xml version="1.0" encoding="UTF-8" standalone="no"?>
<!-- Created with Inkscape (http://www.inkscape.org/) -->

<svg
   xmlns:dc="http://purl.org/dc/elements/1.1/"
   xmlns:cc="http://creativecommons.org/ns#"
   xmlns:rdf="http://www.w3.org/1999/02/22-rdf-syntax-ns#"
   xmlns:svg="http://www.w3.org/2000/svg"
   xmlns="http://www.w3.org/2000/svg"
   xmlns:sodipodi="http://sodipodi.sourceforge.net/DTD/sodipodi-0.dtd"
   xmlns:inkscape="http://www.inkscape.org/namespaces/inkscape"
   width="14.111111mm"
   height="14.111111mm"
   viewBox="0 0 49.999998 49.999998"
   id="svg11704"
   version="1.1"
   inkscape:version="0.91 r"
   sodipodi:docname="stats.svg">
  <defs
     id="defs11706" />
  <sodipodi:namedview
     id="base"
     pagecolor="#ffffff"
     bordercolor="#666666"
     borderopacity="1.0"
     inkscape:pageopacity="0.0"
     inkscape:pageshadow="2"
     inkscape:zoom="5.6"
     inkscape:cx="21.068879"
     inkscape:cy="18.890834"
     inkscape:document-units="px"
     inkscape:current-layer="layer1"
     showgrid="false"
     fit-margin-top="0"
     fit-margin-left="0"
     fit-margin-right="0"
     fit-margin-bottom="0"
     inkscape:window-width="1879"
     inkscape:window-height="1056"
     inkscape:window-x="41"
     inkscape:window-y="24"
     inkscape:window-maximized="1" />
  <metadata
     id="metadata11709">
    <rdf:RDF>
      <cc:Work
         rdf:about="">
        <dc:format>image/svg+xml</dc:format>
        <dc:type
           rdf:resource="http://purl.org/dc/dcmitype/StillImage" />
        <dc:title></dc:title>
      </cc:Work>
    </rdf:RDF>
  </metadata>
  <g
     inkscape:label="Layer 1"
     inkscape:groupmode="layer"
     id="layer1"
     transform="translate(622.14288,-481.64792)">
    <path
       style="fill:#000000;fill-opacity:1"
       d="m -579.15528,530.78189 c -1.16913,-0.2076 -2.09859,-0.7184 -2.98826,-1.6421 -0.39239,-0.4074 -6.84819,-7.8869 -7.26367,-8.4154 -0.0204,-0.026 -0.21885,0.06 -0.441,0.1931 -4.62369,2.7506 -9.76845,3.6288 -14.99711,2.5596 -6.23528,-1.275 -11.65632,-5.5071 -14.42086,-11.2584 -3.20585,-6.6693 -2.65741,-14.4739 1.44631,-20.5815 4.73699,-7.0503 13.17421,-10.4906 21.4846,-8.7605 8.03939,1.6736 14.37864,8.0094 16.04262,16.0337 0.7528,3.6303 0.54264,7.3485 -0.61146,10.8184 -0.48271,1.4511 -1.35645,3.3259 -2.03811,4.373 -0.37033,0.5688 -0.42514,0.7164 -0.30763,0.8281 0.0786,0.074 1.96993,1.5347 4.20284,3.2441 2.2329,1.7094 4.26934,3.3099 4.52542,3.5564 1.04957,1.0108 1.55567,2.2019 1.5706,3.6963 0.016,1.5975 -0.49292,2.7733 -1.7029,3.9353 -1.24632,1.1967 -2.87162,1.7094 -4.50139,1.4199 z m -18.98507,-11.3143 c 2.25103,-0.3342 4.85511,-1.3459 6.71467,-2.6085 3.59091,-2.4382 6.0208,-6.0522 6.9899,-10.3958 0.20229,-0.9067 0.23761,-1.395 0.23761,-3.2843 0,-2.4552 -0.13956,-3.3698 -0.81507,-5.3416 -1.97048,-5.7515 -7.13372,-10.0573 -13.12711,-10.9473 -8.96467,-1.331 -17.41356,4.9079 -18.73955,13.838 -0.93248,6.2799 1.83072,12.5373 7.12325,16.131 1.80767,1.2274 4.45861,2.27 6.62133,2.6041 1.3278,0.2051 3.62948,0.2072 4.99497,0 z m -3.82391,-6.0237 c -0.81899,-0.2745 -0.90726,-0.5001 -3.77576,-9.6422 -0.29419,-0.9376 -0.56653,-1.7049 -0.60519,-1.7051 -0.0387,0 -0.2579,0.4456 -0.48719,0.9908 -0.46621,1.1083 -0.83055,1.5464 -1.42278,1.7109 -0.22083,0.061 -1.37772,0.1118 -2.57088,0.1122 -2.03506,0 -2.19927,-0.015 -2.65242,-0.2431 -0.51998,-0.2621 -0.97023,-0.9529 -0.97023,-1.4884 0,-0.5358 0.45025,-1.2266 0.97023,-1.4887 0.43693,-0.2204 0.63854,-0.2436 2.11111,-0.244 l 1.62806,0 1.18345,-2.225 c 0.75495,-1.4194 1.31271,-2.3384 1.54042,-2.5385 0.43301,-0.3801 0.9373,-0.4897 1.52536,-0.3312 0.84772,0.2281 0.91522,0.3752 2.57148,5.603 0.83351,2.6309 1.54895,4.75 1.58986,4.7092 0.041,-0.041 1.03119,-2.9242 2.20062,-6.4076 1.16942,-3.4833 2.20886,-6.4794 2.30985,-6.6581 0.20446,-0.3616 0.99634,-0.8133 1.41956,-0.8097 0.44843,0 1.17598,0.3943 1.38957,0.7455 0.10947,0.18 0.77509,2.0341 1.47914,4.1203 l 1.2801,3.7929 1.5315,0 c 1.37291,0 1.58151,0.025 2.01455,0.2435 0.51999,0.2624 0.97023,0.9531 0.97023,1.4887 0,0.536 -0.4503,1.2262 -0.97436,1.4935 -0.47095,0.2401 -0.56653,0.2474 -2.86894,0.2165 -3.30441,-0.044 -3.11178,0.1044 -4.12011,-3.1715 -0.32995,-1.0718 -0.62619,-2.0219 -0.65833,-2.1112 -0.0321,-0.089 -1.05322,2.7851 -2.26907,6.3876 -1.21585,3.6024 -2.29852,6.6686 -2.40591,6.8138 -0.45778,0.6188 -1.22919,0.8726 -1.93392,0.6363 z"
       id="path11692"
       inkscape:connector-curvature="0" />
  </g>
</svg>
