<?xml version="1.0" encoding="UTF-8" standalone="no"?>
<!-- Created with Inkscape (http://www.inkscape.org/) -->

<svg
   xmlns:dc="http://purl.org/dc/elements/1.1/"
   xmlns:cc="http://creativecommons.org/ns#"
   xmlns:rdf="http://www.w3.org/1999/02/22-rdf-syntax-ns#"
   xmlns:svg="http://www.w3.org/2000/svg"
   xmlns="http://www.w3.org/2000/svg"
   xmlns:sodipodi="http://sodipodi.sourceforge.net/DTD/sodipodi-0.dtd"
   xmlns:inkscape="http://www.inkscape.org/namespaces/inkscape"
   width="14.111111mm"
   height="14.111111mm"
   viewBox="0 0 49.999998 49.999998"
   id="svg14067"
   version="1.1"
   inkscape:version="0.91 r"
   sodipodi:docname="threads.svg">
  <defs
     id="defs14069" />
  <sodipodi:namedview
     id="base"
     pagecolor="#ffffff"
     bordercolor="#666666"
     borderopacity="1.0"
     inkscape:pageopacity="0.0"
     inkscape:pageshadow="2"
     inkscape:zoom="7.9195959"
     inkscape:cx="52.898768"
     inkscape:cy="22.863386"
     inkscape:document-units="px"
     inkscape:current-layer="layer1"
     showgrid="false"
     fit-margin-top="0"
     fit-margin-left="0"
     fit-margin-right="0"
     fit-margin-bottom="0"
     inkscape:window-width="3799"
     inkscape:window-height="2136"
     inkscape:window-x="41"
     inkscape:window-y="24"
     inkscape:window-maximized="1" />
  <metadata
     id="metadata14072">
    <rdf:RDF>
      <cc:Work
         rdf:about="">
        <dc:format>image/svg+xml</dc:format>
        <dc:type
           rdf:resource="http://purl.org/dc/dcmitype/StillImage" />
        <dc:title></dc:title>
      </cc:Work>
    </rdf:RDF>
  </metadata>
  <g
     inkscape:label="Layer 1"
     inkscape:groupmode="layer"
     id="layer1"
     transform="translate(267.85715,-1073.0765)">
    <g
       id="g6996"
       transform="matrix(1.059964,0,0,1.059964,-160.58261,5434.2674)">
      <path
         inkscape:connector-curvature="0"
         d="m -92.619141,-4092.8835 c -3.914786,0 -7.111299,3.1945 -7.111328,7.1093 -3.6e-5,3.9149 3.19649,7.1094 7.111328,7.1094 0.04058,0 30.080552,6e-4 30.119141,0 3.86095,-0.065 6.990234,-3.2349 6.990234,-7.1094 l 0,0 c 0,-3.8571 -3.099751,-7.0157 -6.9375,-7.1074 a 1.0001,1.0001 0 0 0 -0.03516,0 c 0.07607,0 0.0013,0 -0.01367,0 -0.015,0 -0.0373,0 -0.06641,0 -0.05821,0 -0.144475,-10e-5 -0.255859,0 -0.222768,0 -0.5477,-10e-5 -0.960938,0 -0.826475,0 -2.003579,-10e-5 -3.416015,0 -2.824874,0 -6.587209,0 -10.34961,0 -7.524802,-10e-5 -15.045319,0 -15.074219,0 z m 0,2 c 0.02086,0 7.549403,-1e-4 15.074219,0 3.762408,0 7.52471,0 10.34961,0 1.412449,-1e-4 2.589487,0 3.416015,0 0.413264,-1e-4 0.740019,0 0.962891,0 0.111436,-1e-4 0.195496,0 0.253906,0 0.0292,0 0.05297,0 0.06836,0 2.772487,0.067 4.984375,2.3159 4.984375,5.1074 l 0,0 c 0,2.8048 -2.231837,5.0627 -5.023437,5.1094 -0.0347,6e-4 -30.056842,0 -30.085938,0 -2.833953,0 -5.111354,-2.2754 -5.111328,-5.1094 2.1e-5,-2.8339 2.2774,-5.1093 5.111328,-5.1093 z m 33.593414,5.114 a 3.9665291,3.9665291 0 0 1 -3.966529,3.9665 3.9665291,3.9665291 0 0 1 -3.966529,-3.9665 3.9665291,3.9665291 0 0 1 3.966529,-3.9666 3.9665291,3.9665291 0 0 1 3.966529,3.9666 z m -29.262871,0 a 3.9665291,3.9665291 0 0 1 -3.966529,3.9665 3.9665291,3.9665291 0 0 1 -3.966529,-3.9665 3.9665291,3.9665291 0 0 1 3.966529,-3.9666 3.9665291,3.9665291 0 0 1 3.966529,3.9666 z"
         style="color:#000000;font-style:normal;font-variant:normal;font-weight:normal;font-stretch:normal;font-size:medium;line-height:normal;font-family:sans-serif;text-indent:0;text-align:start;text-decoration:none;text-decoration-line:none;text-decoration-style:solid;text-decoration-color:#000000;letter-spacing:normal;word-spacing:normal;text-transform:none;direction:ltr;block-progression:tb;writing-mode:lr-tb;baseline-shift:baseline;text-anchor:start;white-space:normal;clip-rule:nonzero;display:inline;overflow:visible;visibility:visible;opacity:1;isolation:auto;mix-blend-mode:normal;color-interpolation:sRGB;color-interpolation-filters:linearRGB;solid-color:#000000;solid-opacity:1;fill:#e43232;fill-opacity:1;fill-rule:evenodd;stroke:none;stroke-width:2;stroke-linecap:round;stroke-linejoin:round;stroke-miterlimit:4;stroke-dasharray:none;stroke-dashoffset:0;stroke-opacity:1;color-rendering:auto;image-rendering:auto;shape-rendering:auto;text-rendering:auto;enable-background:accumulate"
         id="path6984" />
      <path
         sodipodi:nodetypes="ccccccc"
         inkscape:connector-curvature="0"
         id="path6994"
         d="m -94.5823,-4095.1531 4.5913,-7.9524 25.0962,0 4.340281,7.5175 -0.91973,0.9757 -32.295551,0 z"
         style="fill:#e43232;fill-opacity:1;fill-rule:evenodd;stroke:none;stroke-width:1px;stroke-linecap:butt;stroke-linejoin:miter;stroke-opacity:1" />
    </g>
  </g>
</svg>
