<?xml version="1.0" encoding="UTF-8" standalone="no"?>
<!-- Created with Inkscape (http://www.inkscape.org/) -->

<svg
   xmlns:dc="http://purl.org/dc/elements/1.1/"
   xmlns:cc="http://creativecommons.org/ns#"
   xmlns:rdf="http://www.w3.org/1999/02/22-rdf-syntax-ns#"
   xmlns:svg="http://www.w3.org/2000/svg"
   xmlns="http://www.w3.org/2000/svg"
   xmlns:sodipodi="http://sodipodi.sourceforge.net/DTD/sodipodi-0.dtd"
   xmlns:inkscape="http://www.inkscape.org/namespaces/inkscape"
   width="14.111111mm"
   height="14.111111mm"
   viewBox="0 0 49.999998 49.999998"
   id="svg11277"
   version="1.1"
   inkscape:version="0.91 r"
   sodipodi:docname="under_construction.svg">
  <defs
     id="defs11279" />
  <sodipodi:namedview
     id="base"
     pagecolor="#ffffff"
     bordercolor="#666666"
     borderopacity="1.0"
     inkscape:pageopacity="0.0"
     inkscape:pageshadow="2"
     inkscape:zoom="3.959798"
     inkscape:cx="-55.307656"
     inkscape:cy="19.146965"
     inkscape:document-units="px"
     inkscape:current-layer="layer1"
     showgrid="false"
     fit-margin-top="0"
     fit-margin-left="0"
     fit-margin-right="0"
     fit-margin-bottom="0"
     inkscape:window-width="1879"
     inkscape:window-height="1056"
     inkscape:window-x="41"
     inkscape:window-y="24"
     inkscape:window-maximized="1" />
  <metadata
     id="metadata11282">
    <rdf:RDF>
      <cc:Work
         rdf:about="">
        <dc:format>image/svg+xml</dc:format>
        <dc:type
           rdf:resource="http://purl.org/dc/dcmitype/StillImage" />
        <dc:title></dc:title>
      </cc:Work>
    </rdf:RDF>
  </metadata>
  <g
     inkscape:label="Layer 1"
     inkscape:groupmode="layer"
     id="layer1"
     transform="translate(-457.85715,-410.21936)">
    <path
       id="path11234"
       style="color:#000000;font-style:normal;font-variant:normal;font-weight:normal;font-stretch:normal;font-size:medium;line-height:normal;font-family:sans-serif;text-indent:0;text-align:start;text-decoration:none;text-decoration-line:none;text-decoration-style:solid;text-decoration-color:#000000;letter-spacing:normal;word-spacing:normal;text-transform:none;direction:ltr;block-progression:tb;writing-mode:lr-tb;baseline-shift:baseline;text-anchor:start;white-space:normal;clip-rule:nonzero;display:inline;overflow:visible;visibility:visible;opacity:1;isolation:auto;mix-blend-mode:normal;color-interpolation:sRGB;color-interpolation-filters:linearRGB;solid-color:#000000;solid-opacity:1;fill:#000000;fill-opacity:1;fill-rule:evenodd;stroke:none;stroke-width:1;stroke-linecap:round;stroke-linejoin:round;stroke-miterlimit:4;stroke-dasharray:none;stroke-dashoffset:0;stroke-opacity:1;color-rendering:auto;image-rendering:auto;shape-rendering:auto;text-rendering:auto;enable-background:accumulate"
       d="m 482.42901,433.65542 c -0.14529,0 -0.29113,0.012 -0.43212,0.016 -0.0545,-0.012 -0.10927,-0.012 -0.16416,-0.012 l -0.004,0 -2.64467,0.027 c -0.29245,0 -0.57149,0.1243 -0.77312,0.3361 l -2.61992,2.757 c -0.0587,0.059 -0.0938,0.1367 -0.137,0.2083 l -0.42006,-0.2072 c -0.0763,-0.037 -0.16859,0 -0.2064,0.071 l -0.4092,0.8323 c -0.0378,0.077 -0.007,0.1691 0.07,0.207 l 14.82629,7.2973 -0.36211,0.5571 -1.54685,0.2885 c -0.0481,0.012 -0.0891,0.041 -0.11044,0.084 0,0 -0.49163,1.0246 -0.99341,2.0658 -0.25089,0.5206 -0.50435,1.0455 -0.7001,1.4485 -0.0979,0.2016 -0.18124,0.3727 -0.24262,0.4973 -0.0614,0.1246 -0.1129,0.2223 -0.10561,0.2101 -0.0612,0.103 0.0125,0.2331 0.13218,0.2336 l 12.18146,0 c 0.11333,10e-5 0.18826,-0.1179 0.14001,-0.2203 l -5.2445,-8.4947 c -0.0274,-0.058 -0.0876,-0.093 -0.15148,-0.088 l -0.73751,0.055 c -0.048,0 -0.0915,0.03 -0.11769,0.071 l -1.46235,2.2488 -3.14861,-1.5487 c 0.0694,-0.1117 0.14994,-0.2192 0.17502,-0.3494 0.0328,-0.1639 0.0429,-0.2351 0.0326,-0.3085 -0.003,-0.02 -0.0119,-0.034 -0.0199,-0.052 -0.004,-0.04 -0.009,-0.073 -0.0139,-0.1042 -0.0107,-0.068 -0.0238,-0.1424 -0.0404,-0.2305 -0.0332,-0.1764 -0.0794,-0.4085 -0.1358,-0.6814 -0.11274,-0.5456 -0.26414,-1.2528 -0.41643,-1.956 -0.30439,-1.4057 -0.61157,-2.7907 -0.61198,-2.7926 l -6.2e-4,0 c -0.0437,-0.2097 -0.14808,-0.4023 -0.30116,-0.5522 l 0.0253,0.034 c 0.006,0.012 0.002,-0.012 -0.0265,-0.048 -0.009,-0.014 -0.0208,-0.025 -0.0338,-0.035 l -2.4793,-1.8251 c -0.0248,-0.019 -0.0544,-0.028 -0.0851,-0.03 -0.17076,-0.012 -0.41556,-0.012 -0.66931,-0.012 l -0.002,0 c -0.004,-2e-4 -0.008,-2e-4 -0.0114,0 l -10e-4,0 z m -1.69592,1.8715 -1.13826,0.012 c -0.0418,0 -0.0817,0.017 -0.11044,0.048 l -2.20771,2.3223 c -0.0718,0.076 -0.0499,0.1989 0.0435,0.245 l 1.23361,0.6072 c 0.0678,0.034 0.1498,0.012 0.19373,-0.048 l 2.11236,-2.9415 c 0.0735,-0.103 -6.2e-4,-0.2454 -0.12674,-0.2445 z m 3.60065,2.1878 c -0.049,0 -0.094,0.027 -0.12131,0.068 l -1.81059,2.6773 c -0.0524,0.077 -0.0243,0.1837 0.0598,0.225 l 2.66096,1.3098 c 0.11457,0.057 0.24455,-0.042 0.22029,-0.1678 -0.0291,-0.1521 -0.067,-0.3413 -0.11648,-0.5807 -0.11041,-0.5342 -0.26053,-1.2387 -0.41221,-1.9391 -0.16021,-0.7398 -0.20648,-0.9425 -0.32288,-1.4714 -0.0161,-0.073 -0.0825,-0.1244 -0.15753,-0.1216 z m -6.21755,2.5488 c -0.0637,0 -0.11906,0.045 -0.13942,0.1054 l -3.05566,9.0475 c -0.12108,0.3337 -0.0866,0.648 0.0495,0.8915 0.1361,0.2433 0.36538,0.4158 0.62103,0.5021 0.25564,0.087 0.54201,0.088 0.79786,-0.022 0.25585,-0.1117 0.47455,-0.3404 0.5806,-0.679 l 2.48835,-7.3673 2.52154,2.8631 0.17623,4.369 c 0.0147,0.3468 0.16139,0.6208 0.37419,0.7948 0.2128,0.1741 0.48458,0.251 0.75019,0.2403 0.2656,-0.012 0.52978,-0.1092 0.72785,-0.3001 0.19807,-0.1906 0.32238,-0.4757 0.30901,-0.8225 l -0.19132,-4.7522 c -0.01,-0.2478 -0.10463,-0.485 -0.26857,-0.6712 l -2.14615,-2.4376 c -0.0135,-0.015 -0.0299,-0.027 -0.0483,-0.037 l -3.4721,-1.7086 c -0.0232,-0.012 -0.049,-0.017 -0.0748,-0.016 z m 7.37332,-10.7821 c -1.19208,0 -2.16176,0.9698 -2.16184,2.1619 8e-5,1.192 0.96976,2.1617 2.16184,2.1618 1.19208,-10e-5 2.16176,-0.9698 2.16184,-2.1618 -8e-5,-1.1921 -0.96976,-2.1619 -2.16184,-2.1619 z m -2.63219,-8.2024 17.69076,30.6418 -35.38165,0 17.69089,-30.6418 z m 0,-7.4921 c -0.70456,0 -1.35514,0.3761 -1.70729,0.9861 l -22.47215,38.9219 c -0.35188,0.6096 -0.35188,1.3615 0,1.972 0.35215,0.6096 1.00313,0.9852 1.70756,0.9852 l 44.94311,0 c 0.70457,0 1.35607,-0.3756 1.70756,-0.9852 0.35228,-0.6105 0.35228,-1.3624 0,-1.972 l 0,0 -22.47123,-38.9219 c -0.35228,-0.6103 -1.003,-0.9864 -1.70756,-0.9864 z"
       inkscape:connector-curvature="0" />
  </g>
</svg>
