<?xml version="1.0" encoding="UTF-8" standalone="no"?>
<!-- Created with Inkscape (http://www.inkscape.org/) -->

<svg
   width="64.000008"
   height="64.000008"
   viewBox="0 0 16.933335 16.933335"
   version="1.1"
   id="svg27471"
   inkscape:version="1.2.2 (b0a8486541, 2022-12-01)"
   sodipodi:docname="microphone.svg"
   xmlns:inkscape="http://www.inkscape.org/namespaces/inkscape"
   xmlns:sodipodi="http://sodipodi.sourceforge.net/DTD/sodipodi-0.dtd"
   xmlns="http://www.w3.org/2000/svg"
   xmlns:svg="http://www.w3.org/2000/svg">
  <sodipodi:namedview
     id="namedview27473"
     pagecolor="#ffffff"
     bordercolor="#111111"
     borderopacity="1"
     inkscape:showpageshadow="0"
     inkscape:pageopacity="0"
     inkscape:pagecheckerboard="1"
     inkscape:deskcolor="#d1d1d1"
     inkscape:document-units="px"
     showgrid="false"
     inkscape:zoom="0.914906"
     inkscape:cx="128.975"
     inkscape:cy="-498.41186"
     inkscape:window-width="3792"
     inkscape:window-height="2111"
     inkscape:window-x="3888"
     inkscape:window-y="0"
     inkscape:window-maximized="1"
     inkscape:current-layer="layer1" />
  <defs
     id="defs27468" />
  <g
     inkscape:label="Layer 1"
     inkscape:groupmode="layer"
     id="layer1"
     transform="translate(-36.936443,-280.14673)">
    <path
       id="rect12243"
       style="display:inline;fill:#000000;fill-opacity:1;stroke:none;stroke-width:0.201917;stroke-linecap:round;stroke-linejoin:round;paint-order:fill markers stroke"
       d="m 45.40304,281.1984 c -1.42403,0 -2.57048,1.1464 -2.57048,2.5705 v 3.8053 c 0,1.4241 1.14645,2.5705 2.57048,2.5705 1.42403,0 2.57036,-1.1464 2.57036,-2.5705 v -3.8053 c 0,-1.4241 -1.14633,-2.5705 -2.57036,-2.5705 z m 4.6991,5.4209 c -0.31142,0.015 -0.62495,0.2969 -0.62269,0.8 0,2.2689 -1.80735,4.0763 -4.07629,4.0763 -2.26895,0 -4.07677,-1.8074 -4.07677,-4.0763 0.0157,-0.9004 -1.23612,-0.9285 -1.23263,0 0,2.568 1.82671,4.712 4.25062,5.2032 v 2.3474 c 0,0.5864 0.47222,1.0585 1.05866,1.0585 0.58643,0 1.05853,-0.4721 1.05853,-1.0585 v -2.3473 c 2.42403,-0.491 4.25063,-2.6351 4.25063,-5.2033 0.0107,-0.5636 -0.29863,-0.8152 -0.61006,-0.8 z"
       sodipodi:nodetypes="sssssssscscccsssccs" />
  </g>
</svg>
