<?xml version="1.0" encoding="UTF-8" standalone="no"?>
<!-- Created with Inkscape (http://www.inkscape.org/) -->

<svg
   xmlns:dc="http://purl.org/dc/elements/1.1/"
   xmlns:cc="http://creativecommons.org/ns#"
   xmlns:rdf="http://www.w3.org/1999/02/22-rdf-syntax-ns#"
   xmlns:svg="http://www.w3.org/2000/svg"
   xmlns="http://www.w3.org/2000/svg"
   xmlns:xlink="http://www.w3.org/1999/xlink"
   xmlns:sodipodi="http://sodipodi.sourceforge.net/DTD/sodipodi-0.dtd"
   xmlns:inkscape="http://www.inkscape.org/namespaces/inkscape"
   width="40.922222mm"
   height="12.715508mm"
   viewBox="0 0 144.99999 45.054947"
   id="svg2"
   version="1.1"
   inkscape:version="0.92.1 unknown"
   sodipodi:docname="octomy_logo.svg"
   inkscape:export-filename="/home/lennart/Desktop/Projects/OctoMY/design/octomy_logo.png"
   inkscape:export-xdpi="620.69"
   inkscape:export-ydpi="620.69">
  <defs
     id="defs4">
    <linearGradient
       inkscape:collect="always"
       xlink:href="#agent_background_gradient"
       id="linearGradient4570"
       gradientUnits="userSpaceOnUse"
       gradientTransform="translate(7202.2318,-5192.3569)"
       x1="-882.67346"
       y1="601.99481"
       x2="-882.633"
       y2="622.62109" />
    <linearGradient
       id="agent_background_gradient"
       inkscape:collect="always">
      <stop
         style="stop-color:#ffffff;stop-opacity:1"
         id="agent_background_color_stop1"
         offset="0" />
      <stop
         style="stop-color:#eeeeee;stop-opacity:1"
         id="agent_background_color_stop2"
         offset="1" />
    </linearGradient>
    <linearGradient
       inkscape:collect="always"
       xlink:href="#agent_body_gradient"
       id="linearGradient8551"
       gradientUnits="userSpaceOnUse"
       gradientTransform="matrix(0.40828472,0,0,0.40828472,2503.5226,-5218.4993)"
       x1="9324.3848"
       y1="1541.4006"
       x2="9324.3848"
       y2="1585.0201" />
    <linearGradient
       inkscape:collect="always"
       id="agent_body_gradient">
      <stop
         style="stop-color:#eb4e4e;stop-opacity:1"
         offset="0"
         id="agent_body_color_stop1" />
      <stop
         style="stop-color:#dd1919;stop-opacity:1"
         offset="1"
         id="agent_body_color_stop2" />
    </linearGradient>
    <linearGradient
       inkscape:collect="always"
       xlink:href="#agent_background_gradient"
       id="linearGradient4685"
       gradientUnits="userSpaceOnUse"
       gradientTransform="translate(7202.2318,-5192.3569)"
       x1="-882.67346"
       y1="601.99481"
       x2="-882.633"
       y2="622.62109" />
  </defs>
  <sodipodi:namedview
     id="base"
     pagecolor="#ffffff"
     bordercolor="#666666"
     borderopacity="1.0"
     inkscape:pageopacity="0.0"
     inkscape:pageshadow="2"
     inkscape:zoom="11.2"
     inkscape:cx="67.93457"
     inkscape:cy="-17.655604"
     inkscape:document-units="px"
     inkscape:current-layer="layer1"
     showgrid="false"
     fit-margin-top="0"
     fit-margin-left="0"
     fit-margin-right="0"
     fit-margin-bottom="0"
     inkscape:window-width="3799"
     inkscape:window-height="2136"
     inkscape:window-x="41"
     inkscape:window-y="24"
     inkscape:window-maximized="1"
     showguides="true" />
  <metadata
     id="metadata7">
    <rdf:RDF>
      <cc:Work
         rdf:about="">
        <dc:format>image/svg+xml</dc:format>
        <dc:type
           rdf:resource="http://purl.org/dc/dcmitype/StillImage" />
        <dc:title />
      </cc:Work>
    </rdf:RDF>
  </metadata>
  <g
     inkscape:label="Layer 1"
     inkscape:groupmode="layer"
     id="layer1"
     transform="translate(2324.254,456.82737)">
    <g
       id="g8509"
       transform="matrix(0.35293318,0,0,0.35293318,-4493.5823,1075.1916)">
      <g
         id="g8511"
         transform="translate(-2675.8079,36.815514)">
        <path
           id="path8513"
           style="font-style:normal;font-variant:normal;font-weight:bold;font-stretch:normal;font-size:medium;line-height:125%;font-family:'Century Gothic Std';-inkscape-font-specification:'Century Gothic Std Bold';text-align:center;letter-spacing:0px;word-spacing:0px;writing-mode:lr-tb;text-anchor:middle;fill:#000000;fill-opacity:1;stroke:none;stroke-width:1px;stroke-linecap:butt;stroke-linejoin:miter;stroke-opacity:1"
           d="m 9206.7566,-4344.6299 v 1.9756 h 3.5397 v 9.2745 h 2.4422 v -9.2745 h 3.5121 v -1.9756 z m 20.6068,0 -3.073,7.2165 -2.936,-7.2165 h -3.5672 v 11.2501 h 2.3598 v -9.2745 l 3.5673,9.2745 h 1.1797 l 3.6768,-9.2745 v 9.2745 h 2.3599 v -11.2501 z"
           inkscape:connector-curvature="0"
           inkscape:export-filename="/home/lennart/Desktop/octomy_logo_full.png"
           inkscape:export-xdpi="47.93"
           inkscape:export-ydpi="47.93" />
        <text
           id="text8515"
           y="-4283.7876"
           x="8962.5771"
           style="font-style:normal;font-variant:normal;font-weight:normal;font-stretch:normal;font-size:83.23141479px;line-height:125%;font-family:Dosis;-inkscape-font-specification:'Dosis, Normal';text-align:start;letter-spacing:0px;word-spacing:0px;writing-mode:lr-tb;text-anchor:start;fill:#000000;fill-opacity:1;stroke:none;stroke-width:1px;stroke-linecap:butt;stroke-linejoin:miter;stroke-opacity:1"
           xml:space="preserve"><tspan
             y="-4283.7876"
             x="8962.5771"
             id="tspan8517"
             sodipodi:role="line">OctoMY</tspan></text>
      </g>
      <g
         transform="matrix(2.44799,0,0,2.44799,-9253.7767,6935.4061)"
         id="g8519">
        <path
           style="fill:none;fill-rule:evenodd;stroke:#000000;stroke-width:6.12427092;stroke-linecap:round;stroke-linejoin:round;stroke-miterlimit:4;stroke-dasharray:none;stroke-opacity:1"
           d="m 6298.2826,-4557.5905 3.0667,-1.7706 3.5503,-2.0498"
           id="path8521"
           inkscape:connector-curvature="0"
           sodipodi:nodetypes="ccc" />
        <path
           sodipodi:nodetypes="ccc"
           inkscape:connector-curvature="0"
           id="path8523"
           d="m 6340.798,-4557.3914 -3.0667,-1.7706 -3.5503,-2.0497"
           style="fill:none;fill-rule:evenodd;stroke:#000000;stroke-width:6.12427092;stroke-linecap:round;stroke-linejoin:round;stroke-miterlimit:4;stroke-dasharray:none;stroke-opacity:1" />
        <path
           style="fill:none;fill-rule:evenodd;stroke:#000000;stroke-width:6.12427092;stroke-linecap:round;stroke-linejoin:round;stroke-miterlimit:4;stroke-dasharray:none;stroke-opacity:1"
           d="m 6344.1441,-4569.6492 h -3.5412 -4.0995"
           id="path8525"
           inkscape:connector-curvature="0"
           sodipodi:nodetypes="ccc" />
        <path
           sodipodi:nodetypes="ccc"
           inkscape:connector-curvature="0"
           id="path8527"
           d="m 6295.0514,-4569.8791 h 3.5412 4.0995"
           style="fill:none;fill-rule:evenodd;stroke:#000000;stroke-width:6.12427092;stroke-linecap:round;stroke-linejoin:round;stroke-miterlimit:4;stroke-dasharray:none;stroke-opacity:1" />
        <path
           sodipodi:nodetypes="ccc"
           inkscape:connector-curvature="0"
           id="path8529"
           d="m 6340.9129,-4602.9927 -3.0667,1.7706 -3.5503,2.0498"
           style="fill:none;fill-rule:evenodd;stroke:#000000;stroke-width:6.12427092;stroke-linecap:round;stroke-linejoin:round;stroke-miterlimit:4;stroke-dasharray:none;stroke-opacity:1" />
        <path
           style="fill:none;fill-rule:evenodd;stroke:#000000;stroke-width:6.12427092;stroke-linecap:round;stroke-linejoin:round;stroke-miterlimit:4;stroke-dasharray:none;stroke-opacity:1"
           d="m 6298.3975,-4603.1918 3.0667,1.7706 3.5503,2.0498"
           id="path8531"
           inkscape:connector-curvature="0"
           sodipodi:nodetypes="ccc" />
        <path
           id="path8533"
           style="opacity:1;fill:url(#linearGradient4685);fill-opacity:1;fill-rule:evenodd;stroke:none;stroke-width:12.81254005;stroke-linecap:round;stroke-linejoin:round;stroke-miterlimit:4;stroke-dasharray:none;stroke-dashoffset:0;stroke-opacity:1"
           d="m 6327.6678,-4590.804 a 8.0940233,8.0940233 0 0 0 -8.0939,-8.094 8.0940233,8.0940233 0 0 0 -8.0941,8.094 8.0940233,8.0940233 0 0 0 8.0941,8.094 8.0940233,8.0940233 0 0 0 8.0939,-8.094 z m 0,20.9262 a 8.0940233,8.0940233 0 0 0 -8.0939,-8.094 8.0940233,8.0940233 0 0 0 -8.0941,8.094 8.0940233,8.0940233 0 0 0 8.0941,8.094 8.0940233,8.0940233 0 0 0 8.0939,-8.094 z"
           inkscape:connector-curvature="0" />
        <path
           inkscape:connector-curvature="0"
           d="m 6313.6179,-4591.7067 a 0.87575203,0.87575203 0 0 0 -0.901,0.8754 c 0,3.7678 3.0732,6.841 6.841,6.841 3.7679,0 6.8419,-3.0732 6.8419,-6.841 a 0.87575,0.87575 0 1 0 -1.7515,0 c 0,2.8214 -2.2689,5.0903 -5.0904,5.0903 -2.8214,0 -5.0895,-2.2689 -5.0895,-5.0903 a 0.87575203,0.87575203 0 0 0 -0.8505,-0.8754 z m 8.0383,-5.027 a 0.87570762,0.87570762 0 0 0 -0.8625,0.8881 v 5.0039 a 0.87570762,0.87570762 0 1 0 1.7507,0 v -5.0039 a 0.87570762,0.87570762 0 0 0 -0.8882,-0.8881 z m -4.2213,0 a 0.87570762,0.87570762 0 0 0 -0.8626,0.8881 v 5.0039 a 0.87575203,0.87575203 0 0 0 1.7515,0 v -5.0039 a 0.87570762,0.87570762 0 0 0 -0.8889,-0.8881 z"
           style="fill:#000000;fill-opacity:1"
           id="path8535" />
        <path
           sodipodi:nodetypes="ssccsssccssssssssssss"
           inkscape:connector-curvature="0"
           id="path8537"
           d="m 6319.5587,-4603.7485 c -7.1704,0 -13.0395,5.8692 -13.0395,13.0396 0,3.5829 1.4692,6.8357 3.8314,9.1972 0.5097,0.5786 0.4601,1.9722 0.033,2.3965 -2.3824,2.3651 -3.8645,5.635 -3.8645,9.236 0,7.1704 5.8692,13.0396 13.0396,13.0396 7.1704,0 13.0388,-5.8692 13.0388,-13.0396 0,-3.6208 -1.4995,-6.9061 -3.9052,-9.2739 -0.5584,-0.5416 -0.4141,-1.8666 0.015,-2.2945 2.3971,-2.3671 3.89,-5.6477 3.89,-9.2613 0,-7.1704 -5.8684,-13.0396 -13.0388,-13.0396 z m 0,5.2311 c 4.3433,0 7.8077,3.4652 7.8077,7.8085 0,4.3433 -3.4644,7.8077 -7.8077,7.8077 -4.3432,0 -7.8084,-3.4644 -7.8084,-7.8077 0,-4.3433 3.4652,-7.8085 7.8084,-7.8085 z m 0,20.8305 c 4.3433,0 7.8077,3.4644 7.8077,7.8077 0,4.3433 -3.4644,7.8084 -7.8077,7.8084 -4.3432,0 -7.8084,-3.4651 -7.8084,-7.8084 0,-4.3433 3.4652,-7.8077 7.8084,-7.8077 z"
           style="color:#000000;font-style:normal;font-variant:normal;font-weight:normal;font-stretch:normal;font-size:medium;line-height:normal;font-family:sans-serif;text-indent:0;text-align:start;text-decoration:none;text-decoration-line:none;text-decoration-style:solid;text-decoration-color:#000000;letter-spacing:normal;word-spacing:normal;text-transform:none;writing-mode:lr-tb;direction:ltr;baseline-shift:baseline;text-anchor:start;white-space:normal;clip-rule:nonzero;display:inline;overflow:visible;visibility:visible;opacity:1;isolation:auto;mix-blend-mode:normal;color-interpolation:sRGB;color-interpolation-filters:linearRGB;solid-color:#000000;solid-opacity:1;fill:url(#linearGradient8551);fill-opacity:1;fill-rule:evenodd;stroke:none;stroke-width:12.81254005;stroke-linecap:round;stroke-linejoin:round;stroke-miterlimit:4;stroke-dasharray:none;stroke-dashoffset:0;stroke-opacity:1;color-rendering:auto;image-rendering:auto;shape-rendering:auto;text-rendering:auto;enable-background:accumulate" />
        <path
           inkscape:connector-curvature="0"
           id="path8539"
           style="opacity:1;fill:url(#linearGradient4570);fill-opacity:1;fill-rule:evenodd;stroke:none;stroke-width:12.81254005;stroke-linecap:round;stroke-linejoin:round;stroke-miterlimit:4;stroke-dasharray:none;stroke-dashoffset:0;stroke-opacity:1"
           d="m 6327.6678,-4569.8778 a 8.0940233,8.0940233 0 0 0 -8.0939,-8.094 8.0940233,8.0940233 0 0 0 -8.0941,8.094 8.0940233,8.0940233 0 0 0 8.0941,8.094 8.0940233,8.0940233 0 0 0 8.0939,-8.094 z m 0,-20.9262 a 8.0940233,8.0940233 0 0 0 -8.0939,-8.094 8.0940233,8.0940233 0 0 0 -8.0941,8.094 8.0940233,8.0940233 0 0 0 8.0941,8.094 8.0940233,8.0940233 0 0 0 8.0939,-8.094 z" />
        <path
           style="fill:none;fill-rule:evenodd;stroke:#000000;stroke-width:6.12427092;stroke-linecap:round;stroke-linejoin:round;stroke-miterlimit:4;stroke-dasharray:none;stroke-opacity:1"
           d="m 6344.144,-4590.7042 h -3.8203 l -3.8204,1e-4"
           id="path8541"
           inkscape:connector-curvature="0"
           sodipodi:nodetypes="ccc" />
        <path
           style="fill:none;fill-rule:evenodd;stroke:#000000;stroke-width:6.12427092;stroke-linecap:round;stroke-linejoin:round;stroke-miterlimit:4;stroke-dasharray:none;stroke-opacity:1"
           d="m 6302.6921,-4590.7042 h -3.8203 l -3.8204,1e-4"
           id="path8543"
           inkscape:connector-curvature="0"
           sodipodi:nodetypes="ccc" />
        <path
           inkscape:connector-curvature="0"
           id="path8545"
           style="fill:none;fill-rule:evenodd;stroke:#000000;stroke-width:1.70119631;stroke-linecap:round;stroke-linejoin:miter;stroke-miterlimit:4;stroke-dasharray:none;stroke-opacity:1"
           d="m 6321.6088,-4595.6889 v 4.8606 m -4.1006,-4.8606 v 4.8606 m -3.7448,0.01 a 5.7949879,5.7949879 0 0 0 5.795,5.7949 5.7949879,5.7949879 0 0 0 5.7949,-5.795">
          <title
             id="title8547">pathSmile</title>
        </path>
      </g>
    </g>
  </g>
</svg>
