<?xml version="1.0" encoding="UTF-8" standalone="no"?>
<!-- Created with Inkscape (http://www.inkscape.org/) -->

<svg
   width="64.000008"
   height="64.000008"
   viewBox="0 0 16.933335 16.933335"
   version="1.1"
   id="svg111114"
   inkscape:version="1.2.2 (b0a8486541, 2022-12-01)"
   sodipodi:docname="key.svg"
   xmlns:inkscape="http://www.inkscape.org/namespaces/inkscape"
   xmlns:sodipodi="http://sodipodi.sourceforge.net/DTD/sodipodi-0.dtd"
   xmlns="http://www.w3.org/2000/svg"
   xmlns:svg="http://www.w3.org/2000/svg">
  <sodipodi:namedview
     id="namedview111116"
     pagecolor="#ffffff"
     bordercolor="#111111"
     borderopacity="1"
     inkscape:showpageshadow="0"
     inkscape:pageopacity="0"
     inkscape:pagecheckerboard="1"
     inkscape:deskcolor="#d1d1d1"
     inkscape:document-units="px"
     showgrid="false"
     inkscape:zoom="1.829812"
     inkscape:cx="-182.53241"
     inkscape:cy="221.33421"
     inkscape:window-width="3792"
     inkscape:window-height="2111"
     inkscape:window-x="3888"
     inkscape:window-y="0"
     inkscape:window-maximized="1"
     inkscape:current-layer="layer1" />
  <defs
     id="defs111111" />
  <g
     inkscape:label="Layer 1"
     inkscape:groupmode="layer"
     id="layer1"
     transform="translate(-186.44862,-43.009525)">
    <path
       id="path108389"
       style="display:inline;fill:#000000;fill-opacity:1;stroke:none;stroke-width:0.033859px;stroke-linecap:butt;stroke-linejoin:miter;stroke-opacity:1"
       d="m 189.1608,49.4476 c 1.1212,-1.1215 2.9396,-1.1215 4.061,-1e-4 0.1397,0.1404 0.2646,0.295 0.3725,0.4612 l 6.4446,-0.068 1.472,1.4741 -1.7546,1.7546 h -0.4753 l -0.4751,-1.0158 h -0.4751 l -0.4753,1.0158 h -0.4751 l -0.4752,-0.6771 h -0.4753 l -0.4751,0.6771 h -0.4751 l -0.4753,-1.3543 h -0.4752 l -0.4752,1.3543 h -0.4752 c -0.1041,0.1575 -0.2239,0.3044 -0.3572,0.4385 -1.1214,1.1214 -2.9394,1.1214 -4.0608,0 -1.1215,-1.1214 -1.1215,-2.9396 0,-4.0608 z m -0.018,1.5134 c -0.2856,0.2855 -0.2856,0.7484 0,1.0339 0.2855,0.2855 0.7484,0.2855 1.0339,0 0.2856,-0.2855 0.2856,-0.7484 0,-1.0339 -0.2855,-0.2856 -0.7484,-0.2856 -1.0339,0 z"
       sodipodi:nodetypes="ccccccccccccccccccccscssscs" />
  </g>
</svg>
