<?xml version="1.0" encoding="UTF-8" standalone="no"?>
<!-- Created with Inkscape (http://www.inkscape.org/) -->

<svg
   xmlns:dc="http://purl.org/dc/elements/1.1/"
   xmlns:cc="http://creativecommons.org/ns#"
   xmlns:rdf="http://www.w3.org/1999/02/22-rdf-syntax-ns#"
   xmlns:svg="http://www.w3.org/2000/svg"
   xmlns="http://www.w3.org/2000/svg"
   xmlns:xlink="http://www.w3.org/1999/xlink"
   xmlns:sodipodi="http://sodipodi.sourceforge.net/DTD/sodipodi-0.dtd"
   xmlns:inkscape="http://www.inkscape.org/namespaces/inkscape"
   width="512"
   height="344.72092"
   viewBox="0 0 511.99999 344.72091"
   id="svg6369"
   version="1.1"
   inkscape:version="0.91 r"
   sodipodi:docname="hub_butterfly.svg">
  <defs
     id="defs6371">
    <linearGradient
       inkscape:collect="always"
       id="linearGradient7559">
      <stop
         style="stop-color:#ffffff;stop-opacity:1"
         offset="0"
         id="stop7561" />
      <stop
         id="stop7569"
         offset="0.60000002"
         style="stop-color:#ffffff;stop-opacity:0.88627451;" />
      <stop
         style="stop-color:#ffffff;stop-opacity:0"
         offset="1"
         id="stop7563" />
    </linearGradient>
    <radialGradient
       inkscape:collect="always"
       xlink:href="#linearGradient13006"
       id="radialGradient13012"
       cx="4454.8223"
       cy="-2978.553"
       fx="4454.8223"
       fy="-2978.553"
       r="507.14276"
       gradientTransform="matrix(1,0,0,0.74032551,0,-786.08147)"
       gradientUnits="userSpaceOnUse" />
    <linearGradient
       inkscape:collect="always"
       id="linearGradient13006">
      <stop
         style="stop-color:#050805;stop-opacity:1"
         offset="0"
         id="stop13008" />
      <stop
         id="stop13158"
         offset="0.21482022"
         style="stop-color:#0b1d0b;stop-opacity:1;" />
      <stop
         id="stop13014"
         offset="0.36241966"
         style="stop-color:#226a22;stop-opacity:1;" />
      <stop
         style="stop-color:#47de48;stop-opacity:1"
         offset="1"
         id="stop13010" />
    </linearGradient>
    <linearGradient
       inkscape:collect="always"
       xlink:href="#linearGradient5816"
       id="linearGradient11609"
       gradientUnits="userSpaceOnUse"
       gradientTransform="matrix(1.5262517,0,0,1.5262517,4078.3622,-2754.1944)"
       x1="232.75"
       y1="-121.16118"
       x2="253"
       y2="-214.16118" />
    <linearGradient
       id="linearGradient5816"
       inkscape:collect="always">
      <stop
         id="stop5818"
         offset="0"
         style="stop-color:#17cd24;stop-opacity:1" />
      <stop
         id="stop5820"
         offset="1"
         style="stop-color:#73ee69;stop-opacity:1" />
    </linearGradient>
    <linearGradient
       inkscape:collect="always"
       xlink:href="#linearGradient5671"
       id="linearGradient11611"
       gradientUnits="userSpaceOnUse"
       gradientTransform="matrix(1.5262517,0,0,1.5262517,4078.3622,-2754.1944)"
       x1="224.75"
       y1="-116.41118"
       x2="250"
       y2="-204.41118" />
    <linearGradient
       inkscape:collect="always"
       id="linearGradient5671">
      <stop
         style="stop-color:#222222;stop-opacity:1"
         offset="0"
         id="stop5673" />
      <stop
         style="stop-color:#414141;stop-opacity:1"
         offset="1"
         id="stop5675" />
    </linearGradient>
    <radialGradient
       inkscape:collect="always"
       xlink:href="#linearGradient7559"
       id="radialGradient7565"
       cx="4449.501"
       cy="-2726.8662"
       fx="4449.501"
       fy="-2726.8662"
       r="489.27844"
       gradientTransform="matrix(-0.81281921,3.8225339e-8,-2.1768916e-8,-0.46289172,8067.0197,-4191.7273)"
       gradientUnits="userSpaceOnUse" />
  </defs>
  <sodipodi:namedview
     id="base"
     pagecolor="#ffffff"
     bordercolor="#666666"
     borderopacity="1.0"
     inkscape:pageopacity="0.0"
     inkscape:pageshadow="2"
     inkscape:zoom="0.7"
     inkscape:cx="177.24764"
     inkscape:cy="-137.49406"
     inkscape:document-units="px"
     inkscape:current-layer="g13016"
     showgrid="false"
     fit-margin-top="0"
     fit-margin-left="0"
     fit-margin-right="0"
     fit-margin-bottom="0"
     inkscape:window-width="1879"
     inkscape:window-height="1056"
     inkscape:window-x="41"
     inkscape:window-y="24"
     inkscape:window-maximized="1"
     units="px" />
  <metadata
     id="metadata6374">
    <rdf:RDF>
      <cc:Work
         rdf:about="">
        <dc:format>image/svg+xml</dc:format>
        <dc:type
           rdf:resource="http://purl.org/dc/dcmitype/StillImage" />
        <dc:title></dc:title>
      </cc:Work>
    </rdf:RDF>
  </metadata>
  <g
     inkscape:label="Layer 1"
     inkscape:groupmode="layer"
     id="layer1"
     transform="translate(664.28564,-346.23479)">
    <g
       id="g13016"
       transform="matrix(0.50478884,0,0,0.50478884,-2657.0302,2046.682)"
       inkscape:export-xdpi="90.053169"
       inkscape:export-ydpi="90.053169">
      <ellipse
         style="color:#000000;clip-rule:nonzero;display:inline;overflow:visible;visibility:visible;opacity:1;isolation:auto;mix-blend-mode:normal;color-interpolation:sRGB;color-interpolation-filters:linearRGB;solid-color:#000000;solid-opacity:1;fill:url(#radialGradient7565);fill-opacity:1;fill-rule:evenodd;stroke:none;stroke-width:1.98102636;stroke-linecap:round;stroke-linejoin:round;stroke-miterlimit:4;stroke-dasharray:none;stroke-dashoffset:0;stroke-opacity:1;color-rendering:auto;image-rendering:auto;shape-rendering:auto;text-rendering:auto;enable-background:accumulate"
         id="path7557"
         cx="4452.9673"
         cy="-3019.9197"
         rx="489.27844"
         ry="330.18793" />
      <path
         d="m 4071.4733,-3351.7282 -7.875,13.6386 4.6797,0 0,12.8008 -10.8691,6.2754 -2.3379,-4.0508 -7.875,13.6367 15.748,0 -2.3379,-4.0488 10.7852,-6.2285 11.0449,6.377 -2.3379,4.0507 15.7481,0 -7.875,-13.6386 -2.3379,4.0507 -10.9629,-6.3281 0,-12.8965 4.6758,0 z m 106.211,79.0778 38.5104,0 0,15.4075 -38.5104,0 z m -7.0445,-8.5935 c -1.3419,-6e-4 -2.4302,1.0866 -2.431,2.4285 l 0,27.7375 c -6e-4,1.3429 1.0881,2.4317 2.431,2.4311 l 52.6021,0 c 1.342,-7e-4 2.4293,-1.0891 2.4286,-2.4311 l 0,-5.2812 1.2929,0 c 1.342,-7e-4 2.4293,-1.0891 2.4286,-2.4311 l 0,-12.3128 c 7e-4,-1.342 -1.0866,-2.4305 -2.4286,-2.4312 l -1.2929,0 0,-5.2812 c -8e-4,-1.3409 -1.0876,-2.4278 -2.4286,-2.4285 z m 2.4286,4.8571 47.7424,0 0,22.8803 -47.7424,0 z m 506.5643,213.0993 c -18.1087,0 -32.9109,14.5452 -33.3428,32.5527 -0.1854,0.6522 -0.1805,1.3437 0.014,1.9932 0.6115,17.3328 14.5397,31.3643 31.8321,32.137 0.9532,0.4447 2.0545,0.4447 3.0077,0 17.2834,-0.775 31.2026,-14.7956 31.8237,-32.1176 0.1978,-0.6546 0.2026,-1.3524 0.014,-2.0097 -0.4305,-18.009 -15.2275,-32.5556 -33.3372,-32.5556 z m -3.5566,7.956 0,2.4643 c -0.072,4.8131 7.1846,4.8131 7.1131,0 l 0,-2.4643 c 11.4211,1.574 20.3804,10.58 21.8747,22.027 l -2.3146,0 c -4.8084,-0.067 -4.8084,7.18 0,7.1132 l 2.2619,0 c -1.6339,11.2759 -10.5211,20.1117 -21.822,21.6696 l 0,-2.1096 c 0.028,-2.0055 -1.6065,-3.6376 -3.612,-3.6064 -1.962,0.031 -3.5286,1.6443 -3.5011,3.6064 l 0,2.1096 c -11.3022,-1.5569 -20.1907,-10.3927 -21.8249,-21.6696 l 2.2621,0 c 4.8084,0.067 4.8084,-7.18 0,-7.1132 l -2.3147,0 c 1.4945,-11.448 10.4551,-20.454 21.8775,-22.027 z m 16.9125,12.0476 -17.5972,9.1174 -9.1176,17.5972 17.5974,-9.1174 z m -13.3587,9.4444 c 2.1611,0 3.9138,1.7504 3.9142,3.9115 0,2.1622 -1.752,3.9152 -3.9142,3.9141 -2.1611,-4e-4 -3.9125,-1.753 -3.9115,-3.9141 4e-4,-2.1601 1.7514,-3.9111 3.9115,-3.9115 z m -367.7442,-180.5708 c -2.522,1e-4 -4.568,0.6178 -4.5742,1.3809 l -0.01,0 0,8.5293 c -10.5066,1.0531 -18.0747,5.4994 -18.1816,10.6816 l -0.01,0 0,0.1074 0,3.3555 0,0.039 c 0.062,5.2013 7.6455,9.6736 18.1914,10.7285 l 0,3.1289 0.01,0 -0.012,0.018 4.5782,6.8457 4.5898,-6.8653 0,-0.01 0,-3.0996 c 10.5978,-1.0387 18.2311,-5.5273 18.2813,-10.75 l 0,-0.039 0,-0.029 0,-3.2812 c 1e-4,-0.015 1e-4,-0.03 0,-0.045 l 0,-0.033 0,-0.074 -0.01,0 c -0.1177,-5.1948 -7.7306,-9.6445 -18.2715,-10.6797 l 0,-8.5312 -0.01,0 c -0.01,-0.7631 -2.0522,-1.3808 -4.5742,-1.3809 z m 4.5801,14.9141 c 6.5953,0.7715 11.1072,3.121 11.1094,5.7851 0,3.3388 -7.0029,6.0451 -15.6387,6.045 -8.6358,10e-5 -15.6372,-2.7062 -15.6387,-6.045 0.01,-2.6468 4.4688,-4.9838 11.0078,-5.7675 l 0,4.4863 0.01,0 c 0.021,0.7598 2.0612,1.3726 4.5722,1.373 2.5111,-4e-4 4.5518,-0.6132 4.5723,-1.373 l 0.01,0 0,-4.5039 z m 282.3993,-6.1601 c -21.307,-0.659 -43.2266,24.1217 -24.6142,54.7492 l 33.2651,0 5.9001,-19.4635 c 0.945,-3.125 5.4204,-2.973 6.1513,0.2089 l 5.3921,23.3211 8.8309,-34.1663 c 0.366,-1.4156 1.649,-2.4 3.1111,-2.387 1.4297,0.013 2.6755,0.9771 3.0465,2.3579 l 8.0718,30.119 26.6606,0 c 27.4961,-45.2508 -33.514,-77.736 -50.2166,-34.2719 -5.398,-14.047 -15.4244,-20.1592 -25.5987,-20.474 z m 38.0619,37.9526 -9.0595,35.0506 c -0.8377,3.2198 -5.4301,3.1597 -6.1832,-0.081 l -5.6331,-24.3668 -3.124,10.3013 c -0.4064,1.3427 -1.6437,2.2613 -3.0466,2.2618 l -31.2286,0 c 8.8677,11.4065 23.4628,23.4075 45.8118,35.0635 22.3538,-11.6584 36.9545,-23.6616 45.8216,-35.0701 l -24.7107,0 c -1.4414,-2e-4 -2.7029,-0.9686 -3.0755,-2.361 l -5.5722,-20.7924 z m 126.1297,265.5092 c -16.9364,0 -30.6726,13.7361 -30.6726,30.6725 0,19.702 22.0894,44.2859 25.5605,48.0433 1.4365,1.5593 2.6378,3.0775 5.1121,3.0775 2.4742,0 3.6755,-1.5182 5.112,-3.0775 3.4711,-3.7574 25.5605,-28.3413 25.5605,-48.0433 0,-16.9364 -13.7362,-30.6725 -30.6725,-30.6725 z m 0,51.1208 c -11.2926,0 -20.4484,-9.1557 -20.4484,-20.4483 0,-11.2926 9.1558,-20.4484 20.4484,-20.4484 11.2927,0 20.4483,9.1558 20.4483,20.4484 0,11.2926 -9.1556,20.4483 -20.4483,20.4483 z m 0,-30.6725 c -5.6438,0 -10.2242,4.5804 -10.2242,10.2242 0,5.6437 4.5804,10.2241 10.2242,10.2241 5.6437,0 10.2241,-4.5804 10.2241,-10.2241 0,-5.6438 -4.5804,-10.2242 -10.2241,-10.2242 z m -570.4069,-207.2401 c -6.0946,-9.4625 -13.7329,-16.5395 -22.9148,-21.2308 2.4458,4.17 3.6687,8.6808 3.6687,13.5324 0,7.4177 -2.6363,13.7629 -7.9088,19.0356 -5.2727,5.2725 -11.6178,7.9088 -19.0354,7.9088 -7.4177,0 -13.7629,-2.6363 -19.0356,-7.9088 -5.2725,-5.2727 -7.9088,-11.6179 -7.9088,-19.0356 0,-4.8516 1.223,-9.3624 3.6689,-13.5324 -9.1821,4.6913 -16.8204,11.7683 -22.9149,21.2308 5.3327,8.2195 12.0187,14.7652 20.058,19.6369 8.0393,4.8715 16.7501,7.3073 26.1324,7.3073 9.3823,0 18.0932,-2.4358 26.1325,-7.3073 8.0391,-4.8717 14.7251,-11.4174 20.0578,-19.6369 z m -43.3035,-23.0951 c 0,-0.8019 -0.2807,-1.4835 -0.8421,-2.0448 -0.5612,-0.5614 -1.2428,-0.8421 -2.0447,-0.8421 -5.0119,0 -9.3122,1.7943 -12.901,5.3828 -3.5885,3.5886 -5.3827,7.8889 -5.3827,12.9008 0,0.8019 0.2807,1.4835 0.8421,2.0449 0.5614,0.5614 1.243,0.8421 2.0447,0.8421 0.8021,0 1.4838,-0.2807 2.0452,-0.8421 0.5612,-0.5614 0.8418,-1.243 0.8418,-2.0449 0,-3.4483 1.2229,-6.3953 3.6687,-8.841 2.4459,-2.4459 5.3929,-3.6689 8.8412,-3.6689 0.8019,0 1.4835,-0.2806 2.0447,-0.8419 0.5614,-0.5614 0.8421,-1.243 0.8421,-2.0449 z m 51.002,23.0951 c 0,1.3633 -0.401,2.7467 -1.203,4.15 -5.6133,9.2219 -13.1614,16.6095 -22.6441,22.1629 -9.4826,5.5532 -19.4965,8.3298 -30.0417,8.3298 -10.5453,0 -20.5592,-2.7866 -30.0417,-8.3599 -9.4828,-5.5734 -17.0309,-12.951 -22.6442,-22.1328 -0.8019,-1.4033 -1.2028,-2.7867 -1.2028,-4.15 0,-1.3633 0.4009,-2.7466 1.2028,-4.1499 5.6133,-9.182 13.1614,-16.5596 22.6442,-22.1328 9.4825,-5.5733 19.4964,-8.3599 30.0417,-8.3599 10.5452,0 20.5591,2.7866 30.0417,8.3599 9.4827,5.5732 17.0308,12.9508 22.6441,22.1328 0.802,1.4033 1.203,2.7866 1.203,4.1499 z m -135.0197,-106.8401 -1.1849,0 0,-9.6349 c -0.061,-11.8142 -8.1188,-18.2458 -17.9123,-18.2458 -9.7906,0 -18.5716,6.7374 -18.2657,18.2458 l -0.013,9.6226 c 0,0 0.1477,0.013 -0.5909,0.013 -0.7817,0 -5.9337,0.9066 -5.9337,5.5003 l 0,22.0505 c 0,4.8989 5.7983,6.1201 5.9337,6.1201 l 37.6712,0 c 0.1354,0 5.6346,-0.6112 5.6346,-6.1201 l 0,-21.7458 c 6e-4,-5.2043 -5.2037,-5.8057 -5.3422,-5.8057 l 0,0 z m -13.645,25.189 -11.2474,0 3.0548,-8.9657 c -1.3049,-0.8692 -2.1715,-2.3796 -2.1715,-4.1025 0,-2.6984 2.1185,-4.8859 4.7315,-4.8859 2.6129,0 4.7315,2.1893 4.7315,4.8859 0,1.7204 -0.8642,3.2333 -2.1678,4.1001 z m -15.433,-25.189 0.013,-9.5074 c 0,-6.1239 3.7369,-11.0197 9.7905,-11.0197 5.9959,0 9.79,4.2828 9.79,11.0197 l 0,9.5074 -19.5965,0 0,0 z m 747.7526,147.5201 c -2.3114,-0.5023 -4.613,-2.2732 -5.673,-4.3652 -0.9979,-1.9693 -0.9844,-1.6531 -0.9844,-22.9037 0,-21.1456 0,-20.945 0.9481,-22.8323 0.9385,-1.8519 2.7756,-3.4365 4.8848,-4.2128 0.9761,-0.3594 1.4751,-0.3916 7.4972,-0.4845 l 6.4514,-0.1 0.7535,-0.4989 c 0.4143,-0.2744 0.9108,-0.7572 1.1034,-1.073 0.1924,-0.3158 0.9639,-2.4248 1.7141,-4.6872 0.7504,-2.2621 1.5223,-4.3751 1.7152,-4.6958 0.193,-0.3204 0.7262,-0.8034 1.1847,-1.0729 l 0.8339,-0.4901 14.8982,-0.049 c 10.6038,-0.036 15.1134,0.019 15.6445,0.1523 0.463,0.1241 1.0256,0.4822 1.4826,0.9426 0.6831,0.6884 0.8429,1.0626 2.2144,5.1854 1.5817,4.7552 1.8941,5.3392 3.2175,6.0144 0.5919,0.3018 1.2417,0.3389 6.9913,0.3989 6.2871,0.066 6.3486,0.07 7.527,0.5217 2.2417,0.8595 3.7773,2.3022 4.8405,4.5474 l 0.5879,1.2417 0.047,20.8752 c 0.047,20.7739 0.045,20.8808 -0.3267,21.9863 -0.9915,2.9439 -3.4916,5.1252 -6.5045,5.6755 -0.7401,0.1354 -11.4787,0.1895 -35.4975,0.1805 -28.2651,-0.019 -34.6361,-0.056 -35.5516,-0.2565 z m 39.8319,-8.575 c 8.5563,-1.7993 15.2559,-8.6264 16.7234,-17.0415 0.3489,-2 0.341,-5.684 -0.019,-7.5656 -0.8441,-4.4493 -2.7639,-8.0687 -5.9739,-11.2618 -3.0899,-3.0737 -6.7114,-4.9618 -11.127,-5.8014 -1.9193,-0.3648 -5.6796,-0.3684 -7.5792,0 -8.5665,1.6288 -15.1423,8.1131 -16.9971,16.7609 -0.4358,2.0324 -0.439,6.1188 0,8.1634 1.9157,9.0544 9.0548,15.7637 18.0911,17.0023 1.6701,0.2289 5.2234,0.1 6.885,-0.2492 z m -6.2166,-8.3296 c -4.9384,-0.8866 -8.8421,-4.4552 -10.1641,-9.2914 -0.4886,-1.7876 -0.4496,-4.8946 0.083,-6.6168 0.7254,-2.3452 1.5392,-3.6832 3.3216,-5.4608 2.611,-2.6039 5.1509,-3.6515 8.8667,-3.6568 3.4897,0 6.3512,1.1774 8.8578,3.66 1.1631,1.1515 1.6101,1.7579 2.2695,3.0772 1.1283,2.2574 1.4536,3.8269 1.3406,6.4648 -0.1505,3.4894 -1.1567,5.7404 -3.6939,8.2581 -1.6777,1.665 -3.1245,2.542 -5.2905,3.2072 -1.4388,0.4418 -4.1563,0.6164 -5.5905,0.3585 z m 34.2173,-23.7579 c 2.4539,-1.1146 2.3323,-4.5179 -0.1964,-5.4837 -2.548,-0.9729 -5.0409,1.911 -3.6392,4.2102 0.9012,1.4785 2.3357,1.9547 3.8356,1.2735 z m -218.0253,287.4455 -1.8509,11.906 c -3.2739,0.7768 -6.4035,2.069 -9.2716,3.8282 l -9.7174,-7.1021 -0.1583,0.1564 -7.4664,7.4664 -0.1583,0.1583 7.112,9.7302 c -1.7618,2.8633 -3.0577,5.9886 -3.8392,9.2584 l -11.9043,1.8511 0,0.2227 0,10.5587 0,0.2233 11.9058,1.8509 c 0.7767,3.2739 2.0688,6.4035 3.8282,9.2718 l -7.1023,9.717 0.1583,0.1583 7.4664,7.466 0.1583,0.1583 9.7302,-7.112 c 2.8633,1.7619 5.9884,3.0577 9.2584,3.839 l 1.8509,11.9049 0.2227,0 10.5591,0 0.2231,0 1.8509,-11.9064 c 3.2738,-0.7766 6.4033,-2.0687 9.2713,-3.828 l 9.7173,7.1025 0.1583,-0.1583 7.466,-7.466 0.1583,-0.1583 -7.1118,-9.7302 c 1.7619,-2.8636 3.0579,-5.9888 3.8394,-9.259 l 11.9047,-1.8505 0,-0.2233 0,-10.5587 0,-0.2227 -11.9062,-1.8511 c -0.7766,-3.2737 -2.069,-6.4033 -3.8282,-9.2716 l 7.1021,-9.717 -0.1583,-0.1583 -7.466,-7.4664 -0.1565,-0.1564 -9.7301,7.1116 c -2.8637,-1.7618 -5.989,-3.0577 -9.259,-3.839 l -1.8507,-11.9047 -0.2231,0 -10.5589,0 z m 5.5023,17.9862 c 13.6795,0 24.7693,11.0896 24.7696,24.7693 0,13.6798 -11.0899,24.7697 -24.7696,24.7697 -13.6798,-2e-4 -24.7693,-11.0899 -24.7693,-24.7697 0,-13.6796 11.0895,-24.7691 24.7693,-24.7693 z m 0,7.1468 c -9.7326,0 -17.6227,7.8899 -17.6227,17.6225 0,9.733 7.8899,17.6229 17.6227,17.6231 9.7329,0 17.623,-7.8901 17.6228,-17.6231 0,-9.7326 -7.8901,-17.6225 -17.6228,-17.6225 z m 0,8.296 c 5.151,-2e-4 9.3267,4.1755 9.3267,9.3265 2e-4,5.1513 -4.1755,9.3272 -9.3267,9.327 -5.1511,0 -9.3268,-4.1757 -9.3266,-9.327 0,-5.1508 4.1755,-9.3265 9.3266,-9.3265 z m 245.3683,-492.098 c -19.0565,0 -34.5244,-15.4679 -34.5244,-34.5242 0,-9.4912 3.8524,-18.0743 10.0597,-24.3139 l 0.03,0.03 c 1.2551,-1.7321 3.2818,-2.8689 5.5828,-2.8689 3.8113,0 6.9079,3.0916 6.9079,6.9025 0,2.3374 -1.1687,4.397 -2.9473,5.6461 l 0.024,0.024 c -3.7298,3.7563 -6.065,8.8854 -6.065,14.5805 0,11.4891 9.3703,20.816 20.9133,20.816 11.5428,0 20.9084,-9.3269 20.9084,-20.816 0,-5.1975 -1.9548,-9.9112 -5.1297,-13.5522 -1.8885,-1.2328 -3.1468,-3.356 -3.1468,-5.7779 0,-3.8113 3.0963,-6.9081 6.9076,-6.9081 1.8633,0 3.5463,0.7526 4.7888,1.954 l 0.098,-0.098 c 6.2436,6.2443 10.1131,14.8593 10.1131,24.382 0,19.0562 -15.4628,34.5241 -34.5195,34.5241 z m 0,-34.2857 c -3.825,0 -6.903,-3.1335 -6.903,-7.0296 l 0,-27.8501 c 0,-3.896 3.078,-7.0298 6.903,-7.0298 3.8252,0 6.9078,3.1338 6.9078,7.0298 l 0,27.8501 c 0,3.8961 -3.0826,7.0296 -6.9078,7.0296 z m -358.5802,449.5229 c 0.2257,0 0.4502,0.01 0.6736,0.017 2.1435,0.1147 4.1547,0.8207 5.5101,2.1761 3.0876,3.0877 2.7018,11.5734 -0.6765,14.953 -3.8889,3.889 -9.1304,3.5842 -13.4956,-0.7809 -4.3738,-4.3739 -4.5496,-6.9718 -0.8106,-12.3095 1.8261,-2.6069 5.4137,-4.0428 8.799,-4.0556 z m -136.4815,-25.4605 c 2.8703,0.076 5.7196,1.3667 7.6579,4.3253 5.7051,8.7069 -4.4463,19.957 -12.9096,14.3062 -1.0995,-0.7341 -2.9992,-3.2382 -4.2194,-5.5539 -3.3629,-6.3821 1.681,-11.9958 7.4913,-12.9407 0.6536,-0.1063 1.3175,-0.1544 1.9798,-0.1369 z m -68.4328,-43.3832 c 0.6613,-0.014 1.324,0.037 1.9756,0.1482 5.7917,0.9895 10.78,6.7113 7.3854,13.1667 -4.2144,8.0147 -10.8518,8.2868 -16.5134,0.675 -3.4748,-4.6717 -3.4986,-5.1139 -0.5253,-9.6519 1.9577,-2.9879 4.8119,-4.2778 7.6777,-4.338 z m 182.1382,-12.9717 c 3.3887,-0.093 6.7227,2.3152 9.1887,6.9955 4.5921,8.7165 -8.8156,17.9074 -15.854,10.8691 -3.0873,-3.0872 -2.7018,-11.5737 0.6765,-14.9529 1.8992,-1.8995 3.9555,-2.8561 5.9888,-2.9117 z m -102.0865,-25.4154 c 0.3749,0 0.752,0.021 1.1283,0.059 3.0106,0.305 5.9939,1.7708 7.6269,4.2633 6.3494,9.6897 -5.023,20.1636 -14.4277,13.2866 -3.7963,-2.776 -4.3596,-10.8414 -1.035,-14.847 1.5586,-1.8781 4.0834,-2.7721 6.7075,-2.7621 z m 183.7551,-12.5058 c 1.8647,0.1222 3.6086,1.2659 5.7953,3.4526 4.6543,4.655 4.6253,9.9068 -0.092,14.6212 -3.7611,3.7616 -8.8625,3.563 -13.9913,-0.5395 -3.7564,-3.0054 -2.7135,-11.75 1.7723,-14.8922 2.6688,-1.8691 4.6503,-2.7647 6.5155,-2.6421 z m -277.6851,-20.1763 c 1.0904,0 5.2515,2.0047 7.7048,4.458 2.4533,2.4529 3.2095,5.3503 3.2095,6.4407 0,1.09 -1.5062,5.0015 -3.9595,7.4548 -2.4533,2.4532 -5.8644,3.4581 -6.9548,3.4581 -1.0904,0 -6.2374,-0.2549 -8.6907,-2.7081 -4.3233,-4.5734 -3.0733,-11.0725 1.25,-15.8955 2.4533,-2.4533 6.3503,-3.208 7.4407,-3.208 z m 201.3162,-19.6526 c 4.7768,0.2697 9.488,4.0819 9.488,9.8044 0,8.7062 -10.0583,12.8355 -16.6785,6.8446 -4.0678,-3.6814 -4.2201,-7.6238 -0.4957,-12.9407 1.9249,-2.748 4.8204,-3.8704 7.6862,-3.7083 z m 81.7434,-45.5013 c 1.3166,0.06 2.6294,0.7652 4.7588,2.1605 8.7738,5.7486 4.5921,17.5655 -6.2161,17.5655 -3.442,0 -5.9449,-1.2832 -7.2512,-3.7238 -2.9956,-5.5971 -1.4436,-11.2767 3.9186,-14.2766 2.1448,-1.1999 3.4737,-1.7851 4.7899,-1.7256 z m -238.0454,-14.3852 c 1.9848,-0.047 4.0081,0.6171 5.8179,2.2551 4.0855,3.6971 4.881,11.7523 1.5011,15.1323 -3.38,3.3795 -11.4196,2.584 -15.1168,-1.5011 -5.6156,-6.2054 0.2005,-14.9832 6.9505,-15.8228 0.2813,-0.035 0.5637,-0.057 0.8473,-0.064 z m 36.9241,-63.53 c 7.4651,0.072 11.8848,9.5863 5.914,16.1844 -3.9614,4.3766 -10.1574,4.2086 -14.3062,-0.3756 -4.443,-4.9094 -1.8286,-12.8265 5.0285,-15.2383 1.1691,-0.4121 2.2974,-0.5705 3.3637,-0.5705 z m 133.8719,-7.456 c 0.3161,0.01 0.6392,0.023 0.9687,0.055 7.1226,0.694 11.2354,7.3288 8.1663,13.1652 -2.3496,4.4684 -4.9882,6.411 -8.6916,6.411 -1.499,0 -3.6297,-0.6002 -4.7292,-1.3359 -8.8072,-5.8808 -5.513,-18.4502 4.2858,-18.2954 z m -0.1525,-21.1676 c -4.3877,0.011 -8.7222,0.9605 -12.7119,2.7861 -1.8753,0.9765 -3.6881,2.1648 -5.4085,3.5726 -7.9963,6.1654 -11.425,13.8297 -12.0891,22.3355 0,1.7872 0.1304,3.7288 0.3756,5.9041 0.9879,8.7635 8.1563,19.8371 14.8019,22.8651 2.9611,1.349 4.8161,5.0787 7.2512,14.5307 1.8023,6.9964 2.9913,12.9661 2.6421,13.2711 -0.3481,0.3045 -3.2811,1.8981 -6.5155,3.543 -17.2778,8.7864 -26.5696,23.0413 -26.812,41.0899 -0.099,7.3855 -1.3326,13.988 -3.2733,17.6247 -4.4015,8.2465 -3.9775,21.1961 0.9758,30.009 6.3948,11.3782 22.6688,17.8031 35.4442,13.9912 8.2427,-2.4596 18.1138,-12.948 20.4927,-21.7819 4.9678,-18.4492 -6.5007,-40.777 -24.1511,-40.777 -1.1739,-2.5913 -2.4678,-5.1526 -6.2557,-7.0904 1.3364,-8.2327 3.4819,-9.3468 14.4329,-14.9 l 8.5871,-4.3536 8.4529,6.4407 c 4.6464,3.5469 11.2084,7.5994 14.576,9.0066 3.7327,1.5594 6.1209,3.8452 6.1258,5.8405 0,5.2289 6.724,14.8038 13.0903,18.6753 14.3578,8.7319 32.0345,5.4275 41.5997,-7.7766 4.3445,-5.9973 5.27,-9.0763 5.27,-17.6246 0,-1.9229 -0.1593,-3.7155 -0.3926,-5.4494 -0.3717,-2.4885 -0.9443,-4.9085 -1.8456,-7.2202 -2.2208,-5.5149 -6.1533,-10.0492 -12.1598,-14.0972 -10.4103,-7.0154 -27.7866,-4.8317 -37.7714,4.7433 -5.1628,4.9513 -5.82,4.878 -14.6677,-1.5307 -8.3526,-6.0507 -15.935,-17.813 -17.595,-27.3231 -1.016,-5.8218 -0.5574,-6.7289 5.4494,-10.5684 14.9868,-9.5792 17.2815,-30.3059 6.3517,-44.1683 l -0.2853,0 c -5.8221,-7.2999 -14.6475,-11.5565 -23.9848,-11.568 z m -79.1551,72.3332 c 0.1219,28.3926 -0.3555,-38.2112 -1.4798,-3.313 0.3469,25.8942 0.1314,27.7141 -4.2195,36.3451 -3.7236,7.386 -6.4382,10.0414 -14.5321,14.2158 -11.473,5.9175 -21.3536,5.8176 -35.3538,-0.3756 -7.9926,-3.5353 -8.0917,-3.694 -6.1399,-9.2931 1.0931,-3.1311 1.5076,-8.5999 0.9305,-12.1598 -3.616,-22.2824 -30.1043,-33.6311 -48.0997,-20.5958 -9.3045,6.7401 -13.0606,13.8072 -13.0606,24.5596 0,20.4908 20.0402,36.5872 37.8321,30.3846 4.379,-1.5263 6.4776,-1.2012 11.4692,1.8019 3.362,2.0225 6.3862,3.9253 6.7104,4.218 0.3236,0.2911 -0.9091,4.7234 -2.7324,9.8637 -2.7907,7.8684 -3.8905,9.1763 -6.9505,8.2722 -14.2395,-4.2073 -25.2432,-5.129 -35.5346,-3.0036 -7.5899,1.5701 -11.8266,1.6609 -14.3076,0.3332 -5.9807,-3.2004 -18.66,-2.1298 -26.4659,2.2369 -8.5088,4.7598 -15.4486,16.8322 -15.4486,26.8712 0,15.5704 15.1212,30.7913 30.5963,30.7913 9.7613,0 20.5354,-6.1099 26.3164,-14.9375 4.1432,-6.3268 4.9767,-9.4133 4.5188,-16.5881 l -0.5565,-8.8131 11.3352,0.7202 c 8.4964,0.5414 23.7538,3.0444 28.081,6.9303 2.0175,11.1448 -0.3231,14.7139 3.638,24.5715 1.6354,9.6856 7.6948,28.6368 22.5778,32.2729 9.6004,0.592 9.8151,6.401 15.0595,2.8054 8.3161,-5.7042 12.7632,-12.0483 14.0675,-20.086 3.2178,-19.8264 -10.0177,-35.946 -30.1897,-36.7801 l -8.2426,-0.3446 -0.5408,-11.215 c -0.3952,-8.1742 0.4416,-13.4509 3.0784,-19.411 l 3.6179,-8.1819 9.8326,0 c 10.8826,0 19.6881,-2.4521 26.9926,-7.5351 2.6526,-1.8458 5.3508,-3.3636 5.9903,-3.3636 0.6407,0 0.8364,34.963 0.4349,77.6892 -0.2177,23.177 0.736,-3.2352 0.033,32.4407 0.3498,17.5725 18.075,15.002 18.5411,0.5422 0.4939,-61.947 2.8949,-59.0848 2.8935,-79.7763 0.1378,-78.6845 -1.6525,-33.7497 0.9023,-92.0927 -2.1309,-22.0955 -21.293,-14.8652 -21.5947,0 z m -235.0482,-34.5888 c 0.2442,-1.9007 0.5766,-3.7795 0.5766,-5.7436 0,-24.1484 -19.5685,-43.7273 -43.7275,-43.7273 -14.2843,0 -26.8493,6.9496 -34.8241,17.5506 -2.8718,-0.6938 -5.8288,-1.1529 -8.9033,-1.1529 -21.1378,0 -38.2615,17.1236 -38.2615,38.2611 0,0.598 0.1495,1.1318 0.1713,1.7298 -15.8533,4.6649 -27.5005,19.1624 -27.5005,36.5317 0,21.1378 17.1237,38.2615 38.2615,38.2615 l 92.9207,0 c 24.1591,0 43.7274,-19.5685 43.7274,-43.7274 0,-16.3763 -9.1062,-30.4893 -22.4402,-37.9835 z m 22.5711,264.371 -66.8636,0 0,16.7158 -41.7898,-25.0738 41.7898,-25.0738 0,16.7159 66.8636,0 z m -41.7898,-33.4318 0,-16.7159 -66.8636,0 0,-16.716 66.8636,0 0,-16.7152 41.7898,25.0731 z m 520.5093,-286.6018 108.0928,-115.043 -36.2885,94.9682 37.0607,0 -111.1811,118.1305 35.5164,-98.8278 z m 154.3818,-194.1485 c 21.6773,0.082 25.6875,0.4786 38.075,3.7774 20.357,5.4212 35.3039,13.0489 45.0128,22.971 11.3784,11.6285 14.3429,19.7509 14.4404,39.5577 0.1261,25.4914 -6.7277,46.1839 -32.1244,96.976 -22.2168,44.4324 -24.3078,51.3118 -29.375,96.6554 -5.3888,48.2208 -13.6551,69.5261 -35.4569,91.3911 -18.1693,18.222 -41.7237,29.1328 -65.5026,30.8957 l -41.4994,7.5351 c -80.7923,13.5481 -119.1515,45.4911 -138.7394,43.0599 -7.7968,0 -8.6964,-0.388 -7.4165,-3.183 0.8016,-1.7493 1.7697,-8.0851 2.1478,-14.0817 0.6162,-9.7668 0.1308,-11.672 -4.684,-18.3152 -17.9597,-24.7835 -55.031,-13.2203 -55.3961,17.2802 -0.1977,16.601 11.1972,28.6864 29.1236,30.8802 5.762,0.7048 13.0019,2.6181 16.0939,4.2491 8.0718,4.2584 22.1885,5.7084 31.4056,3.2267 58.8016,-14.2012 137.0739,-11.0341 207.8134,3.567 1.8021,12.2929 0.4732,26.1178 -3.8947,43.924 -7.7021,31.3989 -24.9932,65.5318 -48.7012,97.1935 -74.467,-56.5243 -174.9054,-112.8221 -202.7467,-119.6433 -6.1223,-0.3678 -7.2931,-1.2623 -10.749,-8.1819 -2.1345,-4.2738 -6.4083,-10.3582 -9.488,-13.5253 -5.8158,-5.9811 -21.4129,-14.2474 -26.9476,-14.2779 -1.7489,0 -3.1815,-0.7728 -3.1815,-1.696 0,-3.474 -9.7612,-13.0995 -15.8835,-15.6576 -18.9084,-7.9005 -39.6785,2.7875 -43.3705,22.3228 -1.9684,10.4166 0.7598,18.3852 9.2029,26.8275 15.4244,15.4245 35.0754,12.5465 48.9243,-7.1609 2.2176,-3.1552 3.0245,-3.263 8.2566,-1.0958 5.096,2.1109 16.3661,13.9178 14.4729,15.162 -0.3876,0.2531 -3.1535,1.6716 -6.14,3.1377 -2.986,1.4657 -8.8052,6.0075 -12.9406,10.1037 -5.1138,5.0663 -9.7009,7.8048 -14.3373,8.5575 -12.1817,1.9765 -21.2116,10.7799 -24.6118,21.4825 -0.6568,3.2002 -0.901,6.5403 -0.9066,9.7988 0,16.5711 12.2587,28.6491 28.8299,28.6491 4.546,-0.01 9.6858,-0.2878 14.35,-1.5167 0.7066,-0.3564 1.4336,-0.7529 2.2,-1.2002 14.7948,-8.6369 19.9278,-30.3512 10.269,-43.4157 l -3.9935,-5.4198 4.1883,-3.6488 c 3.9316,-0.7214 7.9911,-1.084 12.1584,-1.1156 l 0,0 c 0.5953,-0.01 1.1922,-7e-4 1.792,0.01 58.7409,0.8758 138.2727,66.1375 189.3964,127.9043 -0.7158,0.7289 -1.4269,1.4617 -2.1492,2.1845 -30.0729,30.1011 -56.0554,45.4825 -76.9112,45.5339 -36.6722,0.089 -80.0756,-23.2705 -114.0188,-61.3651 -8.424,-9.4543 -23.0967,-28.4313 -36.1461,-46.3995 -0.4079,0.012 -0.816,0.02 -1.2257,0.021 -22.9601,0 -41.5729,-18.6127 -41.5729,-41.5728 0.01,-6.7356 1.6536,-13.2331 4.6417,-19.0171 -6.5598,-12.4879 -12.0417,-24.2285 -14.4502,-31.4662 0,34.1304 0.24,54.3703 0.24,63.3731 -0.2426,30.304 -38.9598,30.9714 -39.6354,-1.0548 0,-22.7864 -0.01,-28.1339 0.3149,-60.6407 -1.5025,3.7605 -3.4391,8.2736 -5.5496,12.9774 1.308,4.0567 2.0146,8.3301 2.0207,12.6921 0,19.3721 -13.2493,35.6496 -31.1811,40.2638 l 0,0 c -8.1009,12.4454 -17.1011,25.25 -26.2089,37.3506 -3.5059,-9.6366 -7.1831,-19.9815 -11.0753,-31.2333 -5.6105,-11.859 -6.7825,-23.6397 -2.8821,-28.9738 0.8121,-1.1107 1.4157,-1.7721 2.1845,-1.8514 0.08,-0.01 0.1616,-0.01 0.2457,-0.01 l 0,0 c 1.2614,0.068 3.0223,1.5897 6.7118,5.0695 12.6193,11.9017 31.8988,10.8832 43.1756,-0.6072 4.6935,-5.6558 7.7752,-12.6746 8.8004,-19.3037 0.043,-0.5376 0.072,-1.0725 0.085,-1.6042 -0.033,-1.7646 -0.148,-3.5974 -0.3954,-5.4493 -4e-4,0 0,-0.01 0,-0.01 -3.8841,-22.6031 -34.5181,-36.9294 -52.4886,-15.4938 -3.3554,4.0025 -10.2912,11.5672 -15.4034,16.8001 -14.5871,14.9317 -18.3027,25.1193 -15.1775,41.5982 0.9778,5.1613 1.4993,9.6693 1.1552,10.0134 5.883,18.2175 10.8365,37.1736 14.8611,56.4961 -7.7532,9.1797 -15.1244,17.1921 -21.5588,23.2816 -25.9418,24.5511 -53.3068,39.6244 -82.6006,45.5 -18.7969,3.7703 -30.0416,1.9761 -48.0997,-7.6763 -8.7363,-4.6698 -17.8226,-10.9198 -26.9545,-18.3844 77.7243,-61.0564 127.1113,-122.2005 152.2393,-154.0271 2.0732,-3.3542 7.2173,-8.1233 11.4396,-10.598 19.7437,-11.5707 20.9806,-36.2713 2.5517,-50.9973 -5.8612,-4.6839 -8.5008,-5.5292 -17.3987,-5.5849 -8.2474,-0.046 -11.9064,0.9007 -17.1883,4.4736 -7.9222,5.3598 -13.9321,16.6156 -13.9321,26.0918 0,8.453 5.8073,20.1212 12.0553,24.215 l 4.7433,3.1081 c -24.2244,28.3397 -73.7161,86.0696 -136.5873,133.5131 -14.3644,10.0253 -19.7022,10.4249 -31.4014,-2.8213 -19.3847,-22.0008 -37.1635,-47.8991 -50.0653,-74.0065 -22.8767,-46.292 -28.3167,-85.1117 -15.6265,-111.5236 5.475,-11.3951 30.238,-34.7515 51.3616,-48.4443 5.1307,-3.3259 9.3313,-6.1295 9.3313,-6.2302 0,-0.1011 -7.5175,0.024 -16.7082,0.2795 -20.9513,0.5821 -32.975,-1.905 -49.7166,-10.2858 -19.8168,-9.9204 -37.0949,-27.4943 -47.5898,-48.4061 -8.4013,-16.74 -10.3545,-25.942 -16.8635,-79.412 -3.3844,-27.8024 -6.8228,-37.821 -27.5985,-80.4288 -11.6752,-23.9439 -19.6338,-41.8524 -24.7461,-56.4071 209.5043,1.9965 360.208,163.7145 401.2019,168.3996 12.7319,0.2013 21.3017,1.2568 25.7613,3.1674 13.0903,5.6082 30.6224,-1.3831 37.0216,-14.7581 0.1834,-0.3833 0.3531,-0.7694 0.5211,-1.1551 1.4585,-4.5258 2.0672,-9.4652 2.0744,-13.8628 0,-10.7584 -5.5992,-20.2033 -14.0379,-25.5975 0.047,0.082 0.096,0.1636 0.1426,0.2457 -8.9193,-4.8938 -23.7771,-4.9885 -31.3378,0.1977 -9.0593,6.2138 -13.5035,13.1707 -14.6211,22.8933 -0.9168,7.9752 -1.389,8.6541 -6.4407,9.1421 -7.9061,0.7633 -19.2698,-3.745 -23.3889,-9.2621 -5.6247,-7.5335 -307.3153,-212.0339 -380.7699,-201.7667 0.5869,-1.5693 1.2486,-3.0877 1.9911,-4.5639 10.0558,-7.2258 28.4549,-20.5549 46.8626,-33.9037 13.0603,-3.8073 27.9479,-5.8387 43.8605,-5.9746 1.1578,-0.01 2.321,-0.01 3.4893,0 17.525,0.1531 36.1997,2.5723 54.9795,7.4079 48.394,12.4615 113.9195,44.6475 177.827,87.3468 51.8486,34.6423 89.704,70.5042 116.5946,110.7837 14.2257,1.761 26.2252,10.6991 32.25,23.0882 2.6719,-9.179 6.3347,-17.649 10.5853,-24.1699 2.3127,-3.5473 2.3169,-4.0146 0.082,-8.7015 -1.2988,-2.7237 -2.352,-6.9557 -2.3412,-9.4047 0.019,-4.129 0.7018,-5.8814 5.0624,-12.9887 1.3475,-2.1961 0.7132,-4.5781 -3.752,-14.0774 -17.2646,-36.7301 -46.9256,-71.5915 -70.3872,-82.7277 -14.9121,-7.0782 -25.6044,-16.0721 -32.4674,-27.3105 l -2.5292,-4.1389 7.0522,0.836 c 12.9616,1.5351 23.6603,8.685 46.5138,31.0878 27.8128,27.2644 45.0434,50.0529 56.4524,74.8566 8.5764,10.6815 17.0031,13.5762 25.0991,-0.723 0.2292,-3.189 0,0 5.7755,-8.7185 12.2601,-23.4732 25.21,-39.5562 52.785,-66.5956 22.2083,-21.7768 31.68,-28.0337 45.1837,-29.848 l 6.7372,-0.9051 -1.7453,3.3255 c -5.6053,10.6754 -20.6325,23.4603 -33.5294,28.5262 -19.637,7.7135 -50.5382,43.3358 -67.8242,78.1878 -0.7306,1.473 -1.3465,2.7471 -1.9163,3.9412 -0.8009,5.4012 -5.9011,8.5835 0,17.4439 4.654,7.5411 4.5897,11.8877 0.8629,19.1978 -2.6976,5.2912 -2.7016,5.4698 -0.1624,8.2539 4.5085,4.9439 8.886,16.1531 11.4819,28.5643 3.7836,-16.0125 16.6549,-28.2871 32.829,-31.3067 39.7771,-58.1277 102.3764,-107.1446 200.2161,-157.9019 28.1157,-14.5858 49.5479,-23.7396 74.07,-31.6357 31.0501,-9.9983 46.2106,-12.5129 74.769,-12.4055 z"
         style="opacity:1;fill:url(#radialGradient13012);fill-opacity:1;fill-rule:evenodd;stroke:none;stroke-width:1;stroke-linecap:butt;stroke-linejoin:miter;stroke-miterlimit:4;stroke-dasharray:none;stroke-dashoffset:0;stroke-opacity:1"
         id="path4690-4"
         inkscape:connector-curvature="0"
         sodipodi:nodetypes="ccccccccccccccccccccccccccccccccccccccccccccsccccccsscccccccccccccccccccccccccccccccccccccccccccccccccccccccccccccccccccccccccccccccccccccccccccccccccsscscssssssssssssccscscscccsccscscssscscscsscssscsccsccscccsccsssssscccccccsssccccssccccccsccccccccccccccccccccccccccccsccccccccccsccscccccccccccccccccccccccccccccccccccccccccccccccccccccccccccccscssccscccccssccssccssscssccsssssssssscccccsccccsscccccsscccscccccsccccccccccscscsccscscscccscsccccccccccscccccscccccccscccccccccccccccccssccccccscccccccccccsccccsccsssscccccccccccccscssccccccsscsscssssccccccccccccccccccccccccccsscssscccccccccccsccsccssccccccccccccccccccccccscccccccccccccccccccccccccscccsssccccccsccccsssscssssccsccccccscsccccccscccscccscccscccscccssccscccsscc" />
      <text
         xml:space="preserve"
         style="font-style:normal;font-variant:normal;font-weight:500;font-stretch:normal;font-size:81.40155029px;line-height:125%;font-family:Dosis;-inkscape-font-specification:'Dosis, Medium';text-align:center;letter-spacing:0px;word-spacing:0px;writing-mode:lr-tb;text-anchor:middle;fill:#000000;fill-opacity:1;stroke:none;stroke-width:1px;stroke-linecap:butt;stroke-linejoin:miter;stroke-opacity:1"
         x="4449.6943"
         y="-2731.4097"
         id="text5636-7"
         sodipodi:linespacing="125%"><tspan
           sodipodi:role="line"
           id="tspan5638-3"
           x="4449.6943"
           y="-2731.4097">Hub</tspan></text>
      <g
         id="g12833">
        <path
           sodipodi:nodetypes="ccccccccccc"
           inkscape:connector-curvature="0"
           id="path5632-7"
           d="m 4451.2296,-3099.9501 c -26.9174,3e-4 -48.7384,21.8212 -48.7387,48.7387 0.015,3.1957 0.3388,6.3779 0.9722,9.5013 0.728,3.6335 1.034,5.3523 -2.1326,7.9569 -17.9826,14.824 -28.5063,36.9524 -28.5388,60.4105 -6e-4,43.3203 35.1177,78.4385 78.4379,78.438 43.3204,5e-4 78.4385,-35.1177 78.438,-78.438 -0.034,-23.5936 -10.6816,-45.8423 -28.8575,-60.666 -2.5544,-2.2915 -2.6325,-3.7455 -1.9101,-7.1074 0.7056,-3.3144 1.0646,-6.6977 1.0683,-10.0953 -3e-4,-26.9175 -21.8212,-48.7384 -48.7387,-48.7387 z"
           style="opacity:1;fill:url(#linearGradient11609);fill-opacity:1;fill-rule:evenodd;stroke:none;stroke-width:12.81299973;stroke-linecap:round;stroke-linejoin:round;stroke-miterlimit:4;stroke-dasharray:none;stroke-dashoffset:0;stroke-opacity:1" />
        <path
           inkscape:connector-curvature="0"
           d="m 4486.8823,-3095.582 0,1.966 3.5223,0 0,9.2291 2.4302,0 0,-9.2291 3.4949,0 0,-1.966 -9.4474,0 z m 20.506,0 -3.0583,7.1812 -2.9215,-7.1812 -3.5496,0 0,11.1951 2.3482,0 0,-9.2291 3.5496,9.2291 1.1741,0 3.659,-9.2291 0,9.2291 2.3482,0 0,-11.1951 -3.5497,0 z"
           style="font-style:normal;font-variant:normal;font-weight:bold;font-stretch:normal;font-size:medium;line-height:125%;font-family:'Century Gothic Std';-inkscape-font-specification:'Century Gothic Std Bold';text-align:center;letter-spacing:0px;word-spacing:0px;writing-mode:lr-tb;text-anchor:middle;fill:#393939;fill-opacity:1;stroke:none;stroke-width:1px;stroke-linecap:butt;stroke-linejoin:miter;stroke-opacity:1"
           id="path5634-5"
           inkscape:export-filename="/home/lennart/Desktop/octomy_logo_full.png"
           inkscape:export-xdpi="107.86829"
           inkscape:export-ydpi="107.86829" />
        <circle
           r="55.228725"
           cy="-2961.6851"
           cx="4451.2295"
           id="circle5640-5"
           style="opacity:1;fill:#ffffff;fill-opacity:1;fill-rule:evenodd;stroke:none;stroke-width:3.29941702;stroke-linecap:round;stroke-linejoin:round;stroke-miterlimit:4;stroke-dasharray:none;stroke-dashoffset:0;stroke-opacity:1" />
        <circle
           r="29.179857"
           cy="-3051.21"
           cx="4451.2295"
           id="circle5642-7"
           style="opacity:1;fill:#ffffff;fill-opacity:1;fill-rule:evenodd;stroke:none;stroke-width:12.81299973;stroke-linecap:round;stroke-linejoin:round;stroke-miterlimit:4;stroke-dasharray:none;stroke-dashoffset:0;stroke-opacity:1" />
        <path
           inkscape:connector-curvature="0"
           id="path5644-2"
           d="m 4443.3271,-3073.5328 a 3.2595191,3.2595191 0 0 0 -3.2105,3.3059 l 0,18.625 a 3.2597,3.2597 0 0 0 6.5194,0 l 0,-18.625 a 3.2595191,3.2595191 0 0 0 -3.3089,-3.3059 z m 15.7126,0 a 3.2595191,3.2595191 0 0 0 -3.2104,3.3059 l 0,18.625 a 3.2595191,3.2595191 0 1 0 6.5163,0 l 0,-18.625 a 3.2595191,3.2595191 0 0 0 -3.3059,-3.3059 z m -29.9199,18.7115 a 3.2596844,3.2596844 0 0 0 -3.3536,3.2582 c 0,14.0245 11.439,25.4634 25.4634,25.4634 14.0246,0 25.4664,-11.4389 25.4664,-25.4634 a 3.2597,3.2597 0 1 0 -6.5194,0 c 0,10.5017 -8.4452,18.947 -18.947,18.947 -10.5017,0 -18.944,-8.4453 -18.944,-18.947 a 3.2596844,3.2596844 0 0 0 -3.1658,-3.2582 z m 14.6812,46.9263 c -4.8506,0.027 -10.7672,2.1783 -14.1267,7.825 -0.2915,0.01 -0.5839,0.01 -0.8734,0.033 -3.9208,0.3274 -7.8257,2.0784 -10.5078,5.3777 -2.2,2.706 -3.2697,6.4921 -2.8588,10.6599 -1.8911,1.3204 -3.8387,3.1003 -5.02,6.1527 -1.6586,4.2858 -1.5506,10.066 1.264,17.8112 -6.1601,12.718 -1.2086,30.9163 11.4141,34.2363 0.7579,1.608 1.7796,3.0569 3.1151,4.2718 2.0926,1.9038 4.7298,3.4837 7.6997,4.6175 5.3328,2.0356 12.0197,2.6517 17.7606,-0.471 a 3.8160105,3.8160105 0 0 0 0.7691,0.2414 c 8.2716,1.8314 14.2081,1.2179 18.5833,-1.1924 3.9591,-2.181 6.143,-5.4385 8.0039,-8.2811 5.3579,-2.3362 9.9955,-5.7941 12.4097,-11.2412 2.587,-5.8368 2.5509,-13.2489 -0.021,-22.9176 a 3.8160105,3.8160105 0 0 0 -0.3159,-0.8227 c 0.2035,-0.332 0.4056,-0.6653 0.5842,-1.0106 3.4271,-6.6246 1.8065,-15.3738 -5.0676,-21.1141 0.1735,-3.5414 -0.3258,-7.0917 -2.4205,-10.0608 -2.2306,-3.1617 -6.0916,-5.1107 -10.7434,-5.941 -2.3645,-3.0664 -5.4368,-5.7479 -9.4199,-6.9844 -1.1337,-0.352 -2.3246,-0.578 -3.5533,-0.6648 -2.7504,-0.1942 -5.6877,0.3061 -8.5702,1.6187 -0.4487,-0.2952 -0.9078,-0.5526 -1.3504,-0.7631 -1.9802,-0.9417 -4.2636,-1.394 -6.7549,-1.3802 z m 0.041,7.6312 c 1.4352,-0.01 2.7454,0.3268 3.4043,0.635 0,6.0931 0.1053,24.6417 0.2027,42.5562 0.05,9.1774 0.095,18.0136 0.113,24.5601 0.015,3.2732 0.015,5.9757 0.015,7.8519 -7e-4,0.2923 0,0.4195 0,0.6707 -3.2185,1.524 -7.2555,1.3547 -10.9371,-0.051 -2.1354,-0.8152 -4.0397,-1.9969 -5.2853,-3.13 -1.2454,-1.1331 -1.6385,-2.204 -1.6395,-2.2149 l -0.2802,-3.1449 -3.1419,-0.313 c -10.364,-1.0299 -17.6087,-30.7097 5.5624,-32.1496 a 3.8160105,3.8160105 0 1 0 -0.4739,-7.6164 c -5.857,0.364 -10.4544,2.3041 -13.933,5.1839 -0.7926,-3.7478 -0.4838,-6.1705 0.095,-7.667 0.8286,-2.141 2.2567,-3.015 3.5951,-3.6279 l 2.9124,-1.3354 -0.8078,-3.0972 c -0.8714,-3.3432 -0.1966,-5.2441 0.9806,-6.6923 1.1773,-1.4482 3.1839,-2.4172 5.2227,-2.5875 2.0387,-0.1702 3.8866,0.4468 4.9693,1.5531 1.0826,1.1063 1.8899,2.8344 1.1476,6.5343 a 3.8160105,3.8160105 0 1 0 7.4823,1.4994 c 1.1009,-5.4878 -0.2016,-10.3286 -3.1778,-13.3696 -0.6781,-0.693 -1.4246,-1.2726 -2.2088,-1.7707 1.7591,-1.6839 4.02,-2.2655 6.1944,-2.2775 z m 15.0391,0.4263 c 1.0073,-0.03 1.9598,0.133 2.8855,0.4203 2.4687,0.7664 4.8113,2.7132 6.421,5.1273 l 1.0046,1.5083 1.8065,0.1729 c 3.9702,0.3792 5.8541,1.6615 6.9575,3.2254 1.1034,1.564 1.5464,3.8434 1.1179,6.7102 l -0.3607,2.4175 2.0449,1.3385 c 5.7494,3.7686 6.2062,8.8247 4.1465,12.8062 -2.0597,3.9815 -6.7769,6.9773 -14.5679,4.5728 a 3.8160105,3.8160105 0 1 0 -2.2506,7.2914 c 6.3653,1.9645 12.2253,1.1462 16.7112,-1.3653 1.4569,6.9245 1.0447,11.5425 -0.3398,14.6664 -1.5878,3.5824 -4.555,5.852 -9.3841,7.7743 l -1.1178,0.4471 -0.6618,1.0046 c -2.0214,3.0799 -3.5904,5.4011 -5.956,6.7042 -2.2359,1.2318 -5.6808,1.9182 -12.1384,0.6439 3e-4,-0.1084 0,-0.1541 0,-0.2683 0,-1.905 9e-4,-4.6134 -0.015,-7.8936 -0.02,-6.5603 -0.064,-15.4014 -0.113,-24.581 -0.095,-17.5446 -0.1985,-35.24 -0.1998,-41.6142 1.4532,-0.7289 2.7722,-1.0727 4.0005,-1.1089 z m 2.9034,7.8489 a 3.8160105,3.8160105 0 0 0 -3.6755,3.5593 c -0.4056,5.0357 1.9372,9.7759 4.9991,13.7779 3.0617,4.0021 6.8674,7.3838 11.5661,8.3497 a 3.8164165,3.8164165 0 1 0 1.5382,-7.4762 c -1.5127,-0.311 -4.7513,-2.5158 -7.0411,-5.5088 -2.2898,-2.9931 -3.6058,-6.6549 -3.4549,-8.5286 a 3.8160105,3.8160105 0 0 0 -3.9319,-4.1733 z m -34.439,37.7687 c -0.5273,-0.014 -1.0564,0 -1.5889,0.039 a 3.8160105,3.8160105 0 1 0 0.5694,7.6074 c 4.1268,-0.309 9.2691,3.4517 10.2337,8.2811 a 3.8163663,3.8163663 0 1 0 7.4852,-1.4934 c -1.6415,-8.218 -8.7919,-14.239 -16.6994,-14.4338 z m 47.9487,4.7905 c -7.9073,0.1947 -15.052,6.2158 -16.6933,14.4338 a 3.8160105,3.8160105 0 1 0 7.4822,1.4964 c 0.9645,-4.8294 6.1067,-8.5903 10.2336,-8.2811 a 3.8160105,3.8160105 0 1 0 0.5693,-7.6104 c -0.5325,-0.04 -1.0646,-0.052 -1.5918,-0.039 z"
           style="color:#000000;font-style:normal;font-variant:normal;font-weight:normal;font-stretch:normal;font-size:medium;line-height:normal;font-family:sans-serif;text-indent:0;text-align:start;text-decoration:none;text-decoration-line:none;text-decoration-style:solid;text-decoration-color:#000000;letter-spacing:normal;word-spacing:normal;text-transform:none;direction:ltr;block-progression:tb;writing-mode:lr-tb;baseline-shift:baseline;text-anchor:start;white-space:normal;clip-rule:nonzero;display:inline;overflow:visible;visibility:visible;opacity:1;isolation:auto;mix-blend-mode:normal;color-interpolation:sRGB;color-interpolation-filters:linearRGB;solid-color:#000000;solid-opacity:1;fill:url(#linearGradient11611);fill-opacity:1;fill-rule:evenodd;stroke:none;stroke-width:4.27084637;stroke-linecap:round;stroke-linejoin:round;stroke-miterlimit:4;stroke-dasharray:none;stroke-dashoffset:0;stroke-opacity:1;color-rendering:auto;image-rendering:auto;shape-rendering:auto;text-rendering:auto;enable-background:accumulate" />
      </g>
    </g>
  </g>
</svg>
