<?xml version="1.0" encoding="UTF-8" standalone="no"?>
<!-- Created with Inkscape (http://www.inkscape.org/) -->

<svg
   xmlns:dc="http://purl.org/dc/elements/1.1/"
   xmlns:cc="http://creativecommons.org/ns#"
   xmlns:rdf="http://www.w3.org/1999/02/22-rdf-syntax-ns#"
   xmlns:svg="http://www.w3.org/2000/svg"
   xmlns="http://www.w3.org/2000/svg"
   xmlns:sodipodi="http://sodipodi.sourceforge.net/DTD/sodipodi-0.dtd"
   xmlns:inkscape="http://www.inkscape.org/namespaces/inkscape"
   width="48.466331mm"
   height="48.444546mm"
   viewBox="0 0 171.73109 171.6539"
   id="svg2"
   version="1.1"
   inkscape:version="0.91 r"
   sodipodi:docname="arrow_right.svg">
  <defs
     id="defs4" />
  <sodipodi:namedview
     id="base"
     pagecolor="#ffffff"
     bordercolor="#666666"
     borderopacity="1.0"
     inkscape:pageopacity="0.0"
     inkscape:pageshadow="2"
     inkscape:zoom="0.49497475"
     inkscape:cx="640.89818"
     inkscape:cy="-392.54027"
     inkscape:document-units="px"
     inkscape:current-layer="layer1"
     showgrid="false"
     fit-margin-top="0"
     fit-margin-left="0"
     fit-margin-right="0"
     fit-margin-bottom="0"
     inkscape:window-width="1879"
     inkscape:window-height="1056"
     inkscape:window-x="41"
     inkscape:window-y="24"
     inkscape:window-maximized="1" />
  <metadata
     id="metadata7">
    <rdf:RDF>
      <cc:Work
         rdf:about="">
        <dc:format>image/svg+xml</dc:format>
        <dc:type
           rdf:resource="http://purl.org/dc/dcmitype/StillImage" />
        <dc:title></dc:title>
      </cc:Work>
    </rdf:RDF>
  </metadata>
  <g
     inkscape:label="Layer 1"
     inkscape:groupmode="layer"
     id="layer1"
     transform="translate(601.33999,467.43243)">
    <path
       style="fill:#000000"
       d="m -528.96363,-296.5637 c -30.64348,-5.48719 -55.64327,-25.69888 -66.48595,-53.75221 -12.51891,-32.39021 -4.74365,-68.24332 20.09474,-92.66035 18.04997,-17.74378 45.71179,-27.16949 69.75594,-23.7692 32.93003,4.65691 58.62348,24.53978 70.10684,54.25213 21.23425,54.94208 -17.46307,113.76183 -76.72222,116.6174 -5.59421,0.26958 -13.13142,-0.0399 -16.74935,-0.68777 z m 28.99068,-14.32252 c 8.91654,-1.8889 14.82199,-5.83161 16.10959,-10.75541 0.98099,-3.75132 -5.46974,-15.21482 -9.77221,-17.36606 -2.51637,-1.25819 -8.65262,-2.01386 -18.65303,-2.29711 -20.54611,-0.58194 -25.33967,0.29206 -30.26923,5.51892 -5.22626,5.54144 -7.52833,12.27492 -5.49532,16.07363 4.64887,8.6865 28.2702,13.02264 48.0802,8.82604 z m -63.52605,-27.52947 c 2.66775,-4.0715 1.66153,-12.17991 -2.69136,-21.68789 -6.1005,-13.32525 -12.76567,-18.66199 -19.08409,-15.28047 -2.15663,1.15419 -2.2898,1.98581 -1.26436,7.89571 1.30391,7.5148 9.37631,25.20594 13.42339,29.41815 3.54444,3.68906 7.05552,3.56293 9.61642,-0.3455 z m 105.36157,-0.4735 c 5.0758,-4.7415 12.49002,-20.46856 13.44305,-28.5154 0.66947,-5.65268 0.45332,-6.5047 -1.98067,-7.80733 -6.78628,-3.63191 -15.35406,3.23355 -20.2052,16.19065 -7.05773,18.85078 -2.10191,30.26257 8.74282,20.13208 z m -47.67422,-20.11175 c 16.25979,-9.91371 9.30827,-34.9974 -9.69892,-34.9974 -10.66521,0 -18.74066,8.07545 -18.74066,18.74065 0,10.66521 8.07545,18.74066 18.74066,18.74066 3.41274,0 7.22724,-0.9769 9.69892,-2.48391 z m -40.94892,-41.64977 c 12.84978,-3.53232 16.09916,-3.94275 30.625,-3.86822 14.32682,0.0735 18.02524,0.5686 31.25,4.18328 17.90182,4.89304 27.89266,5.41756 32.86036,1.72517 1.8643,-1.3857 3.56433,-3.97653 3.77784,-5.75741 1.20574,-10.05691 -19.02165,-34.11482 -35.26417,-41.94228 -20.79083,-10.01934 -43.1069,-10.02886 -63.99806,-0.0273 -11.96979,5.73049 -27.1179,20.89838 -32.8716,32.91453 -5.14896,10.75319 -4.52469,14.1754 3.0134,16.51933 6.31586,1.96388 12.65539,1.18777 30.60723,-3.74709 z"
       id="path4289"
       inkscape:connector-curvature="0" />
  </g>
</svg>
