<?xml version="1.0" encoding="UTF-8" standalone="no"?>
<!-- Created with Inkscape (http://www.inkscape.org/) -->

<svg
   xmlns:dc="http://purl.org/dc/elements/1.1/"
   xmlns:cc="http://creativecommons.org/ns#"
   xmlns:rdf="http://www.w3.org/1999/02/22-rdf-syntax-ns#"
   xmlns:svg="http://www.w3.org/2000/svg"
   xmlns="http://www.w3.org/2000/svg"
   xmlns:sodipodi="http://sodipodi.sourceforge.net/DTD/sodipodi-0.dtd"
   xmlns:inkscape="http://www.inkscape.org/namespaces/inkscape"
   width="14.111111mm"
   height="14.111111mm"
   viewBox="0 0 49.999998 49.999998"
   id="svg6679"
   version="1.1"
   inkscape:version="0.91 r"
   sodipodi:docname="hub.svg">
  <defs
     id="defs6681" />
  <sodipodi:namedview
     id="base"
     pagecolor="#ffffff"
     bordercolor="#666666"
     borderopacity="1.0"
     inkscape:pageopacity="0.0"
     inkscape:pageshadow="2"
     inkscape:zoom="7.9195959"
     inkscape:cx="24.298419"
     inkscape:cy="1.2686029"
     inkscape:document-units="px"
     inkscape:current-layer="layer1"
     showgrid="false"
     fit-margin-top="0"
     fit-margin-left="0"
     fit-margin-right="0"
     fit-margin-bottom="0"
     inkscape:window-width="1879"
     inkscape:window-height="1056"
     inkscape:window-x="41"
     inkscape:window-y="24"
     inkscape:window-maximized="1" />
  <metadata
     id="metadata6684">
    <rdf:RDF>
      <cc:Work
         rdf:about="">
        <dc:format>image/svg+xml</dc:format>
        <dc:type
           rdf:resource="http://purl.org/dc/dcmitype/StillImage" />
        <dc:title></dc:title>
      </cc:Work>
    </rdf:RDF>
  </metadata>
  <g
     inkscape:label="Layer 1"
     inkscape:groupmode="layer"
     id="layer1"
     transform="translate(-180.71428,75.494942)">
    <path
       inkscape:connector-curvature="0"
       id="path6494"
       style="fill:#000000;fill-opacity:1;fill-rule:evenodd;stroke:none;stroke-width:1px;stroke-linecap:butt;stroke-linejoin:miter;stroke-opacity:1"
       d="m 199.22297,-49.387573 14.37494,-15.299135 -4.8259,12.629483 4.92858,0 -14.78564,15.709722 4.72325,-13.142744 z m 25.07657,-6.24927 c 0.0701,-0.543276 0.16474,-1.080384 0.16474,-1.641889 0,-6.903134 -5.59384,-12.50001 -12.49998,-12.50001 -4.0833,0 -7.67519,1.986722 -9.95489,5.017094 -0.8209,-0.198336 -1.66621,-0.329587 -2.54512,-0.329587 -6.04247,0 -10.93747,4.895013 -10.93747,10.937497 0,0.170892 0.0428,0.323525 0.0488,0.494434 -4.53183,1.333578 -7.86134,5.477825 -7.86134,10.443062 0,6.042468 4.89504,10.937496 10.9375,10.937496 l 26.56249,0 c 6.90616,0 12.5,-5.593846 12.5,-12.499994 0,-4.681353 -2.60313,-8.715823 -6.41474,-10.858103 z" />
  </g>
</svg>
