<?xml version="1.0" encoding="UTF-8" standalone="no"?>
<!-- Created with Inkscape (http://www.inkscape.org/) -->

<svg
   xmlns:dc="http://purl.org/dc/elements/1.1/"
   xmlns:cc="http://creativecommons.org/ns#"
   xmlns:rdf="http://www.w3.org/1999/02/22-rdf-syntax-ns#"
   xmlns:svg="http://www.w3.org/2000/svg"
   xmlns="http://www.w3.org/2000/svg"
   xmlns:sodipodi="http://sodipodi.sourceforge.net/DTD/sodipodi-0.dtd"
   xmlns:inkscape="http://www.inkscape.org/namespaces/inkscape"
   width="14.111111mm"
   height="14.111111mm"
   viewBox="0 0 49.999998 49.999998"
   id="svg11817"
   version="1.1"
   inkscape:version="0.91 r"
   sodipodi:docname="hub.svg">
  <defs
     id="defs11819" />
  <sodipodi:namedview
     id="base"
     pagecolor="#ffffff"
     bordercolor="#666666"
     borderopacity="1.0"
     inkscape:pageopacity="0.0"
     inkscape:pageshadow="2"
     inkscape:zoom="5.6"
     inkscape:cx="2.4039484"
     inkscape:cy="-1.9904527"
     inkscape:document-units="px"
     inkscape:current-layer="layer1"
     showgrid="false"
     fit-margin-top="0"
     fit-margin-left="0"
     fit-margin-right="0"
     fit-margin-bottom="0"
     inkscape:window-width="1879"
     inkscape:window-height="1056"
     inkscape:window-x="41"
     inkscape:window-y="24"
     inkscape:window-maximized="1" />
  <metadata
     id="metadata11822">
    <rdf:RDF>
      <cc:Work
         rdf:about="">
        <dc:format>image/svg+xml</dc:format>
        <dc:type
           rdf:resource="http://purl.org/dc/dcmitype/StillImage" />
        <dc:title></dc:title>
      </cc:Work>
    </rdf:RDF>
  </metadata>
  <g
     inkscape:label="Layer 1"
     inkscape:groupmode="layer"
     id="layer1"
     transform="translate(-532.14288,-284.50507)">
    <path
       id="path4260"
       d="m 569.28521,306.49444 c 0.0458,-0.35494 0.10763,-0.70585 0.10763,-1.0727 0,-4.51004 -3.65465,-8.16666 -8.16665,-8.16666 -2.66776,0 -5.01446,1.29799 -6.50386,3.27783 -0.53632,-0.12958 -1.08859,-0.21533 -1.66281,-0.21533 -3.94774,0 -7.14581,3.19807 -7.14581,7.14582 0,0.11165 0.0279,0.21137 0.0319,0.32303 -2.96079,0.87127 -5.13607,3.57884 -5.13607,6.82279 0,3.94774 3.19809,7.14582 7.14583,7.14582 l 17.35414,0 c 4.51202,0 8.16666,-3.65464 8.16666,-8.16665 0,-3.05848 -1.70071,-5.69433 -4.19096,-7.09395 z m -5.50695,9.13561 -8.16665,0 0,2.04167 -5.10416,-3.0625 5.10416,-3.06249 0,2.04166 8.16665,0 0,2.04166 z m -5.10416,-4.08332 0,-2.04167 -8.16665,0 0,-2.04166 8.16665,0 0,-2.04166 5.10416,3.06249 -5.10416,3.0625 z"
       inkscape:connector-curvature="0"
       style="fill:#000000;fill-opacity:1" />
  </g>
</svg>
