<?xml version="1.0" encoding="UTF-8" standalone="no"?>
<!-- Created with Inkscape (http://www.inkscape.org/) -->

<svg
   xmlns:dc="http://purl.org/dc/elements/1.1/"
   xmlns:cc="http://creativecommons.org/ns#"
   xmlns:rdf="http://www.w3.org/1999/02/22-rdf-syntax-ns#"
   xmlns:svg="http://www.w3.org/2000/svg"
   xmlns="http://www.w3.org/2000/svg"
   xmlns:sodipodi="http://sodipodi.sourceforge.net/DTD/sodipodi-0.dtd"
   xmlns:inkscape="http://www.inkscape.org/namespaces/inkscape"
   width="14.111111mm"
   height="14.111111mm"
   viewBox="0 0 49.999998 49.999998"
   id="svg6119"
   version="1.1"
   inkscape:version="0.91 r"
   sodipodi:docname="path_control.svg">
  <defs
     id="defs6121" />
  <sodipodi:namedview
     id="base"
     pagecolor="#ffffff"
     bordercolor="#666666"
     borderopacity="1.0"
     inkscape:pageopacity="0.0"
     inkscape:pageshadow="2"
     inkscape:zoom="3.959798"
     inkscape:cx="20.344662"
     inkscape:cy="-13.947376"
     inkscape:document-units="px"
     inkscape:current-layer="layer1"
     showgrid="false"
     fit-margin-top="0"
     fit-margin-left="0"
     fit-margin-right="0"
     fit-margin-bottom="0"
     inkscape:window-width="1879"
     inkscape:window-height="1056"
     inkscape:window-x="41"
     inkscape:window-y="24"
     inkscape:window-maximized="1" />
  <metadata
     id="metadata6124">
    <rdf:RDF>
      <cc:Work
         rdf:about="">
        <dc:format>image/svg+xml</dc:format>
        <dc:type
           rdf:resource="http://purl.org/dc/dcmitype/StillImage" />
        <dc:title></dc:title>
      </cc:Work>
    </rdf:RDF>
  </metadata>
  <g
     inkscape:label="Layer 1"
     inkscape:groupmode="layer"
     id="layer1"
     transform="translate(-1.0058594e-8,147.6378)">
    <g
       id="g6103"
       transform="matrix(0.98536823,0,0,0.98515553,-6.8412471,-125.00066)">
      <path
         inkscape:connector-curvature="0"
         d="m 32.318302,-2.0430297 c -2.195941,0 -3.976362,-1.7830828 -3.976362,-3.9823064 0,-2.1992366 1.780421,-3.9823199 3.976362,-3.9823199 2.195945,0 3.97636,1.7830833 3.97636,3.9823199 0,2.1992236 -1.780415,3.9823064 -3.97636,3.9823064 z m 0,-12.9040993 c -4.91895,0 -8.908474,3.995473 -8.908474,8.9217929 0,5.7307578 6.415589,12.8815747 7.42373,13.9744943 0.417214,0.4535209 0.766123,0.8951529 1.484744,0.8951529 0.718619,0 1.067528,-0.441632 1.484752,-0.8951529 1.008133,-1.0929196 7.42372,-8.2437365 7.42372,-13.9744943 0,-4.9263199 -3.989514,-8.9217929 -8.908472,-8.9217929 z"
         id="path6070-7" />
      <path
         sodipodi:nodetypes="cc"
         inkscape:connector-curvature="0"
         id="path5722"
         d="M 8.1831106,13.223026 C 31.281661,28.352262 36.642084,3.1694049 56.426918,16.541696"
         style="fill:none;fill-rule:evenodd;stroke:#000000;stroke-width:3.04487586;stroke-linecap:butt;stroke-linejoin:miter;stroke-miterlimit:0;stroke-dasharray:3.04487577, 3.04487577;stroke-dashoffset:0;stroke-opacity:1" />
    </g>
  </g>
</svg>
