<?xml version="1.0" encoding="UTF-8" standalone="no"?>
<!-- Created with Inkscape (http://www.inkscape.org/) -->

<svg
   xmlns:dc="http://purl.org/dc/elements/1.1/"
   xmlns:cc="http://creativecommons.org/ns#"
   xmlns:rdf="http://www.w3.org/1999/02/22-rdf-syntax-ns#"
   xmlns:svg="http://www.w3.org/2000/svg"
   xmlns="http://www.w3.org/2000/svg"
   xmlns:sodipodi="http://sodipodi.sourceforge.net/DTD/sodipodi-0.dtd"
   xmlns:inkscape="http://www.inkscape.org/namespaces/inkscape"
   width="14.111111mm"
   height="14.111111mm"
   viewBox="0 0 49.999998 49.999998"
   id="svg8729"
   version="1.1"
   inkscape:version="0.91 r"
   sodipodi:docname="sensor_gps.svg">
  <defs
     id="defs8731" />
  <sodipodi:namedview
     id="base"
     pagecolor="#ffffff"
     bordercolor="#666666"
     borderopacity="1.0"
     inkscape:pageopacity="0.0"
     inkscape:pageshadow="2"
     inkscape:zoom="1.979899"
     inkscape:cx="59.498094"
     inkscape:cy="24.076395"
     inkscape:document-units="px"
     inkscape:current-layer="layer1"
     showgrid="false"
     fit-margin-top="0"
     fit-margin-left="0"
     fit-margin-right="0"
     fit-margin-bottom="0"
     inkscape:window-width="1879"
     inkscape:window-height="1056"
     inkscape:window-x="41"
     inkscape:window-y="24"
     inkscape:window-maximized="1" />
  <metadata
     id="metadata8734">
    <rdf:RDF>
      <cc:Work
         rdf:about="">
        <dc:format>image/svg+xml</dc:format>
        <dc:type
           rdf:resource="http://purl.org/dc/dcmitype/StillImage" />
        <dc:title></dc:title>
      </cc:Work>
    </rdf:RDF>
  </metadata>
  <g
     inkscape:label="Layer 1"
     inkscape:groupmode="layer"
     id="layer1"
     transform="translate(-312.14285,-458.79077)">
    <path
       id="path4227"
       d="m 337.14286,466.27888 c -7.25211,0 -13.13392,5.8818 -13.13392,13.13392 0,8.43635 9.45861,18.96318 10.94493,20.57209 0.61511,0.66764 1.12952,1.31777 2.18899,1.31777 1.05947,0 1.57388,-0.65013 2.18899,-1.31777 1.48632,-1.60891 10.94493,-12.13574 10.94493,-20.57209 0,-7.25212 -5.88181,-13.13392 -13.13392,-13.13392 z m 0,21.88986 c -4.83547,0 -8.75595,-3.92047 -8.75595,-8.75594 0,-4.83548 3.92048,-8.75595 8.75595,-8.75595 4.83547,0 8.75594,3.92047 8.75594,8.75595 0,4.83547 -3.92047,8.75594 -8.75594,8.75594 z m 0,-13.13392 c -2.41664,0 -4.37798,1.96133 -4.37798,4.37798 0,2.41664 1.96134,4.37797 4.37798,4.37797 2.41664,0 4.37797,-1.96133 4.37797,-4.37797 0,-2.41665 -1.96133,-4.37798 -4.37797,-4.37798 z"
       inkscape:connector-curvature="0" />
  </g>
</svg>
