<?xml version="1.0" encoding="UTF-8" standalone="no"?>
<!-- Created with Inkscape (http://www.inkscape.org/) -->

<svg
   xmlns:dc="http://purl.org/dc/elements/1.1/"
   xmlns:cc="http://creativecommons.org/ns#"
   xmlns:rdf="http://www.w3.org/1999/02/22-rdf-syntax-ns#"
   xmlns:svg="http://www.w3.org/2000/svg"
   xmlns="http://www.w3.org/2000/svg"
   xmlns:sodipodi="http://sodipodi.sourceforge.net/DTD/sodipodi-0.dtd"
   xmlns:inkscape="http://www.inkscape.org/namespaces/inkscape"
   width="176.04054mm"
   height="175.99556mm"
   viewBox="0 0 623.7657 623.60631"
   id="svg2"
   version="1.1"
   inkscape:version="0.91 r"
   sodipodi:docname="sensor.svg">
  <defs
     id="defs4" />
  <sodipodi:namedview
     id="base"
     pagecolor="#ffffff"
     bordercolor="#666666"
     borderopacity="1.0"
     inkscape:pageopacity="0.0"
     inkscape:pageshadow="2"
     inkscape:zoom="0.35"
     inkscape:cx="-241.90819"
     inkscape:cy="-290.92952"
     inkscape:document-units="px"
     inkscape:current-layer="layer1"
     showgrid="false"
     fit-margin-top="0"
     fit-margin-left="0"
     fit-margin-right="0"
     fit-margin-bottom="0"
     inkscape:window-width="1879"
     inkscape:window-height="1056"
     inkscape:window-x="41"
     inkscape:window-y="24"
     inkscape:window-maximized="1" />
  <metadata
     id="metadata7">
    <rdf:RDF>
      <cc:Work
         rdf:about="">
        <dc:format>image/svg+xml</dc:format>
        <dc:type
           rdf:resource="http://purl.org/dc/dcmitype/StillImage" />
        <dc:title></dc:title>
      </cc:Work>
    </rdf:RDF>
  </metadata>
  <g
     inkscape:label="Layer 1"
     inkscape:groupmode="layer"
     id="layer1"
     transform="translate(-191.19391,382.17364)">
    <path
       style="fill:#35006d;fill-opacity:1"
       d="M 477.23128,240.81437 C 374.96242,231.54225 285.6607,175.46172 233.91291,88.013058 213.00314,52.677595 199.31939,13.076532 193.19434,-29.827355 c -2.7072,-18.963063 -2.65696,-64.00375 0.0918,-82.299065 12.9915,-86.46916 55.35796,-158.06955 123.82209,-209.26245 41.20826,-30.81279 89.3995,-50.43594 144.11741,-58.68363 18.58624,-2.80152 64.67674,-2.80152 83.26298,0 87.9144,13.25143 162.10933,57.93981 212.02121,127.70257 45.58111,63.70958 65.46581,141.26645 56.24525,219.375 -16.57881,140.4412 -127.73401,252.98635 -268.611,271.96987 -16.4265,2.21352 -52.00055,3.19144 -66.91281,1.83943 z m 64.37586,-64.42044 c 52.104,-8.64347 97.23055,-31.22562 134.83675,-67.47475 39.1005,-37.68951 63.91955,-85.40826 73.48604,-141.28911 2.97542,-17.380362 2.97256,-58.898213 -0.005,-76.25 -9.76848,-56.92129 -34.50038,-104.04157 -74.84181,-142.59196 -74.73651,-71.41815 -185.90437,-89.41361 -278.86052,-45.14091 -95.5129,45.49042 -152.53153,145.74573 -142.06296,249.787932 11.94353,118.701051 103.85715,211.321238 223.0725,224.787318 13.88195,1.56805 50.10181,0.53924 64.375,-1.82852 z M 485.8708,126.48326 C 469.69902,122.78818 454.29935,111.92042 445.11353,97.720233 432.7466,78.602458 431.66624,52.855858 442.34658,31.779245 l 3.01894,-5.957588 -8.18439,-63.930199 c -4.50141,-35.161613 -8.01893,-64.390818 -7.81669,-64.953778 0.20224,-0.56296 18.9302,21.957727 41.6177,50.045977 39.54725,48.9614505 41.47516,51.1275255 46.70476,52.4743005 8.42004,2.1684 18.99572,7.9842125 26.04684,14.3237875 31.20749,28.058212 28.10233,78.821237 -6.26955,102.494045 -14.43117,9.93914 -34.97725,14.00407 -51.59339,10.20747 z M 314.35475,-5.0859425 c -7.26571,-3.58075 -7.74761,-5.8984255 -7.74761,-37.2620625 0,-32.012075 0.63545,-35.134125 7.84763,-38.556525 5.68651,-2.698425 19.68677,-2.784538 25.22776,-0.155163 2.24302,1.064388 4.71866,3.340851 5.50141,5.058813 0.94194,2.067325 1.4232,13.597437 1.4232,34.096875 0,30.5281 -0.0404,31.010112 -2.8125,33.534975 -1.54687,1.4089375 -4.04115,3.1944875 -5.54282,3.9679 -4.12839,2.12625 -19.06144,1.6983125 -23.89707,-0.6848125 z m 15.37739,-37.9261125 c 0,-28.524537 -0.071,-29.357875 -2.5,-29.357875 -2.41585,0 -2.51135,0.945725 -2.83717,28.096713 -0.18544,15.453187 -0.0465,28.854137 0.30872,29.779887 0.35524,0.925738 1.63196,1.493263 2.83717,1.261163 2.01419,-0.3879 2.19128,-2.794525 2.19128,-29.779888 z m 339.85081,37.6301375 c -5.09563,-3.1072 -6.72581,-8.1788125 -6.72581,-20.9245375 l 0,-10.438475 8.70309,0 8.7031,0 0.3594,11.5625 c 0.32979,10.609362 0.5655,11.5625 2.85941,11.5625 2.36666,0 2.5,-0.833338 2.5,-15.625 0,-15.067912 -0.0965,-15.638738 -2.70514,-16.010375 -1.83766,-0.261787 -2.967,0.4397 -3.52173,2.1875 -0.65947,2.0778 -1.86308,2.572875 -6.25513,2.572875 -9.78584,0 -9.393,0.920463 -9.393,-22.008738 l 0,-20.491262 19.48488,0 19.48487,0 -0.87767,5.3125 c -0.48273,2.921875 -1.01587,5.468062 -1.18475,5.658212 -0.16889,0.190138 -4.74525,0.510738 -10.1697,0.712438 l -9.86263,0.366737 -0.37134,8.425525 c -0.3553,8.061825 -0.26442,8.3683 2.10533,7.10005 5.683,-3.041437 17.55032,-0.3722 19.36454,4.355538 0.42706,1.112912 0.77647,10.2898 0.77647,20.3931 0,20.097387 -0.62555,22.2459875 -7.5138,25.8080375 -5.42556,2.8056625 -20.81657,2.4955 -25.76039,-0.519125 z M 324.10714,-116.84411 c -17.53125,-15.83148 -32.70316,-29.60268 -33.71536,-30.60266 -1.61622,-1.59674 -0.39836,-3.27542 10,-13.78394 43.37651,-43.83598 96.92488,-72.09463 157.86096,-83.30667 13.23528,-2.43525 19.40309,-2.80016 47.1044,-2.78691 34.66969,0.0166 42.24904,0.90555 69.84353,8.19178 35.55838,9.3891 71.84707,28.34617 100.85932,52.6885 11.29344,9.47562 30.45111,28.79236 35.27755,35.57045 l 2.54262,3.5708 -35.19901,29.62895 -35.19901,29.628955 -6.76228,-7.12295 -6.76228,-7.122955 9.02938,-8.25931 9.02938,-8.2593 -8.02217,-7.50435 c -13.40018,-12.5352 -38.54298,-30.43121 -42.75401,-30.43121 -0.74631,0 -3.53175,4.07813 -6.18984,9.0625 -2.6581,4.98438 -6.19595,11.4378 -7.86187,14.34095 l -3.02896,5.27845 -8.55593,-4.3087 -8.55592,-4.3087 7.40475,-13.78743 c 4.07261,-7.58308 7.40475,-14.24846 7.40475,-14.81193 0,-1.45863 -18.91147,-7.42156 -32.69052,-10.30759 -6.42647,-1.34602 -17.16885,-2.80459 -23.87198,-3.24125 l -12.1875,-0.79395 0,15.81382 0,15.81383 -10,0 -10,0 0,-15.66805 0,-15.66806 -6.5625,0.79026 c -18.30651,2.20445 -54.98836,11.85817 -58.81625,15.47893 -0.55208,0.52218 0.072,2.86024 1.38684,5.19567 1.31483,2.33544 4.42702,8.04179 6.91597,12.68078 l 4.52537,8.43451 -8.63392,4.34797 -8.63391,4.34797 -4.31586,-7.78249 c -2.37373,-4.28036 -5.53756,-10.208 -7.03075,-13.1725 l -2.71489,-5.39001 -7.52166,4.22473 c -10.41434,5.84949 -27.77025,18.30272 -36.66799,26.31004 l -7.44455,6.69956 7.93625,7.45954 7.93626,7.45953 -6.74171,7.09347 -6.7417,7.093475 -31.875,-28.784495 z"
       id="path4147"
       inkscape:connector-curvature="0" />
  </g>
</svg>
