<?xml version="1.0" encoding="UTF-8" standalone="no"?>
<!-- Created with Inkscape (http://www.inkscape.org/) -->

<svg
   xmlns:dc="http://purl.org/dc/elements/1.1/"
   xmlns:cc="http://creativecommons.org/ns#"
   xmlns:rdf="http://www.w3.org/1999/02/22-rdf-syntax-ns#"
   xmlns:svg="http://www.w3.org/2000/svg"
   xmlns="http://www.w3.org/2000/svg"
   xmlns:sodipodi="http://sodipodi.sourceforge.net/DTD/sodipodi-0.dtd"
   xmlns:inkscape="http://www.inkscape.org/namespaces/inkscape"
   width="14.111111mm"
   height="14.111111mm"
   viewBox="0 0 49.999998 49.999998"
   id="svg4365"
   version="1.1"
   inkscape:version="0.91 r"
   sodipodi:docname="sensor_light.svg">
  <defs
     id="defs4367" />
  <sodipodi:namedview
     id="base"
     pagecolor="#ffffff"
     bordercolor="#666666"
     borderopacity="1.0"
     inkscape:pageopacity="0.0"
     inkscape:pageshadow="2"
     inkscape:zoom="22.4"
     inkscape:cx="10.217523"
     inkscape:cy="17.658585"
     inkscape:document-units="px"
     inkscape:current-layer="layer1"
     showgrid="false"
     fit-margin-top="0"
     fit-margin-left="0"
     fit-margin-right="0"
     fit-margin-bottom="0"
     inkscape:window-width="1879"
     inkscape:window-height="1056"
     inkscape:window-x="41"
     inkscape:window-y="24"
     inkscape:window-maximized="1" />
  <metadata
     id="metadata4370">
    <rdf:RDF>
      <cc:Work
         rdf:about="">
        <dc:format>image/svg+xml</dc:format>
        <dc:type
           rdf:resource="http://purl.org/dc/dcmitype/StillImage" />
        <dc:title></dc:title>
      </cc:Work>
    </rdf:RDF>
  </metadata>
  <g
     inkscape:label="Layer 1"
     inkscape:groupmode="layer"
     id="layer1"
     transform="translate(-683.57141,-713.07648)">
    <path
       style="opacity:1;fill:#000000;fill-opacity:1;fill-rule:evenodd;stroke:none;stroke-width:20;stroke-linecap:round;stroke-linejoin:round;stroke-miterlimit:4;stroke-dasharray:none;stroke-dashoffset:0;stroke-opacity:0.40880504"
       d="m 708.57165,724.08456 a 13.992302,13.992302 0 0 0 -9.77541,4.0047 c 0.8853,0.287 1.61111,1.1865 1.61111,2.3912 l 3e-4,11.3488 c 0,0.8277 0.39672,0.9971 0.76398,0.9999 0.36727,0 0.7523,-0.1432 0.7523,-0.9999 l 0,-7.5019 c 0,-1.4755 1.10608,-2.4807 2.24162,-2.4892 1.13554,-0.01 2.25331,0.9972 2.25331,2.4892 l 3e-4,7.5019 c 0,0.8277 0.39628,0.9971 0.76354,0.9999 0.36727,0 0.75275,-0.1432 0.75275,-0.9999 l -3e-4,-7.5019 c 0,-1.4755 1.10653,-2.4807 2.24207,-2.4892 1.13554,-0.01 2.25286,0.9972 2.25286,2.4892 l 3e-4,7.5019 c 0,0.8277 0.39672,0.9971 0.76398,0.9999 0.36728,0 0.75231,-0.1432 0.75231,-0.9999 l 0,-7.5019 c 0,-1.4755 1.10608,-2.4807 2.24162,-2.4892 1.13554,-0.01 2.2533,0.9972 2.2533,2.4892 l 3.1e-4,11.3488 c 0,0.4327 0.12414,0.6405 0.27323,0.7811 0.14909,0.1405 0.36274,0.2161 0.58332,0.2161 l 0.30335,0 a 13.992302,13.992302 0 0 0 0.56175,-0.7667 l 0,-15.6428 a 13.992302,13.992302 0 0 0 -11.59234,-6.1784 z m -10.383,5.396 -0.64804,0 a 13.992302,13.992302 0 0 0 -0.56131,0.7667 l 0,15.6433 a 13.992302,13.992302 0 0 0 11.59235,6.1779 13.992302,13.992302 0 0 0 9.84821,-4.0721 c -0.26049,-0.1019 -0.50835,-0.2516 -0.72579,-0.4566 -0.45631,-0.4301 -0.74106,-1.0942 -0.74106,-1.8645 l -3e-4,-11.3488 c 0,-0.8568 -0.38549,-1.0026 -0.75275,-0.9999 -0.36726,0 -0.76354,0.1722 -0.76354,0.9999 l 0,7.5019 c 0,1.492 -1.11732,2.4978 -2.25285,2.4892 -1.13554,-0.01 -2.24207,-1.0137 -2.24207,-2.4892 l -3.1e-4,-7.5019 c 0,-0.8568 -0.38503,-1.0026 -0.75229,-0.9999 -0.36727,0 -0.76399,0.1722 -0.76399,0.9999 l 3.1e-4,7.5019 c 0,1.492 -1.11778,2.4978 -2.25331,2.4892 -1.13553,-0.01 -2.24162,-1.0137 -2.24162,-2.4892 l -3e-4,-7.5019 c 0,-0.8568 -0.38548,-1.0026 -0.75275,-0.9999 -0.36726,0 -0.76353,0.1722 -0.76353,0.9999 l 0,7.5019 c 0,1.492 -1.11777,2.4978 -2.25331,2.4892 -1.13553,-0.01 -2.24162,-1.0137 -2.24162,-2.4892 l -3e-4,-11.3488 c 0,-0.8465 -0.3801,-0.9999 -0.72893,-0.9999 l -3.1e-4,0 z"
       id="path4207"
       inkscape:connector-curvature="0" />
  </g>
</svg>
