<?xml version="1.0" encoding="UTF-8" standalone="no"?>
<!-- Created with Inkscape (http://www.inkscape.org/) -->

<svg
   width="64.000008"
   height="64.000008"
   viewBox="0 0 16.933335 16.933335"
   version="1.1"
   id="svg277633"
   inkscape:version="1.2.2 (b0a8486541, 2022-12-01)"
   sodipodi:docname="compute.svg"
   xmlns:inkscape="http://www.inkscape.org/namespaces/inkscape"
   xmlns:sodipodi="http://sodipodi.sourceforge.net/DTD/sodipodi-0.dtd"
   xmlns="http://www.w3.org/2000/svg"
   xmlns:svg="http://www.w3.org/2000/svg">
  <sodipodi:namedview
     id="namedview277635"
     pagecolor="#ffffff"
     bordercolor="#111111"
     borderopacity="1"
     inkscape:showpageshadow="0"
     inkscape:pageopacity="0"
     inkscape:pagecheckerboard="1"
     inkscape:deskcolor="#d1d1d1"
     inkscape:document-units="px"
     showgrid="false"
     inkscape:zoom="1.829812"
     inkscape:cx="-19.674152"
     inkscape:cy="69.406037"
     inkscape:window-width="3792"
     inkscape:window-height="2111"
     inkscape:window-x="3888"
     inkscape:window-y="0"
     inkscape:window-maximized="1"
     inkscape:current-layer="layer1" />
  <defs
     id="defs277630" />
  <g
     inkscape:label="Layer 1"
     inkscape:groupmode="layer"
     id="layer1"
     transform="translate(-97.37751,-112.99392)">
    <path
       id="path8350-2"
       style="color:#000000;font-style:normal;font-variant:normal;font-weight:normal;font-stretch:normal;font-size:medium;line-height:normal;font-family:sans-serif;text-indent:0;text-align:start;text-decoration:none;text-decoration-line:none;text-decoration-style:solid;text-decoration-color:#000000;letter-spacing:normal;word-spacing:normal;text-transform:none;writing-mode:lr-tb;direction:ltr;baseline-shift:baseline;text-anchor:start;white-space:normal;clip-rule:nonzero;display:inline;overflow:visible;visibility:visible;isolation:auto;mix-blend-mode:normal;color-interpolation:sRGB;color-interpolation-filters:linearRGB;solid-color:#000000;solid-opacity:1;fill:#000000;fill-opacity:1;fill-rule:evenodd;stroke:none;stroke-width:1.44639;stroke-linecap:round;stroke-linejoin:round;stroke-miterlimit:4;stroke-dasharray:none;stroke-dashoffset:0;stroke-opacity:1;color-rendering:auto;image-rendering:auto;shape-rendering:auto;text-rendering:auto;enable-background:accumulate"
       d="m 109.4167,123.263 c -1.1723,0.029 -2.2315,0.9215 -2.4749,2.1398 a 0.56575242,0.56575242 0 1 0 1.1093,0.2218 c 0.143,-0.7159 0.9053,-1.2736 1.5172,-1.2277 a 0.56575242,0.56575242 0 1 0 0.084,-1.1283 c -0.079,0 -0.158,-0.012 -0.2361,0 z m -7.1088,-0.7103 c -0.078,0 -0.1566,-1e-4 -0.2356,0 a 0.56575242,0.56575242 0 1 0 0.084,1.1279 c 0.6118,-0.046 1.3742,0.5117 1.5172,1.2277 a 0.56583434,0.56583434 0 1 0 1.1098,-0.2214 c -0.2434,-1.2184 -1.3035,-2.111 -2.4759,-2.14 z m 5.1059,-5.5994 a 0.56575242,0.56575242 0 0 0 -0.5449,0.5276 c -0.06,0.7466 0.2871,1.4494 0.7411,2.0428 0.4539,0.5932 1.0182,1.0946 1.7148,1.2379 a 0.56585251,0.56585251 0 0 0 0.228,-1.1085 c -0.2242,-0.046 -0.7044,-0.3729 -1.0439,-0.8167 -0.3395,-0.4437 -0.5346,-0.9866 -0.5122,-1.2644 a 0.56575242,0.56575242 0 0 0 -0.5829,-0.6187 z m -0.4305,-1.1638 c 0.1493,0 0.2906,0.019 0.4278,0.062 0.366,0.1139 0.7133,0.4022 0.952,0.7602 l 0.1489,0.2236 0.2679,0.025 c 0.5886,0.056 0.8679,0.2463 1.0315,0.4783 0.1635,0.2318 0.2292,0.5697 0.1657,0.9949 l -0.054,0.3584 0.3032,0.1984 c 0.8524,0.5587 0.9201,1.3083 0.6148,1.8986 -0.3054,0.5903 -1.0048,1.0344 -2.1599,0.678 a 0.56575242,0.56575242 0 1 0 -0.3336,1.081 c 0.9437,0.2912 1.8125,0.1699 2.4775,-0.2025 0.216,1.0266 0.155,1.7114 -0.05,2.1744 -0.2354,0.5312 -0.6752,0.8677 -1.3911,1.1526 l -0.1659,0.066 -0.098,0.149 c -0.2997,0.4566 -0.5323,0.8007 -0.883,0.9939 -0.3315,0.1827 -0.8422,0.2844 -1.7997,0.096 1e-4,-0.017 0,-0.023 0,-0.04 0,-0.2824 3e-4,-0.684 0,-1.1703 0,-0.9726 -0.012,-2.2834 -0.017,-3.6443 -0.014,-2.6011 -0.03,-5.2246 -0.03,-6.1697 0.2155,-0.108 0.411,-0.159 0.5932,-0.1644 z m -2.2297,-0.064 c 0.2128,0 0.4071,0.048 0.5049,0.094 0,0.9034 0.016,3.6534 0.03,6.3094 0.012,1.3605 0.014,2.6706 0.017,3.6411 0,0.4853 0,0.886 0,1.1641 -2e-4,0.043 0,0.062 0,0.1 -0.4772,0.226 -1.0757,0.2008 -1.6215,-0.012 -0.3167,-0.1208 -0.5989,-0.296 -0.7836,-0.464 -0.1847,-0.168 -0.243,-0.3268 -0.2431,-0.3283 l -0.042,-0.4663 -0.4658,-0.047 c -1.5365,-0.1527 -2.6106,-4.5529 0.8247,-4.7664 a 0.56575242,0.56575242 0 1 0 -0.071,-1.1292 c -0.8683,0.054 -1.5499,0.3416 -2.0657,0.7686 -0.1176,-0.5557 -0.072,-0.9149 0.014,-1.1368 0.1229,-0.3174 0.3346,-0.447 0.5331,-0.5378 l 0.4317,-0.198 -0.12,-0.4591 c -0.1292,-0.4958 -0.029,-0.7776 0.1454,-0.9923 0.1746,-0.2148 0.472,-0.3583 0.7743,-0.3835 0.3023,-0.025 0.5763,0.066 0.7368,0.23 0.1605,0.164 0.2801,0.4204 0.1701,0.9688 a 0.56575242,0.56575242 0 1 0 1.1092,0.2223 c 0.1632,-0.8136 -0.03,-1.5312 -0.471,-1.9821 -0.1008,-0.1031 -0.2113,-0.1886 -0.3276,-0.2625 0.2609,-0.2497 0.5961,-0.3357 0.9184,-0.3375 z m -0.012,-1.1315 c -0.7191,0 -1.5963,0.3231 -2.0943,1.1603 -0.043,0 -0.086,0 -0.1295,0 -0.5813,0.049 -1.1603,0.3082 -1.5579,0.7973 -0.3261,0.4011 -0.4848,0.9625 -0.4238,1.5804 -0.2803,0.1958 -0.5692,0.4596 -0.7444,0.9121 -0.2458,0.6355 -0.2298,1.4923 0.1875,2.6406 -0.9132,1.8856 -0.1792,4.5837 1.6922,5.0759 0.1128,0.2383 0.2639,0.4531 0.4619,0.6332 0.3102,0.2823 0.7012,0.5165 1.1416,0.6846 0.7905,0.3018 1.782,0.3932 2.633,-0.07 a 0.56575242,0.56575242 0 0 0 0.114,0.036 c 1.2263,0.2716 2.1064,0.1806 2.7551,-0.1767 0.5869,-0.3233 0.9108,-0.8063 1.1867,-1.2277 0.7942,-0.3464 1.4818,-0.8591 1.8398,-1.6666 0.3835,-0.8653 0.3781,-1.9642 0,-3.3977 a 0.56575242,0.56575242 0 0 0 -0.047,-0.122 c 0.03,-0.049 0.06,-0.098 0.086,-0.1498 0.5081,-0.9822 0.2678,-2.2793 -0.7513,-3.1304 0.025,-0.5249 -0.048,-1.0513 -0.3588,-1.4915 -0.3307,-0.4687 -0.9031,-0.7577 -1.5929,-0.8808 -0.3505,-0.4547 -0.806,-0.8522 -1.3966,-1.0356 -0.168,-0.052 -0.3446,-0.085 -0.5268,-0.098 -0.4077,-0.029 -0.8432,0.046 -1.2705,0.24 -0.066,-0.043 -0.1347,-0.082 -0.2002,-0.1128 -0.2936,-0.1396 -0.6321,-0.2066 -1.0015,-0.2046 z"
       inkscape:connector-curvature="0"
       inkscape:transform-center-x="-8.4622491"
       inkscape:transform-center-y="-1058.3383" />
  </g>
</svg>
