<?xml version="1.0" encoding="UTF-8" standalone="no"?>
<!-- Created with Inkscape (http://www.inkscape.org/) -->

<svg
   width="64.000008"
   height="64.000008"
   viewBox="0 0 16.933335 16.933335"
   version="1.1"
   id="svg355040"
   inkscape:version="1.2.2 (b0a8486541, 2022-12-01)"
   sodipodi:docname="construct.svg"
   xmlns:inkscape="http://www.inkscape.org/namespaces/inkscape"
   xmlns:sodipodi="http://sodipodi.sourceforge.net/DTD/sodipodi-0.dtd"
   xmlns="http://www.w3.org/2000/svg"
   xmlns:svg="http://www.w3.org/2000/svg">
  <sodipodi:namedview
     id="namedview355042"
     pagecolor="#ffffff"
     bordercolor="#111111"
     borderopacity="1"
     inkscape:showpageshadow="0"
     inkscape:pageopacity="0"
     inkscape:pagecheckerboard="1"
     inkscape:deskcolor="#d1d1d1"
     inkscape:document-units="px"
     showgrid="false"
     inkscape:zoom="2.587745"
     inkscape:cx="-37.097937"
     inkscape:cy="137.57152"
     inkscape:window-width="3792"
     inkscape:window-height="2111"
     inkscape:window-x="3888"
     inkscape:window-y="0"
     inkscape:window-maximized="1"
     inkscape:current-layer="layer1" />
  <defs
     id="defs355037" />
  <g
     inkscape:label="Layer 1"
     inkscape:groupmode="layer"
     id="layer1"
     transform="translate(-112.41551,-53.998768)">
    <path
       id="rect354641"
       style="display:inline;fill:#000000;fill-opacity:1;stroke:none;stroke-width:0.490652;stroke-linecap:round;stroke-linejoin:round;stroke-dasharray:none;stroke-opacity:1;paint-order:fill markers stroke"
       d="m 113.54,55.1231 v 14.6846 h 3.2632 v -1.6313 h -1.6316 V 56.7547 h 1.6316 v -1.6316 h -1.6316 z m 11.4211,0 v 1.6316 h 1.6316 v 11.4217 h -1.6316 v 1.6313 h 3.2632 V 55.1231 h -1.6316 z m -8.1579,3.2631 v 1.6317 h 1.6316 v -1.6317 z m 3.2631,0 v 1.6317 h 1.6317 v -1.6317 z m 3.2632,0 v 1.6317 h 1.6316 v -1.6317 z m -6.5263,3.2635 v 1.6316 h 1.6316 v -1.6316 z m 3.2631,0 v 1.6316 h 1.6317 v -1.6316 z m 3.2632,0 v 1.6316 h 1.6316 v -1.6316 z m -6.5263,3.2632 v 1.6316 h 1.6316 v -1.6316 z m 3.2631,0 v 1.6316 h 1.6317 v -1.6316 z m 3.2632,0 v 1.6316 h 1.6316 v -1.6316 z" />
  </g>
</svg>
