<?xml version="1.0" encoding="UTF-8" standalone="no"?>
<!-- Created with Inkscape (http://www.inkscape.org/) -->

<svg
   width="64.000008"
   height="64.000008"
   viewBox="0 0 16.933335 16.933335"
   version="1.1"
   id="svg196846"
   inkscape:version="1.2.2 (b0a8486541, 2022-12-01)"
   sodipodi:docname="log.svg"
   xmlns:inkscape="http://www.inkscape.org/namespaces/inkscape"
   xmlns:sodipodi="http://sodipodi.sourceforge.net/DTD/sodipodi-0.dtd"
   xmlns="http://www.w3.org/2000/svg"
   xmlns:svg="http://www.w3.org/2000/svg">
  <sodipodi:namedview
     id="namedview196848"
     pagecolor="#ffffff"
     bordercolor="#111111"
     borderopacity="1"
     inkscape:showpageshadow="0"
     inkscape:pageopacity="0"
     inkscape:pagecheckerboard="1"
     inkscape:deskcolor="#d1d1d1"
     inkscape:document-units="px"
     showgrid="false"
     inkscape:zoom="0.914906"
     inkscape:cx="1250.4017"
     inkscape:cy="654.71207"
     inkscape:window-width="3792"
     inkscape:window-height="2111"
     inkscape:window-x="3888"
     inkscape:window-y="0"
     inkscape:window-maximized="1"
     inkscape:current-layer="layer1" />
  <defs
     id="defs196843" />
  <g
     inkscape:label="Layer 1"
     inkscape:groupmode="layer"
     id="layer1"
     transform="translate(259.77438,24.950558)">
    <path
       id="path185682"
       style="clip-rule:evenodd;display:inline;fill:#000000;fill-opacity:1;fill-rule:evenodd;stroke-width:0.825286"
       d="m -257.0849,-16.9291 c 0,-0.2278 0.1847,-0.4126 0.4126,-0.4126 h 0.6706 c 0.2279,0 0.4126,0.1848 0.4126,0.4126 0,0.2279 -0.1847,0.4126 -0.4126,0.4126 h -0.6706 c -0.2279,0 -0.4126,-0.1847 -0.4126,-0.4126 z m 2.0117,0 c 0,-0.2278 0.1847,-0.4126 0.4126,-0.4126 h 1.3411 c 0.2279,0 0.4127,0.1848 0.4127,0.4126 0,0.2279 -0.1848,0.4126 -0.4127,0.4126 h -1.3411 c -0.2279,0 -0.4126,-0.1847 -0.4126,-0.4126 z m 2.6821,0 c 0,-0.2278 0.1848,-0.4126 0.4126,-0.4126 h 0.6706 c 0.2279,0 0.4126,0.1848 0.4126,0.4126 0,0.2279 -0.1847,0.4126 -0.4126,0.4126 h -0.6706 c -0.2278,0 -0.4126,-0.1847 -0.4126,-0.4126 z m 5.0773,-3.2352 c -0.4598,0 -0.8446,0.2493 -1.1003,0.5903 -0.2557,0.3409 -0.4015,0.7929 -0.4015,1.2747 0,0.4816 0.1458,0.9336 0.4015,1.2745 0.2557,0.3409 0.6405,0.5905 1.1003,0.5905 0.4598,0 0.8447,-0.2496 1.1004,-0.5905 0.2557,-0.3409 0.4016,-0.7929 0.4016,-1.2745 0,-0.4818 -0.1459,-0.9338 -0.4016,-1.2747 -0.2557,-0.341 -0.6406,-0.5903 -1.1004,-0.5903 z m -10.3759,-1.2021 c 0.6047,-0.8313 1.4578,-1.3397 2.3878,-1.3397 h 7.9881 c 0.9667,0 1.8058,0.5396 2.3877,1.3397 0.5823,0.8007 0.9297,1.8864 0.9297,3.0671 0,1.1807 -0.3474,2.2663 -0.9297,3.0669 -0.5819,0.8002 -1.421,1.3398 -2.3877,1.3398 h -2.1128 c -0.012,0.9184 -0.097,1.7832 -0.2706,2.7187 -0.1001,0.5388 -0.574,0.9122 -1.1074,0.9122 h -6.5347 c -0.7162,0 -1.229,-0.6414 -1.1529,-1.3173 0.1269,-1.1255 0.1082,-2.216 0.05,-3.3223 -0.019,-0.3587 -0.042,-0.7221 -0.065,-1.0893 -0.048,-0.7532 -0.097,-1.5226 -0.1118,-2.301 l -10e-5,-0.012 h 10e-5 c 0,-1.1334 0.3265,-2.2375 0.9297,-3.0669 z m 8.2518,6.6485 h 0.1846 c -0.066,-0.063 -0.1307,-0.1297 -0.1929,-0.199 0,0.066 0,0.1331 0.012,0.199 z m -0.3679,-3.6104 c 0,-1.0135 0.3071,-1.9138 0.7718,-2.5526 0.4693,-0.6454 1.0826,-0.9999 1.7202,-0.9999 0.6376,0 1.2509,0.3545 1.7202,0.9999 0.4692,0.645 0.772,1.5564 0.772,2.5816 0,1.0252 -0.3028,1.9365 -0.772,2.5815 -0.4693,0.6453 -1.0826,0.9999 -1.7202,0.9999 -0.6376,0 -1.2509,-0.3546 -1.7202,-0.9999 -0.5074,-0.7864 -0.8262,-1.7522 -0.7718,-2.6105 z m 0.5525,-3.5525 c -0.1623,0.1549 -0.3123,0.3276 -0.4481,0.5144 -0.5823,0.8007 -0.9298,1.8864 -0.9298,3.0671 0,0.5219 0.067,1.0253 0.194,1.4938 0.2632,2.2341 0.2544,3.7263 -0.071,5.481 -0.024,0.1335 -0.1456,0.2375 -0.296,0.2375 h -6.5346 c -0.1883,0 -0.358,-0.1769 -0.3328,-0.3997 0.1343,-1.1922 0.1129,-2.3351 0.053,-3.4577 -0.02,-0.3786 -0.044,-0.7518 -0.067,-1.1236 -0.048,-0.7409 -0.094,-1.4759 -0.1082,-2.2352 0,-0.9837 0.2862,-1.9099 0.7718,-2.5777 0.4849,-0.6667 1.1095,-0.9999 1.7203,-0.9999 z" />
  </g>
</svg>
