<?xml version="1.0" encoding="UTF-8" standalone="no"?>
<!-- Created with Inkscape (http://www.inkscape.org/) -->

<svg
   xmlns:dc="http://purl.org/dc/elements/1.1/"
   xmlns:cc="http://creativecommons.org/ns#"
   xmlns:rdf="http://www.w3.org/1999/02/22-rdf-syntax-ns#"
   xmlns:svg="http://www.w3.org/2000/svg"
   xmlns="http://www.w3.org/2000/svg"
   xmlns:sodipodi="http://sodipodi.sourceforge.net/DTD/sodipodi-0.dtd"
   xmlns:inkscape="http://www.inkscape.org/namespaces/inkscape"
   width="14.111112mm"
   height="14.111112mm"
   viewBox="0 0 14.111112 14.111112"
   version="1.1"
   id="svg8557"
   inkscape:version="0.92.0 unknown"
   sodipodi:docname="ardumy.svg">
  <defs
     id="defs8551" />
  <sodipodi:namedview
     id="base"
     pagecolor="#ffffff"
     bordercolor="#666666"
     borderopacity="1.0"
     inkscape:pageopacity="0.0"
     inkscape:pageshadow="2"
     inkscape:zoom="3.959798"
     inkscape:cx="-30.172185"
     inkscape:cy="-33.048024"
     inkscape:document-units="mm"
     inkscape:current-layer="layer1"
     showgrid="false"
     fit-margin-top="0"
     fit-margin-left="0"
     fit-margin-right="0"
     fit-margin-bottom="0"
     inkscape:window-width="3799"
     inkscape:window-height="2136"
     inkscape:window-x="41"
     inkscape:window-y="24"
     inkscape:window-maximized="1" />
  <metadata
     id="metadata8554">
    <rdf:RDF>
      <cc:Work
         rdf:about="">
        <dc:format>image/svg+xml</dc:format>
        <dc:type
           rdf:resource="http://purl.org/dc/dcmitype/StillImage" />
        <dc:title />
      </cc:Work>
    </rdf:RDF>
  </metadata>
  <g
     inkscape:label="Layer 1"
     inkscape:groupmode="layer"
     id="layer1"
     transform="translate(-2.7718251,74.424606)">
    <g
       style="stroke-width:1.29067266"
       id="g8301"
       transform="matrix(0.31260328,0,0,0.30456412,40.822971,1164.8724)">
      <path
         d="m -84.250372,-3976.8977 a 14.928589,14.928589 0 0 0 -14.928338,-14.9285 14.928589,14.928589 0 0 0 -14.92873,14.9285 14.928589,14.928589 0 0 0 14.92873,14.9285 14.928589,14.928589 0 0 0 14.928338,-14.9285 z m 9.178445,0 a 24.106991,24.106991 0 0 1 -24.106991,24.107 24.106991,24.106991 0 0 1 -24.106992,-24.107 24.106991,24.106991 0 0 1 24.106992,-24.107 24.106991,24.106991 0 0 1 24.106991,24.107 z"
         style="opacity:1;fill:#000000;fill-opacity:1;fill-rule:evenodd;stroke:none;stroke-width:7.18306494;stroke-linecap:round;stroke-linejoin:round;stroke-miterlimit:4;stroke-dasharray:none;stroke-dashoffset:0;stroke-opacity:1"
         id="path8266"
         inkscape:connector-curvature="0"
         transform="matrix(0.90281275,0,0,0.92664305,-9.6131774,-360.75327)" />
      <path
         sodipodi:nodetypes="ccc"
         id="path8268"
         d="m -109.0303,-3972.705 c 1.63651,3.8045 5.41865,6.4685 9.822998,6.4685 4.359831,-1e-4 8.109926,-2.6106 9.772594,-6.3538"
         style="fill:none;fill-rule:evenodd;stroke:#000000;stroke-width:3.13768077;stroke-linecap:round;stroke-linejoin:miter;stroke-miterlimit:4;stroke-dasharray:none;stroke-opacity:1"
         inkscape:connector-curvature="0"
         transform="matrix(0.90281275,0,0,0.92664305,-9.6131774,-360.75327)" />
      <g
         transform="translate(0,-1.1945008)"
         id="g8289">
        <g
           style="opacity:1;stroke:#000000;stroke-width:1.3954823;stroke-opacity:1"
           transform="matrix(0.02993355,0,0,0.02962788,-52.594083,-3926.3707)"
           id="g8274">
          <path
             style="fill:none;fill-rule:evenodd;stroke:#000000;stroke-width:49.4462204;stroke-linecap:round;stroke-linejoin:round;stroke-miterlimit:4;stroke-dasharray:none;stroke-opacity:1"
             d="m -1418.2214,-4134.7957 h 89.3871"
             id="path8270"
             inkscape:connector-curvature="0" />
          <path
             inkscape:connector-curvature="0"
             id="path8272"
             d="m -1373.5278,-4179.4893 v 89.3871"
             style="fill:none;fill-rule:evenodd;stroke:#000000;stroke-width:49.4462204;stroke-linecap:round;stroke-linejoin:round;stroke-miterlimit:4;stroke-dasharray:none;stroke-opacity:1" />
        </g>
        <path
           style="opacity:1;fill:none;fill-rule:evenodd;stroke:#000000;stroke-width:1.4725244;stroke-linecap:round;stroke-linejoin:round;stroke-miterlimit:4;stroke-dasharray:none;stroke-opacity:1"
           d="m -105.99095,-4048.8759 h 2.67568"
           id="path8276"
           inkscape:connector-curvature="0" />
        <path
           sodipodi:nodetypes="csssccccsssccc"
           inkscape:connector-curvature="0"
           d="m -96.344794,-4051.6381 c 0.725412,-0.707 1.711462,-1.1577 2.809961,-1.1577 2.187224,0 3.96032,1.755 3.96032,3.9199 0,2.1649 -1.773096,3.9199 -3.96032,3.9199 -1.098499,0 -2.084549,-0.4506 -2.809961,-1.1577 l -2.834118,-2.7622 z m -5.668236,0 c -0.72541,-0.707 -1.71146,-1.1577 -2.80996,-1.1577 -2.18723,0 -3.96032,1.755 -3.96032,3.9199 0,2.1649 1.77309,3.9199 3.96032,3.9199 1.0985,0 2.08455,-0.4506 2.80996,-1.1577 l 2.834118,-2.7622 z"
           style="color:#000000;clip-rule:nonzero;display:inline;overflow:visible;visibility:visible;opacity:1;isolation:auto;mix-blend-mode:normal;color-interpolation:sRGB;color-interpolation-filters:linearRGB;solid-color:#000000;solid-opacity:1;fill:none;fill-opacity:1;fill-rule:evenodd;stroke:#000000;stroke-width:2.94504881;stroke-linecap:round;stroke-linejoin:round;stroke-miterlimit:4;stroke-dasharray:none;stroke-dashoffset:0;stroke-opacity:1;color-rendering:auto;image-rendering:auto;shape-rendering:auto;text-rendering:auto;enable-background:accumulate"
           id="path8278" />
      </g>
    </g>
  </g>
</svg>
