<?xml version="1.0" encoding="UTF-8" standalone="no"?>
<!-- Created with Inkscape (http://www.inkscape.org/) -->

<svg
   xmlns:dc="http://purl.org/dc/elements/1.1/"
   xmlns:cc="http://creativecommons.org/ns#"
   xmlns:rdf="http://www.w3.org/1999/02/22-rdf-syntax-ns#"
   xmlns:svg="http://www.w3.org/2000/svg"
   xmlns="http://www.w3.org/2000/svg"
   xmlns:sodipodi="http://sodipodi.sourceforge.net/DTD/sodipodi-0.dtd"
   xmlns:inkscape="http://www.inkscape.org/namespaces/inkscape"
   width="14.111111mm"
   height="14.111111mm"
   viewBox="0 0 49.999998 49.999998"
   id="svg15347"
   version="1.1"
   inkscape:version="0.91 r"
   sodipodi:docname="hexapod.svg">
  <defs
     id="defs15349" />
  <sodipodi:namedview
     id="base"
     pagecolor="#ffffff"
     bordercolor="#666666"
     borderopacity="1.0"
     inkscape:pageopacity="0.0"
     inkscape:pageshadow="2"
     inkscape:zoom="7.9195959"
     inkscape:cx="45.125577"
     inkscape:cy="11.500972"
     inkscape:document-units="px"
     inkscape:current-layer="layer1"
     showgrid="false"
     fit-margin-top="0"
     fit-margin-left="0"
     fit-margin-right="0"
     fit-margin-bottom="0"
     inkscape:window-width="3799"
     inkscape:window-height="2136"
     inkscape:window-x="41"
     inkscape:window-y="24"
     inkscape:window-maximized="1" />
  <metadata
     id="metadata15352">
    <rdf:RDF>
      <cc:Work
         rdf:about="">
        <dc:format>image/svg+xml</dc:format>
        <dc:type
           rdf:resource="http://purl.org/dc/dcmitype/StillImage" />
        <dc:title></dc:title>
      </cc:Work>
    </rdf:RDF>
  </metadata>
  <g
     inkscape:label="Layer 1"
     inkscape:groupmode="layer"
     id="layer1"
     transform="translate(505,-581.64795)">
    <path
       id="path7394"
       style="color:#000000;clip-rule:nonzero;display:inline;overflow:visible;visibility:visible;opacity:1;isolation:auto;mix-blend-mode:normal;color-interpolation:sRGB;color-interpolation-filters:linearRGB;solid-color:#000000;solid-opacity:1;fill:#e43232;fill-opacity:1;fill-rule:evenodd;stroke:none;stroke-width:9.78199959;stroke-linecap:round;stroke-linejoin:round;stroke-miterlimit:4;stroke-dasharray:none;stroke-dashoffset:0;stroke-opacity:1;color-rendering:auto;image-rendering:auto;shape-rendering:auto;text-rendering:auto;enable-background:accumulate"
       d="m -478.19642,597.61369 c 0,0.4669 -0.37853,0.8454 -0.84546,0.8454 -0.46688,0 -0.84536,-0.3785 -0.84537,-0.8454 6e-5,-0.4668 0.37852,-0.8453 0.84537,-0.8453 0.46689,0 0.8454,0.3784 0.84546,0.8453 z m 1.0247,1.4705 c 5e-5,1.5905 -1.26623,2.8798 -2.82828,2.8798 -1.56206,0 -2.82834,-1.2893 -2.82829,-2.8798 6e-5,-1.5904 1.26631,-2.8796 2.82829,-2.8796 1.56198,0 2.82823,1.2892 2.82828,2.8796 z m -2.8282,-5.1578 c -2.80216,0 -5.07602,2.3214 -5.07602,5.1578 0,2.8364 2.27386,5.158 5.07602,5.158 2.8022,0 5.07586,-2.3216 5.07586,-5.158 0,-2.8364 -2.27366,-5.1578 -5.07586,-5.1578 z m 0,1.134 c 2.17817,0 3.94181,1.7893 3.94185,4.0238 0,2.2345 -1.76368,4.0238 -3.94185,4.0238 -2.17813,0 -3.94181,-1.7893 -3.94181,-4.0238 0,-2.2345 1.76368,-4.0238 3.94181,-4.0238 z m -7.06125,-0.722 -0.25037,0.1762 -2.37272,-1.5848 c -2.02075,-1.3443 -2.41923,-1.5757 -2.72526,-1.5757 -0.38015,0 -0.7046,0.2222 -4.69031,3.1053 -1.74278,1.2702 -2.5582,1.8817 -5.68203,4.2642 -0.86193,0.6581 -1.03818,0.9084 -0.86193,1.2329 0.13897,0.2687 0.42663,0.2968 0.81593,0.092 0.82518,-0.445 4.65352,-2.8459 7.37832,-4.6347 1.62215,-1.0565 2.99401,-1.9281 3.04967,-1.9281 0.0465,0 0.86193,0.5191 1.79844,1.1587 l 1.70549,1.168 -0.44499,0.5564 c -0.33368,0.4078 -1.15878,1.8168 -1.17719,2.0022 0,0.01 -0.93601,-0.213 -2.07642,-0.4914 -2.31751,-0.5564 -2.65115,-0.5931 -2.96641,-0.2968 -0.58395,0.537 -8.16661,12.606 -8.16661,12.9953 0,0.2131 0.29685,0.5191 0.5099,0.5191 0.139,0 0.33363,-0.1482 0.584,-0.445 0.77862,-0.936 3.4947,-4.6626 5.74691,-7.8789 2.26185,-3.226 2.3543,-3.3558 2.59544,-3.2909 0.13901,0.028 0.93605,0.2319 1.77961,0.445 l 1.5292,0.3802 0.0465,1.8541 c 0.0465,1.5481 0.0833,1.9282 0.24114,2.3727 0.11141,0.2969 0.16707,0.5376 0.12978,0.5376 -0.0278,0 -0.55636,-0.1671 -1.15878,-0.371 -1.30693,-0.4445 -1.70545,-0.4818 -2.05749,-0.2223 -0.57478,0.4266 -9.94618,16.4625 -9.94618,17.019 0,0.2222 0.25956,0.445 0.50071,0.445 0.11136,0 0.2968,-0.092 0.39847,-0.2131 0.3802,-0.3985 4.9315,-7.295 7.43404,-11.2532 1.39992,-2.2061 2.57707,-4.0137 2.62304,-4.0137 0.22231,0 5.06127,1.6222 5.26512,1.7611 0.9176,0.6396 2.79934,1.3535 4.41234,1.6779 1.27934,0.2504 3.52231,0.3336 4.85734,0.1762 1.86334,-0.2131 3.88404,-0.8527 5.28346,-1.6687 0.39856,-0.2319 1.44593,-0.6212 3.08654,-1.1587 1.36263,-0.4358 2.52141,-0.7878 2.56788,-0.7695 0.0465,0.019 1.26964,1.8818 2.71608,4.1528 2.41004,3.7911 5.19097,8.0088 6.82239,10.3631 0.57477,0.8155 0.70455,0.9458 0.91759,0.9458 0.32444,0 0.48186,-0.1482 0.48186,-0.4542 0,-0.3986 -3.92086,-7.2858 -7.74002,-13.5891 -2.06672,-3.4207 -2.02989,-3.3742 -2.41004,-3.5321 -0.34286,-0.1389 -0.64885,-0.083 -2.12289,0.417 -0.9733,0.3337 -1.01977,0.3428 -0.95488,0.1206 0.33359,-1.0567 0.37092,-1.2794 0.42658,-2.8826 l 0.0557,-1.7055 1.79849,-0.4543 c 0.98248,-0.2503 1.80762,-0.4357 1.81685,-0.4261 0.009,0.019 0.95489,1.3626 2.0856,2.994 2.27104,3.2536 2.95672,4.2085 4.80163,6.6553 1.39997,1.8726 1.52001,2.0115 1.77038,2.0115 0.24115,0 0.47264,-0.2411 0.47264,-0.4914 0,-0.5467 -7.73083,-12.857 -8.24072,-13.1349 -0.31526,-0.167 -0.75056,-0.1022 -2.87345,0.4169 -1.1399,0.278 -2.0856,0.5007 -2.09479,0.4915 -0.009,-0.019 -0.19466,-0.3617 -0.40775,-0.7694 -0.20385,-0.4077 -0.56559,-0.9733 -0.78785,-1.2513 l -0.39852,-0.5006 1.74278,-1.1864 c 0.95492,-0.6489 1.78925,-1.1864 1.84441,-1.1864 0.0557,0 0.83438,0.4915 1.74278,1.0938 4.01382,2.6789 8.75061,5.5987 9.09343,5.5987 0.35255,0 0.59319,-0.4357 0.39852,-0.7229 -0.18544,-0.2687 -5.29315,-4.1155 -8.72246,-6.5536 -1.90016,-1.3627 -2.20624,-1.5481 -2.52141,-1.5481 -0.30608,0 -0.68619,0.2223 -2.73449,1.5849 l -2.39164,1.5853 -0.27796,-0.1671 c -4.11258,-2.8509 -10.30466,-2.6535 -14.07135,-0.018 z"
       inkscape:connector-curvature="0" />
  </g>
</svg>
