<?xml version="1.0" encoding="UTF-8" standalone="no"?>
<!-- Created with Inkscape (http://www.inkscape.org/) -->

<svg
   xmlns:dc="http://purl.org/dc/elements/1.1/"
   xmlns:cc="http://creativecommons.org/ns#"
   xmlns:rdf="http://www.w3.org/1999/02/22-rdf-syntax-ns#"
   xmlns:svg="http://www.w3.org/2000/svg"
   xmlns="http://www.w3.org/2000/svg"
   xmlns:sodipodi="http://sodipodi.sourceforge.net/DTD/sodipodi-0.dtd"
   xmlns:inkscape="http://www.inkscape.org/namespaces/inkscape"
   width="14.111111mm"
   height="14.111111mm"
   viewBox="0 0 49.999998 49.999998"
   id="svg6036"
   version="1.1"
   inkscape:version="0.91 r"
   sodipodi:docname="no.svg">
  <defs
     id="defs6038" />
  <sodipodi:namedview
     id="base"
     pagecolor="#ffffff"
     bordercolor="#666666"
     borderopacity="1.0"
     inkscape:pageopacity="0.0"
     inkscape:pageshadow="2"
     inkscape:zoom="2.8"
     inkscape:cx="-42.360186"
     inkscape:cy="27.748324"
     inkscape:document-units="px"
     inkscape:current-layer="layer1"
     showgrid="false"
     fit-margin-top="0"
     fit-margin-left="0"
     fit-margin-right="0"
     fit-margin-bottom="0"
     inkscape:window-width="1879"
     inkscape:window-height="1056"
     inkscape:window-x="41"
     inkscape:window-y="24"
     inkscape:window-maximized="1" />
  <metadata
     id="metadata6041">
    <rdf:RDF>
      <cc:Work
         rdf:about="">
        <dc:format>image/svg+xml</dc:format>
        <dc:type
           rdf:resource="http://purl.org/dc/dcmitype/StillImage" />
        <dc:title></dc:title>
      </cc:Work>
    </rdf:RDF>
  </metadata>
  <g
     inkscape:label="Layer 1"
     inkscape:groupmode="layer"
     id="layer1"
     transform="translate(-606.42859,-275.93362)">
    <path
       id="path9305"
       style="display:inline;fill:#000000;fill-opacity:1"
       d="m 627.96901,312.63439 3.46189,-3.40663 2.11561,2.276 c 2.95231,3.17621 4.8102,4.53726 6.19365,4.53726 0.93512,0 1.54769,-0.40006 3.60849,-2.35764 2.68957,-2.55481 3.43549,-3.83187 3.07568,-5.26547 -0.12814,-0.51055 -1.66707,-2.38013 -3.46702,-4.21243 l -3.2366,-3.29411 3.05616,-3.09996 c 1.68087,-1.70466 3.23397,-3.44861 3.45133,-3.87486 0.68909,-1.35231 0.0932,-2.77145 -2.11734,-5.04411 -4.04244,-4.15534 -4.62239,-4.13317 -9.1762,0.34798 l -3.48519,3.42948 -3.29891,-3.28638 c -2.87384,-2.86316 -3.47804,-3.31057 -4.68944,-3.47314 -1.36443,-0.18306 -1.44102,-0.13738 -4.07848,2.42919 -2.75977,2.68579 -3.38561,3.89669 -2.86363,5.54122 0.12902,0.40643 1.57844,2.12016 3.22099,3.80803 1.64251,1.68819 2.98729,3.19736 2.98834,3.35389 0,0.15653 -1.434,1.7668 -3.18904,3.57794 -2.88807,2.98071 -3.19099,3.41401 -3.19099,4.56411 0,1.14472 0.27725,1.54813 2.79272,4.06364 2.52763,2.5276 2.91482,2.79262 4.07939,2.79262 1.17956,0 1.57504,-0.2835 4.74859,-3.40663 z m -10.97659,-35.21328 28.8723,0 c 5.02833,0 9.07637,4.04818 9.07637,9.07651 l 0,28.87238 c 0,5.02832 -4.04804,9.07617 -9.07637,9.07617 l -28.8723,0 c -5.02833,0 -9.07637,-4.04785 -9.07637,-9.07617 l 0,-28.87238 c 0,-5.02833 4.04804,-9.07651 9.07637,-9.07651 z"
       inkscape:connector-curvature="0" />
  </g>
</svg>
