<?xml version="1.0" encoding="UTF-8" standalone="no"?>
<!-- Created with Inkscape (http://www.inkscape.org/) -->

<svg
   xmlns:dc="http://purl.org/dc/elements/1.1/"
   xmlns:cc="http://creativecommons.org/ns#"
   xmlns:rdf="http://www.w3.org/1999/02/22-rdf-syntax-ns#"
   xmlns:svg="http://www.w3.org/2000/svg"
   xmlns="http://www.w3.org/2000/svg"
   xmlns:sodipodi="http://sodipodi.sourceforge.net/DTD/sodipodi-0.dtd"
   xmlns:inkscape="http://www.inkscape.org/namespaces/inkscape"
   width="14.111111mm"
   height="14.111111mm"
   viewBox="0 0 49.999998 49.999998"
   id="svg20610"
   version="1.1"
   inkscape:version="0.91 r"
   sodipodi:docname="rocket.svg">
  <defs
     id="defs20612" />
  <sodipodi:namedview
     id="base"
     pagecolor="#ffffff"
     bordercolor="#666666"
     borderopacity="1.0"
     inkscape:pageopacity="0.0"
     inkscape:pageshadow="2"
     inkscape:zoom="11.2"
     inkscape:cx="17.452781"
     inkscape:cy="20.124265"
     inkscape:document-units="px"
     inkscape:current-layer="layer1"
     showgrid="false"
     fit-margin-top="0"
     fit-margin-left="0"
     fit-margin-right="0"
     fit-margin-bottom="0"
     inkscape:window-width="3799"
     inkscape:window-height="2136"
     inkscape:window-x="41"
     inkscape:window-y="24"
     inkscape:window-maximized="1" />
  <metadata
     id="metadata20615">
    <rdf:RDF>
      <cc:Work
         rdf:about="">
        <dc:format>image/svg+xml</dc:format>
        <dc:type
           rdf:resource="http://purl.org/dc/dcmitype/StillImage" />
        <dc:title></dc:title>
      </cc:Work>
    </rdf:RDF>
  </metadata>
  <g
     inkscape:label="Layer 1"
     inkscape:groupmode="layer"
     id="layer1"
     transform="translate(-98.571426,-296.64792)">
    <path
       style="fill:#e43232;fill-opacity:1"
       d="m 123.65263,299.05479 -0.54341,0.6047 c -3.32093,3.6952 -5.3277,8.1506 -5.56834,12.3433 l 1.6898,0 0,-2.2111 2.21121,0 0,2.2111 2.21111,0 0,-2.2111 2.21121,0 0,2.2111 2.21111,0 0,-2.2111 1.40338,0 c -0.69905,-3.5144 -2.54013,-7.0815 -5.26071,-10.1081 z m 4.42269,12.948 0,2.2111 -2.21111,0 0,-2.2111 -2.21121,0 0,2.2111 -2.21111,0 0,-2.2111 -2.21121,0 0,2.2111 -1.69069,0 c 0.0759,2.3953 0.32969,6.0222 0.67583,9.4498 l 0.16506,1.6351 -1.98628,1.9334 c -2.40603,1.8258 -2.48486,4.2133 -1.33528,7.0832 0.10419,0.1044 0.0556,0.1321 2.28549,-1.3155 0.97803,-0.6348 1.81625,-1.1453 1.86266,-1.1342 0.0466,0.012 0.17155,0.083 0.27805,0.1601 0.16374,0.1181 0.25059,0.2878 0.5618,1.0959 0.43241,1.1225 0.51842,1.22 1.22957,1.3937 1.69006,0.4127 4.93551,0.2244 5.47787,-0.3179 0.0855,-0.086 0.30361,-0.5484 0.51487,-1.0925 0.3111,-0.8014 0.39606,-0.9656 0.56264,-1.0862 0.10791,-0.078 0.24614,-0.1467 0.30717,-0.1528 0.064,-0.012 0.89568,0.5034 1.96821,1.2056 1.02151,0.6688 1.92133,1.2423 1.99938,1.2746 0.0781,0.032 0.17097,0.029 0.20654,-0.012 0.8113,-3.6168 0.7827,-5.0091 -1.39122,-7.1607 l -1.99341,-1.971 0.16386,-1.6212 c 0.46017,-4.5557 0.76399,-9.5978 0.68489,-11.3645 -0.005,-0.073 -0.008,-0.1466 -0.0126,-0.2197 z m -8.22124,23.6045 c -0.0204,0 -0.0335,0 -0.0377,0 -0.0602,0.06 -0.11278,1.0978 -0.0793,1.5676 0.15479,2.1725 1.35303,4.5022 3.33429,6.4834 l 0.58286,0.5828 0.59155,-0.5914 c 1.97518,-1.9751 3.17075,-4.3031 3.32549,-6.4748 0.0335,-0.4698 -0.0189,-1.5073 -0.0792,-1.5676 -0.0162,-0.016 -0.17842,0.012 -0.35971,0.051 l -0.32959,0.081 -0.0955,0.4513 c -0.30329,1.4346 -1.11003,2.8726 -2.37045,4.2254 l -0.68328,0.7335 -0.68139,-0.7348 c -1.29064,-1.3924 -2.09183,-2.8324 -2.38585,-4.2882 l -0.0781,-0.3865 -0.33085,-0.081 c -0.13646,-0.034 -0.26202,-0.056 -0.32325,-0.057 z"
       id="path7954-3"
       inkscape:connector-curvature="0"
       sodipodi:nodetypes="cccccccccccccccccccccccccccccccsccscssccsccccccccscsscccscccscccccs"
       inkscape:export-filename="/home/lennart/Desktop/3_friends_v2.png"
       inkscape:export-xdpi="48.771999"
       inkscape:export-ydpi="48.771999" />
  </g>
</svg>
